<svg width="74" height="104" viewBox="0 0 74 104" fill="none" xmlns="http://www.w3.org/2000/svg">
<path d="M40.5227 5.95925C39.311 5.05675 37.226 5.90494 35.8764 6.86176C34.5603 7.7977 32.8973 9.98293 31.7859 11.8506C30.6787 13.7225 29.843 16.1501 29.1536 17.4662C28.46 18.7824 26.889 21.2141 26.6592 22.5261C26.3458 24.2935 26.1411 26.7545 27.4906 27.7949C27.5617 30.0136 27.8374 31.1208 28.0464 32.2991C28.2553 33.4774 28.2762 35.1821 28.0464 36.4565C27.7706 37.9815 26.7302 39.2309 26.0366 40.3381C25.343 41.4453 24.3444 43.4802 24.6661 44.7754L28.7776 43.2044C30.1647 42.6487 31.3263 42.4022 32.2957 41.7086C33.9085 40.71 34.9322 40.3005 35.9893 40.476C36.0603 39.0219 35.8514 34.6055 35.8514 34.6055C34.1884 33.0345 32.8305 29.8673 32.4127 27.9955C31.9948 26.1236 31.7191 24.3228 31.7191 22.5888C33.0352 20.8548 34.3514 18.0846 34.0756 15.3813C36.4322 13.7183 37.5394 12.8868 38.4419 11.7086C39.3444 10.5303 40.0004 9.02193 40.5561 7.84366C42.2525 8.90076 43.9196 9.56093 45.1647 10.1125C46.4099 10.664 47.6968 11.9509 48.3528 13.0916C49.1592 14.4871 49.6689 16.6974 49.74 18.5693C49.811 20.4412 50.1912 21.7573 50.8472 23.4203C50.8472 26.3994 51.0561 28.3339 50.5004 29.8673C49.9405 31.4175 49.3848 32.249 48.5533 33.3562C48.4154 34.1166 48.7372 38.8088 48.7372 38.8088C49.5227 39.1306 50.9099 40.7517 51.6954 41.813C52.7567 42.3228 53.8221 42.7824 54.7915 42.9662L54.382 41.859C55.2135 40.6097 55.6063 38.8172 56.0115 36.6946C56.4294 34.5094 56.3918 31.3214 55.8402 27.8576C56.8806 26.3659 56.8472 22.4843 56.5004 20.4077C56.1536 18.3269 54.733 14.8297 54.0394 13.3047C53.3458 11.7796 51.4739 8.41608 48.7037 6.44393C47.2121 5.38265 42.4614 3.94533 40.5227 5.95925Z" fill="#F7C8C9"/>
<path d="M26.826 27.9502C26.9095 27.9502 26.9931 27.9293 27.0683 27.8833C27.0767 27.8792 27.0809 27.8708 27.0892 27.8624C26.968 29.5045 27.1937 30.9627 27.4277 32.07C27.6491 33.1271 27.7536 34.0379 27.7494 34.8569C27.7494 35.1243 27.9625 35.3416 28.2299 35.3416H28.2341C28.4973 35.3416 28.7146 35.1285 28.7146 34.861C28.7187 33.9711 28.6101 32.9934 28.3719 31.8694C27.9834 30.0184 27.6742 27.5491 28.7563 24.8499C28.8566 24.6034 28.7355 24.3234 28.4889 24.2232C28.2382 24.1229 27.9625 24.2441 27.8622 24.4906C27.507 25.3805 27.294 26.2496 27.1728 27.0853C26.1366 25.1591 26.546 22.4599 27.436 20.6048C28.4221 18.5407 29.663 15.5073 30.5948 12.8791C31.6394 9.94182 33.3441 7.48081 35.3998 5.95157C37.1045 4.68137 38.7257 4.10895 39.436 4.51842C39.6658 4.65212 39.9625 4.57691 40.0962 4.34293C40.2299 4.11312 40.1505 3.81647 39.9207 3.68276C38.3121 2.74683 35.6129 4.58527 34.8232 5.17441C32.6129 6.81647 30.7912 9.43625 29.6839 12.5532C28.7605 15.1521 27.5363 18.1479 26.5628 20.1828C25.5433 22.3137 25.1004 25.4641 26.4082 27.6995C26.5001 27.8624 26.663 27.9502 26.826 27.9502Z" fill="#767D81"/>
<path d="M41.3756 4.44229C42.2113 3.78213 44.9982 3.93254 47.1124 4.75149C48.8631 5.43254 51.3324 7.06625 53.1583 10.9897C53.2419 11.1651 53.4132 11.2696 53.5971 11.2696C53.6639 11.2696 53.7349 11.2571 53.8018 11.2236C54.0441 11.1108 54.1486 10.8225 54.0358 10.5844C52.072 6.36848 49.377 4.59689 47.4633 3.85316C45.228 2.98825 42.0107 2.71249 40.7781 3.68603C40.5692 3.85316 40.5358 4.15399 40.6987 4.36291C40.8659 4.57182 41.1667 4.60525 41.3756 4.44229Z" fill="#767D81"/>
<path d="M24.5203 44.3236C24.5537 44.3319 24.5872 44.3361 24.6206 44.3361C24.842 44.3361 25.0426 44.1815 25.0927 43.9517C25.3894 42.552 26.5301 40.1328 27.537 38.7748C27.9966 38.1564 28.31 37.4795 28.5064 36.7024C28.5691 36.4433 28.4145 36.1801 28.1554 36.1174C27.8963 36.0548 27.6331 36.2094 27.5704 36.4684C27.4075 37.1202 27.1443 37.6843 26.764 38.1982C25.7947 39.5102 24.5119 42.0506 24.1526 43.747C24.0941 44.0102 24.2612 44.2651 24.5203 44.3236Z" fill="#767D81"/>
<path d="M44.9337 21.3442C44.9337 21.9292 45.41 22.4013 45.9908 22.4013C46.5757 22.4013 47.0479 21.925 47.0479 21.3442C47.0479 20.7593 46.5715 20.2871 45.9908 20.2871C45.41 20.283 44.9337 20.7593 44.9337 21.3442Z" fill="#767D81"/>
<path d="M37.1331 21.3481C37.1331 20.7632 36.6568 20.291 36.076 20.291C35.4911 20.291 35.0189 20.7673 35.0189 21.3481C35.0189 21.9331 35.4952 22.4052 36.076 22.4052C36.661 22.4052 37.1331 21.9289 37.1331 21.3481Z" fill="#767D81"/>
<path d="M48.1146 17.3577C48.1522 17.1906 48.0436 17.0234 47.8764 16.9858C46.0672 16.5889 43.8611 16.9817 42.6327 17.9176C42.4948 18.022 42.4698 18.2184 42.5742 18.3563C42.6369 18.4357 42.7288 18.4817 42.8249 18.4817C42.8918 18.4817 42.9586 18.4608 43.0129 18.419C44.1118 17.5833 46.1007 17.2407 47.7469 17.6C47.9099 17.6376 48.077 17.5248 48.1146 17.3577Z" fill="#767D81"/>
<path d="M39.6578 26.9846C39.6871 26.9929 39.7121 26.9971 39.7414 26.9971C39.8793 26.9971 40.0046 26.9052 40.0422 26.7673C40.4057 25.4302 40.5144 24.1851 40.3556 23.1698C40.3263 22.9985 40.1676 22.8815 39.9963 22.9107C39.825 22.9358 39.708 23.0988 39.7372 23.2701C39.8834 24.2018 39.7832 25.355 39.4406 26.6043C39.3946 26.7673 39.4907 26.9386 39.6578 26.9846Z" fill="#767D81"/>
<path d="M36.619 28.9899C36.4435 28.8813 36.2095 28.9356 36.1009 29.1111C35.9923 29.2866 36.0466 29.5205 36.2221 29.6292C36.385 29.7294 36.5647 29.8172 36.7485 29.9008C37.5925 32.0108 39.3558 32.9551 40.7304 32.9551C41.4282 32.9551 43.7889 32.7336 44.9505 29.9049C45.1594 29.8214 45.36 29.7378 45.5354 29.6417C45.7193 29.5456 45.7861 29.3158 45.69 29.132C45.5939 28.9481 45.3641 28.8813 45.1803 28.9774C43.1831 30.0512 38.6705 30.2517 36.619 28.9899ZM40.7388 32.203C39.7611 32.203 38.5326 31.593 37.7597 30.2559C38.6538 30.4941 39.6733 30.6069 40.7054 30.6069C41.846 30.6069 42.9867 30.469 43.9644 30.2225C42.924 32.0442 41.2611 32.203 40.7388 32.203Z" fill="#767D81"/>
<path d="M10.9107 85.9187C9.69068 82.8685 9.80349 79.7473 10.0542 76.2794C10.2756 73.2668 10.4929 64.7473 10.5347 61.6972C10.5807 61.7599 10.6266 61.8267 10.6768 61.8894C11.5124 63.0175 14.2534 65.3866 16.2213 65.8671C16.6224 65.9674 17.0194 66.0092 17.3996 66.0092C18.4358 66.0092 19.355 65.6749 19.9692 65.1819C19.9985 65.654 20.0319 66.2056 20.0653 66.8156C20.2617 70.1457 20.5542 75.1763 20.8091 76.8017C20.9135 77.4785 21.0347 78.1512 21.1559 78.8281C21.6907 81.7905 22.1921 84.59 21.3105 87.239C21.2269 87.4897 21.3648 87.7654 21.6155 87.849C21.6656 87.8657 21.7158 87.8741 21.7701 87.8741C21.9706 87.8741 22.1587 87.7446 22.2297 87.544C23.1907 84.661 22.6392 81.6109 22.1085 78.6568C21.9873 77.9883 21.8662 77.3239 21.7659 76.6554C21.5194 75.076 21.2269 70.0746 21.0347 66.7613C20.972 65.7167 20.9219 64.8351 20.8843 64.2585C20.8759 64.1498 20.8258 64.0579 20.7631 63.9827C20.9135 63.239 20.6002 62.512 20.1573 62.1443C19.9943 62.0106 19.7603 62.0273 19.6099 62.1693C19.6308 61.6596 19.1837 61.1624 18.6781 60.8657C18.5946 60.8156 18.4985 60.8072 18.4107 60.8198C18.394 60.122 18.3815 58.9354 18.3815 56.9381C18.3815 56.0231 18.5695 55.388 19.0082 54.8072C19.3968 54.2975 19.6642 53.42 19.8355 52.1081C20.4121 53.303 21.1642 55.1624 21.4609 57.2515C21.4901 57.4604 21.6698 57.6108 21.8745 57.6108C21.8954 57.6108 21.9121 57.6108 21.933 57.6067C22.1628 57.5732 22.3216 57.3643 22.2882 57.1345C21.9748 54.9409 21.1893 52.9897 20.5876 51.7445C20.4873 51.5356 20.2366 51.4479 20.0277 51.5482C19.9692 51.5774 19.9233 51.6192 19.8857 51.6693C19.9233 51.3016 19.9567 50.9172 19.9859 50.4911C20.0277 49.7682 20.0194 48.9952 19.9692 48.3016C20.1656 48.1847 20.3202 48.0008 20.4623 47.8295L20.5249 47.7501C20.5793 47.6874 20.8509 47.3615 21.1517 46.973C21.1559 46.973 21.16 46.973 21.1642 46.973C21.2269 46.973 21.2896 46.9604 21.3481 46.9354C23.7004 45.9535 25.5013 45.1763 26.6963 44.6248C26.9386 44.512 27.0431 44.2278 26.9302 43.9855C26.8174 43.7431 26.5333 43.6387 26.291 43.7515C25.2924 44.2111 23.8592 44.8379 22.0291 45.6067C22.2631 44.8629 21.8077 43.9521 21.1726 43.4632C20.9595 43.3003 20.7589 43.2042 20.5667 43.1457C20.5876 42.5983 20.5249 41.8253 19.8063 41.3615C19.4929 41.161 19.167 41.0816 18.8453 41.0732C18.8495 40.9354 18.8536 40.7849 18.8536 40.6387C18.8536 39.9242 18.1559 39.0133 17.2575 38.9089C16.8564 38.8629 16.4678 38.8713 16.1002 38.934C16.0249 38.7459 15.9038 38.4869 15.7158 38.1693C15.4859 37.7891 15.0514 37.5259 14.5249 37.4548C13.8982 37.3671 13.2506 37.5551 12.8327 37.9437C12.5277 38.232 11.5542 39.076 10.6183 39.895C9.69904 40.6972 8.82995 41.4535 8.4748 41.7794C7.36338 42.7989 7.78121 44.0565 7.91909 44.4702C8.17397 45.239 9.02633 47.5454 9.44834 48.5106C9.84945 49.4298 10.5681 52.6471 10.6851 53.5872C10.7687 54.264 10.7603 56.5955 10.752 58.0496C10.6684 58.0621 10.589 58.0955 10.5263 58.1582C10.3258 58.3588 10.2297 58.622 10.2422 58.9103C10.0458 58.856 9.83692 58.9395 9.74918 59.1276C9.53608 59.583 9.5904 60.0384 9.79514 60.5189C9.66143 60.6067 9.56951 60.7487 9.56951 60.9159C9.56951 62.8086 9.33135 72.8992 9.08483 76.2292C8.8216 79.8184 8.70878 83.0565 10.0082 86.2989C10.0834 86.4869 10.2631 86.6039 10.4553 86.6039C10.5138 86.6039 10.5765 86.5914 10.635 86.5705C10.8898 86.4493 11.0068 86.1652 10.9107 85.9187ZM16.4177 65.0565C14.7255 64.6429 12.1183 62.4326 11.3453 61.3922C10.6224 60.4186 10.3843 59.9256 10.4762 59.5705C10.6684 59.888 10.9776 60.2097 11.3871 60.5106C12.7951 61.5342 15.9623 62.8964 17.7756 63.051C17.9177 63.0635 18.0472 63.0677 18.1642 63.0677C18.3898 63.0677 18.5779 63.0468 18.7408 63.0133C18.7283 63.6108 18.7116 64.2251 18.6865 64.6721C18.6823 64.7724 18.7158 64.8602 18.7701 64.9354C18.1266 65.1819 17.2868 65.2696 16.4177 65.0565ZM19.869 64.037C19.7979 64.1958 19.6851 64.3462 19.5305 64.4799C19.5514 64.0454 19.5639 63.5189 19.5765 63.0008C19.5765 62.9131 19.5807 62.8295 19.5807 62.7418C19.5932 62.7543 19.6015 62.771 19.6141 62.7835C19.8606 62.9883 20.1029 63.5106 19.869 64.037ZM10.3383 48.1053C9.92466 47.1652 9.09319 44.9047 8.83831 44.1484C8.58344 43.3838 8.667 42.8991 9.13079 42.4771C9.47759 42.1596 10.3801 41.3699 11.2575 40.6094C12.2436 39.7487 13.1795 38.934 13.4971 38.6373C13.706 38.4451 14.057 38.349 14.3954 38.3991C14.6294 38.4326 14.8174 38.5287 14.8926 38.654C15.0305 38.8838 15.1183 39.0677 15.1809 39.2097C15.0514 39.2724 14.9261 39.3392 14.8049 39.4145C14.3202 39.7278 13.472 40.1916 12.791 40.5677C12.5361 40.7097 12.3021 40.8351 12.1266 40.9353C11.7631 41.1401 11.3912 41.2821 11.0612 41.4117C10.8355 41.4994 10.6391 41.5746 10.4804 41.6582C10.2464 41.7835 10.1545 42.0718 10.2756 42.31C10.3634 42.473 10.5305 42.5691 10.7018 42.5691C10.777 42.5691 10.8522 42.5523 10.9274 42.5147C11.0361 42.4562 11.2074 42.3936 11.408 42.3142C11.7506 42.1805 12.1726 42.0175 12.5988 41.7794C12.7742 41.6791 12.9999 41.5579 13.2547 41.4159C13.9483 41.0356 14.8174 40.5593 15.3314 40.2292C15.8369 39.9033 16.4511 39.778 17.1531 39.8574C17.6002 39.9117 17.8968 40.434 17.8968 40.6303C17.8968 40.8351 17.8885 41.0482 17.8801 41.2195C17.7882 41.2487 17.7004 41.278 17.6127 41.3072C17.2868 41.4242 16.9191 41.5412 16.5305 41.6624C16.2464 41.7543 15.9497 41.8462 15.6447 41.9507C15.369 42.0426 15.0723 42.0844 14.7547 42.1262C14.2993 42.1888 13.823 42.2557 13.3634 42.4771C13.1252 42.5941 13.0249 42.8824 13.1378 43.1206C13.2547 43.3587 13.543 43.459 13.7812 43.3462C14.1029 43.1916 14.4832 43.1373 14.8843 43.083C15.2311 43.037 15.5862 42.9869 15.9456 42.8657C16.2464 42.7654 16.5389 42.6735 16.8188 42.5858C17.2199 42.4562 17.6002 42.3392 17.9344 42.2181C18.4859 42.0217 18.9247 41.9381 19.2882 42.1679C19.5514 42.3351 19.6141 42.6317 19.6057 43.0913C19.5765 43.0955 19.5472 43.0997 19.518 43.1039L19.3759 43.1206C18.8077 43.1874 16.5222 43.3838 15.8077 43.3587C15.5403 43.3504 15.3188 43.5635 15.3105 43.8267C15.3021 44.0941 15.5152 44.3156 15.7784 44.3239C16.5932 44.3448 18.9623 44.1401 19.4804 44.0774L19.635 44.0607C20.057 44.0064 20.2701 43.9813 20.5834 44.2236C21.0263 44.5663 21.2227 45.1303 21.089 45.3685C20.8634 45.7696 20.2784 46.5301 19.8146 47.0858C19.7729 46.8727 19.7311 46.6888 19.6809 46.5426C19.8314 46.4465 19.9609 46.3337 20.057 46.2083C20.2575 45.9409 20.3286 45.6108 20.2575 45.2515C20.2241 45.0802 20.0612 44.9716 19.8898 45.0008C19.7185 45.0342 19.6099 45.1972 19.6392 45.3685C19.6726 45.5565 19.6475 45.7069 19.5514 45.8323C19.472 45.9367 19.3258 46.0537 19.05 46.1582C19.0333 46.1624 19.0166 46.1624 18.9999 46.1665C18.9915 46.1707 18.9832 46.1791 18.9748 46.1833C18.7534 46.2585 18.4609 46.3211 18.0681 46.3587C17.8968 46.3755 17.7715 46.5301 17.7882 46.7014C17.8049 46.8643 17.9386 46.9855 18.1015 46.9855C18.1099 46.9855 18.1224 46.9855 18.1308 46.9855C18.369 46.9646 18.582 46.9312 18.7784 46.8894C18.8453 47.0941 18.9038 47.4242 18.9497 47.8337C18.933 47.9214 18.9456 48.005 18.9748 48.0802C19.0375 48.7696 19.0625 49.622 19.0124 50.4284C18.862 52.9145 18.5068 53.8629 18.2311 54.2223C17.4999 55.1833 17.4038 56.1777 17.4038 56.9381C17.4038 59.6039 17.4247 61.2167 17.4664 61.7306C17.4873 61.9813 17.6963 62.1735 17.9469 62.1735C17.9595 62.1735 17.972 62.1735 17.9846 62.1735C18.2269 62.1526 18.4066 61.9562 18.4191 61.7181C18.6573 61.9061 18.7617 62.0858 18.7659 62.1276C18.7659 62.1276 18.6071 62.2947 17.8425 62.2278C16.2004 62.0899 13.1879 60.7989 11.8717 59.842C11.7589 59.7585 11.6586 59.6791 11.5709 59.5997C11.6503 59.512 11.7046 59.3991 11.7046 59.2738C11.7046 59.115 11.7088 58.856 11.7088 58.5217C11.7213 57.0384 11.7422 54.2766 11.6378 53.4576C11.5166 52.4131 10.7854 49.1248 10.3383 48.1053Z" fill="#767D81"/>
<path d="M71.8424 85.6853C71.8716 85.6895 71.9009 85.6937 71.9259 85.6937C72.1557 85.6937 72.3605 85.5307 72.4023 85.2967C72.8828 82.5725 72.2477 80.2452 71.7379 78.3733L71.6627 78.1017C71.4872 77.4583 71.2992 76.8357 71.1112 76.2341C70.7351 75.0056 70.3466 73.7355 70.0541 72.1644C69.9413 71.5711 69.7532 70.4722 69.4399 68.6003C69.3939 68.3371 69.1474 68.1616 68.8842 68.2034C68.6209 68.2494 68.4454 68.4959 68.4872 68.7591C68.8006 70.6352 68.9928 71.7382 69.1056 72.3399C69.4106 73.9653 69.8034 75.2647 70.1878 76.514C70.38 77.1366 70.5597 77.7257 70.7268 78.3524L70.802 78.624C71.3117 80.4959 71.8883 82.6143 71.4454 85.1254C71.4078 85.3887 71.5833 85.6394 71.8424 85.6853Z" fill="#767D81"/>
<path d="M73.5554 76.6723C73.802 75.26 74.0401 70.7015 73.9942 66.7196C73.9524 63.1346 73.7476 58.7182 73.5304 56.6709C73.2839 54.3645 72.9663 52.4174 72.6822 51.4564C72.302 50.1778 71.6669 49.455 71.1989 49.2043C70.9649 49.0789 70.6724 49.1667 70.5471 49.4007C70.4217 49.6346 70.5095 49.9271 70.7435 50.0525C70.99 50.1862 71.4621 50.7419 71.7588 51.728C72.0262 52.6221 72.3354 54.5566 72.5735 56.7711C72.7866 58.7934 72.9914 63.1681 73.0332 66.7321C73.0791 70.6012 72.841 75.1639 72.6111 76.5051C72.3563 77.9592 72.2936 79.1709 72.7449 80.721C73.1585 82.1458 73.0457 84.1472 72.4482 85.9438C72.0638 87.0929 71.6585 87.962 71.2657 88.8018C70.9816 89.4118 70.71 89.9842 70.4552 90.6486C69.8869 92.1235 67.7226 93.9076 66.444 94.572C65.7797 94.9188 64.0708 95.5748 62.4997 94.2127C61.217 93.0971 58.9858 89.7336 58.2713 86.7879C57.8368 84.9954 57.6529 82.6012 57.49 80.4912C57.3855 79.1207 57.2936 77.9383 57.1474 77.0859C56.8298 75.2182 55.3716 67.923 54.7532 65.0065C55.029 65.0984 55.3549 65.1569 55.756 65.1569C55.8061 65.1569 55.8563 65.1569 55.9064 65.1528C57.8577 65.0859 60.6195 63.7781 61.4175 63.3812C63.4064 62.3867 65.7045 60.8826 65.9593 60.7113C66.3187 60.4731 66.6905 60.1597 66.9997 59.8004C67.2421 61.2043 67.6097 63.3979 67.9649 65.5413C68.0025 65.7795 68.2072 65.9466 68.4412 65.9466C68.4663 65.9466 68.4955 65.9424 68.5206 65.9383C68.7838 65.8965 68.9593 65.6458 68.9175 65.3826C68.3911 62.2238 67.8437 58.9522 67.6933 58.2294C67.6933 58.221 67.685 58.2168 67.685 58.2085C67.6766 58.175 67.6599 58.1458 67.6432 58.1124C67.6306 58.0915 67.6265 58.0664 67.6139 58.0497C67.6139 58.0037 67.6181 57.9661 67.6139 57.9202C67.593 57.6904 67.3883 57.5274 67.1585 57.5399C67.1501 57.5399 67.146 57.5441 67.1376 57.5483C67.4928 55.6555 68.8591 52.0037 69.4774 50.9842C69.5986 50.7878 69.5318 50.5288 69.3354 50.4118C69.139 50.2906 68.8799 50.3533 68.763 50.5539C68.1153 51.6193 66.7616 55.221 66.3479 57.2642C66.256 56.6667 66.1641 56.0441 66.1056 55.6096C66.0011 54.8491 66.0638 54.3895 66.2142 53.5873C66.2643 53.3199 66.4273 52.6514 66.6153 51.8742C66.9872 50.3449 67.4468 48.4438 67.5513 47.6249C67.5638 47.533 67.5638 47.4494 67.568 47.3617C68.2281 47.6124 68.8047 47.955 69.1139 48.2934C69.21 48.3979 69.3396 48.448 69.4691 48.448C69.5861 48.448 69.7031 48.4062 69.795 48.3185C69.9914 48.1388 70.0039 47.8338 69.8201 47.6374C69.2351 47.0023 68.3159 46.6054 67.8187 46.4257C67.7142 46.3881 67.6056 46.3965 67.5053 46.4299C67.3591 45.7697 67.0206 45.331 66.6947 45.0051C66.2936 44.604 66.2727 44.5455 66.1891 44.3282C66.1432 44.2112 66.0889 44.0065 66.022 43.7683C65.9217 43.4048 65.7964 42.9536 65.6543 42.5817C65.3869 41.8714 64.5847 41.228 63.561 40.902C62.6836 40.6221 62.0861 40.4759 61.0123 40.9605C60.937 40.994 60.8827 41.0483 60.8368 41.111C60.3897 40.8853 59.8047 40.7307 59.0359 41.0149C58.3089 41.2864 57.8953 41.9884 57.8911 42.5441C57.5025 42.4689 57.022 42.5734 56.5791 42.8408C56.4496 42.9202 56.3326 43.0037 56.2281 43.0956C55.9273 42.9745 55.5805 42.8449 55.2086 42.7154C55.2045 42.6695 55.1961 42.6193 55.1752 42.5734C55.0749 42.3477 54.9872 42.1263 54.8953 41.9048C55.0666 41.8839 55.2212 41.7795 55.288 41.6082C56.1655 39.3895 56.6961 36.4146 56.788 33.2307C56.8423 31.4215 56.6501 29.5998 56.1947 27.5859C56.249 27.636 56.3075 27.6778 56.3827 27.7029C56.4287 27.7154 56.4746 27.7238 56.5206 27.7238C56.7295 27.7238 56.9217 27.5901 56.9844 27.3811C57.5276 25.572 57.5025 23.8087 57.4106 21.6945C57.3396 20.0316 56.3785 16.4508 55.1292 13.1875C55.0331 12.9369 54.7532 12.8157 54.5067 12.9076C54.256 13.0037 54.1348 13.2836 54.2309 13.5302C55.451 16.7098 56.3827 20.1611 56.4496 21.7363C56.5331 23.746 56.5624 25.4132 56.0735 27.0678C55.8437 26.1235 55.5596 25.1416 55.2128 24.0928C55.1292 23.8421 54.8535 23.7043 54.6028 23.7878C54.3479 23.8714 54.2142 24.1472 54.2978 24.3979C55.4343 27.8073 55.9064 30.5232 55.827 33.2015C55.7435 36.1263 55.2755 38.8463 54.5109 40.9271C53.6084 38.5204 53.1738 36.3268 53.1738 34.1291C53.1738 33.8617 52.9565 33.6486 52.6891 33.6486C52.4217 33.6486 52.2045 33.8658 52.2045 34.1291C52.2045 36.753 52.7894 39.3686 54.0136 42.2934C53.3953 42.0761 52.7894 41.8547 52.3006 41.6332C52.1627 41.4243 51.9621 41.228 51.7281 40.9898C51.2643 40.526 50.6292 39.8909 49.9565 38.7168C49.8228 38.487 49.5304 38.4034 49.2964 38.5371C49.2379 38.5706 49.1919 38.6124 49.1543 38.6625C49.1251 38.3282 49.1042 38.0107 49.0833 37.7098C48.9997 36.5149 48.9872 35.5539 48.9746 34.7098C48.9663 34.2628 48.9621 33.8617 48.9454 33.4981C48.9454 33.4773 48.9329 33.4605 48.9287 33.4396C50.015 32.0232 50.7462 30.3979 50.9844 28.7474C51.1599 27.5316 51.1891 25.8728 51.1933 24.6694C51.6863 25.3798 52.3047 26.1235 53.0944 26.8881C53.1863 26.98 53.3075 27.0218 53.4287 27.0218C53.554 27.0218 53.6794 26.9717 53.7755 26.8756C53.9593 26.6834 53.9551 26.3784 53.7629 26.1945C51.1515 23.675 50.4997 21.3644 50.3451 20.2112C50.3075 19.9187 50.2657 19.5803 50.224 19.2084C50.0234 17.4954 49.7476 15.1472 49.0707 13.6179C48.1641 11.5831 46.2086 10.1249 44.6794 9.43964L44.1028 9.18476C42.8242 8.62069 41.6167 8.08588 40.6473 7.19172C40.451 7.01206 40.146 7.02459 39.9663 7.21679C39.7866 7.41317 39.795 7.71819 39.9914 7.89785C41.0777 8.90482 42.3604 9.46888 43.7142 10.0664L44.2866 10.3213C45.6529 10.9355 47.3953 12.2265 48.1891 14.0148C48.8117 15.4104 49.0749 17.675 49.2671 19.3254C49.3131 19.7015 49.3507 20.0483 49.3925 20.3449C49.4844 21.026 49.7309 22.0664 50.3618 23.2948C50.2824 23.3825 50.2281 23.4954 50.2281 23.6207V23.9383C50.2323 25.0747 50.2365 27.1931 50.0276 28.6096C49.7142 30.7572 48.4941 32.8798 46.6724 34.4341C44.9092 35.9424 43.3089 36.6736 41.7797 36.6736C39.912 36.6736 38.1153 35.9048 36.5861 34.4508C34.7894 32.7419 33.7031 30.3853 33.2142 29.1277C32.6 27.5483 32.3493 23.9675 32.2866 22.9062C32.2783 22.7892 32.2239 22.6848 32.1487 22.6054C33.373 21.0511 34.0749 19.2669 34.3925 17.6625C35.6668 17.6458 36.8744 17.8672 37.756 18.2934C37.7978 18.3143 37.8479 18.3226 37.8897 18.3226C38.0067 18.3226 38.1195 18.2558 38.1738 18.1472C38.249 17.9926 38.1822 17.8045 38.0276 17.7293C37.0875 17.2781 35.8298 17.0316 34.4969 17.0357C34.5387 16.7265 34.568 16.4299 34.5847 16.1416C34.5972 15.9327 34.4677 15.7488 34.2838 15.6736C38.437 13.0789 39.9412 10.6472 40.476 9.32682C40.5763 9.0803 40.4551 8.80036 40.2086 8.70008C39.9621 8.5998 39.6822 8.72097 39.5819 8.96749C39.0095 10.3797 37.2128 13.1792 31.6056 16.0747C31.3674 16.1959 31.2755 16.4884 31.3966 16.7265C31.4844 16.8937 31.6515 16.9898 31.827 16.9898C31.9022 16.9898 31.9774 16.9731 32.0485 16.9355C32.6125 16.643 33.1265 16.3547 33.6195 16.0664C33.6195 16.0747 33.6153 16.0831 33.6153 16.0914C33.4983 18.4271 32.3953 21.6527 29.6543 23.7043C29.4412 23.863 29.3994 24.1681 29.5582 24.3811C29.6543 24.5065 29.7964 24.5733 29.9426 24.5733C30.0429 24.5733 30.1432 24.5399 30.2309 24.4772C30.6362 24.1722 31.0081 23.8463 31.3465 23.4995C31.4593 25.1082 31.7267 27.9995 32.3033 29.4786C32.7629 30.6611 33.7323 32.7753 35.3033 34.5218C35.2992 34.5594 35.2908 34.5929 35.295 34.6305C35.5331 36.519 35.6167 37.6513 35.6167 39.1221C35.6167 39.4981 35.6042 39.87 35.5875 40.2461C35.3869 40.0873 35.0986 40.1124 34.9273 40.3046C33.139 42.3519 32.5081 45.1597 31.9482 47.6332C31.8897 47.8965 31.8312 48.1597 31.7685 48.4146C31.3841 50.0734 31.054 52.5887 30.9245 54.8282L30.8451 56.2029C30.6905 58.8352 30.5568 61.1124 30.5568 64.2837C30.5568 67.6639 31.1125 71.7085 32.2114 76.2962C33.1139 80.0608 35.178 86.0859 36.6655 89.838L36.8451 90.2893C37.6766 92.3867 38.3953 94.1959 38.6501 96.2725C38.8549 97.9606 39.2017 101.93 39.1306 103.497C39.1181 103.764 39.327 103.99 39.5902 103.998C39.5986 103.998 39.6028 103.998 39.6111 103.998C39.866 103.998 40.0833 103.798 40.0916 103.539C40.1668 101.784 39.7783 97.6054 39.6028 96.1597C39.3354 93.9578 38.5958 92.0943 37.7393 89.9341L37.5596 89.4828C36.0847 85.76 34.0373 79.7934 33.1473 76.0706C32.0693 71.5539 31.5178 67.5887 31.5178 64.2837C31.5178 61.1416 31.6515 58.877 31.8061 56.2614L31.8855 54.8867C32.0109 52.6973 32.3326 50.2447 32.7044 48.636C32.7629 48.377 32.8256 48.1137 32.8841 47.8505C33.4022 45.5525 33.9914 42.9619 35.5164 41.1068C35.4579 41.7293 35.3702 42.3812 35.249 43.1124C35.2031 43.3756 35.3827 43.6221 35.646 43.6681C35.671 43.6722 35.7003 43.6764 35.7253 43.6764C35.9551 43.6764 36.1599 43.5093 36.2017 43.2711C36.4607 41.7085 36.5777 40.4299 36.5777 39.1263C36.5777 37.9062 36.5234 36.9118 36.373 35.5622C37.9858 36.9202 39.8368 37.643 41.7671 37.643C43.5345 37.643 45.3395 36.8366 47.2866 35.1695C47.529 34.9605 47.7629 34.7433 47.9886 34.5176C47.9886 34.5887 47.9928 34.6555 47.9928 34.7266C48.0053 35.5455 48.022 36.5608 48.1056 37.7809C48.1933 39.0511 48.3019 40.6305 48.8535 42.4271C48.9162 42.636 49.1084 42.7697 49.3131 42.7697C49.359 42.7697 49.4092 42.7614 49.4551 42.7488C49.71 42.6695 49.8521 42.4021 49.7769 42.1472C49.4719 41.1569 49.3131 40.2293 49.217 39.3853C49.9148 40.5553 50.5833 41.228 51.0345 41.6792C51.2602 41.9048 51.4524 42.097 51.5192 42.2307C51.5694 42.3268 51.6487 42.4062 51.7448 42.4522C52.451 42.7823 53.3744 43.104 54.2685 43.4174C54.795 43.6012 55.2922 43.7725 55.7058 43.9355C55.6891 43.994 55.6641 44.0483 55.6557 44.111C55.6432 44.1695 55.6306 44.1945 55.6306 44.1987C55.6181 44.2029 55.5596 44.2321 55.3298 44.228C54.7323 44.2154 54.1975 44.5873 53.7588 45.3352C53.3702 45.9954 53.3785 46.6012 53.3869 47.3073C53.3869 47.4202 53.3911 47.5371 53.3911 47.6583C53.3911 48.4313 53.4746 48.9327 53.905 49.3881C54.0011 50.3575 54.2226 51.4814 54.4774 52.3004C54.7616 53.2112 55.6474 54.3853 56.2365 55.1625L56.3744 55.3463C56.8549 55.9856 57.1975 57.3519 57.3228 57.8658C57.3772 58.0915 57.4231 58.3798 57.4565 58.7182C57.4524 58.7182 57.4524 58.7182 57.4482 58.7182C56.6125 58.9313 55.2086 59.4076 55.2212 60.2015C55.2212 60.2266 55.2295 60.2433 55.2337 60.2642C55.2253 60.3143 55.2212 60.3645 55.2337 60.4188C55.2629 60.5734 55.3173 60.8575 55.3799 61.2085C55.288 61.2043 55.1961 61.2168 55.1125 61.267C54.3479 61.7182 53.3368 62.4285 53.4287 63.3853C53.4412 63.5107 53.4747 63.7196 53.5666 63.9494C53.5499 64.0246 53.5415 64.0998 53.5582 64.1792C53.8716 65.4703 55.8061 75.0887 56.178 77.2739C56.3159 78.0803 56.4078 79.3004 56.5081 80.5915C56.6752 82.7391 56.859 85.175 57.3145 87.0427C58.0373 90.0177 60.2852 93.6068 61.8479 94.9647C62.6501 95.6625 63.6111 96.0177 64.6139 96.026C64.7142 97.3965 65.0359 100.823 65.4997 103.543C65.5415 103.777 65.7462 103.944 65.976 103.944C66.0011 103.944 66.0304 103.94 66.0596 103.936C66.3228 103.89 66.4983 103.643 66.4524 103.38C65.9886 100.668 65.671 97.2377 65.5749 95.9174C66.0095 95.8255 66.444 95.675 66.8702 95.4536C68.3201 94.6973 70.6766 92.7377 71.3368 91.0205C71.5791 90.3895 71.8423 89.8297 72.1181 89.2363C72.5234 88.3714 72.9412 87.4773 73.3423 86.2739C74.0109 84.2684 74.1237 82.104 73.6515 80.4745C73.263 79.0789 73.3256 77.9884 73.5554 76.6723ZM60.9747 62.5204C59.7379 63.1388 58.1209 63.7948 56.8047 64.0622C56.6376 63.3812 56.3702 61.9438 56.2072 61.0539C56.2072 61.0497 56.2072 61.0497 56.2072 61.0455C56.2866 61.0664 56.3577 61.0831 56.4078 61.0915C57.1348 61.2461 58.0373 61.3213 58.9816 61.3213C60.4315 61.3213 61.9691 61.1416 63.0847 60.8115C63.795 60.5984 64.4175 60.3979 64.944 60.2182C63.9287 60.87 62.3159 61.8519 60.9747 62.5204ZM66.5986 58.3255C66.6153 58.3255 66.632 58.3296 66.6488 58.3296C66.678 58.3296 66.6989 58.3213 66.7281 58.3171V58.3213C66.6905 58.4007 66.6362 58.48 66.5568 58.5553C66.5401 58.4759 66.5276 58.3881 66.5109 58.2962C66.5359 58.3046 66.5652 58.3213 66.5986 58.3255ZM57.1014 54.7865L56.9635 54.6026C56.4496 53.9215 55.5847 52.7767 55.3465 52.0163C55.0582 51.097 54.8618 49.9021 54.795 49.1249C54.7866 49.0121 54.7323 48.9034 54.6446 48.8282C54.4064 48.611 54.3019 48.4355 54.3019 47.6458C54.3019 47.5204 54.302 47.3993 54.2978 47.2823C54.2894 46.6472 54.2811 46.2252 54.5443 45.7864C54.724 45.4814 54.9914 45.1346 55.3131 45.1263C55.6056 45.1346 56.3827 45.1472 56.5499 44.2739C56.5958 44.0232 56.6961 43.8268 57.0429 43.6179C57.3813 43.4132 57.6446 43.4132 57.7323 43.4424C57.8535 43.4842 58.217 43.597 58.5178 43.3672C58.8312 43.1249 58.8019 42.7029 58.7936 42.565C58.7852 42.4271 58.9356 42.0218 59.3451 41.8714C59.8674 41.675 60.2184 41.7878 60.6111 42.0302C61.0457 42.2976 61.2003 42.448 61.3549 42.6695C61.5011 42.8742 61.7852 42.9202 61.99 42.7739C62.1947 42.6277 62.2407 42.3436 62.0944 42.1388C61.9733 41.9717 61.8521 41.8254 61.6724 41.6709C62.249 41.4661 62.5833 41.5497 63.2769 41.7711C64.0206 42.0093 64.6306 42.4647 64.7978 42.9034C64.9231 43.2419 65.0443 43.6681 65.1404 44.0149C65.2156 44.2906 65.2783 44.5079 65.3326 44.6541C65.4747 45.0344 65.5958 45.2015 66.0471 45.6527C66.4273 46.033 66.7657 46.526 66.6404 47.5204C66.5443 48.2851 66.0721 50.2405 65.7253 51.6695C65.5248 52.4884 65.3702 53.136 65.3159 53.4285C65.1613 54.2307 65.0735 54.8241 65.1989 55.7433C65.3075 56.5372 65.5373 58.0915 65.7003 58.8895C65.7128 58.9438 65.7337 58.994 65.7588 59.0399C65.1655 59.2906 64.1376 59.6416 62.8549 60.026C61.6933 60.377 59.9719 60.5399 58.4593 60.494C58.4552 59.228 58.3758 58.267 58.217 57.6444C57.9705 56.675 57.6279 55.4842 57.1014 54.7865ZM57.5192 59.5539C57.5318 59.8213 57.5359 60.1138 57.5401 60.4188C57.1975 60.3853 56.8716 60.3394 56.5833 60.2767C56.3577 60.2266 56.2198 60.1806 56.1362 60.1388C56.3159 60.0009 56.7588 59.7628 57.5192 59.5539ZM55.5554 62.1152C55.6975 62.8672 55.8521 63.6695 55.9733 64.1834C55.9357 64.1876 55.898 64.1917 55.8604 64.1959C54.4733 64.2419 54.4148 63.519 54.3939 63.2809C54.3855 63.1722 54.444 62.7837 55.5554 62.1152Z" fill="#767D81"/>
<path d="M24.9218 95.2197C24.6544 95.203 24.4288 95.4077 24.4121 95.671C24.2032 99.0554 23.9358 102.072 23.7853 103.305C23.7519 103.568 23.9399 103.81 24.2032 103.844C24.2241 103.848 24.245 103.848 24.2617 103.848C24.4998 103.848 24.7087 103.668 24.738 103.426C24.8926 102.181 25.16 99.1389 25.3731 95.7336C25.3898 95.4662 25.1851 95.2364 24.9218 95.2197Z" fill="#767D81"/>
<path d="M24.3105 77.9928C23.9762 76.1669 23.6294 74.2741 23.3369 72.5694C22.6266 68.4203 23.0904 64.405 23.5835 60.9663C23.6211 60.7031 23.4372 60.4565 23.174 60.4189C22.9066 60.3813 22.6642 60.5652 22.6266 60.8284C22.1252 64.3382 21.6531 68.4412 22.3885 72.7323C22.681 74.4454 23.0278 76.3382 23.3662 78.1683C23.8634 80.8758 24.3314 83.4329 24.5695 85.0791C24.5821 85.1669 24.5946 85.263 24.603 85.3632C24.3773 85.2295 24.0849 85.3006 23.947 85.5262C23.7255 85.8939 23.4874 86.3075 23.2367 86.7504C22.2339 88.522 20.9846 90.7323 19.3258 91.8354C17.1447 93.2894 15.1559 92.1237 14.1656 91.3006C13.1085 90.4189 12.5277 89.6084 11.7757 87.9621C11.6628 87.7198 11.3787 87.6153 11.1364 87.724C10.894 87.8368 10.7896 88.1209 10.8982 88.3632C11.7088 90.139 12.3815 91.0666 13.5514 92.0443C14.7046 93.0053 15.9456 93.4942 17.1656 93.4942C18.0932 93.4942 19.0083 93.21 19.8648 92.6418C21.7158 91.4092 23.0278 89.0903 24.0807 87.2267C24.2854 86.8632 24.4818 86.5248 24.6656 86.2114C24.7408 87.7323 24.7032 90.093 24.5528 93.1724C24.5403 93.4398 24.745 93.6655 25.0124 93.678C25.0208 93.678 25.0291 93.678 25.0375 93.678C25.2924 93.678 25.5055 93.4775 25.518 93.2184C25.6559 90.3939 25.7687 86.6627 25.5264 84.9454C25.2798 83.2783 24.8077 80.7128 24.3105 77.9928Z" fill="#767D81"/>
<path d="M37.6736 88.7511C37.6904 88.7511 37.7071 88.7553 37.7238 88.7553C37.9661 88.7553 38.1792 88.5714 38.2043 88.3208C38.4466 85.96 39.2238 81.9948 40.5776 76.1912C40.9954 74.3987 41.4759 72.5979 42.0483 70.6843C42.1235 70.4294 41.9815 70.162 41.7224 70.0826C41.4675 70.0074 41.2001 70.1494 41.1207 70.4085C40.5441 72.3388 40.0553 74.1606 39.6333 75.9739C38.2711 81.8152 37.4898 85.8221 37.2433 88.2246C37.2182 88.4879 37.4104 88.726 37.6736 88.7511Z" fill="#767D81"/>
<path d="M42.173 67.0715C42.0894 67.3263 42.2273 67.5979 42.4822 67.6815C42.5323 67.6982 42.5824 67.7065 42.6326 67.7065C42.8373 67.7065 43.0253 67.577 43.0922 67.3765C43.6813 65.5882 44.3039 63.804 44.8429 62.2748C45.3986 60.687 46.2677 58.2929 47.1827 55.7609C48.7663 51.382 50.5629 46.4224 51.6493 43.201C51.737 42.9503 51.5992 42.6745 51.3485 42.5909C51.0936 42.5032 50.822 42.6411 50.7384 42.8918C49.6563 46.1007 47.8596 51.0561 46.2802 55.4308C45.361 57.967 44.4961 60.3653 43.9362 61.9531C43.3888 63.4865 42.7663 65.2748 42.173 67.0715Z" fill="#767D81"/>
<path d="M29.446 78.9451C28.1549 76.2835 26.5212 70.9228 25.8819 67.2417C25.2259 63.4813 24.783 57.2724 25.6479 51.9952C26.329 51.8323 27.5031 51.7027 28.4724 51.5983C29.0699 51.5314 29.5839 51.4771 29.9223 51.4186C30.1354 51.3852 30.2984 51.2097 30.3234 50.9966C30.3485 50.7835 30.2273 50.5788 30.0309 50.4952C29.1869 50.1442 27.8791 49.7389 26.7677 49.4256C27.595 47.9423 28.6229 46.3002 29.9014 44.42C30.0518 44.1986 29.9933 43.8977 29.7719 43.7515C29.5504 43.6011 29.2496 43.6596 29.1034 43.881C27.6535 46.0161 26.517 47.8545 25.627 49.505C25.556 49.6345 25.5518 49.7891 25.6103 49.927C25.6688 50.0607 25.7858 50.1651 25.9279 50.2027C26.4711 50.349 27.102 50.5245 27.7162 50.7167C26.6841 50.8337 25.6438 50.9715 25.0755 51.1596C24.9084 51.2139 24.783 51.3601 24.7538 51.5356C23.8053 56.9924 24.2273 63.3142 24.9376 67.413C25.602 71.232 27.2357 76.5927 28.5853 79.3713C28.627 79.4548 32.588 87.6025 34.3722 89.2821C34.4641 89.3699 34.5853 89.4117 34.7023 89.4117C34.8318 89.4117 34.9571 89.3615 35.0532 89.2612C35.2371 89.069 35.2287 88.7599 35.0323 88.5802C33.8039 87.4228 30.9543 82.0579 29.446 78.9451Z" fill="#767D81"/>
<path d="M54.5737 54.8317C53.9136 54.4222 53.2534 54.1214 52.6016 53.8623C53.2701 53.8874 53.9178 53.9543 54.4735 54.0587C54.7367 54.1089 54.9874 53.9334 55.0375 53.6743C55.0877 53.4111 54.9164 53.1604 54.6531 53.1102C53.3244 52.8595 51.5988 52.8136 50.1448 52.9849C49.9275 53.01 49.752 53.1813 49.7228 53.3985C49.6935 53.6158 49.8147 53.8289 50.0194 53.9125C50.4289 54.0796 50.8384 54.2342 51.2478 54.3846C52.1295 54.7105 52.9693 55.0197 53.8091 55.5002C53.2576 60.1674 50.8008 66.1841 49.3676 69.393C48.3732 71.62 46.493 74.9167 44.8342 77.8247C43.6893 79.8345 42.6072 81.7356 41.9595 83.0309C41.6044 83.7412 41.2367 84.4598 40.8774 85.1701C39.9038 87.0838 38.9804 88.893 38.4456 90.205C38.3453 90.4515 38.4623 90.7356 38.7088 90.8359C38.7673 90.861 38.83 90.8735 38.8927 90.8735C39.0849 90.8735 39.2645 90.7607 39.3398 90.5727C39.862 89.2983 40.7729 87.5058 41.7381 85.613C42.1016 84.9027 42.4693 84.1841 42.8244 83.4696C43.4595 82.1994 44.5375 80.3108 45.674 78.3094C47.3411 75.3846 49.2339 72.0671 50.2492 69.7941C51.7409 66.4598 54.3105 60.1423 54.8035 55.2997C54.8203 55.1075 54.7325 54.932 54.5737 54.8317Z" fill="#767D81"/>
<path d="M27.6826 43.6812C27.7537 43.8776 27.9375 43.9988 28.1339 43.9988C28.1882 43.9988 28.2467 43.9904 28.301 43.9695C29.6046 43.489 30.925 42.8832 32.0615 42.3526C32.3038 42.2397 32.4083 41.9514 32.2954 41.7091C32.1826 41.4668 31.8943 41.3623 31.652 41.4751C30.5322 41.9974 29.2369 42.5907 27.9668 43.0587C27.7161 43.1548 27.5907 43.4306 27.6826 43.6812Z" fill="#767D81"/>
<path d="M45.6156 53.3076C42.3273 54.9246 36.7075 54.9705 33.0933 53.412C32.8468 53.3076 32.5627 53.4204 32.4582 53.6627C32.3538 53.9092 32.4666 54.1934 32.7089 54.2978C34.5766 55.1042 36.9541 55.5053 39.3064 55.5053C41.7883 55.5053 44.241 55.0583 46.0418 54.1725C46.28 54.0555 46.3802 53.7672 46.2633 53.5248C46.1463 53.2867 45.858 53.1906 45.6156 53.3076Z" fill="#767D81"/>
<path d="M12.4659 17.9122C12.3531 17.9122 12.2445 17.8788 12.1484 17.8077L2.86845 10.8885C2.63447 10.713 2.58433 10.3788 2.75981 10.1406C2.9353 9.90245 3.26956 9.85649 3.50773 10.032L12.7835 16.9512C13.0175 17.1267 13.0676 17.4609 12.8921 17.6991C12.7877 17.8412 12.6247 17.9122 12.4659 17.9122Z" fill="#F7C8C9"/>
<path d="M8.4714 26.0432C8.40037 26.0432 8.32934 26.0306 8.26248 26.0014L0.323762 22.6211C0.0521746 22.5042 -0.0731736 22.1908 0.0438181 21.9234C0.156631 21.6518 0.470002 21.5264 0.74159 21.6434L8.68031 25.0237C8.9519 25.1406 9.07725 25.454 8.96026 25.7214C8.87669 25.9178 8.68031 26.0432 8.4714 26.0432Z" fill="#F7C8C9"/>
<path d="M23.2042 7.74632C23.012 7.74632 22.824 7.64187 22.7279 7.45802L19.3059 0.77696C19.1722 0.513729 19.2766 0.192002 19.5357 0.0582968C19.7989 -0.075408 20.1206 0.0290488 20.2543 0.288102L23.6722 6.96916C23.8059 7.2324 23.7014 7.55412 23.4423 7.68783C23.3671 7.72961 23.2836 7.74632 23.2042 7.74632Z" fill="#F7C8C9"/>
<path d="M64.6357 11.3776C64.5271 11.3776 64.4184 11.3442 64.3223 11.2774C64.0842 11.1061 64.0298 10.7718 64.2053 10.5336L69.8669 2.74951C70.0382 2.51135 70.3725 2.45703 70.6106 2.63252C70.8488 2.80383 70.9031 3.13809 70.7276 3.37625L65.0661 11.1562C64.9616 11.3024 64.7987 11.3776 64.6357 11.3776Z" fill="#F7C8C9"/>
</svg>
