<svg width="66" height="101" viewBox="0 0 66 101" fill="none" xmlns="http://www.w3.org/2000/svg">
<path d="M25.256 23.6259C25.2094 23.0939 25.1374 22.0678 25.1374 21.5485C27.5506 19.0489 28.5539 15.7344 28.2745 13.0026C30.6622 11.3221 31.8095 10.1061 32.724 8.91544C33.6384 7.72475 34.3158 5.97251 34.8789 4.78182C36.6358 6.69452 38.0413 7.11674 39.3029 7.67831C40.5688 8.23987 42.2876 9.58256 42.9565 10.7352C43.7736 12.1455 44.1504 13.9357 44.4552 15.8484C44.7515 17.7189 45.086 18.6985 45.8141 20.1931C45.8141 23.2036 45.8607 24.4408 45.5093 26.0537C45.1114 27.8735 44.8997 28.4139 44.1758 29.744C44.0361 30.5124 44.434 33.8987 44.434 33.8987C45.5559 34.5996 46.5889 35.672 47.7108 37.2132L50.8013 38.7796C51.1061 37.5425 51.4786 36.2125 51.8554 34.0633C52.2534 31.8002 52.0417 27.3837 51.2246 24.4914C52.2788 22.9841 51.8216 19.5894 51.4829 17.4867C51.1103 15.1517 49.1036 11.225 48.3458 9.71345C47.4695 7.9612 45.7803 5.36872 42.9734 3.3758C41.4663 2.30334 36.6527 0.855101 34.6841 2.88602C33.4564 1.97401 31.3438 2.83113 29.9764 3.79803C28.6428 4.74382 26.9579 6.95208 25.8317 8.83944C24.7099 10.731 23.9944 12.8675 23.317 14.4551C22.7243 15.84 21.8183 17.9807 21.3484 19.3571C20.7642 21.0756 20.8573 23.2079 21.7464 25.0319C22.5846 24.3057 24.0367 23.7188 25.256 23.6259Z" fill="#F7C8C9"/>
<path d="M26.0693 22.1152L26.2006 27.22C26.9965 27.3086 27.1277 27.5282 27.1277 27.9251C27.1277 28.322 26.861 28.7484 26.4207 28.8793L26.552 31.8391C27.4283 31.704 27.6569 32.3247 27.4791 32.6752C27.3013 33.0256 26.8271 33.4521 26.5647 33.5407L26.6409 34.6132C26.6409 34.6132 29.9515 38.4428 29.9049 38.3119C29.8626 38.181 29.507 30.3909 29.507 30.3909C28.3174 28.6302 27.7501 27.7478 27.3902 26.384C27.0558 25.1215 26.7298 23.6015 26.552 22.2039L26.0693 22.1152Z" fill="#F7C8C9"/>
<path d="M30.9542 32.0918C30.7087 33.0376 30.3234 34.9967 30.1117 35.6301C30.0779 36.2972 30.2176 37.3823 30.2176 37.8383C30.2176 37.8383 31.8687 36.6139 32.3598 36.0523C32.3936 34.8616 32.2878 33.9158 32.2201 33.0756C31.6231 32.6534 31.3056 32.5098 30.9542 32.0918Z" fill="#F7C8C9"/>
<path d="M51.4878 18.2221C51.6741 20.253 51.7841 21.9461 51.3692 23.6435C51.0856 22.6977 50.7512 21.7181 50.3405 20.671C50.2431 20.4219 49.9595 20.2952 49.7055 20.3923C49.4557 20.4894 49.3287 20.7723 49.426 21.0257C50.7512 24.4204 51.365 27.1437 51.4201 29.8629C51.4412 30.9565 51.4116 32.0374 51.3269 33.0718C51.3057 33.342 51.5047 33.5743 51.7757 33.5954C51.7884 33.5954 51.8011 33.5954 51.8138 33.5954C52.0678 33.5954 52.2795 33.4012 52.3006 33.1478C52.3853 32.0838 52.4192 30.9691 52.3938 29.8418C52.3557 28.0051 52.072 26.1684 51.509 24.1544C51.564 24.205 51.6317 24.2473 51.7122 24.2641C51.7503 24.2726 51.7926 24.2768 51.8307 24.2768C52.0509 24.2768 52.2498 24.129 52.3049 23.9053C52.7663 22.0474 52.652 20.2656 52.453 18.1292C52.2964 16.4318 51.1322 12.8302 49.6843 9.56638C49.5742 9.32149 49.2863 9.20749 49.0408 9.31727C48.7952 9.42705 48.6809 9.71416 48.791 9.95906C50.2093 13.1469 51.3396 16.6176 51.4878 18.2221Z" fill="#767D81"/>
<path d="M35.3491 1.53152C36.1832 0.801064 39.0112 0.788397 41.1618 1.49774C42.9738 2.0973 45.5647 3.62999 47.6138 7.51027C47.7027 7.67494 47.872 7.77205 48.0456 7.77205C48.1218 7.77205 48.2022 7.75516 48.2742 7.71716C48.5113 7.59049 48.6044 7.29493 48.4774 7.05848C46.276 2.88687 43.4479 1.22751 41.4666 0.57306C39.189 -0.182728 35.9249 -0.271396 34.7014 0.796841C34.4982 0.974177 34.477 1.2824 34.6548 1.48507C34.8369 1.69196 35.1459 1.70885 35.3491 1.53152Z" fill="#767D81"/>
<path d="M40.07 17.6397C39.8753 17.8508 39.7779 18.1253 39.7949 18.4124C39.8245 18.9866 40.2987 19.43 40.8659 19.43C40.8829 19.43 40.8998 19.43 40.921 19.43C41.2089 19.4173 41.4713 19.2906 41.6661 19.0795C41.8608 18.8684 41.9582 18.594 41.9413 18.3069C41.9116 17.7157 41.4036 17.2513 40.8151 17.2893C40.5273 17.302 40.2605 17.4286 40.07 17.6397Z" fill="#767D81"/>
<path d="M31.865 18.8006C31.8354 18.2094 31.3231 17.7492 30.7389 17.783C30.451 17.7957 30.1885 17.9223 29.9938 18.1334C29.8033 18.3446 29.7017 18.619 29.7186 18.9061C29.7356 19.1932 29.8583 19.455 30.07 19.6492C30.269 19.8308 30.523 19.9279 30.7897 19.9279C30.8066 19.9279 30.8236 19.9279 30.8448 19.9279C31.4374 19.8941 31.8947 19.3917 31.865 18.8006Z" fill="#767D81"/>
<path d="M42.8128 14.2161C42.8424 14.043 42.7239 13.8826 42.5503 13.853C40.696 13.5406 38.4734 14.0514 37.2711 15.0606C37.1356 15.1746 37.1187 15.373 37.233 15.5081C37.2965 15.5841 37.3854 15.6221 37.4743 15.6221C37.5463 15.6221 37.6182 15.5968 37.6775 15.5461C38.7486 14.6468 40.7511 14.195 42.4403 14.4779C42.6181 14.5032 42.7832 14.385 42.8128 14.2161Z" fill="#767D81"/>
<path d="M34.9003 24.3495C34.9214 24.3537 34.9468 24.358 34.968 24.358C35.112 24.358 35.2432 24.2566 35.2771 24.1088C35.5819 22.7366 35.6284 21.4741 35.4125 20.4523C35.3787 20.2792 35.2093 20.1737 35.0358 20.2074C34.8622 20.2412 34.7521 20.4101 34.7902 20.5832C34.9849 21.5206 34.9384 22.6901 34.6547 23.9737C34.6209 24.1426 34.7267 24.3115 34.9003 24.3495Z" fill="#767D81"/>
<path d="M31.2122 26.7131C31.1106 26.8989 31.1784 27.1269 31.3646 27.2283C31.534 27.3212 31.7203 27.4014 31.915 27.4774C32.8422 29.4956 34.5821 30.3739 35.9581 30.3739C36.0089 30.3739 36.0597 30.3739 36.1105 30.3696C36.8175 30.3359 39.201 29.9939 40.2424 27.072C40.4499 26.9792 40.6488 26.8778 40.8266 26.7723C41.0087 26.6625 41.0637 26.4303 40.9579 26.2487C40.8478 26.0671 40.615 26.0122 40.4329 26.1178C38.4516 27.3043 33.8794 27.7349 31.733 26.5569C31.5425 26.464 31.3138 26.5316 31.2122 26.7131ZM39.2475 27.4394C38.2823 29.3436 36.6016 29.5885 36.0681 29.6139C35.0732 29.6561 33.7947 29.1072 32.9438 27.7856C33.6592 27.9376 34.4467 28.0136 35.2553 28.0136C36.6397 28.0136 38.0706 27.8025 39.2475 27.4394Z" fill="#767D81"/>
<path d="M0.566112 69.2526C0.837059 69.2315 1.03604 68.9992 1.0191 68.729C0.947132 67.7705 0.976767 66.8796 1.09531 66.145C1.33239 64.7347 2.23413 63.8692 3.18668 62.9529C3.51267 62.6405 3.85135 62.3154 4.16887 61.9607C5.00288 61.036 5.53208 59.9593 6.14594 58.7138C6.50156 57.9875 6.87411 57.236 7.35251 56.4084C8.08915 55.1333 9.93074 52.6928 11.5607 50.5394C12.8011 48.8969 13.9738 47.3474 14.4945 46.524C14.6385 46.296 14.5707 45.9962 14.3421 45.8527C14.1135 45.7091 13.8129 45.7767 13.669 46.0047C13.1737 46.79 12.0137 48.3269 10.7817 49.9525C9.13907 52.127 7.2763 54.5928 6.51003 55.9228C6.0147 56.7799 5.62098 57.578 5.27383 58.2831C4.69383 59.4653 4.19004 60.4829 3.44493 61.3062C3.14858 61.6313 2.82683 61.9438 2.50932 62.2478C1.48056 63.2358 0.417937 64.2576 0.130055 65.9845C-0.00541895 66.8036 -0.0350539 67.7494 0.0411502 68.8008C0.0580844 69.0583 0.273996 69.2526 0.528009 69.2526C0.54071 69.2526 0.553411 69.2526 0.566112 69.2526Z" fill="#767D81"/>
<path d="M65.5127 77.6602C65.5084 77.6602 65.5084 77.6602 65.5127 77.6602C65.2417 77.6602 65.0216 77.8755 65.0216 78.1457C64.9835 85.3447 64.7295 93.6373 64.594 98.096C64.5601 99.1727 64.5813 99.7934 64.5686 100.325C64.5601 100.596 64.776 100.819 65.047 100.824C65.0512 100.824 65.0555 100.824 65.0597 100.824C65.3222 100.824 65.5423 100.612 65.5466 100.346C65.5593 99.8102 65.5381 99.1938 65.572 98.1213C65.7074 93.6626 65.9657 85.3574 65.9995 78.1457C65.9995 77.8797 65.7794 77.6602 65.5127 77.6602Z" fill="#767D81"/>
<path d="M64.7762 67.5418C64.8863 68.8296 64.9625 70.6579 65.0006 72.9759C65.0048 73.2419 65.225 73.4573 65.4917 73.4573C65.4959 73.4573 65.4959 73.4573 65.5002 73.4573C65.7711 73.453 65.987 73.2293 65.9828 72.9633C65.9447 70.6241 65.8727 68.7747 65.7542 67.4616C65.678 66.5749 65.5933 65.5363 65.5044 64.4047C65.1827 60.3597 64.7847 55.3226 64.1793 51.3198C63.7475 48.4614 62.9727 46.4515 61.872 45.3495C61.6815 45.1595 61.3725 45.1595 61.1819 45.3495C60.9914 45.5395 60.9914 45.8478 61.1819 46.0378C62.1176 46.9793 62.8246 48.854 63.2141 51.4676C63.811 55.4366 64.2089 60.4526 64.5307 64.4807C64.6196 65.6123 64.7 66.6509 64.7762 67.5418Z" fill="#767D81"/>
<path d="M54.0868 40.2405C53.1385 39.8732 52.1987 39.2989 51.1233 38.636C51.2038 38.5769 51.2673 38.4967 51.3011 38.3954C51.6144 37.4791 51.8642 36.4447 52.0462 35.3215C52.0886 35.0555 51.9108 34.8064 51.6441 34.76C51.3731 34.7135 51.1276 34.8951 51.081 35.1611C50.9286 36.1027 50.7211 36.9682 50.4756 37.7536C49.2902 35.0513 48.9007 33.4469 48.7737 30.9304C48.761 30.6601 48.5282 30.449 48.2614 30.4659C47.9905 30.4786 47.7831 30.7066 47.7958 30.9768C47.9143 33.4131 48.2911 35.0893 49.3241 37.5594C48.8753 37.3018 48.4011 37.04 47.8931 36.7825C47.2962 35.8831 45.8822 34.2406 45.1794 33.582C45.082 33.4933 44.9593 33.4469 44.8365 33.4511C44.8026 31.8762 44.7688 30.3519 44.718 29.7777C44.7137 29.7101 44.6926 29.6468 44.6629 29.5919C45.5139 28.1732 46.0388 26.6279 46.1955 25.0276C46.2886 24.0396 46.3182 22.8067 46.2801 21.426C46.8178 22.1269 47.4909 22.8574 48.3377 23.5963C48.4308 23.6765 48.5451 23.7187 48.6594 23.7187C48.7949 23.7187 48.9303 23.6638 49.0277 23.5498C49.2055 23.3472 49.1844 23.0389 48.9811 22.8616C46.2039 20.4422 45.425 18.1326 45.209 16.9715C45.154 16.6675 45.0947 16.3297 45.0355 15.9666C44.7688 14.3579 44.4385 12.3566 43.6469 10.8661C42.5969 8.89007 40.1245 7.37427 38.3295 6.67759C36.797 6.08225 35.9333 5.36868 34.8792 4.254C34.6929 4.05978 34.3838 4.04711 34.1891 4.23289C33.9944 4.41867 33.9859 4.7269 34.1679 4.92112C35.3195 6.14136 36.2678 6.92671 37.9739 7.58538C39.7435 8.27361 41.9196 9.6923 42.7832 11.3221C43.5029 12.6732 43.8162 14.5901 44.0702 16.1271C44.1295 16.4944 44.1888 16.8406 44.2438 17.1488C44.3708 17.8329 44.6756 18.8715 45.3784 20.0876C45.3022 20.1804 45.2556 20.2987 45.2599 20.4253C45.3488 22.186 45.3318 23.7441 45.2218 24.9305C45.0101 27.1599 44.011 29.2795 42.3302 31.057C40.6707 32.8135 38.8883 33.8817 37.3092 34.0675C35.5946 34.266 33.6895 33.5609 31.958 32.0746C30.0487 30.4364 28.8252 28.1014 28.2663 26.8559C27.5636 25.2894 27.1275 21.6751 27.0132 20.6027C27.0005 20.4802 26.9412 20.3789 26.8608 20.3029C28.0208 18.6689 28.6474 16.828 28.8887 15.1897C30.1841 15.1095 31.4203 15.2742 32.3348 15.6584C32.3771 15.6753 32.4152 15.6837 32.4576 15.6837C32.5803 15.6837 32.6989 15.6119 32.7497 15.4895C32.8174 15.329 32.7412 15.1433 32.5803 15.0757C31.6066 14.6661 30.3112 14.4804 28.9607 14.5521C28.9903 14.2397 29.003 13.9315 29.003 13.6401C29.003 13.429 28.8717 13.2559 28.6855 13.1841C31.7971 11.0603 33.7615 8.87318 34.5362 6.6607C34.6252 6.40736 34.4897 6.12869 34.2357 6.04003C33.9774 5.95136 33.7022 6.08647 33.6133 6.33981C33.0206 8.04139 31.2129 10.7014 25.9887 13.7288C25.7558 13.8639 25.6754 14.1637 25.8109 14.3959C25.8998 14.5521 26.0649 14.6408 26.2342 14.6408C26.3189 14.6408 26.4036 14.6197 26.4798 14.5733C27.0217 14.2608 27.5382 13.9441 28.0293 13.6232C28.0293 13.6275 28.025 13.6317 28.025 13.6359C28.0208 16.0046 27.064 19.3275 24.3884 21.5442C24.181 21.7174 24.1513 22.0256 24.3249 22.2325C24.4138 22.338 24.5408 22.3929 24.6721 22.4014C24.6763 22.4858 24.6763 22.5745 24.6805 22.6631L24.7102 23.3303C24.6255 23.3429 24.5408 23.3556 24.4519 23.3725C24.0243 23.44 23.5586 23.5583 23.1818 23.6934C23.258 22.8489 23.4274 22.034 23.7068 21.2276C23.7957 20.9742 23.6602 20.6956 23.402 20.6069C23.1437 20.5182 22.8686 20.6533 22.7797 20.9109C22.4113 21.9791 22.2124 23.06 22.17 24.1958C22.1065 24.2423 22.0388 24.2845 21.9753 24.3436C21.9245 24.3858 21.8652 24.4407 21.7975 24.4956C21.0989 22.7603 21.154 20.4887 21.9753 18.5295C22.8728 16.3888 23.982 13.2601 24.7948 10.5536C25.705 7.52627 27.3138 4.95068 29.3247 3.29977C30.9462 1.96975 32.6142 1.31529 33.3762 1.70797C33.6176 1.83041 33.9097 1.73752 34.0367 1.50107C34.1722 1.26463 34.079 0.969066 33.8377 0.84662C32.4618 0.133055 30.29 1.2604 28.7151 2.55242C26.556 4.32578 24.8372 7.07026 23.8677 10.2792C23.0633 12.9561 21.971 16.0511 21.082 18.158C20.3073 20.0031 19.9093 22.7771 21.0227 25.1712C20.7687 25.3865 20.5316 25.5892 20.4046 25.6947C20.0067 26.0283 19.7019 26.5772 19.6341 27.0965C19.5833 27.4681 19.5325 28.397 19.5494 29.0008C19.1049 30.1112 18.1989 32.3997 18.0677 32.7586L18.0042 32.9275C17.8433 33.3582 17.6486 33.8944 17.6486 34.6586C17.6486 35.4947 17.729 37.2089 17.8603 38.104L17.8984 38.37C18.0169 39.1469 18.2159 40.4516 18.055 40.9836C17.9111 41.4692 17.1109 43.137 16.5817 44.1757C16.4378 44.1039 16.2684 44.0912 16.1203 44.1799C15.9255 44.2897 15.7816 44.4628 15.6884 44.6697C15.5487 44.581 15.3667 44.5557 15.2058 44.6359C14.8841 44.7963 14.6724 45.0708 14.6004 45.4086C14.4946 45.9237 14.7359 46.5275 15.3117 47.203C16.2557 48.3135 20.1294 50.5302 21.2048 50.8807C21.7086 51.0453 22.6145 51.2987 23.3978 51.2987C23.402 51.2987 23.4062 51.2987 23.4105 51.2987C22.314 53.7687 19.9262 58.3583 18.5588 60.917C18.4318 61.1535 18.5207 61.449 18.762 61.5757C18.834 61.6137 18.9144 61.6348 18.9906 61.6348C19.1642 61.6348 19.3335 61.5419 19.4224 61.3772C19.9051 60.4737 20.5189 59.3126 21.154 58.0796C21.209 59.7263 21.3233 61.2506 21.6493 63.0957C22.314 66.8578 24.4519 71.2827 26.1707 74.8421C27.4239 77.4388 28.5077 79.6766 28.7447 81.0277C28.7871 81.2642 28.9945 81.4331 29.2274 81.4331C29.257 81.4331 29.2824 81.4289 29.312 81.4246C29.5787 81.3782 29.7566 81.1249 29.71 80.8588C29.4475 79.3768 28.3383 77.0799 27.0555 74.4199C25.3621 70.9154 23.258 66.5538 22.6188 62.9268C22.1912 60.499 22.1319 58.6243 22.0981 56.2472C23.1818 54.1107 24.2021 52.0164 24.6636 50.8595C24.6678 50.8427 24.6678 50.83 24.6721 50.8131C24.6805 50.7962 24.6932 50.7835 24.7059 50.7709C24.998 50.2853 24.7652 49.6815 24.0201 48.9764C23.8253 48.7906 23.5163 48.7991 23.33 48.9933C23.1437 49.1875 23.1522 49.4957 23.347 49.6815C23.6772 49.994 23.7915 50.1882 23.8296 50.2769C23.6687 50.336 23.2496 50.3571 22.5891 50.2346C22.6611 50.0658 22.75 49.8673 22.8432 49.6477C23.1522 48.93 23.5756 47.9462 23.7703 47.5873C23.8296 47.4775 23.8423 47.355 23.8126 47.241C23.9778 47.0046 24.0582 46.7428 24.037 46.4853C24.0286 46.405 24.0032 46.3375 23.9608 46.2741L26.9497 45.8055C27.1445 45.7759 27.2926 45.6155 27.3053 45.417C27.318 45.2228 27.1953 45.0412 27.009 44.9821C26.6661 44.8766 26.3401 44.7668 26.0141 44.6528C25.5738 44.505 25.1166 44.3488 24.6128 44.2052C24.6043 44.201 24.5959 44.2052 24.5874 44.2052C24.7525 43.8379 24.9049 43.5085 25.0361 43.289C25.3198 42.8034 25.7728 42.5205 26.2554 42.225C26.4501 42.1068 26.6449 41.9843 26.8227 41.8534C27.4535 41.4016 27.9361 40.8865 28.3129 40.2912C28.55 40.5698 28.7193 40.7683 28.7574 40.8232C28.9395 41.0807 29.1596 41.161 29.3078 41.1863C29.3417 41.1905 29.3798 41.1947 29.4136 41.1947C29.4983 41.1947 29.583 41.1778 29.6677 41.1483C29.6126 41.2792 29.5618 41.4059 29.5068 41.541C29.0157 42.8034 27.6398 48.2206 26.8269 52.8271C26.1284 56.7792 26.1242 58.523 26.2893 61.8375C26.556 67.2124 28.7617 74.7365 29.8158 78.3508C30.1037 79.3346 30.3323 80.1115 30.3958 80.424C30.7472 82.1087 30.8742 84.072 30.9166 85.0938C30.942 85.7018 30.9716 86.9305 31.0097 88.4885C31.0944 91.879 31.2002 96.8233 31.4034 100.539C31.4161 100.801 31.632 100.999 31.8903 100.999C31.8987 100.999 31.9072 100.999 31.9157 100.999C32.1866 100.982 32.3941 100.754 32.3771 100.484C32.1739 96.7811 32.0681 91.8494 31.9834 88.4632C31.9453 86.9009 31.9114 85.668 31.886 85.0516C31.8437 84.0002 31.7125 81.9778 31.3484 80.2255C31.2764 79.8751 31.0563 79.1193 30.7472 78.0764C29.7015 74.4959 27.517 67.0478 27.2545 61.7868C27.0936 58.5483 27.0937 56.8467 27.7753 52.9918C28.5542 48.5837 29.9259 43.1201 30.4043 41.8872C30.8361 40.7725 31.3018 39.8098 31.7929 39.0076C31.759 39.2398 31.7252 39.4425 31.6871 39.6029C31.6236 39.8647 31.7887 40.1265 32.0511 40.1898C32.0892 40.1983 32.1274 40.2025 32.1655 40.2025C32.3856 40.2025 32.5888 40.0505 32.6396 39.8267C32.919 38.6571 33.0714 35.8029 32.8725 33.9366C34.1383 34.6798 35.4507 35.0767 36.7123 35.0767C36.9451 35.0767 37.1738 35.064 37.4024 35.0387C39.7224 34.7684 41.7375 33.088 43.0245 31.7284C43.2912 31.4455 43.541 31.1499 43.7781 30.8459C43.8077 31.6946 43.8331 32.8726 43.8543 33.9535C43.8797 35.178 43.9009 36.3307 43.9305 36.9893C43.7569 38.5094 43.1092 39.9998 41.9365 42.6852C41.6994 43.2299 41.4412 43.8168 41.166 44.4628C40.7469 45.4424 40.2515 46.5275 39.7266 47.6759C38.1602 51.1044 36.2127 55.3689 34.5701 60.4652C33.0164 65.2913 31.4542 72.3847 30.7684 77.7133C30.7345 77.9793 30.925 78.2241 31.1917 78.2579C31.2129 78.2621 31.2341 78.2622 31.2552 78.2622C31.4966 78.2622 31.7082 78.0806 31.7379 77.8357C32.4152 72.5578 33.9647 65.5362 35.5015 60.7608C37.123 55.7194 39.0619 51.4844 40.6156 48.0771C41.1448 46.9244 41.6402 45.8308 42.0677 44.8428C42.3429 44.1968 42.6012 43.6099 42.8383 43.0694C44.0575 40.2743 44.7264 38.7374 44.9127 37.0569C44.9127 37.0442 44.9085 37.0316 44.9085 37.0189C44.9085 37.0062 44.9127 36.9936 44.9127 36.9809C44.8873 36.4616 44.8704 35.596 44.8492 34.6249C45.5901 35.3975 46.712 36.7402 47.1269 37.3989C47.1311 37.4074 47.1396 37.4158 47.148 37.42C47.148 37.4876 47.1565 37.5509 47.1861 37.6185C47.3978 38.1209 47.6349 38.6445 47.8762 39.1765C48.4774 40.5023 49.0997 41.8703 49.3452 42.9723C48.0752 43.1792 45.6747 43.6099 44.845 43.9181C44.646 43.9941 44.5147 44.1883 44.5274 44.4037C44.5401 44.6148 44.6883 44.7963 44.8958 44.847C46.0431 45.1341 48.1344 45.8139 49.3368 46.3797C47.1819 52.5696 44.5444 57.4041 42.0127 61.7024C41.8772 61.9346 41.9534 62.2344 42.1863 62.3695C42.2625 62.4159 42.3472 62.437 42.4318 62.437C42.6012 62.437 42.7621 62.3526 42.8552 62.1964C45.4715 57.7588 48.1937 52.7596 50.3994 46.291C50.4756 46.0672 50.3782 45.8181 50.1708 45.7041C49.4214 45.2988 48.0879 44.8006 46.8771 44.4079C47.8847 44.201 49.0955 43.9899 49.9845 43.8548C50.247 43.8168 50.429 43.5719 50.3952 43.3101C50.23 41.997 49.4849 40.3545 48.7652 38.7669C48.6806 38.5769 48.5959 38.3911 48.5112 38.2011C49.2521 38.6149 49.9252 39.0245 50.5433 39.4045C51.6822 40.1054 52.6686 40.7092 53.7185 41.1187C55.6024 41.8492 58.9893 43.4199 59.6624 43.8717C59.7471 43.9266 59.8402 43.9561 59.9376 43.9561C60.0942 43.9561 60.2466 43.8801 60.344 43.7408C60.4964 43.517 60.4372 43.213 60.2128 43.0652C59.4211 42.5543 55.9369 40.9583 54.0868 40.2405ZM30.1545 31.665C30.2477 31.7706 30.3408 31.8719 30.4339 31.9733C30.3704 32.1717 30.2985 32.4462 30.218 32.7713C30.1926 32.3406 30.1714 31.9648 30.1545 31.665ZM29.3713 30.6981C29.2993 30.7784 29.2612 30.8839 29.2697 30.9979C29.3925 33.1091 29.5533 35.9084 29.655 37.7789L26.8354 34.4518L26.8015 33.7593C26.81 33.7551 26.8185 33.7551 26.8269 33.7551C27.3985 33.5777 28.0293 32.8937 28.0801 32.4039C28.1139 32.0746 28.0166 31.7622 27.8176 31.5637C27.6567 31.4033 27.4366 31.323 27.2037 31.3484C27.1275 31.3568 26.8947 31.3315 26.6788 31.3104L26.5814 29.4019C27.3223 29.1106 27.6609 28.4054 27.6609 27.865C28.0504 28.663 28.6177 29.6806 29.3713 30.6981ZM25.0065 29.5666L25.0785 31.1626C24.9303 31.1499 24.7652 31.1457 24.5577 31.1668C24.3842 31.1879 24.1513 31.2217 23.9058 31.2597C23.5629 31.3104 23.1861 31.3695 22.9024 31.399C22.6907 31.4202 22.5256 31.4455 22.3732 31.4793C22.5637 31.133 22.6908 30.677 22.8559 30.0268C23.2199 29.9508 23.7364 29.7946 24.2318 29.4737C24.4561 29.5201 24.7271 29.5497 25.0065 29.5666ZM25.9294 31.2344L25.8532 29.5539C25.9591 29.5455 26.0607 29.5286 26.1623 29.5117L26.2469 31.2639C26.1326 31.2513 26.0268 31.2428 25.9294 31.2344ZM27.2545 26.9699C27.1021 26.8474 26.9158 26.7672 26.6957 26.7334C26.6703 26.7292 26.6449 26.7292 26.6195 26.7292C26.5856 26.7292 26.5179 26.725 26.4374 26.7208L26.3655 25.3147C26.3909 25.2936 26.4205 25.2725 26.4459 25.2514C26.5475 25.167 26.628 25.0698 26.6915 24.9643C26.8566 25.7032 27.0428 26.4083 27.2545 26.9699ZM24.8499 26.1465L24.871 26.5814C24.4138 26.5392 24.1175 26.5181 23.9989 26.5181C23.9693 26.5181 23.9312 26.5181 23.8973 26.5181C23.9269 26.4843 23.9524 26.4505 23.982 26.4168C24.109 26.3703 24.291 26.3196 24.4646 26.2648C24.5916 26.2268 24.7229 26.1888 24.8499 26.1465ZM25.722 26.6574L25.6796 25.7834C25.7812 25.7285 25.8744 25.6694 25.9633 25.6103L26.0183 26.6828C25.921 26.6743 25.8236 26.6659 25.722 26.6574ZM25.5315 22.604C25.5018 22.0171 25.5188 21.8651 25.722 21.7385C25.9506 21.5949 26.103 21.7554 26.158 21.8271C26.1623 21.8356 26.1707 21.8356 26.175 21.844C26.2385 22.3211 26.3147 22.8574 26.4036 23.4189C26.3612 23.3894 26.3189 23.3598 26.2681 23.3387L26.2088 22.1185C26.2046 22.0045 26.1157 21.9074 25.9887 21.92C25.8702 21.9242 25.7812 22.0256 25.7897 22.1396L25.8448 23.25C25.7558 23.2458 25.6627 23.2416 25.5611 23.2458L25.5315 22.604ZM21.027 26.4463C21.3402 26.1845 22.2547 25.4034 22.6188 25.091C22.9109 24.8418 23.2115 24.7321 23.4824 24.635C23.7322 24.5463 24.1598 24.4196 24.617 24.3478C24.9684 24.2887 25.5992 24.1874 25.8363 24.2254C25.8744 24.3098 25.904 24.4281 25.8236 24.4998C25.5442 24.7321 25.2267 24.9685 24.7779 25.1458C24.617 25.2092 24.3969 25.2725 24.1852 25.3359C23.9142 25.4161 23.6602 25.4879 23.474 25.5765C23.4062 25.6061 23.347 25.6525 23.3004 25.7116C23.0845 25.9734 22.9321 26.1465 22.8178 26.2816C22.6611 26.4632 22.5468 26.5941 22.4198 26.7757C22.4113 26.7883 22.4071 26.8052 22.3986 26.8221C21.8737 26.991 21.1751 27.219 20.8703 27.3414C20.7645 27.3837 20.6671 27.4385 20.574 27.4934C20.5824 27.3921 20.5909 27.2992 20.5994 27.2359C20.6375 26.9488 20.8195 26.6194 21.027 26.4463ZM21.5181 49.9602C20.5655 49.6477 16.8865 47.5408 16.0652 46.5781C16.0356 46.5444 16.0144 46.5148 15.989 46.4853C16.0144 46.4304 16.0398 46.367 16.0737 46.2953C16.1076 46.3333 16.1414 46.3713 16.1795 46.4093C16.9331 47.1608 19.4605 48.0011 21.0058 48.1573C21.1667 48.1742 21.3233 48.1826 21.48 48.1826C21.8313 48.1826 22.1658 48.1404 22.4748 48.0602C22.3013 48.4486 22.115 48.8793 21.9499 49.2677C21.8271 49.5506 21.717 49.804 21.6366 49.994C21.5943 49.9813 21.5604 49.9729 21.5181 49.9602ZM24.3842 45.0243C24.6297 45.0961 24.871 45.1721 25.0996 45.2481L24.0878 45.4044C24.1471 45.2608 24.2064 45.113 24.2699 44.9652C24.3037 44.9906 24.3418 45.0117 24.3842 45.0243ZM26.2596 41.0681C26.0988 41.1863 25.9252 41.2919 25.7474 41.3974C25.2097 41.7267 24.6001 42.1025 24.1937 42.7992C23.855 43.3777 23.3978 44.5008 23.0252 45.4044C22.8601 45.8097 22.7119 46.1686 22.6061 46.4008C22.5214 46.5866 22.5637 46.7935 22.695 46.9328C22.3605 47.1144 21.8186 47.2537 21.0989 47.1819C19.5706 47.0257 17.348 46.1939 16.8654 45.7126C16.8315 45.6788 16.8019 45.645 16.7722 45.6112C16.8865 45.5732 16.9881 45.5015 17.0516 45.3875C17.3903 44.7921 18.7705 42.0139 18.9949 41.2623C19.215 40.5234 19.0118 39.1934 18.8678 38.2265L18.8297 37.9647C18.707 37.1287 18.6265 35.4524 18.6265 34.6629C18.6265 34.0717 18.7789 33.6622 18.9229 33.2695L18.9906 33.088C19.143 32.6531 20.5062 29.2288 20.6713 28.8277C20.7983 28.5152 20.9635 28.3463 21.2344 28.2366C21.5138 28.1226 22.2505 27.8861 22.7331 27.7257L23.131 27.5948C23.4443 27.4892 23.7237 27.4892 23.9905 27.4892C24.1048 27.4892 24.6975 27.5441 25.1716 27.5863C25.8913 27.6497 26.3612 27.6919 26.5729 27.6961C26.6449 27.713 26.6788 27.7426 26.6788 27.8566C26.6788 28.0339 26.5518 28.3632 26.2131 28.4899C25.7939 28.6503 24.7821 28.6123 24.2445 28.473C24.1005 28.435 23.9439 28.4646 23.8253 28.5574C23.2707 28.9797 22.5934 29.0852 22.3986 29.1106C22.1954 29.1359 22.0303 29.2795 21.9795 29.4779L21.9499 29.5961C21.7763 30.2928 21.6493 30.7953 21.4927 31.0528C21.2598 31.4286 21.137 31.6862 21.0905 32.0155C20.5867 32.2224 19.994 32.4208 19.7992 32.4039C19.5156 32.3871 19.2997 32.594 19.2827 32.8642C19.2658 33.1344 19.4732 33.3624 19.7442 33.3793C20.4385 33.4131 21.9118 32.7291 22.1108 32.6235C22.441 32.4462 22.5637 32.4124 22.9998 32.3659C23.3004 32.3364 23.6899 32.2773 24.0497 32.2224C24.2868 32.1886 24.5112 32.1548 24.6763 32.1337C24.8626 32.1084 24.998 32.1295 25.1674 32.1506C25.2986 32.1675 25.451 32.1886 25.6288 32.1886C25.7685 32.1886 26.0776 32.2224 26.3443 32.2519C26.6618 32.2857 26.8989 32.3111 27.0767 32.3195C26.992 32.4715 26.7253 32.7544 26.5221 32.8177C26.1919 32.9233 25.1928 32.9782 24.7694 32.9528C24.689 32.9486 24.6086 32.9613 24.5366 32.9951C23.9142 33.2822 23.2242 33.4215 22.9321 33.4469C22.8178 33.4553 22.7077 33.506 22.623 33.5862C22.3097 33.8944 21.8821 34.1097 21.3021 34.2322C21.0397 34.2913 20.8703 34.5489 20.9296 34.8106C20.9804 35.0387 21.1836 35.1949 21.408 35.1949C21.4418 35.1949 21.4757 35.1907 21.5138 35.1822C21.5435 35.1738 21.5689 35.1653 21.5985 35.1611C21.5773 35.2329 21.5646 35.3089 21.5773 35.3849C21.7424 36.3349 22.4833 37.0865 22.5129 37.1202L22.5976 37.2047C22.9236 37.5256 23.4697 38.0618 23.7322 38.8134C23.8042 39.016 23.9905 39.1427 24.1937 39.1427C24.2487 39.1427 24.2995 39.1343 24.3545 39.1174C24.6086 39.0287 24.744 38.75 24.6551 38.4967C24.3207 37.5298 23.6433 36.8669 23.2834 36.5122L23.2072 36.4362C23.0633 36.2927 22.6357 35.7649 22.5426 35.2287C22.5214 35.0978 22.4494 34.9922 22.3521 34.9204C22.6696 34.7811 22.949 34.6122 23.1903 34.4011C23.584 34.3462 24.2318 34.1984 24.8372 33.9324C24.9388 33.9366 25.0615 33.9324 25.197 33.9324C25.2732 35.6171 25.2817 35.9633 25.2817 36.014C25.2817 36.5122 25.4764 37.0527 25.7812 37.3862C25.9675 37.5931 26.8735 38.6276 27.6398 39.5143C27.3265 40.1223 26.8862 40.6205 26.2596 41.0681ZM29.5237 40.2869C29.4941 40.3123 29.4687 40.3292 29.4517 40.3376C29.1893 39.9829 26.5602 36.9767 26.4205 36.8247C26.2554 36.6431 26.1369 36.3053 26.1369 36.0182C26.1369 35.9802 26.1369 35.8747 26.048 33.8902C26.1623 33.8775 26.2723 33.8649 26.3782 33.8522L26.412 34.5531C26.412 34.5995 26.4332 34.6418 26.4628 34.6798L29.6931 38.4883C29.7312 39.2187 29.7566 39.7085 29.7566 39.7972C29.7566 40.0716 29.6846 40.1561 29.5237 40.2869ZM30.5779 39.2229C30.5652 38.9823 30.5482 38.674 30.5313 38.3151C30.6117 38.294 30.6922 38.2603 30.7557 38.1969C31.124 37.8296 31.5601 37.4496 31.9792 37.0907C31.9792 37.0991 31.9792 37.1033 31.9792 37.1118C31.4881 37.6902 31.0224 38.3996 30.5779 39.2229ZM31.7844 33.1935C31.9368 33.7846 32.0046 34.7558 32.0088 35.786L31.7167 36.0351C31.3145 36.3729 30.8785 36.7487 30.472 37.1245C30.4466 36.698 30.4212 36.2462 30.3958 35.7902C30.4085 35.7607 30.4255 35.7353 30.4339 35.7058C30.4805 35.4989 30.544 35.2033 30.6202 34.8655C30.7684 34.19 30.9674 33.2653 31.1282 32.6488C31.196 32.708 31.2637 32.7713 31.3314 32.8304C31.4754 32.9571 31.6278 33.0753 31.7844 33.1935Z" fill="#767D81"/>
<path d="M53.6674 93.4005C53.3965 93.4131 53.189 93.6411 53.2017 93.9114C53.388 98.159 53.5065 99.9745 53.5912 100.481C53.6293 100.722 53.8368 100.891 54.0738 100.891C54.0992 100.891 54.1289 100.891 54.1543 100.882C54.421 100.836 54.5988 100.587 54.5565 100.321C54.4422 99.6452 54.2432 95.3723 54.1797 93.8691C54.1627 93.5947 53.9257 93.3962 53.6674 93.4005Z" fill="#767D81"/>
<path d="M53.5912 92.1289C53.5996 92.1289 53.6039 92.1289 53.6123 92.1289C53.8833 92.1162 54.0907 91.8882 54.0823 91.6222L53.9807 89.1944C53.8748 86.7244 53.7859 84.5879 53.7224 83.4014C53.5912 80.9061 52.9561 72.85 52.5455 70.2955C52.2745 68.5981 52.084 66.2632 51.9909 63.3498C51.9824 63.0796 51.7411 62.8516 51.4871 62.8769C51.2162 62.8854 51.0045 63.1092 51.0129 63.3794C51.1103 66.3308 51.3008 68.7079 51.5802 70.4433C51.9867 72.9682 52.6132 80.9652 52.7445 83.4437C52.808 84.6259 52.8969 86.7582 52.9985 89.2282L53.1001 91.656C53.1128 91.922 53.3287 92.1289 53.5912 92.1289Z" fill="#767D81"/>
<path d="M57.5366 44.7897C55.1743 45.9424 52.2743 49.886 51.7197 53.9182C51.6816 54.1842 51.8721 54.4291 52.1388 54.4671C52.16 54.4714 52.1854 54.4714 52.2066 54.4714C52.4479 54.4714 52.6553 54.294 52.6892 54.0491C53.193 50.38 55.8771 46.6855 57.9684 45.6637C58.2097 45.5455 58.3114 45.2541 58.1928 45.0135C58.07 44.7728 57.7779 44.6714 57.5366 44.7897Z" fill="#767D81"/>
<path d="M19.5834 90.127C19.3125 90.127 19.0923 90.3465 19.0923 90.6167C19.1008 93.0614 19.1474 97.3175 18.7452 100.4C18.7113 100.666 18.8976 100.911 19.1685 100.944C19.1897 100.949 19.2109 100.949 19.232 100.949C19.4734 100.949 19.685 100.771 19.7147 100.522C20.1211 97.3851 20.0788 93.0783 20.0703 90.6083C20.0745 90.3465 19.8544 90.127 19.5834 90.127Z" fill="#767D81"/>
<path d="M19.0537 87.556C19.058 87.822 19.2781 88.0332 19.5406 88.0332C19.5448 88.0332 19.5491 88.0332 19.5533 88.0332C19.8243 88.0289 20.0359 87.8052 20.0317 87.5349C19.9851 85.5969 19.9047 83.9882 19.82 83.338C19.5364 81.1128 19.1342 79.3648 18.6727 77.3423C18.4992 76.5781 18.3129 75.7759 18.1266 74.8976L17.9742 74.1967C17.2418 70.802 16.8735 69.0962 17.0809 65.9295C17.0851 65.8662 17.0767 65.8071 17.0555 65.7522C17.6228 64.6924 18.1732 63.7002 18.478 63.1513L18.4949 63.1217C18.6262 62.8853 18.533 62.6066 18.2959 62.4757C18.0589 62.3448 17.754 62.4461 17.6228 62.6826C16.0522 65.5115 14.418 68.5389 14.2233 69.5142C14.0243 70.5107 13.7152 71.1271 13.2241 71.5072C13.0125 71.6718 12.9744 71.98 13.1395 72.1912C13.2368 72.3136 13.3808 72.3812 13.5247 72.3812C13.6306 72.3812 13.7364 72.3474 13.8253 72.2798C14.5069 71.752 14.9387 70.9329 15.1843 69.7042C15.252 69.3622 15.5992 68.598 16.0479 67.6987C16.0522 68.9822 16.1749 70.0842 16.3908 71.3087C16.2469 71.2876 16.0945 71.3214 15.9802 71.4269C14.6508 72.6852 12.0133 74.8681 10.1929 75.7421C8.1862 76.7048 6.00592 76.1432 4.88403 75.7252C3.32185 75.1425 2.61061 74.8765 1.90784 72.9681C1.68346 72.3558 1.48871 71.6718 1.33631 70.9456C1.28127 70.6838 1.02726 70.5107 0.756308 70.5698C0.493827 70.6247 0.324485 70.8823 0.379521 71.1483C0.54463 71.9209 0.747841 72.6472 0.989154 73.3058C1.80623 75.531 2.76725 75.9785 4.53688 76.6414C5.28198 76.9201 6.44198 77.2494 7.74591 77.2494C8.6646 77.2494 9.65102 77.0848 10.6163 76.6246C12.496 75.721 15.1631 73.5296 16.5644 72.2207C16.6957 72.8836 16.8481 73.5972 17.0259 74.4036L17.1783 75.1045C17.3688 75.987 17.5508 76.7934 17.7286 77.5619C18.1859 79.559 18.5838 81.286 18.859 83.4646C18.9267 84.0684 19.0072 85.6771 19.0537 87.556Z" fill="#767D81"/>
<path d="M41.3393 63.8404C41.1107 63.7053 40.8059 63.7813 40.6704 64.0093C40.2301 64.7482 39.811 65.4533 39.4173 66.1331C37.8508 68.8396 34.0491 75.5952 32.542 79.8977C32.4531 80.151 32.5885 80.4297 32.8425 80.5184C32.8976 80.5353 32.9484 80.5437 33.0034 80.5437C33.2066 80.5437 33.3929 80.417 33.4649 80.2186C34.9847 75.8739 39.0532 68.7129 40.264 66.6186C40.6535 65.9431 41.0726 65.2379 41.5129 64.5033C41.6483 64.2795 41.5721 63.9797 41.3393 63.8404Z" fill="#767D81"/>
<path d="M37.2329 52.4346C37.1905 52.1686 36.945 51.987 36.674 52.0293C33.5624 52.5148 30.5947 52.3797 29.0367 52.0335C28.77 51.9744 28.5117 52.139 28.4525 52.4051C28.3932 52.6668 28.5583 52.9286 28.825 52.9877C29.7183 53.1862 31.0434 53.3171 32.5844 53.3171C33.8884 53.3171 35.3447 53.2242 36.8265 52.992C37.0932 52.9497 37.2752 52.7006 37.2329 52.4346Z" fill="#767D81"/>
</svg>
