<svg width="67" height="102" viewBox="0 0 67 102" fill="none" xmlns="http://www.w3.org/2000/svg">
<path d="M36.809 3.04599C35.5905 2.13221 33.4937 2.99099 32.1365 3.95976C30.8128 4.90738 29.1405 7.11989 28.0228 9.0109C26.9092 10.9061 26.0688 13.364 25.3755 14.6966C24.678 16.0292 23.0981 18.4913 22.867 19.8197C22.5518 21.6091 22.3459 24.1009 23.7032 25.1542C23.7746 27.4006 24.0519 28.5217 24.262 29.7146C24.4721 30.9076 24.4931 32.6336 24.262 33.9239C23.9847 35.468 22.9384 36.7329 22.2409 37.854C21.5434 38.9751 21.0559 40.1004 20.9845 41.0818L24.7494 40.3119C26.3546 38.5563 28.027 36.7329 29.0018 36.0307C29.6279 35.1169 29.9094 33.8562 31.233 33.5728C31.3045 32.1006 31.1616 30.9753 31.1616 30.9753C30.0481 29.3593 29.069 27.2568 28.653 25.3615C28.2329 23.4663 27.9555 21.643 27.9555 19.8873C29.2791 18.1317 30.6027 15.3269 30.3254 12.5898C32.6953 10.9061 33.8088 10.0643 34.7165 8.87129C35.6241 7.67831 36.2838 6.15112 36.8426 4.95814C38.5486 6.02844 40.2252 6.69685 41.4774 7.25527C42.7338 7.81791 44.0238 9.11666 44.6835 10.2716C45.4944 11.6845 46.0071 13.9224 46.0785 15.8177C46.1499 17.7129 46.5323 19.0455 47.192 20.7292C47.192 23.7455 47.192 25.6407 46.8433 27.2568C46.4483 29.0801 45.5533 30.6242 44.1246 31.6776C43.9859 32.4475 44.0532 33.2936 44.0532 33.2936C45.486 33.8859 46.2508 34.4527 46.3516 35.7853C47.608 36.8387 49.4191 39.1908 50.9528 40.24L50.7427 39.3981C51.5789 38.1332 51.9738 36.3184 52.3814 34.1693C52.8016 31.9568 52.7638 28.729 52.2091 25.2219C53.2554 23.7117 53.2218 19.7816 52.873 17.6791C52.5243 15.5723 51.0956 12.0314 50.3981 10.4873C49.7006 8.94321 47.8181 5.53771 45.0322 3.54095C43.5363 2.46219 38.7587 1.01115 36.809 3.04599Z" fill="#F7C8C9"/>
<path d="M23.0602 25.1841C23.1443 25.1841 23.2283 25.1629 23.3039 25.1164C23.3123 25.1121 23.3165 25.1037 23.325 25.0952C23.2031 26.7578 23.43 28.2384 23.6653 29.3595C23.9216 30.5906 24.0267 31.6312 23.9805 32.5492C23.9679 32.82 24.1737 33.0484 24.4427 33.0611C24.4511 33.0611 24.4595 33.0611 24.4679 33.0611C24.7242 33.0611 24.9385 32.8581 24.9511 32.5958C25.0015 31.5932 24.8923 30.4679 24.6192 29.1522C24.2284 27.2781 23.9174 24.7779 25.0057 22.0408C25.1066 21.7913 24.9847 21.5078 24.7368 21.4063C24.4889 21.3048 24.2074 21.4274 24.1065 21.677C23.7493 22.5781 23.5308 23.4623 23.4132 24.3084C22.3711 22.3581 22.7829 19.621 23.6779 17.7385C24.6696 15.6487 25.9218 12.5774 26.8588 9.91219C27.9093 6.93397 29.6237 4.44224 31.6952 2.8939C33.3634 1.64593 35.0316 1.07059 35.7543 1.49363C35.9854 1.629 36.2837 1.55286 36.4182 1.31595C36.5527 1.08328 36.477 0.782917 36.2417 0.647543C34.5862 -0.312765 31.8969 1.52747 31.1112 2.1155C28.8883 3.77806 27.0521 6.43478 25.9386 9.59068C25.0099 12.222 23.7788 15.2595 22.7955 17.3197C21.7702 19.4772 21.3248 22.667 22.64 24.9345C22.7325 25.0952 22.8922 25.1841 23.0602 25.1841Z" fill="#767D81"/>
<path d="M37.6999 1.41737C38.5444 0.744728 41.406 0.875871 43.4733 1.68388C45.2339 2.37344 47.7215 4.02754 49.5577 8.00415C49.6418 8.18183 49.8141 8.28759 49.9989 8.28759C50.0662 8.28759 50.1376 8.27067 50.2048 8.24106C50.4486 8.12683 50.5536 7.83494 50.4401 7.5938C48.4652 3.32106 45.755 1.52736 43.8263 0.774341C41.5993 -0.0971287 38.3638 -0.350955 37.1032 0.655888C36.8931 0.825106 36.8595 1.1297 37.0233 1.34122C37.1872 1.54851 37.4898 1.58235 37.6999 1.41737Z" fill="#767D81"/>
<path d="M33.9643 18.4922C33.9643 17.8999 33.4853 17.4219 32.9012 17.4219C32.3172 17.4219 31.8381 17.9041 31.8381 18.4922C31.8381 19.0844 32.3172 19.5625 32.9012 19.5625C33.4853 19.5625 33.9643 19.0844 33.9643 18.4922Z" fill="#767D81"/>
<path d="M42.8808 19.5625C43.4691 19.5625 43.9439 19.0802 43.9439 18.4922C43.9439 17.8999 43.4649 17.4219 42.8808 17.4219C42.2925 17.4219 41.8177 17.9041 41.8177 18.4922C41.8135 19.0844 42.2925 19.5625 42.8808 19.5625Z" fill="#767D81"/>
<path d="M38.7125 19.8999C38.5444 19.8745 38.3805 19.993 38.3511 20.1622C38.1914 21.1944 38.2965 22.4551 38.6662 23.8088C38.7041 23.9484 38.8301 24.0415 38.9688 24.0415C38.9982 24.0415 39.0234 24.0373 39.0528 24.0288C39.2209 23.9823 39.3218 23.8088 39.2755 23.6396C38.931 22.3705 38.8301 21.2029 38.9772 20.2595C38.9982 20.0903 38.8805 19.9295 38.7125 19.8999Z" fill="#767D81"/>
<path d="M33.9223 26.538C33.7248 26.4703 33.5105 26.5761 33.4433 26.7749C33.3761 26.9738 33.4811 27.1895 33.6786 27.2572C33.8551 27.3164 34.0442 27.3714 34.2417 27.418C35.3552 29.292 37.4646 29.4486 38.0948 29.4486C39.2462 29.4486 40.8723 28.9028 41.7379 27.3968C41.9018 27.3545 42.0615 27.308 42.2127 27.2614C42.4102 27.198 42.5195 26.9822 42.4565 26.7834C42.3934 26.5846 42.1791 26.4746 41.9816 26.538C39.8681 27.2276 35.9519 27.2276 33.9223 26.538ZM38.0948 28.6871C37.6494 28.6871 36.3132 28.5983 35.3594 27.6379C36.1577 27.7564 37.0317 27.8156 37.9184 27.8156C38.8512 27.8156 39.784 27.7479 40.6286 27.6168C39.9185 28.3487 38.9184 28.6871 38.0948 28.6871Z" fill="#767D81"/>
<path d="M4.51285 77.9458C4.76077 77.84 4.87422 77.5523 4.76917 77.307C4.66412 77.0574 4.37839 76.9432 4.13468 77.0489C3.38253 77.3704 2.87409 77.9796 2.77325 78.6819C2.69761 79.2107 2.8783 79.7056 3.24807 80.0145C3.48758 80.2133 3.79012 80.3064 4.13048 80.3064C4.93305 80.3064 5.92891 79.786 6.70207 78.8765C7.12646 78.3815 7.62649 77.8442 8.11812 77.362C8.31141 77.1716 8.31561 76.8628 8.12653 76.6724C7.93744 76.4778 7.6307 76.4778 7.44161 76.664C6.93317 77.1631 6.40793 77.7258 5.96673 78.2377C5.16415 79.1768 4.15149 79.4983 3.86155 79.2572C3.7523 79.1684 3.70188 79.0076 3.73129 78.8172C3.78171 78.4619 4.07585 78.1319 4.51285 77.9458Z" fill="#767D81"/>
<path d="M4.22717 64.3197C4.286 64.3409 4.34483 64.3536 4.39945 64.3536C4.59274 64.3536 4.77763 64.2351 4.85326 64.0405C5.77349 61.6249 7.59713 55.3004 8.80309 51.1123C9.39977 49.0436 9.9124 47.2541 10.0301 46.9538C10.3536 46.1162 10.7906 45.7523 10.9461 45.7989C11.2066 45.8581 11.4671 45.6973 11.5302 45.4351C11.5932 45.1728 11.4293 44.9105 11.1688 44.847C10.4082 44.6736 9.60566 45.3547 9.12664 46.6027C9.00058 46.9284 8.6098 48.2779 7.87446 50.8415C6.6727 55.0128 4.86167 61.3161 3.95405 63.6936C3.8532 63.939 3.97506 64.2224 4.22717 64.3197Z" fill="#767D81"/>
<path d="M47.524 89.1898C45.2171 89.1348 43.0783 89.0714 41.9396 89.0206C39.8008 88.9275 36.6956 88.6737 33.9559 88.4537C32.3802 88.3268 30.8927 88.2041 29.88 88.1407C27.4597 87.9842 26.5143 87.8911 25.6781 87.7219C25.4133 87.6711 25.1612 87.8403 25.1066 88.1068C25.052 88.3734 25.2243 88.6272 25.489 88.6822C26.3756 88.8599 27.3462 88.9572 29.817 89.1179C30.8255 89.1856 32.3087 89.3041 33.8803 89.431C36.6283 89.6552 39.7462 89.909 41.9018 90.0021C43.0447 90.0528 45.1919 90.1163 47.5072 90.1713C47.5114 90.1713 47.5156 90.1713 47.5198 90.1713C47.7845 90.1713 47.9988 89.9598 48.003 89.6933C48.0072 89.4225 47.7929 89.1983 47.524 89.1898Z" fill="#767D81"/>
<path d="M66.4663 73.483C66.2058 73.4703 65.9705 73.6776 65.9579 73.9483C65.8907 75.4078 65.7814 76.8504 65.6259 78.2338C65.2394 81.7408 64.9032 84.7655 63.9283 86.5381C63.0964 88.0484 62.2266 88.9706 60.2558 89.2075C59.26 89.3302 55.6715 89.3429 50.4107 89.254C50.1418 89.2625 49.9233 89.4656 49.9191 89.7363C49.9149 90.0071 50.1292 90.227 50.3939 90.2313C51.9948 90.2609 54.2135 90.2905 56.1842 90.2905C58.0414 90.2905 59.6802 90.2609 60.3735 90.1805C62.7392 89.8971 63.8443 88.7083 64.7771 87.0161C65.8486 85.0744 66.1932 81.9565 66.5924 78.348C66.7479 76.9435 66.8613 75.4797 66.9285 73.9991C66.9411 73.7241 66.731 73.4957 66.4663 73.483Z" fill="#767D81"/>
<path d="M64.1889 45.8148C64.5923 45.9502 65.1133 47.177 65.2184 48.2431C65.252 48.5773 65.2856 50.2948 65.3318 52.4651C65.4201 56.6786 65.5503 63.0411 65.8024 65.6894C65.9663 67.4069 66.042 69.298 66.0293 71.3032C66.0293 71.5739 66.2436 71.7939 66.5126 71.7939H66.5168C66.7815 71.7939 67 71.5782 67 71.3074C67.0168 69.2683 66.937 67.3435 66.7689 65.5921C66.521 62.9819 66.3865 56.6405 66.3025 52.4397C66.2563 50.1595 66.2226 48.5096 66.1848 48.1416C66.0798 47.067 65.5251 45.231 64.4956 44.8841C64.2435 44.7995 63.9662 44.9391 63.8822 45.1929C63.7981 45.4552 63.9326 45.7302 64.1889 45.8148Z" fill="#767D81"/>
<path d="M11.5343 62.7876C11.1982 62.8045 10.8956 62.9526 10.6771 63.2064C10.3578 63.5703 10.2107 64.2006 10.4418 64.9028C10.1561 64.9409 9.87877 65.089 9.68548 65.3301C9.48378 65.5755 9.19805 66.1297 9.5258 67.0477C9.81574 67.8472 10.3998 68.448 10.904 68.9302C10.7192 69.0529 10.5679 69.2348 10.4754 69.4675C10.2233 70.1147 10.4082 70.9947 10.9671 71.8238C11.3494 72.3907 11.7192 72.7461 11.9881 72.9576L11.9923 72.9618C12.1268 73.2368 12.2697 73.516 12.4335 73.7825C11.778 73.8967 10.9965 74.1717 10.0847 74.599C9.68127 74.7894 9.18544 75.1278 8.61398 75.6058C8.40809 75.7793 8.37867 76.0881 8.55095 76.2954C8.6476 76.4139 8.78626 76.4731 8.92492 76.4731C9.03417 76.4731 9.14343 76.435 9.23587 76.3589C9.7359 75.94 10.1729 75.6397 10.4965 75.4874C11.6352 74.9501 12.589 74.6751 13.1899 74.7005C14.8959 74.7851 17.4129 74.5778 18.5726 74.3959C19.5306 74.2479 20.6694 74.1887 21.7871 74.2267C22.6779 74.2563 23.4468 74.2817 24.3629 74.0025C24.6234 73.9221 24.8755 73.8291 25.1318 73.7318C25.4974 73.5922 25.8756 73.4526 26.3378 73.3299C26.5983 73.2622 26.7538 72.9957 26.6865 72.7334C26.6193 72.4711 26.3546 72.3146 26.0941 72.3823C25.5814 72.5134 25.1612 72.6742 24.7873 72.8138C24.5478 72.9026 24.3166 72.9914 24.0729 73.0676C23.3124 73.3003 22.6821 73.2791 21.8165 73.2495C21.7787 73.2495 21.7409 73.2495 21.6988 73.2495C21.287 72.5176 20.6273 70.8847 20.1903 69.7975C19.9382 69.1756 19.7954 68.816 19.7155 68.6595C19.476 68.1772 19.0474 67.5511 18.6524 67.1027C18.3919 66.8065 17.0599 64.9325 16.2615 63.8114C16.0892 63.5703 15.938 63.3587 15.8161 63.1853C15.9548 63.0838 16.043 62.9188 16.0178 62.7369C15.9506 62.1658 15.8791 61.5185 15.8035 60.8459C15.627 59.2468 15.4295 57.4361 15.1942 56.057C14.7236 53.2691 13.5429 49.5548 12.6184 47.9388C12.484 47.7061 12.1856 47.6258 11.9545 47.7611C11.7234 47.8965 11.6436 48.1926 11.778 48.4295C12.6394 49.9356 13.7908 53.578 14.2362 56.222C14.4631 57.5757 14.6606 59.3694 14.8371 60.9558C14.8959 61.4931 14.9547 62.0092 15.0093 62.4873C14.7698 62.4154 14.5177 62.4365 14.2824 62.5592C13.7782 62.813 13.5008 63.4307 13.5765 64.0441C13.2487 63.731 12.984 63.4814 12.8537 63.3587C12.3243 62.8553 11.8453 62.7707 11.5343 62.7876ZM14.753 66.485C14.7908 66.5358 14.8329 66.5781 14.8833 66.6077C15.6018 67.2846 16.1775 67.8092 16.4128 67.9911C16.854 68.3337 17.1986 68.7737 17.4381 69.3025C17.5683 69.5902 17.8667 70.322 18.1314 70.9651C18.3163 71.4177 18.4928 71.845 18.602 72.103C18.7071 72.3526 18.9928 72.4669 19.2407 72.3611C19.4886 72.2553 19.6021 71.9677 19.497 71.7181C19.3878 71.4642 19.2155 71.037 19.0306 70.5885C18.7491 69.9074 18.4591 69.201 18.3247 68.8964C18.0179 68.2237 17.5767 67.6569 17.0095 67.2169C16.791 67.0477 16.1775 66.485 15.4926 65.842C15.4169 65.7109 15.3455 65.5797 15.2615 65.4443C15.0051 65.0171 14.7404 64.5771 14.5639 64.0145C14.4715 63.7226 14.6186 63.4772 14.7194 63.4222C14.7656 63.3968 14.8539 63.5068 14.8791 63.5406C15.0135 63.7268 15.2236 64.0229 15.4716 64.374C16.6103 65.9774 17.6524 67.4411 17.9255 67.7457C18.2658 68.1307 18.644 68.6806 18.8457 69.091C18.9087 69.2179 19.0852 69.6536 19.2869 70.157C19.6777 71.13 20.1861 72.3865 20.6021 73.2453C19.8332 73.2664 19.081 73.3256 18.4129 73.4272C17.3666 73.5879 15.1858 73.7698 13.5681 73.7318C13.5597 73.7233 13.5597 73.7106 13.5513 73.7021C13.2739 73.3679 13.0722 72.9576 12.8579 72.5219L12.8033 72.4161C12.7697 72.3442 12.7193 72.285 12.6563 72.2384C12.484 72.1115 12.1394 71.8196 11.7696 71.2696C11.4083 70.7366 11.2528 70.1528 11.3831 69.8186C11.3957 69.789 11.4209 69.734 11.4545 69.7298C11.5049 69.7213 11.6226 69.7552 11.7486 69.8905C12.1646 70.3347 12.9798 71.13 13.421 71.5277C13.7277 71.8027 14.1311 72.4119 14.4547 72.9026L14.669 73.2283C14.8203 73.4526 15.1228 73.5075 15.3413 73.3595C15.564 73.2072 15.6186 72.9026 15.4716 72.6826L15.2615 72.3653C14.8875 71.8027 14.4631 71.1597 14.0681 70.8001C13.6479 70.4236 12.8495 69.6409 12.4546 69.2179C12.4293 69.1883 12.3957 69.1714 12.3705 69.146C12.3537 69.0656 12.3285 68.9894 12.2739 68.9218C12.1142 68.7314 11.9125 68.5368 11.6982 68.338C11.2192 67.8811 10.6771 67.365 10.446 66.7177C10.3242 66.3835 10.3242 66.0958 10.4418 65.952C10.4965 65.8843 10.5595 65.8632 10.5931 65.8716C10.7192 65.8928 10.8368 65.8589 10.9377 65.7912C11.3747 66.3454 12.152 67.0646 12.7823 67.6442C13.0764 67.9149 13.337 68.156 13.5176 68.338C14.0093 68.8329 14.4547 69.2348 14.8455 69.5859L15.1186 69.8313C15.8119 70.3643 16.064 70.7578 16.2195 71.0666C16.2531 71.13 16.2909 71.2104 16.3372 71.295C16.522 71.6504 16.8036 72.1919 16.9759 72.7757C17.0389 72.9872 17.2322 73.1268 17.4423 73.1268C17.4885 73.1268 17.5347 73.1183 17.5809 73.1057C17.8372 73.0295 17.9843 72.7588 17.9087 72.5007C17.7112 71.8238 17.4002 71.2316 17.1986 70.8424C17.1565 70.762 17.1187 70.6901 17.0893 70.6309C16.8036 70.0555 16.3792 69.5732 15.7405 69.0825L15.4968 68.8625C15.1144 68.5199 14.6816 68.1264 14.2068 67.6526C14.0177 67.4623 13.7446 67.2084 13.4378 66.9292C12.8117 66.3539 12.0344 65.6347 11.6604 65.144C11.2234 64.5686 11.2528 64.0441 11.4167 63.8579C11.4629 63.8029 11.5217 63.7775 11.5974 63.7733C11.7654 63.7649 11.9923 63.8749 12.2066 64.0779C12.3537 64.2175 12.6605 64.5052 13.0428 64.869C13.6311 65.4274 14.2278 65.9901 14.753 66.485Z" fill="#767D81"/>
<path d="M51.9486 76.6759C52.0369 76.769 52.1587 76.8325 52.2932 76.8325C52.3142 76.8325 52.3352 76.8325 52.352 76.8282L52.726 76.7817C53.0874 76.7394 53.3521 76.7055 53.6756 76.6125C56.1338 78.3131 57.8818 79.7895 58.6045 80.7837C59.4449 81.9386 60.9198 82.7508 61.7139 82.7551C61.7182 82.7551 61.7182 82.7551 61.7224 82.7551C62.0795 82.7551 62.2728 82.5985 62.3694 82.4674C62.756 81.9513 62.4283 80.6864 62.3905 80.5425C62.2056 79.8488 61.7097 78.6135 60.4996 78.1016C60.2517 77.9958 59.9659 78.1143 59.8651 78.3639C59.76 78.6135 59.8777 78.8969 60.1256 79.0027C61.3064 79.5019 61.6047 81.1686 61.5837 81.7651C61.1425 81.6721 60.0794 81.1602 59.3861 80.2083C58.3944 78.8461 56.0875 77.099 54.2471 75.8214C54.2933 73.8458 54.7891 68.0501 55.2598 65.2411C55.9615 61.0741 57.0204 58.3201 58.0499 55.6549L58.2179 55.2149C58.3146 54.9653 58.1885 54.6819 57.9406 54.5846C57.6885 54.4873 57.4112 54.61 57.3145 54.8638L57.1464 55.3038C56.1506 57.8843 55.0245 60.8118 54.3059 65.0803C54.0916 66.3537 53.8563 68.3758 53.6672 70.3726C53.3353 70.3599 52.8647 70.3599 52.3646 70.3599C51.8478 70.3599 51.3141 70.3599 50.9738 70.3472C50.3519 70.3218 49.4359 70.3049 48.6291 70.4741C48.2845 70.546 47.7299 70.7068 47.1416 70.8802C46.4903 71.0706 45.818 71.2652 45.4818 71.3244C45.444 71.3329 45.4146 71.3498 45.381 71.3625C45.3558 71.1637 45.3348 71.0241 45.3222 70.9733C45.2549 70.6602 45.0869 69.9072 44.4482 69.7761C46.36 67.2844 48.5366 62.9989 49.9443 59.6104C51.1545 56.704 53.4319 51.0099 55.1211 45.5611C55.1631 45.4215 55.1421 45.2692 55.0623 45.1465C54.9824 45.0238 54.8522 44.9434 54.7093 44.9308C53.9109 44.8461 52.6756 44.6812 51.5915 44.4739C52.9655 44.0635 54.4362 43.5516 54.5286 43.522C54.7135 43.4586 54.8396 43.2936 54.8564 43.099C54.8732 42.9044 54.7681 42.7182 54.6001 42.6294C54.0622 42.3417 52.9361 41.6352 52.1545 41.0345C54.2891 41.5379 56.5372 42.2148 57.9952 42.6505C58.5709 42.824 59.0373 42.9636 59.3441 43.0482C60.7853 43.4459 61.7139 44.0593 61.8316 44.3512C61.9072 44.5415 62.0879 44.66 62.2812 44.66C62.34 44.66 62.4031 44.6473 62.4619 44.6262C62.7098 44.5246 62.8317 44.2412 62.7308 43.9916C62.3947 43.1455 60.8315 42.4517 59.6004 42.1091C59.302 42.0244 58.844 41.8891 58.2768 41.7199C56.617 41.2207 53.953 40.4211 51.5578 39.9008C51.4696 39.7019 51.394 39.5116 51.3141 39.317C51.4864 39.2958 51.6419 39.1901 51.7091 39.0166C52.5915 36.766 53.1294 33.7539 53.2218 30.5261C53.2764 28.6901 53.0832 26.8456 52.6251 24.8066C52.6798 24.8573 52.7428 24.8996 52.8184 24.925C52.8647 24.9377 52.9109 24.9462 52.9571 24.9462C53.1672 24.9462 53.3605 24.8108 53.4235 24.5993C53.9698 22.7675 53.9446 20.9823 53.8521 18.8417C53.7723 16.9845 52.6546 12.9487 51.2511 9.44587C51.1503 9.19627 50.8687 9.07782 50.6208 9.17512C50.3729 9.27665 50.251 9.56009 50.3519 9.80969C51.6965 13.1644 52.8058 17.1495 52.8815 18.8797C52.9655 20.9146 52.9907 22.6067 52.4991 24.282C52.268 23.3259 51.9822 22.3318 51.6293 21.2657C51.5452 21.0076 51.2679 20.8723 51.0158 20.9569C50.7595 21.0415 50.625 21.3207 50.7091 21.5745C51.852 25.0308 52.3268 27.7806 52.2512 30.4965C52.1671 33.4578 51.6923 36.2161 50.9234 38.3228C50.0157 35.8861 49.5745 33.6609 49.5745 31.4357C49.5745 31.1649 49.356 30.9449 49.0913 30.9449C48.8224 30.9449 48.6081 31.1649 48.6081 31.4357C48.6081 33.8301 49.0829 36.2118 50.0746 38.822C49.8266 38.5597 49.5661 38.2847 49.293 38.0013C48.3686 37.0283 47.4105 36.0215 46.8517 35.3615C46.7928 35.2938 46.7214 35.2515 46.6416 35.2261C46.4399 34.5704 46.1373 33.8132 45.7508 33.5213C45.5491 33.369 45.2717 33.407 45.1037 33.5974C45.0995 32.9332 45.1121 32.341 45.1247 31.8629C45.1331 31.4949 45.1415 31.1945 45.1373 30.9576C46.3264 29.477 47.1206 27.7383 47.3727 25.9826C47.5492 24.7516 47.5786 23.0721 47.5828 21.8537C48.0786 22.5729 48.7005 23.3302 49.4947 24.1001C49.5871 24.1932 49.709 24.2355 49.8308 24.2355C49.9569 24.2355 50.083 24.1847 50.1796 24.0874C50.3645 23.8928 50.3603 23.584 50.167 23.3978C47.5366 20.8469 46.8811 18.5032 46.7256 17.3356C46.6836 17.0226 46.6458 16.6461 46.5996 16.2315C46.4063 14.4251 46.1415 11.9545 45.318 10.4739C44.1078 8.29942 41.9438 7.00491 40.7589 6.42957L40.2924 6.20112C38.994 5.57079 37.9688 5.07583 36.9645 4.13667C36.767 3.95476 36.4603 3.96746 36.2796 4.16206C36.0989 4.36089 36.1073 4.66971 36.3048 4.85162C37.4183 5.8923 38.557 6.44226 39.8722 7.07682L40.3387 7.30104C41.4186 7.82984 43.3935 9.0059 44.4734 10.9477C44.923 11.7557 45.1919 12.9571 45.3726 14.167C44.0322 14.0317 42.2001 14.129 40.7841 14.8143C40.6286 14.8904 40.5614 15.0808 40.637 15.2373C40.6916 15.3516 40.8051 15.415 40.9227 15.415C40.9689 15.415 41.0152 15.4065 41.0572 15.3854C42.4144 14.7297 44.2086 14.6662 45.465 14.8185C45.5323 15.3473 45.5911 15.8634 45.6373 16.333C45.6835 16.7561 45.7255 17.141 45.7676 17.4625C45.86 18.1521 46.1079 19.2055 46.7466 20.4535C46.6668 20.5423 46.6122 20.6565 46.6122 20.7834V21.1049C46.6164 22.2556 46.6206 24.4005 46.4105 25.8388C46.0953 28.0132 44.8641 30.1623 43.0363 31.7403C41.2631 33.2674 39.6495 34.0078 38.1116 34.0078C36.2334 34.0078 34.4265 33.2294 32.8844 31.7572C31.0734 30.0269 29.9809 27.6367 29.4892 26.3634C28.8715 24.7643 28.6194 21.1346 28.5564 20.06C28.548 19.9373 28.4976 19.8358 28.4177 19.7554C29.6867 18.1309 30.4011 16.2569 30.7036 14.5901C30.775 14.6705 30.8843 14.7128 30.9977 14.6874C32.6533 14.3236 34.6576 14.6705 35.7585 15.5165C35.8174 15.5588 35.8846 15.58 35.9476 15.58C36.0443 15.58 36.1367 15.5377 36.1997 15.4531C36.3048 15.3135 36.2796 15.1146 36.1409 15.0089C34.9013 14.0613 32.6827 13.6594 30.8633 14.0613C30.8339 14.0697 30.8086 14.0824 30.7792 14.0993C30.8213 13.7905 30.8507 13.4902 30.8675 13.2025C30.8801 12.991 30.7498 12.8048 30.5607 12.7287C34.4265 10.3089 36.0233 8.00329 36.6704 6.39996C36.7712 6.15036 36.6493 5.86692 36.4014 5.76539C36.1535 5.66386 35.872 5.78654 35.7711 6.03614C35.0736 7.77062 33.1407 10.4104 27.8757 13.1433C27.6362 13.266 27.5437 13.5621 27.6656 13.8032C27.7538 13.9724 27.9219 14.0697 28.0984 14.0697C28.174 14.0697 28.2497 14.0528 28.3211 14.0147C28.8884 13.7186 29.4052 13.4267 29.901 13.1348C29.901 13.1433 29.8968 13.1517 29.8968 13.1602C29.7792 15.525 28.6699 18.7951 25.9134 20.8765C25.6991 21.0373 25.6571 21.3461 25.8167 21.5618C25.9134 21.6887 26.0562 21.7564 26.2033 21.7564C26.3042 21.7564 26.405 21.7226 26.4932 21.6591C26.9008 21.3503 27.2748 21.0161 27.6194 20.6692C27.7286 22.2979 28.0017 25.2254 28.5816 26.7272C28.9052 27.5606 29.4766 28.8551 30.3254 30.1581C30.3086 30.2258 30.3044 30.2977 30.317 30.3738C30.4683 31.1184 30.6448 32.2479 30.7036 33.6736C30.6952 33.6566 30.691 33.6397 30.6784 33.6228C30.5187 33.407 30.212 33.3647 29.9977 33.5255C29.6027 33.8259 29.2917 34.617 29.0943 35.2811C28.9178 35.2304 28.7245 35.2811 28.5984 35.4292C28.0354 36.0807 27.0647 37.0748 26.1277 38.0394C25.4806 38.7036 24.8671 39.3339 24.4511 39.7865C23.5603 39.9515 22.5476 40.18 21.5223 40.4338C21.7745 39.3466 22.5854 37.7517 23.5393 36.453C23.9511 35.8903 24.4889 34.9808 24.6822 34.3081C24.7578 34.0501 24.6108 33.7793 24.3545 33.7032C24.0981 33.627 23.8292 33.7751 23.7536 34.0332C23.5981 34.562 23.1401 35.3573 22.7619 35.8692C21.7156 37.2906 20.8584 39.0039 20.5769 40.2307C20.5433 40.383 20.5895 40.5311 20.6778 40.6453C18.9171 41.0895 17.1901 41.5718 16.0304 41.8975C15.48 42.0498 15.0429 42.1725 14.7782 42.2444C13.5387 42.5702 11.9713 43.247 11.6226 44.0889C11.5217 44.3385 11.6394 44.6219 11.8873 44.7277C11.9461 44.7531 12.0091 44.7658 12.0722 44.7658C12.2613 44.7658 12.4419 44.6515 12.5218 44.4654C12.6394 44.1777 13.5765 43.5728 15.0219 43.192C15.2909 43.1201 15.7321 42.9974 16.2909 42.8409C18.0557 42.3502 21.1232 41.4914 23.6191 40.9584C22.9384 41.5591 21.3921 42.604 20.7744 42.9128C20.6021 43.0017 20.4971 43.1836 20.5055 43.3782C20.5181 43.5728 20.6441 43.742 20.8248 43.8097C20.9131 43.8435 22.3081 44.3427 23.6317 44.7531C22.514 44.9688 21.2282 45.1338 20.4088 45.2227C20.266 45.2396 20.1357 45.3157 20.0559 45.4384C19.976 45.5611 19.955 45.7134 19.997 45.853L20.6483 47.964C21.3249 50.1638 22.0266 52.4398 22.7367 54.61C22.8039 54.8173 22.993 54.9442 23.1989 54.9442C23.2493 54.9442 23.2998 54.9357 23.3502 54.9188C23.6065 54.8342 23.741 54.5592 23.6569 54.3012C22.9468 52.1394 22.2493 49.8719 21.5728 47.6763L21.0938 46.128C22.2115 45.9926 24.5604 45.6668 25.7201 45.2227C25.9218 45.1465 26.052 44.9392 26.031 44.7192C26.01 44.4992 25.8503 44.3216 25.6361 44.2835C24.8335 44.1354 23.1905 43.5982 22.1316 43.2343C23.0477 42.6463 24.2578 41.7833 24.6402 41.301C24.7705 41.1361 24.7747 40.9161 24.6738 40.7469C24.7074 40.7384 24.7452 40.7342 24.7831 40.7257C24.8881 40.7088 24.9848 40.6538 25.0562 40.5734C25.4596 40.125 26.1193 39.4481 26.821 38.7289C27.5101 38.0225 28.2118 37.3033 28.7665 36.7026C28.4345 38.4878 28.2917 40.218 28.3547 41.8552C28.4724 44.8377 29.8002 50.2611 30.5943 53.4974C30.6952 53.9162 30.7918 54.2969 30.8717 54.6354C31.1448 55.7649 31.6826 57.859 32.3045 60.283C33.2962 64.1454 34.4181 68.5154 34.9055 70.6899C32.6911 71.0706 30.1363 71.5359 28.59 71.8236C28.3253 71.8744 28.153 72.1282 28.1992 72.3947C28.2497 72.6612 28.5018 72.8347 28.7665 72.7882C31.0398 72.3651 35.5022 71.5571 37.8175 71.2102C39.8092 70.9098 41.8472 70.8506 43.0657 70.8125C43.6582 70.7956 44.0154 70.7829 44.2255 70.7449C44.2885 70.8041 44.3515 71.0833 44.3767 71.2102C44.465 71.6459 45.2507 78.5458 45.2717 79.0873C45.2801 79.2903 45.2927 79.5992 45.2633 79.6584C45.2633 79.6584 45.2465 79.6668 45.2003 79.6753C44.9608 79.7134 44.2255 80.0053 42.0152 80.9021C39.3596 81.9809 35.7207 83.4573 33.3088 84.2357C29.3212 85.5218 17.1145 88.4111 12.9252 88.5973C8.20218 88.8088 5.14317 88.0008 3.82796 86.2071C2.32787 84.1638 0.735329 79.0281 1.00425 75.7198C1.21435 73.1435 2.63881 69.6026 3.89519 66.4806L3.96662 66.3071C4.06747 66.0575 3.94562 65.7741 3.6977 65.6726C3.44979 65.571 3.16405 65.6895 3.06741 65.9433L2.99598 66.1168C1.71438 69.3023 0.256308 72.9151 0.0336046 75.6437C-0.25633 79.2142 1.41184 84.5699 3.0464 86.7909C4.43304 88.6819 7.20632 89.6084 11.4965 89.6084C11.9671 89.6084 12.4588 89.5957 12.9672 89.5745C13.5513 89.5491 14.295 89.4688 15.1438 89.3503C15.0598 89.4349 15.0093 89.5534 15.0051 89.6845C14.9757 90.611 14.8959 91.8336 14.774 93.2296C14.7488 93.4961 14.9463 93.7373 15.2152 93.7584C15.2278 93.7584 15.2446 93.7584 15.2572 93.7584C15.5052 93.7584 15.7195 93.5681 15.7405 93.3142C15.8623 91.9055 15.9464 90.6617 15.9758 89.7184C15.9842 89.5238 15.8707 89.3545 15.7111 89.2699C21.1274 88.4535 30.2498 86.2494 33.6029 85.1664C36.0527 84.3753 39.7084 82.8904 42.3766 81.8074C43.7969 81.2321 45.1415 80.6864 45.3474 80.6398C46.2844 80.496 46.2634 79.6457 46.2424 79.0492C46.2844 79.0661 46.3222 79.083 46.3726 79.0873C46.5281 79.1042 46.6878 79.1084 46.8475 79.1084C47.7803 79.1084 48.8014 78.8588 49.8939 78.3681C50.646 78.0085 51.4402 77.247 51.9486 76.6759ZM37.6704 70.2245C37.1536 70.3007 36.5317 70.4022 35.8552 70.5164C35.8552 70.508 35.8552 70.4995 35.8552 70.4868C35.3678 68.3081 34.2374 63.9085 33.2416 60.0249C32.6197 57.6051 32.0818 55.5111 31.8129 54.39C31.7331 54.0558 31.6364 53.6708 31.5356 53.252C30.7498 50.0496 29.4388 44.6854 29.3254 41.8045C29.2581 40.1292 29.4136 38.344 29.7834 36.4995C30.0313 35.2642 30.4263 34.4266 30.5817 34.3039C30.6406 34.2574 30.6868 34.2024 30.7162 34.1389C30.7498 35.5984 30.6616 37.3329 30.3128 39.2662C30.2666 39.5327 30.4389 39.7865 30.7036 39.8331C30.733 39.8373 30.7624 39.8415 30.7918 39.8415C31.0229 39.8415 31.2246 39.6766 31.2667 39.4396C31.8423 36.2584 31.7415 33.5805 31.5188 31.7487C31.7373 31.9983 31.9684 32.2395 32.2079 32.4721C33.9307 34.122 35.9686 34.9935 38.1032 34.9935C39.8806 34.9935 41.7001 34.1728 43.6582 32.489C43.8263 32.3452 43.9817 32.1887 44.1414 32.0364C44.1036 33.5932 44.0658 36.0765 44.6288 38.9785C44.6751 39.2112 44.8768 39.372 45.1037 39.372C45.1331 39.372 45.1667 39.3677 45.1961 39.3635C45.4608 39.3127 45.6289 39.0547 45.5785 38.7924C45.2507 37.096 45.1373 35.5434 45.1037 34.2447C45.1205 34.2658 45.1331 34.2912 45.1583 34.3081C45.3096 34.4308 45.7045 35.2684 45.9567 36.5037C46.3264 38.3482 46.4819 40.1334 46.4147 41.8087C46.2886 44.9604 44.6456 50.6461 43.1287 54.3265C41.1748 59.0689 38.847 66.4933 38.0696 69.9622C38.0528 70.0341 38.057 70.1061 38.0738 70.1738C37.9393 70.1907 37.8049 70.2076 37.6704 70.2245ZM43.0321 69.8184C42.0699 69.848 40.6076 69.8903 39.0403 70.0553C39.8302 66.5779 42.1035 59.3438 44.0196 54.6988C45.5701 50.9422 47.2467 45.1084 47.3769 41.8468C47.4357 40.3196 47.3139 38.7036 47.0281 37.041C47.503 37.5529 48.0408 38.1198 48.5745 38.6824C49.2636 39.41 49.9191 40.0954 50.3183 40.548C50.3897 40.6284 50.4864 40.6834 50.5872 40.7045C50.6208 40.713 50.6586 40.7172 50.6922 40.7257C50.6544 40.8822 50.688 41.0514 50.8057 41.1741C51.3183 41.7072 52.373 42.4306 53.1966 42.9424C52.0999 43.3063 50.3897 43.852 49.5661 44.0001C49.3518 44.0381 49.1922 44.2158 49.1669 44.4316C49.1459 44.6473 49.2678 44.8546 49.4695 44.935C50.5872 45.3792 52.8941 45.7049 54.0034 45.8403C52.3478 51.0776 50.1964 56.446 49.0367 59.2381C47.5828 62.7409 45.1331 67.5297 43.1918 69.7719C43.1792 69.7845 43.1792 69.8015 43.1666 69.8142C43.1329 69.8142 43.0825 69.8184 43.0321 69.8184ZM52.6335 75.8087C52.6882 75.7325 52.747 75.6564 52.7974 75.5845C52.9109 75.4279 53.0117 75.2841 53.1042 75.1699C53.1546 75.1657 53.2092 75.1572 53.2596 75.153C53.2722 75.153 53.289 75.1487 53.3059 75.1487C53.2975 75.356 53.289 75.5422 53.2848 75.7114C53.0874 75.7537 52.9025 75.7791 52.6335 75.8087ZM49.4905 77.4586C48.3644 77.9662 47.3433 78.182 46.4567 78.0974C46.3474 78.0847 46.2466 78.1185 46.1626 78.1735C46.0197 76.7563 45.7003 73.9515 45.4986 72.2847C45.5197 72.289 45.5407 72.2974 45.5659 72.2974C45.5953 72.2974 45.6205 72.2932 45.6499 72.289C46.0365 72.2213 46.7382 72.0182 47.4147 71.8194C47.961 71.6586 48.5198 71.4936 48.8266 71.4302C49.4022 71.3075 50.0704 71.299 50.6082 71.3117C50.3267 71.3498 50.0451 71.3963 49.772 71.464C49.5115 71.5275 49.3518 71.7898 49.4149 72.0521C49.4695 72.2763 49.667 72.4286 49.8855 72.4286C49.9233 72.4286 49.9611 72.4243 49.9989 72.4159C50.7259 72.2424 51.5116 72.1705 52.1587 72.2213C52.4487 72.2467 52.7092 72.2551 52.9445 72.2678C53.1462 72.2763 53.3227 72.289 53.4991 72.3017C53.4445 72.9658 53.3983 73.5962 53.3605 74.1588C53.2848 74.1673 53.2134 74.1757 53.142 74.1842C53.0285 74.1969 52.9193 74.2096 52.8058 74.2223C52.684 74.235 52.5705 74.2942 52.4907 74.383C52.3436 74.548 52.1923 74.7638 52.0117 75.0134C51.873 75.208 51.7175 75.4237 51.5368 75.6606C51.1292 76.181 50.2216 77.1286 49.4905 77.4586Z" fill="#767D81"/>
<path d="M61.8526 45.7345C60.8021 47.1728 59.6718 49.14 58.9029 50.8618C58.7936 51.1071 58.9029 51.399 59.1466 51.509C59.2096 51.5386 59.281 51.5513 59.3441 51.5513C59.529 51.5513 59.7054 51.4456 59.7853 51.2637C60.5164 49.6265 61.6341 47.6805 62.63 46.3141C62.7897 46.0983 62.7434 45.7895 62.5249 45.633C62.3148 45.4722 62.0123 45.5187 61.8526 45.7345Z" fill="#767D81"/>
<path d="M29.4052 71.089C29.4892 71.2582 29.6615 71.3555 29.838 71.3555C29.9136 71.3555 29.9893 71.3385 30.0607 71.3005C30.3002 71.1778 30.3926 70.8817 30.2708 70.6405C29.048 68.2461 26.5395 62.3616 25.2032 58.7615C24.9259 58.0127 24.6486 57.2385 24.3587 56.3882C24.2704 56.1344 23.9931 55.999 23.741 56.0878C23.4889 56.1767 23.3544 56.4559 23.4426 56.7097C23.7368 57.5685 24.0183 58.3511 24.2956 59.1041C25.636 62.7338 28.1698 68.6691 29.4052 71.089Z" fill="#767D81"/>
<path d="M15.1228 94.6639C14.8538 94.6301 14.6185 94.8289 14.5891 95.0996C14.358 97.3502 14.0639 99.567 13.7697 101.344C13.7235 101.61 13.9042 101.86 14.1689 101.906C14.1941 101.911 14.2235 101.915 14.2488 101.915C14.4799 101.915 14.6858 101.746 14.7278 101.509C15.0261 99.7108 15.3202 97.4729 15.5556 95.2012C15.585 94.9304 15.3917 94.6893 15.1228 94.6639Z" fill="#767D81"/>
<path d="M55.9278 90.5703C55.6589 90.583 55.453 90.8114 55.4614 91.078C55.5497 93.2482 56.1169 97.8932 56.7262 101.434C56.7682 101.671 56.9741 101.84 57.2052 101.84C57.2346 101.84 57.2599 101.836 57.2893 101.832C57.554 101.785 57.7305 101.531 57.6843 101.269C57.0834 97.7621 56.5203 93.172 56.4321 91.0357C56.4237 90.7691 56.1926 90.5703 55.9278 90.5703Z" fill="#767D81"/>
<path d="M36.8552 90.2227C36.5863 90.2227 36.372 90.4426 36.372 90.7134C36.372 93.2051 35.9308 97.9178 35.3636 101.433C35.3215 101.7 35.5022 101.949 35.7669 101.996C35.7921 102 35.8174 102 35.8468 102C36.0821 102 36.288 101.831 36.3258 101.59C36.8973 98.0278 37.3469 93.2474 37.3469 90.7134C37.3385 90.4426 37.1242 90.2227 36.8552 90.2227Z" fill="#767D81"/>
<path d="M42.4817 54.1531C42.7464 54.1108 42.9271 53.8612 42.885 53.5947C42.843 53.3282 42.5951 53.1505 42.3304 53.1886C39.326 53.6582 34.8215 53.5143 32.4936 52.8713C32.2331 52.7994 31.9684 52.9517 31.897 53.214C31.8255 53.4763 31.9768 53.7428 32.2373 53.8147C33.7122 54.2208 36.0107 54.4408 38.2881 54.4408C39.7756 54.4366 41.2505 54.3477 42.4817 54.1531Z" fill="#767D81"/>
</svg>
