<svg width="86" height="95" viewBox="0 0 86 95" fill="none" xmlns="http://www.w3.org/2000/svg">
<path d="M64.4276 41.0429C66.0194 39.4328 67.2233 35.3464 67.1297 33.0733C66.9825 29.6319 65.7073 24.7563 65.2926 22.9973C64.7977 20.9 64.4721 16.4303 62.9873 13.5438C62.0643 11.7487 59.0723 8.63658 56.2944 9.72806C55.523 8.29831 52.7941 7.38272 50.8188 7.48195C49.0977 7.56764 45.6063 8.44263 43.6934 9.77768C41.7805 11.1127 40.1441 12.6688 38.6637 14.518C37.6649 15.7673 36.024 18.1082 35.1634 19.7634C34.2671 21.4773 33.5492 23.6468 33.8079 25.7441C32.8849 27.9496 32.439 28.7389 31.9217 30.1596C31.4803 31.3729 31.0701 32.6087 30.7758 33.9753C30.3299 36.032 30.2942 39.55 30.5528 41.6428C31.9217 41.3451 33.8435 40.9708 35.4711 40.5197C36.6928 39.5861 38.9847 37.3761 38.9847 37.3761C36.84 33.4476 37.6649 29.6996 38.2891 27.7286C38.9446 25.6629 39.8364 23.4709 40.6122 21.775C42.4984 20.467 44.1259 18.708 45.2719 15.9748C48.2995 15.411 50.0162 15.2351 51.4163 14.4909C52.8164 13.7422 54.5643 12.777 55.63 11.875C56.8027 13.6791 57.6856 14.8608 58.6443 15.9703C59.6074 17.0798 60.1603 19.2718 60.2896 20.6926C60.4457 22.4245 60.0667 24.6977 59.438 26.7138C58.836 28.6442 58.3634 31.2421 58.515 33.0372C57.1817 35.9598 55.63 37.9759 53.9267 39.3245C54.7784 39.7755 55.367 39.7755 55.5899 39.2478C55.8128 38.7246 56.2186 38.1248 56.9231 38.2736C57.6276 38.4225 57.8863 38.3864 58.2564 37.9353C58.6265 37.4843 59.2195 37.0739 59.8482 37.3761C60.4769 37.6737 61.0298 37.5249 61.4757 37.2994C61.9216 37.0739 62.5503 36.9611 63.1791 37.6737C63.7989 38.3864 64.2046 39.4688 64.4276 41.0429Z" fill="#F7C8C9"/>
<path d="M64.4721 20.915C64.9537 23.9955 65.6894 27.5857 66.3449 30.0573C66.987 32.4748 66.8443 37.1249 64.9091 39.5695C64.7308 39.795 64.7664 40.1197 64.9894 40.3001C65.083 40.3768 65.199 40.4129 65.3104 40.4129C65.462 40.4129 65.6092 40.3453 65.7117 40.219C67.959 37.3775 68.0081 32.3124 67.3393 29.7822C66.6927 27.3421 65.9659 23.797 65.4888 20.7481C65.4442 20.4639 65.1856 20.27 64.9002 20.3151C64.6193 20.3647 64.4275 20.6308 64.4721 20.915Z" fill="#767D81"/>
<path d="M58.5774 8.74647C59.5494 8.57508 61.1903 9.84697 62.3943 11.7142C63.509 13.4326 64.0263 15.4532 64.1288 18.4751C64.1377 18.7593 64.3651 18.9803 64.6416 18.9803C64.646 18.9803 64.655 18.9803 64.6594 18.9803C64.9448 18.9713 65.1677 18.7277 65.1544 18.4436C65.0786 16.1704 64.7932 13.5274 63.2548 11.1504C62.0153 9.23358 60.0355 7.43397 58.3946 7.73165C58.1137 7.78127 57.9264 8.05188 57.9799 8.33603C58.0289 8.60665 58.292 8.79608 58.5774 8.74647Z" fill="#767D81"/>
<path d="M53.8999 12.2853C52.4329 13.6339 49.3027 15.2847 42.6945 15.4786C42.4092 15.4876 42.1862 15.7267 42.1951 16.0153C42.2041 16.2995 42.4315 16.5205 42.7079 16.5205C42.7124 16.5205 42.7168 16.5205 42.7258 16.5205C49.6505 16.313 52.9992 14.5224 54.5955 13.0521C54.8051 12.8581 54.8229 12.5289 54.6312 12.3169C54.435 12.1049 54.1095 12.0914 53.8999 12.2853Z" fill="#767D81"/>
<path d="M44.9241 17.053C44.6744 16.9132 44.3622 17.0079 44.224 17.2605C42.8105 19.89 40.4116 21.5633 37.0986 22.2263C36.8177 22.2804 36.6393 22.5555 36.6928 22.8397C36.7419 23.0877 36.9559 23.2591 37.1967 23.2591C37.2279 23.2591 37.2636 23.2546 37.2992 23.2501C40.3625 22.6322 42.7169 21.216 44.3176 19.033C45.7088 19.5021 46.9663 20.2372 47.7466 21.0536C47.8135 21.1213 47.8982 21.1573 47.9874 21.1573C48.0721 21.1573 48.1568 21.1258 48.2192 21.0626C48.353 20.9318 48.353 20.7198 48.2282 20.5845C47.1625 19.475 45.6955 18.8075 44.7145 18.4557C44.8572 18.2302 44.9954 18.0002 45.1247 17.7611C45.2674 17.504 45.1738 17.1883 44.9241 17.053Z" fill="#767D81"/>
<path d="M30.972 33.277C31.0121 33.286 31.0522 33.2905 31.0879 33.2905C31.3198 33.2905 31.5338 33.1282 31.5873 32.8891C32.2606 29.9665 33.5314 27.1611 35.7119 23.7964C35.8679 23.5574 35.801 23.2326 35.5647 23.0748C35.3284 22.9169 35.0073 22.9846 34.8513 23.2236C34.5793 23.6476 34.3207 24.0625 34.071 24.4684C34.2181 23.1785 34.557 21.875 34.9717 20.4092C35.5246 18.4427 38.1464 13.7655 41.4372 10.4505C43.7291 8.14123 46.7567 6.79717 50.4398 6.4589C52.968 6.22887 56.0224 6.95052 56.6065 7.92474C56.7537 8.16829 57.0747 8.24948 57.3155 8.09613C57.5563 7.94729 57.6321 7.62706 57.485 7.37899C56.5085 5.76431 52.7094 5.20504 50.3462 5.42153C46.4178 5.78236 43.1762 7.22564 40.7104 9.71081C37.54 12.9086 34.6685 17.676 33.9818 20.125C33.3397 22.3982 32.8626 24.3061 32.9785 26.4079C31.8326 28.5728 31.0656 30.5844 30.584 32.6546C30.5216 32.9342 30.6955 33.2139 30.972 33.277Z" fill="#767D81"/>
<path d="M35.6851 30.9951C35.0742 33.7463 34.5346 35.6497 32.1848 38.8475C32.0153 39.0775 32.0644 39.4067 32.2918 39.5781C32.3854 39.6458 32.4924 39.6819 32.5995 39.6819C32.7555 39.6819 32.9116 39.6097 33.0141 39.4699C35.4844 36.1142 36.073 34.026 36.6928 31.2251C36.7552 30.9455 36.5813 30.6658 36.3048 30.6027C36.0195 30.5395 35.7475 30.7154 35.6851 30.9951Z" fill="#767D81"/>
<path d="M55.3803 26.282C54.7784 26.061 54.1095 26.3722 53.8866 26.9811C53.6681 27.59 53.9757 28.2665 54.5777 28.4921C54.707 28.5417 54.8452 28.5642 54.979 28.5642C55.144 28.5642 55.3134 28.5281 55.465 28.456C55.746 28.3252 55.96 28.0906 56.067 27.793C56.174 27.4998 56.1606 27.1796 56.0313 26.8909C55.902 26.6068 55.6701 26.3903 55.3803 26.282Z" fill="#767D81"/>
<path d="M43.5908 23.1569C43.4838 23.4501 43.4972 23.7703 43.6265 24.059C43.7558 24.3431 43.9877 24.5596 44.282 24.6678C44.4158 24.7175 44.5495 24.74 44.6833 24.74C45.1559 24.74 45.6018 24.4468 45.7757 23.9687C45.9942 23.3599 45.6866 22.6833 45.0846 22.4578C44.4826 22.2368 43.8138 22.548 43.5908 23.1569Z" fill="#767D81"/>
<path d="M58.5685 24.2348C58.6799 24.2348 58.787 24.1807 58.8494 24.0769C58.9475 23.9191 58.9029 23.7116 58.7468 23.6079C57.0212 22.4983 54.5822 22.0563 52.9546 22.566C52.7763 22.6201 52.6782 22.8095 52.7317 22.99C52.7852 23.1704 52.9725 23.2696 53.1508 23.2155C54.6134 22.7599 56.8116 23.1659 58.3856 24.1807C58.4436 24.2168 58.506 24.2348 58.5685 24.2348Z" fill="#767D81"/>
<path d="M48.081 26.7507C47.9027 26.7146 47.7243 26.8318 47.6886 27.0168C47.488 28.0496 46.9395 29.2268 46.1057 30.4085C45.9987 30.5618 46.0343 30.7738 46.186 30.8821C46.2439 30.9227 46.3108 30.9452 46.3777 30.9452C46.4847 30.9452 46.5873 30.8956 46.6497 30.8009C47.537 29.538 48.1211 28.2751 48.3441 27.1476C48.3798 26.9626 48.2638 26.7867 48.081 26.7507Z" fill="#767D81"/>
<path d="M43.1315 34.724C45.3343 34.8323 46.9261 35.4728 48.1389 36.7447C48.2192 36.8258 48.3218 36.8664 48.4288 36.8664C48.5313 36.8664 48.6294 36.8303 48.7097 36.7537C48.8702 36.5958 48.8747 36.3387 48.7186 36.1809C47.3542 34.7511 45.5929 34.034 43.1717 33.9122C42.9487 33.9077 42.7614 34.0746 42.7525 34.3001C42.7391 34.5256 42.9086 34.715 43.1315 34.724Z" fill="#767D81"/>
<path d="M17.002 79.1548C16.5562 79.4254 16.0434 79.7367 15.3968 80.12C14.2553 80.7966 13.1852 80.9138 12.9043 80.5981C12.7482 80.4222 12.6902 80.1516 12.7482 79.8675C12.8017 79.6149 12.9221 79.4615 12.9934 79.4254C13.2521 79.3082 13.368 79.0015 13.2521 78.7354C13.1361 78.4738 12.8329 78.3565 12.5698 78.4738C12.1641 78.6587 11.8519 79.0962 11.736 79.651C11.6067 80.2689 11.7538 80.8642 12.1329 81.2927C12.4539 81.649 12.9176 81.8024 13.4438 81.8024C14.2197 81.8024 15.1293 81.4776 15.9096 81.0176C16.5606 80.6342 17.0779 80.3185 17.5237 80.0479C18.1703 79.6555 18.6831 79.3443 19.2315 79.0466C20.0297 78.6136 22.0808 78.4467 23.0796 78.7264C23.8822 78.9519 27.0704 79.466 28.1896 79.5202C28.3546 79.5292 28.524 79.5337 28.7024 79.5382C29.6165 79.5653 30.6554 79.5968 31.3242 80.0208C31.565 80.1742 31.8816 80.0975 32.0332 79.8539C32.1848 79.6104 32.109 79.2901 31.8682 79.1368C30.9631 78.5685 29.7279 78.5279 28.7336 78.5008C28.5641 78.4963 28.3947 78.4918 28.2386 78.4828C28.145 78.4783 28.0335 78.4693 27.9087 78.4557C27.9042 78.4106 27.9042 78.3655 27.8908 78.3204C27.7303 77.8604 27.6188 77.2515 27.4895 76.5479C27.2755 75.3842 27.0124 73.9319 26.3703 72.3308C25.3894 69.8907 24.4931 67.1665 25.2556 63.0982C25.6658 60.9017 25.4473 58.4526 25.3403 57.2755C25.3136 56.9868 25.0594 56.7838 24.7785 56.8064C24.4931 56.8335 24.288 57.086 24.3147 57.3747C24.4173 58.5023 24.6313 60.8566 24.2479 62.9088C23.6013 66.3592 24.065 68.8894 24.8052 71.0769C24.3549 72.7818 23.5656 74.0312 23.1331 74.4551C22.2904 75.2895 21.8534 76.2502 21.9337 77.0846C21.9515 77.247 21.9827 77.4003 22.0362 77.5492C20.8501 77.5131 19.4946 77.7296 18.7544 78.131C18.1792 78.4377 17.6575 78.7579 17.002 79.1548ZM23.8555 75.1993C24.3147 74.7438 24.9122 73.8102 25.3804 72.6239C25.3938 72.66 25.4072 72.6916 25.4206 72.7277C26.027 74.2341 26.2811 75.6233 26.4818 76.7418C26.5888 77.3372 26.6869 77.8649 26.8207 78.3294C25.5766 78.1626 24.0294 77.8965 23.4542 77.7521C23.1554 77.5356 22.9904 77.2876 22.9592 76.9854C22.9102 76.4712 23.2446 75.8037 23.8555 75.1993Z" fill="#767D81"/>
<path d="M14.5318 61.6745C14.5808 61.688 14.6343 61.697 14.6834 61.697C14.9019 61.697 15.107 61.5527 15.1739 61.3272C16.0567 58.4045 17.0332 55.0534 17.8136 52.3653C18.527 49.9162 19.1423 47.8009 19.2583 47.4942C19.6105 46.5831 20.0475 46.2854 20.1768 46.3125C20.4533 46.3801 20.7297 46.2042 20.7966 45.9246C20.8635 45.6449 20.6896 45.3653 20.4131 45.2977C19.6284 45.1082 18.7945 45.8254 18.2996 47.1153C18.1703 47.4491 17.7065 49.0457 16.8237 52.0721C16.0434 54.7602 15.0668 58.1068 14.184 61.025C14.1082 61.2956 14.2598 61.5888 14.5318 61.6745Z" fill="#767D81"/>
<path d="M65.9079 46.0087C65.6671 45.8553 65.3505 45.932 65.1989 46.1801C65.0518 46.4236 65.1231 46.7439 65.3684 46.8972L66.8487 47.8218C68.2489 48.6968 69.3547 49.3869 69.8808 49.7297C70.679 50.2529 71.651 51.1008 71.7179 52.1968C71.7358 52.4719 71.9632 52.6839 72.2307 52.6839C72.2396 52.6839 72.253 52.6839 72.2619 52.6839C72.5473 52.6659 72.7613 52.4178 72.7435 52.1336C72.6677 50.9249 71.8695 49.7928 70.4382 48.8547C69.9031 48.5029 68.7928 47.8128 67.3883 46.9378L65.9079 46.0087Z" fill="#767D81"/>
<path d="M24.4975 55.3505C24.5332 55.3505 24.5689 55.3459 24.6001 55.3414C24.8766 55.2828 25.0594 55.0077 25.0014 54.728C24.7116 53.3118 23.6816 48.5444 22.5624 46.578C22.4197 46.3299 22.1031 46.2442 21.8578 46.3885C21.6126 46.5329 21.5279 46.8486 21.6706 47.1012C22.4999 48.558 23.414 52.1076 23.9937 54.94C24.0427 55.1791 24.2568 55.3505 24.4975 55.3505Z" fill="#767D81"/>
<path d="M71.0402 87.8332C71.1249 87.8918 71.223 87.9189 71.3211 87.9189C71.4905 87.9189 71.6555 87.8377 71.7536 87.6844C73.9296 84.3107 73.1047 79.5794 72.418 77.0581C72.3422 76.7785 72.0568 76.6161 71.7848 76.6928C71.5084 76.7695 71.3478 77.0536 71.4236 77.3333C72.0613 79.6831 72.8416 84.0806 70.8886 87.1161C70.737 87.3506 70.8039 87.6753 71.0402 87.8332Z" fill="#767D81"/>
<path d="M74.973 69.4267C75.7399 63.8114 75.1157 58.2051 74.8793 56.0943C74.8481 55.8012 74.8214 55.5801 74.808 55.4403C74.6832 53.9068 74.1436 52.9552 73.3678 52.892C73.0868 52.874 72.8282 53.0815 72.8059 53.3656C72.7836 53.6543 72.9888 53.9023 73.2697 53.9249C73.3722 53.97 73.6933 54.4481 73.7824 55.526C73.7958 55.6749 73.8226 55.9049 73.8538 56.2116C74.0857 58.2863 74.701 63.7979 73.9519 69.2824C73.4034 73.3101 73.9162 78.6547 74.3532 82.3216C74.7857 85.9524 72.4492 90.7017 70.077 92.5193C68.4228 93.7867 66.822 94.1791 64.7263 93.8408C62.3987 93.4575 59.6877 91.4143 58.5551 89.1817C57.8327 87.761 57.6455 85.7674 57.4671 83.837C57.3645 82.7275 57.2665 81.6766 57.0658 80.7881C56.7581 79.417 56.5218 75.7591 56.3747 69.9183C56.3657 69.6297 56.1383 69.3906 55.8485 69.4132C55.5631 69.4222 55.3402 69.6612 55.3491 69.9454C55.4962 75.7546 55.7326 79.4485 56.0492 80.9414L55.572 81.0452C55.202 81.1264 54.8274 81.203 54.2968 81.3248C53.6146 81.4782 52.0405 81.4556 51.122 81.2752C50.9303 81.2391 50.7474 81.3203 50.6315 81.4646C50.6226 81.397 50.6137 81.3429 50.6092 81.3113C50.52 80.8557 50.3372 79.9086 49.4142 79.868C48.9951 79.85 47.5058 79.8815 45.4903 79.8229C47.6351 75.3577 51.6303 70.3152 54.2879 66.9641L54.8096 66.3056C54.9879 66.0801 54.9522 65.7508 54.7293 65.5749C54.5064 65.3945 54.1853 65.4306 54.007 65.6561L53.4852 66.3146C50.7653 69.7424 46.6586 74.9247 44.4826 79.5387C44.4425 79.6199 44.438 79.7056 44.438 79.7868C44.1972 79.7778 43.952 79.7643 43.7023 79.7507L41.9321 79.6605C41.9232 79.6605 41.9187 79.6605 41.9098 79.6605C41.9232 79.6335 41.941 79.6064 41.9455 79.5748C44.0322 71.1271 49.0174 62.2914 51.0596 58.8862C51.2736 58.5299 51.5322 58.1194 51.8131 57.6684C52.8922 55.95 54.3681 53.5956 55.037 51.6517C55.1306 51.3811 54.9879 51.0834 54.7204 50.9887C54.4484 50.894 54.1586 51.0383 54.0649 51.3089C53.4407 53.1401 52.0004 55.4313 50.9481 57.1091C50.6627 57.5647 50.3996 57.9841 50.1812 58.3449C48.4332 61.2541 44.5673 68.0871 42.1283 75.3126C40.7772 71.0775 38.8643 60.6091 38.2356 56.9062C37.754 54.0647 37.3706 48.0209 37.8387 44.6337C38.2133 41.932 38.8777 40.1189 39.337 39.1221C39.2924 40.9353 39.1229 41.932 38.133 44.8321C38.0394 45.1028 38.1821 45.4004 38.4541 45.4952C38.5076 45.5132 38.5656 45.5222 38.6235 45.5222C38.8376 45.5222 39.0382 45.3869 39.1096 45.1704C39.9255 42.7664 40.2109 41.5802 40.3179 40.2272C41.2677 41.3277 42.2933 42.0764 43.4258 42.4958C44.3845 42.8521 45.3833 43.028 46.4089 43.028C47.7332 43.028 49.0932 42.7304 50.4442 42.1395C51.0194 41.8869 51.5724 41.5893 52.0941 41.2645C51.8577 42.5905 52.2412 44.327 52.6559 45.8605C53.0527 47.3354 54.3726 50.2355 55.0459 51.124C55.5275 51.7599 55.8307 53.3656 55.9109 54.2271C55.9154 54.2902 55.9332 54.3443 55.96 54.3985C55.8619 54.439 55.7593 54.4751 55.6746 54.5157C55.5052 54.5969 55.3892 54.7638 55.3759 54.9532C55.2465 56.9648 55.202 61.9938 55.2778 66.1567L55.3045 67.6045C55.309 67.8887 55.5408 68.1142 55.8173 68.1142C55.8217 68.1142 55.8262 68.1142 55.8262 68.1142C56.1116 68.1097 56.3345 67.8707 56.3301 67.582L56.3033 66.1387C56.232 62.2057 56.2676 57.506 56.3791 55.3411C58.2653 54.624 62.8847 54.1098 64.753 54.0827C65.0652 55.4403 65.6047 57.1317 66.22 59.0666C66.4876 59.91 66.7685 60.785 67.036 61.6735C67.3883 62.8146 67.696 64.0144 68.0259 65.2818C68.3648 66.5807 68.7126 67.9203 69.1273 69.2959C69.6044 70.879 70.1038 72.5749 70.5675 74.2031C70.6344 74.4331 70.8395 74.5819 71.0625 74.5819C71.1115 74.5819 71.1561 74.5774 71.2052 74.5594C71.4772 74.4782 71.6377 74.1896 71.5574 73.9144C71.0937 72.2817 70.5898 70.5768 70.1127 68.9892C69.7025 67.6361 69.3592 66.3011 69.0247 65.0156C68.6948 63.7392 68.3782 62.5305 68.0215 61.3668C67.91 61.0015 67.7941 60.6362 67.6826 60.2753C67.7361 60.2934 67.7941 60.3114 67.852 60.3114C68.0482 60.3114 68.2355 60.1987 68.3202 60.0047C69.0693 58.3179 70.2153 56.3198 71.2319 54.9126C71.4014 54.6826 71.3523 54.3533 71.1204 54.1865C70.893 54.0151 70.5675 54.0647 70.4025 54.2992C69.3502 55.7515 68.2177 57.727 67.4284 59.477C67.3526 59.2335 67.2724 58.9899 67.1966 58.7509C66.5545 56.7348 65.948 54.8314 65.6716 53.4648C65.6225 53.2303 65.4263 53.0589 65.19 53.0499C65.0696 53.0454 64.9225 53.0454 64.762 53.0454C64.762 53.0183 64.7709 52.9912 64.7664 52.9642C64.597 51.9223 64.4766 48.3051 64.6594 46.952C64.8556 45.4861 64.9091 43.3347 64.7887 41.8418C64.646 40.0873 64.5123 38.7839 64.102 38.0307C63.8746 37.6067 63.3975 37.1106 62.8446 36.8129C62.8937 36.7542 62.9338 36.6866 62.9561 36.6054C63.4243 34.6479 63.4733 32.7852 63.1032 30.9224C63.0453 30.6383 62.7777 30.4579 62.4968 30.5165C62.2159 30.5752 62.0375 30.8503 62.0955 31.1299C62.4388 32.8393 62.3943 34.5532 61.9573 36.3618C61.9394 36.4295 61.9394 36.4972 61.9484 36.5648C61.6808 36.5648 61.4356 36.6325 61.2305 36.7768C60.798 37.0835 60.5661 37.0564 60.1915 36.8625C60.1113 36.8219 60.0221 36.7903 59.9374 36.7633C59.982 36.6505 59.9909 36.5197 59.9418 36.3979C58.5417 32.5867 58.9965 29.9347 59.3934 28.6944C59.8883 27.1473 60.7355 24.1931 60.8425 21.8297C60.9406 19.6197 60.1068 17.0624 58.6666 15.1545L58.3812 14.7802C57.3824 13.4677 56.5218 12.3311 55.9511 10.8698C55.844 10.6036 55.5453 10.4728 55.2822 10.5766C55.0191 10.6803 54.8898 10.987 54.9924 11.2531C55.6166 12.8498 56.5619 14.0946 57.5652 15.4116L57.8506 15.786C59.1303 17.4818 59.9017 19.8362 59.817 21.7801C59.7144 24.0217 58.894 26.8722 58.4169 28.3696C58.1404 29.2311 57.8372 30.706 58.0245 32.6995C58.0156 32.713 58.0066 32.7175 58.0022 32.7311C57.0524 34.7246 56.2141 36.1634 55.581 36.8896C54.5955 38.0216 52.5667 40.0828 50.0429 41.1833C47.8937 42.1215 45.7311 42.2387 43.7915 41.5171C42.1996 40.9263 40.8129 39.5371 39.5554 37.2684C38.2579 34.9276 37.7942 32.2214 38.2891 29.8445C38.6503 28.1125 39.8453 24.8516 40.5364 23.255C40.6524 22.9934 40.532 22.6822 40.2733 22.5694C40.0147 22.4567 39.7071 22.5739 39.5956 22.84C38.8866 24.4728 37.6604 27.8329 37.2858 29.6325C36.7864 32.0275 37.1744 34.7111 38.3248 37.106C37.2323 38.3509 36.3851 39.0951 34.9449 40.0783C33.7766 40.2948 32.3319 40.6105 30.8828 40.9488C30.6777 38.9643 30.7624 37.1015 31.1548 35.126C31.2127 34.8419 31.0299 34.5713 30.749 34.5126C30.4681 34.4585 30.2005 34.6389 30.1426 34.9231C29.7234 37.0519 29.6343 39.05 29.8706 41.1878C26.892 41.896 24.1676 42.6086 24.123 42.6176C22.8522 42.9514 21.238 43.655 20.8813 44.5255C20.7743 44.7916 20.8991 45.0938 21.1622 45.2065C21.2247 45.2336 21.2915 45.2471 21.3584 45.2471C21.5591 45.2471 21.7508 45.1253 21.8355 44.9269C21.9559 44.6337 22.9101 44.0158 24.3861 43.6279C24.4485 43.6099 29.8527 42.1981 33.741 41.3818C32.5995 42.2072 29.9598 43.8399 29.3355 44.1015C29.1527 44.1782 29.0323 44.3541 29.0189 44.5525C29.0055 44.751 29.1081 44.9404 29.2775 45.0351C29.3712 45.0892 30.8917 45.9552 32.2784 46.6092C31.0923 46.758 29.7056 46.8437 28.8316 46.8798C28.689 46.8843 28.5596 46.9475 28.466 47.0557C28.3724 47.164 28.3278 47.3038 28.3367 47.4436C28.7781 52.6891 30.098 58.133 31.3331 62.765C32.595 67.4918 36.131 74.4331 39.1051 79.5072C37.4776 79.417 36.0507 79.3268 35.6137 79.2591C34.8334 79.1373 34.2983 79.3674 33.8658 79.5523C33.7276 79.6109 33.5938 79.6695 33.4511 79.7146C33.1791 79.7958 33.0231 80.089 33.1078 80.3641C33.1881 80.6393 33.4779 80.7971 33.7499 80.7114C33.9282 80.6573 34.0932 80.5851 34.2671 80.513C34.6595 80.3461 34.9672 80.2153 35.4577 80.292C36.1934 80.4047 39.0917 80.5536 41.8919 80.6979L43.6577 80.7881C45.7311 80.9008 47.4835 80.9008 48.5313 80.9008C48.9371 80.9008 49.2225 80.9008 49.3696 80.9054C49.4856 80.9099 49.5614 81.3023 49.606 81.5188C49.6907 81.9878 50.4487 89.4659 50.4665 90.0567C50.471 90.2236 50.4799 90.4401 50.4665 90.5709C49.6951 90.5438 44.0902 90.4671 40.202 90.5213C38.5433 90.5438 36.3851 90.616 34.1066 90.6882C29.7145 90.8325 24.7339 90.9903 21.9292 90.8595C18.9729 90.7197 12.8151 90.4266 11.1652 88.1624C9.69824 86.1553 9.02939 82.9169 9.32368 79.2772C9.53771 76.6251 10.9958 72.9898 12.2844 69.7785C12.6322 68.908 12.9711 68.0691 13.2699 67.2798C13.4794 66.725 13.7559 65.9177 14.1081 64.8172C14.1973 64.5421 14.0457 64.2489 13.7782 64.1587C13.5062 64.0685 13.2164 64.2218 13.1272 64.4925C12.7838 65.5614 12.5074 66.3687 12.3067 66.9009C12.008 67.6857 11.6736 68.5201 11.3302 69.3816C10.0148 72.6606 8.52553 76.3816 8.29812 79.1869C7.98154 83.0748 8.72618 86.5703 10.3359 88.7758C12.0436 91.1121 16.895 91.6534 21.8801 91.8924C22.6292 91.9285 23.5299 91.942 24.5287 91.942C27.3201 91.942 30.8872 91.8247 34.1378 91.721C36.4163 91.6488 38.5656 91.5767 40.2154 91.5541C44.2017 91.5 49.985 91.5812 50.471 91.6037C50.8411 91.6263 51.0729 91.4774 51.1978 91.3512C51.5278 91.0219 51.5099 90.5348 51.4921 89.9891C51.4921 89.9304 51.4832 89.8222 51.4698 89.6688C51.4832 89.6733 51.4966 89.6824 51.5144 89.6824C52.5043 89.7771 53.5878 90.0702 54.4216 90.3183C55.5498 90.6521 56.9855 90.8641 58.3634 90.9001C58.3678 90.9001 58.3723 90.9001 58.3767 90.9001C58.399 90.9001 58.4169 90.8911 58.4392 90.8866C59.9374 92.8621 62.4032 94.4993 64.5747 94.8602C65.1053 94.9459 65.6092 94.991 66.0952 94.991C67.7896 94.991 69.2566 94.4587 70.7102 93.3402C73.3098 91.3467 75.8692 86.2726 75.3877 82.1863C74.9462 78.5871 74.4379 73.3371 74.973 69.4267ZM61.8012 37.6247C61.8681 37.5796 61.9751 37.5932 62.0554 37.6112C62.4433 37.7014 62.9695 38.1299 63.179 38.5223C63.5135 39.1447 63.6383 40.6195 63.7453 41.923C63.8657 43.3528 63.8122 45.4095 63.6249 46.8077C63.4377 48.2013 63.5313 51.8005 63.7319 53.0815C61.8101 53.1987 58.8583 53.555 56.9187 54.0782C56.883 53.7219 56.6333 51.5119 55.8485 50.479C55.2555 49.6987 53.9936 46.9069 53.6369 45.5763C53.2489 44.1331 52.8788 42.5094 53.1018 41.3863C53.2846 40.4572 53.7751 40.1685 54.1184 40.1956C54.5777 40.2362 55.795 40.3444 56.1829 39.0725C56.232 38.9147 56.3078 38.6801 56.9945 38.7794C57.699 38.8831 58.3544 38.5989 58.7914 38.0081C59.0233 37.6924 59.4424 37.6428 59.7144 37.7826C60.245 38.0577 60.9139 38.2517 61.8012 37.6247ZM54.8051 39.1537C54.9389 39.0274 55.0682 38.9056 55.193 38.7839C55.1306 38.9733 55.0414 39.0996 54.8051 39.1537ZM58.2831 34.445C58.4392 35.1621 58.6532 35.9244 58.9519 36.7317C58.5685 36.8309 58.2162 37.0519 57.9665 37.3902C57.748 37.6834 57.4716 37.8051 57.1371 37.7555C56.7091 37.6924 56.3791 37.733 56.116 37.8187C56.1918 37.733 56.2632 37.6518 56.3301 37.5751C56.883 36.9392 57.5384 35.8883 58.2831 34.445ZM40.1931 79.3583C37.21 74.3158 33.5715 67.2347 32.3052 62.4944C31.1236 58.0653 29.8617 52.892 29.389 47.8946C30.5171 47.836 33.0052 47.6691 34.2493 47.2857C34.4722 47.2181 34.6194 47.0106 34.6149 46.7761C34.6105 46.5415 34.4499 46.3431 34.227 46.2845C33.4467 46.086 31.7478 45.211 30.5974 44.5886C32.0198 43.7767 34.4901 42.2162 34.9672 41.6885C35.1143 41.5261 35.1411 41.3006 35.0519 41.1112C35.1054 41.1021 35.1634 41.0886 35.2124 41.0796C35.2838 41.0661 35.3506 41.039 35.4086 40.9984C36.724 40.1099 37.598 39.3837 38.5388 38.3779C38.0528 39.3702 37.2457 41.3818 36.8176 44.4804C36.3584 47.7999 36.6616 53.7805 37.219 57.073C37.8566 60.8301 39.8052 71.5014 41.1785 75.7276C41.2499 75.9486 41.4505 76.0839 41.669 76.0839C41.7225 76.0839 41.776 76.0749 41.8295 76.0568C41.8518 76.0478 41.8697 76.0343 41.8875 76.0252C41.5352 77.1167 41.2186 78.2172 40.9466 79.3132C40.9199 79.4125 40.9377 79.5117 40.9689 79.6019C40.7371 79.5884 40.5008 79.5793 40.2644 79.5658C40.251 79.4982 40.2332 79.426 40.1931 79.3583ZM54.6981 89.326C53.8197 89.069 52.6782 88.7578 51.5991 88.654C51.5188 88.645 51.443 88.663 51.3717 88.6901C51.2023 86.886 50.8857 83.7423 50.7118 82.1953C50.7742 82.2404 50.8411 82.281 50.9213 82.2945C51.4609 82.3983 52.2501 82.4614 52.9948 82.4614C53.5744 82.4614 54.1273 82.4208 54.5153 82.3351C55.0414 82.2178 55.4115 82.1367 55.7816 82.06L56.2275 81.9653C56.3122 82.5742 56.3791 83.2372 56.446 83.9363C56.6288 85.8667 56.8295 88.0587 57.6455 89.6553C57.6767 89.7139 57.7123 89.7726 57.7436 89.8312C56.6511 89.7635 55.572 89.5876 54.6981 89.326Z" fill="#767D81"/>
<path d="M8.52999 86.5391H0.512781C0.227407 86.5391 0 86.7736 0 87.0623C0 87.3509 0.231866 87.5855 0.512781 87.5855H8.52999C8.81537 87.5855 9.04278 87.3509 9.04278 87.0623C9.04723 86.7691 8.81537 86.5391 8.52999 86.5391Z" fill="#767D81"/>
<path d="M85.4872 86.5391H76.2705C75.9852 86.5391 75.7533 86.7736 75.7533 87.0623C75.7533 87.3509 75.9852 87.5855 76.2705 87.5855H85.4872C85.7726 87.5855 86.0045 87.3509 86.0045 87.0623C86 86.7691 85.7681 86.5391 85.4872 86.5391Z" fill="#767D81"/>
<path d="M39.5733 58.598C39.3057 58.5032 39.0115 58.6431 38.9178 58.9137C38.8242 59.1843 38.9624 59.482 39.2299 59.5767C41.2722 60.3074 43.6889 60.6907 46.1993 60.6907C46.886 60.6907 47.5771 60.6637 48.2727 60.605C48.5581 60.5825 48.7677 60.3299 48.7454 60.0413C48.7231 59.7571 48.4823 59.5496 48.188 59.5632C45.0935 59.8248 42.0346 59.4775 39.5733 58.598Z" fill="#767D81"/>
<path d="M18.0321 18.6409C15.758 18.6409 13.9075 16.7691 13.9075 14.4689C13.9075 12.1686 15.758 10.2969 18.0321 10.2969C20.3061 10.2969 22.1566 12.1686 22.1566 14.4689C22.1566 16.7691 20.3061 18.6409 18.0321 18.6409ZM18.0321 11.226C16.2663 11.226 14.8261 12.6783 14.8261 14.4689C14.8261 16.2595 16.2663 17.7118 18.0321 17.7118C19.7978 17.7118 21.2381 16.2595 21.2381 14.4689C21.2381 12.6783 19.8023 11.226 18.0321 11.226Z" fill="#F7C8C9"/>
<path d="M24.453 23.1381C23.0573 23.1381 21.9247 21.9925 21.9247 20.5808C21.9247 19.169 23.0573 18.0234 24.453 18.0234C25.8486 18.0234 26.9812 19.169 26.9812 20.5808C26.9812 21.9925 25.8486 23.1381 24.453 23.1381ZM24.453 18.9526C23.5656 18.9526 22.8433 19.6832 22.8433 20.5808C22.8433 21.4783 23.5656 22.209 24.453 22.209C25.3403 22.209 26.0627 21.4783 26.0627 20.5808C26.0627 19.6832 25.3403 18.9526 24.453 18.9526Z" fill="#F7C8C9"/>
<path d="M9.6849 12.0515C6.39864 12.0515 3.72772 9.34981 3.72772 6.02573C3.72772 2.70166 6.39864 0 9.6849 0C12.9712 0 15.6421 2.70166 15.6421 6.02573C15.6421 9.34981 12.9712 12.0515 9.6849 12.0515ZM9.6849 0.929117C6.90696 0.929117 4.64627 3.21583 4.64627 6.02573C4.64627 8.83563 6.90696 11.1223 9.6849 11.1223C12.4628 11.1223 14.7235 8.83563 14.7235 6.02573C14.7235 3.21583 12.4628 0.929117 9.6849 0.929117Z" fill="#F7C8C9"/>
</svg>
