<svg width="512" height="592" viewBox="0 0 512 592" fill="none" xmlns="http://www.w3.org/2000/svg">
<g clip-path="url(#clip0_84_2279)">
<path d="M186.211 590.128H370.138C373.625 590.128 376.491 587.133 376.491 583.466L381.318 485.244C381.318 481.578 378.328 478.583 374.669 478.583H181.742C178.083 478.583 175.094 481.578 175.094 485.244L179.858 583.466C179.858 587.133 182.723 590.128 186.211 590.128Z" fill="#F7C8C9"/>
<path d="M176.916 364.885C178.208 356.601 184.67 344.962 189.575 337.708C189.31 320.11 190.867 305.867 193.187 293.964C195.507 282.06 198.762 271.795 202.234 261.701C206.018 250.656 214.629 235.726 219.02 232.107C223.411 228.487 227.537 225.898 231.165 227.707C234.778 229.517 237.238 228.674 239.605 227.192C241.925 225.726 247.531 221.327 256.313 222.356C265.095 223.386 272.242 225.383 280.245 231.592C288.249 237.801 296.611 247.551 299.024 253.76C301.376 259.798 305.564 270.5 305.564 281.202C302.201 279.392 301.687 282.84 300.395 285.165C299.102 287.489 297.561 290.344 297.561 292.419C297.825 283.355 297.561 280.001 297.561 276.366C297.561 272.731 293.839 264.369 290.32 260.843C283.344 259.814 277.147 256.959 270.95 254.634C264.752 252.31 255.192 251.264 251.314 248.94C247.437 246.615 242.268 242.731 240.726 240.406C239.184 238.082 237.363 239.626 236.6 243.776C235.821 247.91 233.641 255.773 229.359 259.829C225.077 263.885 218.257 268.893 216.186 272.762C214.115 276.647 213.866 279.751 214.893 285.446C215.921 291.14 217.727 300.719 213.087 306.148C211.53 305.883 207.139 307.708 207.139 307.708C209.21 313.137 213.087 319.096 217.214 319.362C218.771 325.321 220.312 332.56 222.632 335.93C224.952 339.299 226.759 345.243 229.608 347.318C224.952 355.852 216.7 360.002 216.7 360.002C211.016 362.841 202.234 361.811 199.649 362.841C194.231 370.86 191.646 374.495 189.31 377.069C190.603 372.404 188.796 368.005 189.045 365.68C184.141 371.374 177.211 376.226 175.358 376.804C177.429 373.964 176.386 368.005 176.916 364.9V364.885Z" fill="#F7C8C9"/>
<path d="M308.647 296.569C308.382 303.293 309.426 313.386 309.94 319.346C310.453 325.305 310.453 331.249 311.746 336.164C308.912 332.544 306.841 330.204 306.841 330.204C309.161 341.078 311.497 346.772 314.331 350.657C317.165 354.541 323.891 360.485 325.697 362.045C327.504 363.605 329.824 366.179 331.116 368.519C325.433 368.005 307.355 364.635 304.505 363.34C302.434 364.12 299.849 364.12 297.015 361.265C294.182 358.426 287.455 350.906 285.649 347.802C291.846 335.383 298.495 321.046 298.308 313.636C303.213 311.312 304.256 297.068 308.647 296.553V296.569Z" fill="#F7C8C9"/>
<path d="M331.334 235.351C330.244 235.351 329.279 234.587 329.045 233.479L320.761 192.808C320.497 191.544 321.322 190.312 322.583 190.047C323.845 189.797 325.075 190.608 325.339 191.872L333.623 232.543C333.888 233.807 333.063 235.039 331.801 235.304C331.646 235.336 331.49 235.351 331.334 235.351Z" fill="#60AFDE"/>
<path d="M394.693 245.055C394.257 245.055 393.821 244.93 393.432 244.68C392.342 243.978 392.031 242.543 392.731 241.451L416.508 204.321C417.209 203.229 418.657 202.917 419.732 203.619C420.822 204.321 421.133 205.756 420.432 206.848L396.655 243.978C396.204 244.68 395.456 245.055 394.693 245.055Z" fill="#60AFDE"/>
<path d="M416.866 265.96C416.01 265.96 415.2 265.492 414.78 264.68C414.188 263.526 414.655 262.122 415.792 261.529L441.843 248.222C442.995 247.629 444.396 248.097 444.988 249.236C445.58 250.39 445.112 251.794 443.976 252.387L417.925 265.694C417.583 265.866 417.225 265.944 416.866 265.944V265.96Z" fill="#60AFDE"/>
<path d="M374.03 236.786C373.921 236.786 373.812 236.786 373.703 236.771C372.427 236.599 371.539 235.414 371.71 234.134L376.537 199.626C376.724 198.346 377.892 197.457 379.169 197.629C380.446 197.8 381.333 198.986 381.162 200.265L376.335 234.774C376.179 235.944 375.167 236.786 374.03 236.786Z" fill="#60AFDE"/>
<path d="M426.785 296.272C425.68 296.272 424.683 295.476 424.496 294.338C424.278 293.058 425.119 291.857 426.396 291.623L470.073 283.901C471.334 283.682 472.549 284.525 472.782 285.804C473 287.083 472.16 288.284 470.883 288.518L427.206 296.241C427.066 296.272 426.925 296.272 426.801 296.272H426.785Z" fill="#60AFDE"/>
<path d="M278.206 301.592C280.209 301.592 281.834 299.965 281.834 297.957C281.834 295.95 280.209 294.322 278.206 294.322C276.202 294.322 274.578 295.95 274.578 297.957C274.578 299.965 276.202 301.592 278.206 301.592Z" fill="#767E83"/>
<path d="M286.443 263.199C286.053 263.199 285.664 263.074 285.322 262.824C281.491 259.938 271.121 256.958 263.569 254.79C260.112 253.792 257.138 252.933 254.958 252.185C248.48 249.907 242.065 246.896 238.998 240.297C238.562 239.361 238.966 238.253 239.901 237.816C240.835 237.38 241.94 237.785 242.376 238.721C244.416 243.105 248.294 245.898 256.188 248.659C258.259 249.392 261.186 250.235 264.596 251.202C272.88 253.589 283.173 256.537 287.564 259.845C288.389 260.469 288.56 261.639 287.938 262.466C287.564 262.949 287.003 263.214 286.443 263.214V263.199Z" fill="#767E83"/>
<path d="M250.489 243.542C249.991 243.542 249.492 243.339 249.119 242.949C248.418 242.185 248.465 241.015 249.212 240.297C255.3 234.634 268.069 233.074 277.365 239.782C278.206 240.391 278.392 241.561 277.785 242.388C277.178 243.23 276.01 243.417 275.185 242.809C266.667 236.662 256.11 238.987 251.766 243.027C251.408 243.355 250.956 243.527 250.489 243.527V243.542Z" fill="#767E83"/>
<path d="M246.347 234.384C246.113 234.384 245.88 234.337 245.646 234.244C244.681 233.854 244.229 232.777 244.603 231.81C246.254 227.676 251.704 222.45 258.664 223.76C259.676 223.947 260.345 224.93 260.159 225.944C259.972 226.958 258.991 227.629 257.979 227.442C253.152 226.537 249.212 230.344 248.075 233.214C247.78 233.947 247.079 234.384 246.347 234.384Z" fill="#767E83"/>
<path d="M209.817 262.824C209.739 262.824 209.646 262.824 209.568 262.809C208.54 262.668 207.824 261.732 207.964 260.703C209.584 248.815 220.359 234.384 231.85 233.62C232.909 233.557 233.766 234.337 233.844 235.367C233.906 236.397 233.127 237.286 232.1 237.364C222.492 238.004 213.072 250.937 211.67 261.217C211.546 262.153 210.736 262.84 209.817 262.84V262.824Z" fill="#767E83"/>
<path d="M213.087 307.583C212.807 307.583 212.527 307.521 212.246 307.38C211.328 306.912 210.954 305.789 211.405 304.869C214.286 299.096 213.912 294.369 213.43 288.363C213.227 285.836 213.025 283.215 213.025 280.235C213.025 271.155 217.12 267.911 221.06 264.775C221.963 264.057 222.913 263.308 223.785 262.497C227.786 258.8 232.676 253.277 234.856 243.449C235.074 242.434 236.086 241.81 237.082 242.029C238.094 242.247 238.733 243.246 238.499 244.26C236.101 255.102 230.729 261.171 226.323 265.243C225.342 266.148 224.345 266.943 223.38 267.708C219.674 270.641 216.746 272.965 216.746 280.235C216.746 283.074 216.949 285.617 217.136 288.067C217.634 294.385 218.07 299.845 214.722 306.538C214.395 307.193 213.741 307.568 213.056 307.568L213.087 307.583Z" fill="#767E83"/>
<path d="M273.145 222.902C284.574 229.704 298.323 243.277 302.465 256.069C306.685 269.112 308.211 274.65 306.81 283.027C306.638 284.041 307.324 285.009 308.351 285.18C308.46 285.196 308.554 285.212 308.663 285.212C309.566 285.212 310.344 284.556 310.5 283.651C312.026 274.447 310.438 268.597 306.016 254.915C301.391 240.609 286.723 226.615 275.045 219.688C263.086 212.574 244.011 210.671 234.7 219.189C233.937 219.891 233.89 221.077 234.575 221.841C235.276 222.606 236.459 222.653 237.222 221.966C243.622 216.116 259.941 215.071 273.145 222.918V222.902Z" fill="#767E83"/>
<path d="M295.91 297.177C296.159 297.957 296.875 298.488 297.685 298.488C297.732 298.488 297.778 298.488 297.81 298.488C298.666 298.425 299.382 297.786 299.522 296.928C300.799 289.268 303.166 284.042 304.178 283.667C305.175 283.948 306.202 283.371 306.483 282.372C306.763 281.374 306.187 280.344 305.19 280.063C304.194 279.783 303.166 279.954 302.232 280.547C300.955 281.358 299.881 283.043 298.993 285.009C299.024 284.525 299.055 284.057 299.086 283.589C299.289 280.422 299.476 277.427 299.18 275.258C298.183 268.144 293.886 260.718 287.984 255.882C287.19 255.227 286.007 255.352 285.353 256.147C284.699 256.943 284.823 258.129 285.617 258.784C290.834 263.059 294.602 269.564 295.474 275.789C295.723 277.583 295.552 280.391 295.349 283.371C295.054 288.067 294.711 293.386 295.894 297.193L295.91 297.177Z" fill="#767E83"/>
<path d="M173.505 379.253C172.742 379.253 172.026 378.785 171.746 378.02C171.388 377.053 171.886 375.977 172.867 375.618C176.604 374.26 181.4 367.536 183.969 363.917C187.208 359.362 188.781 348.504 187.628 338.66C185.651 321.857 188.345 303.917 190.556 291.888C193.218 277.333 197.687 257.38 202.265 245.008C207.45 230.968 219.394 217.426 230.433 219.064C231.461 219.22 232.162 220.172 232.006 221.186C231.85 222.216 230.901 222.918 229.888 222.762C220.857 221.42 210.331 233.932 205.769 246.303C201.284 258.472 196.753 278.831 194.231 292.559C192.066 304.353 189.435 321.904 191.35 338.207C192.44 347.505 191.303 360.064 187.021 366.07C182.957 371.78 178.597 377.49 174.159 379.112C173.941 379.19 173.739 379.221 173.521 379.221L173.505 379.253Z" fill="#767E83"/>
<path d="M276.353 330.219C275.917 329.471 274.967 329.221 274.219 329.658C265.001 334.993 252.622 334.478 245.024 331.717C244.214 331.421 243.326 331.842 243.03 332.653C242.735 333.464 243.155 334.354 243.965 334.65C244.198 334.728 244.447 334.79 244.681 334.868C247.11 341.218 254.008 343.48 260.003 343.48C260.252 343.48 260.501 343.48 260.75 343.48C266.714 343.293 273.519 339.876 274.811 332.856C275.138 332.684 275.45 332.528 275.776 332.357C276.524 331.92 276.773 330.968 276.337 330.219H276.353ZM260.673 340.36C259.131 340.422 252.264 340.36 248.854 335.976C251.563 336.538 254.506 336.897 257.543 336.897C262.012 336.897 266.652 336.195 271.012 334.572C268.894 338.878 263.6 340.266 260.673 340.36Z" fill="#767E83"/>
<path d="M264.114 320.547C263.32 320.547 262.588 320.033 262.339 319.237C260.781 314.276 259.941 305.337 261.233 300.407C261.498 299.408 262.51 298.8 263.522 299.065C264.519 299.33 265.11 300.36 264.861 301.358C263.756 305.539 264.519 313.652 265.92 318.098C266.231 319.081 265.686 320.142 264.705 320.454C264.519 320.516 264.332 320.547 264.145 320.547H264.114Z" fill="#767E83"/>
<path d="M247.219 290.484C246.939 290.484 246.658 290.422 246.394 290.282C240.196 287.193 232.24 286.678 227.49 289.065C226.572 289.533 225.451 289.158 224.983 288.222C224.516 287.302 224.89 286.179 225.824 285.711C231.632 282.793 240.788 283.292 248.075 286.927C248.994 287.38 249.383 288.519 248.916 289.439C248.589 290.094 247.935 290.484 247.235 290.484H247.219Z" fill="#767E83"/>
<path d="M268.287 290.001C267.773 290.001 267.244 289.783 266.885 289.361C266.2 288.581 266.278 287.396 267.057 286.725C271.463 282.856 281.444 279.829 287.72 281.733C288.701 282.029 289.261 283.074 288.965 284.073C288.669 285.056 287.642 285.617 286.63 285.321C282.098 283.948 273.456 286.085 269.517 289.549C269.159 289.861 268.723 290.017 268.287 290.017V290.001Z" fill="#767E83"/>
<path d="M233.267 299.829C233.267 301.967 234.996 303.683 237.113 303.683C239.231 303.683 240.959 301.951 240.959 299.829C240.959 297.708 239.231 295.976 237.113 295.976C234.996 295.976 233.267 297.708 233.267 299.829Z" fill="#767E83"/>
<path d="M197.594 332.934C196.846 332.934 196.146 332.482 195.85 331.748C193.717 326.273 193.935 319.673 196.535 311.577C197.267 309.299 198.45 306.506 199.821 303.293C202.546 296.896 205.924 288.94 206.796 282.138C206.921 281.108 207.855 280.391 208.883 280.516C209.911 280.64 210.627 281.576 210.502 282.606C209.568 289.938 206.065 298.16 203.262 304.759C201.923 307.895 200.77 310.609 200.085 312.731C197.765 319.985 197.516 325.758 199.322 330.391C199.696 331.358 199.229 332.435 198.263 332.809C198.045 332.903 197.812 332.934 197.578 332.934H197.594Z" fill="#767E83"/>
<path d="M214.504 342.357C213.305 337.755 211.95 332.56 211.11 326.46C210.97 325.43 210.02 324.712 209.008 324.868C207.98 325.009 207.279 325.961 207.419 326.975C208.291 333.277 209.677 338.613 210.892 343.293C212.324 348.831 213.523 353.465 213.508 358.036C213.274 358.004 213.025 358.02 212.791 358.082C211.701 358.379 210.689 358.66 209.755 358.909C205.847 359.986 203.262 360.703 201.362 360.438C201.191 360.407 201.02 360.438 200.848 360.469C204.507 350.36 206.251 338.847 205.146 330.922C205.006 329.892 204.056 329.19 203.044 329.33C202.016 329.471 201.315 330.422 201.456 331.436C203.277 344.525 196.535 368.629 186.897 376.289C186.087 376.928 185.947 378.114 186.601 378.925C186.974 379.393 187.519 379.627 188.064 379.627C188.469 379.627 188.874 379.502 189.217 379.221C193.343 375.945 196.94 370.157 199.68 363.496C199.961 363.839 200.366 364.089 200.833 364.151C201.284 364.214 201.751 364.245 202.234 364.245C204.539 364.245 207.139 363.527 210.752 362.529C211.514 362.326 212.324 362.092 213.196 361.858C212.869 363.761 212.293 365.696 211.374 367.724C210.954 368.66 211.374 369.767 212.309 370.204C212.558 370.313 212.822 370.376 213.087 370.376C213.803 370.376 214.473 369.97 214.784 369.284C219.066 359.845 217.073 352.139 214.535 342.373L214.504 342.357Z" fill="#767E83"/>
<path d="M168.211 558.131C168.211 558.131 168.118 558.131 168.071 558.131C165.206 557.913 161.266 557.663 156.984 557.398C149.573 556.93 141.164 556.415 135.278 555.838L134.204 555.729C124.02 554.746 112.467 553.622 105.039 543.7C98.9353 535.541 101.863 520.05 104.572 512.187C111.143 493.014 129.906 441.734 136.306 425.181C138.829 418.645 142.675 409.503 145.758 402.17L146.925 399.378C147.33 398.426 148.42 397.974 149.37 398.379C150.32 398.785 150.772 399.877 150.367 400.829L149.183 403.621C146.1 410.938 142.27 420.064 139.778 426.539C133.379 443.076 114.647 494.277 108.091 513.404C105.428 521.157 103.217 535.042 108.013 541.454C114.444 550.05 124.659 551.033 134.546 552L135.621 552.109C141.444 552.686 149.806 553.201 157.202 553.669C161.516 553.934 165.471 554.184 168.351 554.402C169.379 554.48 170.158 555.385 170.064 556.415C169.986 557.398 169.177 558.147 168.211 558.147V558.131Z" fill="#767E83"/>
<path d="M185.682 336.101C184.779 335.602 183.642 335.914 183.144 336.819C177.974 346.039 173.443 357.583 171.886 365.087C167.246 366.756 161.702 369.877 158.121 375.711C157.171 377.24 155.256 381.515 153.559 385.275C152.749 387.069 152.017 388.691 151.55 389.674C151.099 390.61 151.488 391.718 152.422 392.17C152.687 392.295 152.967 392.357 153.232 392.357C153.932 392.357 154.586 391.967 154.913 391.296C155.396 390.298 156.144 388.66 156.969 386.819C158.448 383.527 160.488 379.003 161.313 377.677C163.914 373.465 167.76 370.906 171.325 369.331C171.325 369.471 171.31 369.611 171.31 369.752C171.31 370.781 172.151 371.624 173.178 371.624C174.206 371.624 175.047 370.781 175.047 369.752C175.047 369.237 175.109 368.629 175.203 367.942C177.538 367.287 179.407 367.037 180.17 366.959C181.198 366.85 181.945 365.945 181.836 364.916C181.727 363.886 180.824 363.121 179.796 363.246C179.142 363.309 177.787 363.48 176.028 363.886C177.725 357.224 181.54 347.396 186.429 338.659C186.928 337.755 186.616 336.616 185.713 336.117L185.682 336.101Z" fill="#767E83"/>
<path d="M182.132 470.689C181.198 470.689 180.388 469.987 180.279 469.019C180.139 467.709 179.905 465.899 179.64 463.762C179.173 460.049 178.597 455.431 178.083 450.61C177.258 442.794 171.31 412.607 165.813 396.46C165.486 395.477 166 394.417 166.981 394.089C167.962 393.746 169.021 394.276 169.348 395.259C174.922 411.64 180.964 442.295 181.805 450.22C182.303 454.994 182.879 459.596 183.346 463.294C183.611 465.447 183.845 467.272 184 468.598C184.109 469.628 183.378 470.548 182.35 470.673C182.288 470.673 182.21 470.673 182.147 470.673L182.132 470.689Z" fill="#767E83"/>
<path d="M96.9577 546.43H61.8449C60.8172 546.43 59.9763 545.588 59.9763 544.558C59.9763 543.528 60.8172 542.686 61.8449 542.686H96.9577C97.9854 542.686 98.8263 543.528 98.8263 544.558C98.8263 545.588 97.9854 546.43 96.9577 546.43Z" fill="#767E83"/>
<path d="M466.383 546.43H391.377C390.349 546.43 389.508 545.588 389.508 544.558C389.508 543.528 390.349 542.686 391.377 542.686H466.383C467.41 542.686 468.251 543.528 468.251 544.558C468.251 545.588 467.41 546.43 466.383 546.43Z" fill="#767E83"/>
<path d="M218.179 469.691C217.478 469.691 216.793 469.285 216.482 468.599C212.698 460.455 203.667 439.55 201.222 421.593C201.082 420.595 201.751 419.675 202.748 419.503L213.772 417.537L203.013 412.405C202.296 412.061 201.86 411.297 201.954 410.501C202.919 402.373 206.049 392.108 212.106 377.194C212.495 376.242 213.585 375.774 214.535 376.164C215.485 376.554 215.952 377.646 215.563 378.598C209.973 392.373 206.937 402.03 205.831 409.612L220.608 416.664C221.34 417.007 221.76 417.802 221.651 418.598C221.542 419.409 220.919 420.049 220.125 420.189L205.161 422.873C207.871 439.924 216.279 459.3 219.861 467.023C220.297 467.959 219.892 469.067 218.958 469.503C218.708 469.628 218.428 469.675 218.179 469.675V469.691Z" fill="#767E83"/>
<path d="M415.06 490.096L414.531 487.959C411.93 477.335 408.832 467.07 406.356 458.832L405.78 456.945C405.484 455.962 404.441 455.385 403.444 455.697C402.463 455.993 401.903 457.038 402.198 458.037L402.775 459.94C405.25 468.146 408.318 478.349 410.903 488.879L411.432 491.017C413.301 498.583 414.64 504.059 414.64 509.02C414.64 517.803 412.507 523.482 407.477 528.022C402.557 532.468 392.544 536.524 384.587 537.413L387.266 480.112C387.266 475.4 383.451 471.578 378.748 471.578H366.182C365.295 468.427 363.691 460.86 362.149 453.513C360.437 445.385 358.662 436.976 357.618 433.45C357.322 432.452 356.279 431.89 355.298 432.186C354.302 432.483 353.741 433.512 354.037 434.511C355.034 437.881 356.793 446.227 358.49 454.293C359.97 461.297 361.371 467.959 362.321 471.594H275.014C275.59 460.486 277.505 431.609 280.323 415.431C281.273 409.971 282.441 404.729 283.562 399.659C285.711 390.002 287.735 380.875 287.735 372.545C287.735 369.705 287.361 366.726 286.957 363.574C286.458 359.627 285.944 355.587 286.225 351.842C289.775 356.148 296.984 364.307 299.616 366.57C299.974 366.866 300.394 367.022 300.83 367.022C301.36 367.022 301.874 366.804 302.247 366.367C302.917 365.587 302.824 364.401 302.045 363.73C299.413 361.468 290.787 351.686 287.938 348.02C287.735 347.755 287.47 347.599 287.19 347.474C288.265 345.758 289.323 343.902 290.304 341.889C294.026 334.307 296.097 328.894 297.701 322.607C298.183 320.735 298.791 318.082 299.273 315.274C299.491 315.274 299.725 315.212 299.927 315.118C304.786 312.872 305.642 307.256 306.343 302.731C306.467 301.904 306.592 301.109 306.732 300.36C306.856 299.705 307.012 299.081 307.183 298.457C307.339 301.842 307.464 305.664 307.604 309.705C307.728 313.558 307.869 317.505 308.024 321.234C308.242 326.21 308.725 330.298 309.597 334.089C307.993 329.159 306.747 324.12 306.452 320.204C306.374 319.175 305.502 318.41 304.443 318.472C303.415 318.55 302.637 319.44 302.715 320.485C303.462 330.625 310.017 347.973 314.362 353.527C318.177 358.379 321.898 361.468 326.632 365.384L327.831 366.382C327.955 366.492 328.111 366.554 328.251 366.632C328.5 367.116 328.765 367.63 329.045 368.192C330.961 371.967 333.592 377.116 337.329 381.063C340.646 384.542 348.774 393.621 352.713 402.763C353.632 404.916 355.376 410.595 358.397 425.275C357.93 425.244 357.54 425.182 357.229 425.088C356.232 424.776 355.205 425.338 354.893 426.32C354.598 427.303 355.143 428.349 356.123 428.661C356.855 428.879 357.899 428.988 359.175 428.988C368.285 428.988 389.134 423.575 391.626 416.882C391.984 415.915 391.501 414.838 390.536 414.479C389.695 414.167 388.792 414.526 388.325 415.259C384.93 406.227 382.205 399.05 381.738 397.818C380.773 395.259 379.138 390.985 379.496 384.994C379.729 381.125 379.589 372.217 379.091 359.253V358.738C378.951 355.602 377.798 352.701 375.899 350.766C375.338 350.189 374.482 349.3 373.532 348.332C371.601 346.335 369.421 344.073 368.456 343.2C366.79 341.686 364.065 340.953 362.383 340.797L361.153 340.064C360.546 339.689 359.954 339.331 359.362 338.987C359.362 338.941 359.362 338.909 359.362 338.863C358.817 334.042 357.852 312.248 358.132 306.226C358.319 301.858 355.937 299.486 353.632 299.128C351.374 298.769 348.618 300.204 347.559 304.167C345.924 310.266 344.196 327.38 345.099 336.757C344.912 336.959 344.71 337.178 344.539 337.412C343.495 338.8 340.833 342.326 339.151 344.666C338.139 343.418 336.815 342.576 335.383 342.404C333.358 342.17 331.568 343.246 330.447 345.368C328.251 349.549 326.772 353.371 325.853 355.727C325.371 356.991 325.153 358.192 325.184 359.378C322.303 356.897 319.765 354.463 317.242 351.25C315.872 349.502 314.05 345.945 312.291 341.686C312.571 341.858 312.898 341.967 313.241 341.967C313.459 341.967 313.677 341.936 313.895 341.842C314.86 341.484 315.358 340.407 315 339.44C312.96 333.948 311.995 328.644 311.683 321.125C311.528 317.412 311.388 313.48 311.263 309.642C311.107 304.759 310.952 300.142 310.749 296.288C310.703 295.259 309.799 294.463 308.787 294.51C308.585 294.51 308.398 294.588 308.211 294.666C308.881 292.435 309.504 290.126 309.675 287.396C309.737 286.366 308.943 285.477 307.915 285.414C306.888 285.383 306 286.148 305.938 287.177C305.798 289.767 305.128 291.982 304.412 294.323C303.913 295.992 303.384 297.723 303.01 299.72C302.855 300.516 302.73 301.358 302.59 302.232C302.092 305.43 301.562 308.706 299.834 310.61C299.974 309.065 300.021 307.568 299.927 306.241C299.849 305.212 298.977 304.416 297.934 304.51C296.907 304.588 296.128 305.477 296.206 306.507C296.439 309.83 295.645 315.399 294.026 321.749C292.484 327.771 290.491 332.981 286.894 340.314C282.534 349.206 276.757 354.994 274.484 357.069C270.233 360.938 266.372 362.591 261.155 362.794C254.849 363.028 249.43 361.375 245.086 357.864C244.276 357.225 243.108 357.35 242.454 358.145C241.816 358.956 241.94 360.126 242.735 360.782C247.499 364.619 253.292 366.554 259.972 366.554C260.408 366.554 260.844 366.554 261.28 366.523C267.384 366.289 272.086 364.292 276.991 359.83C278.128 358.785 280.105 356.866 282.348 354.151C282.348 357.459 282.768 360.828 283.188 364.12C283.578 367.147 283.936 370.017 283.936 372.607C283.936 380.423 282.005 389.222 279.95 398.535C279.732 398.645 279.545 398.816 279.373 399.004C273.285 406.523 263.538 412.607 257.698 415.821C256.717 415.275 255.674 414.698 254.615 414.105C246.285 409.472 234.902 403.122 230.916 398.083C229.935 388.754 229.234 380.392 229.234 375.79C229.234 366.429 229.935 360.828 230.605 355.415C230.776 354.089 230.932 352.747 231.087 351.374C231.757 352.17 232.426 352.935 233.096 353.652C233.47 354.042 233.968 354.245 234.466 354.245C234.918 354.245 235.369 354.073 235.743 353.746C236.506 353.044 236.537 351.858 235.837 351.094C231.119 346.008 226.011 338.426 223.785 334.058C221.48 329.502 219.736 320.126 218.895 312.856C218.771 311.827 217.836 311.093 216.824 311.218C215.797 311.343 215.065 312.263 215.189 313.293C215.283 314.12 215.454 315.415 215.672 316.959C212.9 315.82 210.206 312.248 209.428 308.348C209.226 307.334 208.245 306.678 207.232 306.881C206.22 307.084 205.566 308.067 205.769 309.081C206.983 315.15 211.592 320.282 216.326 321C217.198 325.992 218.553 331.983 220.468 335.758C222.087 338.972 225.186 343.792 228.658 348.317C228.067 348.582 227.599 349.112 227.522 349.814C227.335 351.593 227.132 353.262 226.914 354.963C226.229 360.485 225.513 366.211 225.513 375.79C225.513 388.145 230.496 427.288 232.52 439.846C234.217 450.439 235.323 458.942 236.382 467.179L236.895 471.173C236.911 471.344 236.989 471.5 237.051 471.656H176.573C171.87 471.656 168.055 475.478 168.055 480.268L168.538 490.736C168.32 490.908 168.133 491.11 168.009 491.36C167.277 492.826 166.436 494.418 165.58 496.056C160.971 504.823 159.055 508.911 160.021 511.22C161.298 514.262 164.303 514.402 166.95 514.543C167.822 514.589 168.725 514.652 169.644 514.777L172.82 583.592C172.82 588.303 176.511 592.125 181.042 592.125H374.186C378.717 592.125 382.408 588.303 382.408 583.685L384.385 541.282C393.261 540.44 404.316 535.978 409.953 530.892C415.761 525.65 418.346 518.942 418.346 509.114C418.346 503.7 416.96 498.037 415.029 490.221L415.06 490.096ZM351.234 305.009C351.67 303.371 352.495 302.607 353.134 302.7C353.85 302.809 354.566 303.979 354.473 305.929C354.239 311.296 354.956 328.925 355.501 336.538C353.741 335.555 352.34 334.838 351.514 334.619C350.596 334.37 349.661 334.338 348.743 334.526C348.167 324.838 349.911 309.892 351.219 305.009H351.234ZM339.385 357.365L339.54 356.273C339.898 353.699 340.49 349.378 341.191 348.285C341.814 347.287 343.962 344.354 347.653 339.455C348.447 338.41 349.521 337.958 350.533 338.239C351.219 338.426 353.103 339.471 355.065 340.61C354.893 340.626 354.707 340.626 354.535 340.657C351.779 341.047 350.035 343.153 348.571 345.399C347.513 347.022 346.033 349.783 344.834 351.998C344.383 352.825 343.994 353.574 343.667 354.151C342.468 356.335 341.829 358.301 341.564 360.735C341.518 361.187 341.44 361.609 341.362 362.03C341.144 362.061 340.926 362.123 340.724 362.233C340.599 362.311 340.521 362.326 340.521 362.326C340.007 362.139 339.026 359.799 339.369 357.381L339.385 357.365ZM329.435 356.882C330.338 354.526 331.724 350.969 333.81 346.991C334.184 346.289 334.557 345.945 335.009 345.992C335.725 346.07 336.722 347.037 337.08 348.457C337.08 348.488 337.111 348.504 337.111 348.535C336.613 350.329 336.239 352.779 335.819 355.774L335.663 356.85C335.243 359.799 336.052 363.793 338.357 365.384C339.011 365.836 339.743 366.055 340.49 366.055C340.599 366.055 340.708 366.024 340.817 366.008C340.786 366.492 340.755 367.022 340.755 367.599C340.693 372.014 343.433 374.495 346.174 374.666C347.824 374.76 349.506 374.089 350.829 372.888C351.81 373.496 352.916 373.762 354.021 373.762C355.765 373.762 357.431 373.153 358.319 372.435C359.736 371.281 361.62 367.412 361.387 364.058C361.916 363.699 362.414 363.278 362.881 362.81C363.255 363.777 363.862 364.807 365.186 365.821C366.011 366.445 367.179 366.289 367.802 365.462C368.425 364.635 368.269 363.465 367.444 362.841C366.556 362.17 366.4 361.64 366.073 360.594C365.855 359.877 365.575 358.972 364.999 357.942C364.656 357.334 364.002 356.975 363.317 356.991C362.617 357.006 361.994 357.428 361.698 358.052C360.951 359.612 359.876 360.735 358.506 361.421C357.681 361.827 357.276 362.779 357.556 363.652C358.179 365.649 356.606 368.956 355.999 369.503C355.61 369.815 353.741 370.298 352.776 369.643C352.9 369.066 352.963 368.473 352.885 367.896C352.511 365.15 352.589 361.406 353.99 359.128C355.22 357.116 356.373 355.696 357.385 354.432C357.79 353.933 358.179 353.449 358.521 352.981C359.207 352.076 360.826 351.608 362.757 351.764L363.535 351.827C365.233 351.967 366.167 352.03 367.366 352.373C368.347 352.654 369.39 352.076 369.67 351.094C369.951 350.095 369.374 349.066 368.378 348.785C366.821 348.332 365.622 348.239 363.816 348.098L363.037 348.036C359.736 347.755 357.011 348.754 355.516 350.719C355.189 351.156 354.831 351.593 354.442 352.076C353.414 353.356 352.122 354.947 350.767 357.178C348.369 361.109 348.93 366.772 349.148 368.41C349.21 368.878 348.992 369.44 348.54 369.924C347.964 370.548 347.123 370.938 346.407 370.891C345.442 370.829 344.461 369.69 344.492 367.615C344.523 365.649 344.741 364.385 344.959 363.153C345.084 362.467 345.193 361.811 345.27 361.094C345.473 359.159 345.956 357.662 346.921 355.93C347.248 355.337 347.653 354.573 348.104 353.73C349.257 351.577 350.689 348.894 351.67 347.412C353.025 345.337 353.975 344.479 355.018 344.323C356.45 344.12 358.911 344.229 360.717 344.292L361.776 344.339C362.866 344.37 365.046 344.963 365.98 345.821C366.868 346.632 369.094 348.941 370.885 350.797C371.835 351.78 372.707 352.685 373.283 353.262C374.513 354.51 375.292 356.554 375.369 358.738V359.268C376.008 375.493 375.961 382.03 375.805 384.635C375.401 391.422 377.285 396.351 378.281 399.004C378.779 400.314 381.785 408.255 385.459 418.005C380.259 421.188 369.048 424.183 362.196 424.963C359.643 412.545 357.618 404.526 356.155 401.141C351.966 391.453 343.495 381.968 340.054 378.348C336.691 374.807 334.215 369.924 332.393 366.367C331.521 364.651 330.836 363.309 330.198 362.373C328.656 360.126 328.765 358.566 329.435 356.85V356.882ZM167.152 510.705C164.552 510.58 163.805 510.44 163.54 509.816C163.369 508.271 166.825 501.703 168.896 497.741L169.504 510.876C168.678 510.798 167.884 510.736 167.168 510.705H167.152ZM236.226 439.144C235.136 432.358 233.158 417.74 231.601 403.871C237.067 408.489 245.631 413.263 252.84 417.272C254.226 418.052 255.565 418.785 256.811 419.487C257.091 419.643 257.418 419.737 257.73 419.737C258.041 419.737 258.337 419.659 258.617 419.518C263.522 416.882 271.868 411.874 278.455 405.462C277.816 408.489 277.193 411.578 276.633 414.76C273.752 431.203 271.821 460.548 271.261 471.563H240.461C240.586 471.266 240.664 470.939 240.632 470.595L240.119 466.602C239.106 458.723 237.954 449.8 236.241 439.16L236.226 439.144ZM378.686 583.482C378.686 586.119 376.677 588.272 374.202 588.272H181.073C178.597 588.272 176.588 586.119 176.588 583.404L171.824 480.096C171.824 477.46 173.972 475.307 176.604 475.307H378.748C381.38 475.307 383.529 477.46 383.529 480.003L378.686 583.482Z" fill="#767E83"/>
<path d="M360.919 371.032C356.777 375.337 354.566 383.715 355.781 390.501C355.937 391.406 356.731 392.046 357.618 392.046C357.727 392.046 357.836 392.046 357.945 392.015C358.957 391.827 359.643 390.86 359.456 389.846C358.444 384.23 360.265 377.1 363.598 373.637C364.314 372.888 364.298 371.702 363.551 370.985C362.803 370.267 361.62 370.283 360.904 371.032H360.919Z" fill="#767E83"/>
<path d="M327.068 366.913C317.585 364.729 306.888 361.468 305.393 361.016C302.497 354.463 301.827 344.838 303.664 333.979C303.836 332.965 303.151 331.998 302.138 331.827C301.111 331.655 300.161 332.341 299.99 333.355C298.791 340.485 296.907 358.145 305.377 368.052C305.751 368.488 306.265 368.707 306.794 368.707C307.23 368.707 307.651 368.551 308.009 368.254C308.741 367.63 308.834 366.569 308.305 365.789C312.665 367.069 319.734 369.066 326.243 370.563C326.383 370.594 326.523 370.61 326.663 370.61C327.519 370.61 328.282 370.017 328.485 369.159C328.718 368.145 328.08 367.147 327.083 366.913H327.068Z" fill="#767E83"/>
<path d="M345.738 402.295C344.757 401.952 343.698 402.451 343.355 403.434C336.519 422.654 333.95 451.094 332.704 464.761L332.471 467.241C332.377 468.271 333.125 469.176 334.153 469.285C334.215 469.285 334.277 469.285 334.324 469.285C335.274 469.285 336.099 468.551 336.177 467.584L336.395 465.104C337.625 451.578 340.163 423.45 346.843 404.682C347.186 403.715 346.687 402.638 345.706 402.295H345.738Z" fill="#767E83"/>
<path d="M308.834 420.033L297.669 417.35L306.965 413.808C307.728 413.528 308.211 412.779 308.164 411.968C307.791 404.37 306.078 382.513 302.574 372.841C302.216 371.874 301.142 371.374 300.176 371.718C299.211 372.076 298.713 373.153 299.055 374.12C301.905 381.967 303.773 400.173 304.365 410.782L290.678 415.993C289.915 416.289 289.432 417.038 289.479 417.865C289.526 418.691 290.117 419.378 290.912 419.565L305.844 423.153L305.439 424.152C299.74 438.036 291.924 457.069 286.536 467.725C286.069 468.645 286.443 469.768 287.361 470.236C287.626 470.377 287.922 470.439 288.202 470.439C288.887 470.439 289.541 470.065 289.868 469.41C295.318 458.629 303.166 439.518 308.881 425.571L310.111 422.56C310.313 422.061 310.298 421.484 310.048 421C309.799 420.517 309.348 420.158 308.818 420.033H308.834Z" fill="#767E83"/>
<path d="M400.548 448.411C399.738 448.411 399.006 447.881 398.757 447.069C397.932 444.292 396.484 439.347 395.02 434.402C393.556 429.456 392.108 424.511 391.283 421.734C390.987 420.751 391.548 419.706 392.544 419.409C393.525 419.113 394.569 419.674 394.864 420.673C395.69 423.45 397.138 428.395 398.601 433.341C400.065 438.286 401.513 443.232 402.339 446.008C402.634 446.991 402.074 448.037 401.077 448.333C400.906 448.38 400.719 448.411 400.548 448.411Z" fill="#767E83"/>
</g>
<path d="M92.7779 142.96C49.4512 154.661 28.3602 183.55 37.7471 218.374C40.2825 227.791 43.7377 233.084 48.591 235.039C56.0198 238.023 65.1452 232.538 76.7112 225.571C81.7704 222.529 87.4996 219.077 93.6159 216.058C95.6122 215.076 98.04 215.743 99.2717 217.605C102.766 222.874 108.344 226.37 114.608 227.202C117.474 227.582 120.392 227.378 123.165 226.638C123.825 226.459 124.478 226.245 125.12 226.011C126.923 225.329 128.135 223.714 128.295 221.77C128.451 219.841 127.515 218.055 125.852 217.095C124.476 216.309 123.239 215.309 122.182 214.123C121.098 212.914 120.805 211.276 121.4 209.735C122.018 208.141 123.446 207.047 125.142 206.877C133.258 206.058 141.215 206.179 148.223 206.28C161.718 206.472 172.365 206.63 177.287 200.312C180.5 196.179 180.813 189.863 178.283 180.456C168.887 145.638 136.141 131.277 92.7993 142.974L92.7779 142.96Z" fill="#F7C8C9"/>
<path d="M40.8738 164.183C40.1658 163.611 39.1234 163.725 38.5625 164.452C27.0758 179.473 23.5826 197.606 28.405 217.116C28.6194 217.993 29.5384 218.521 30.4139 218.281C31.2796 218.047 31.7791 217.17 31.5705 216.302C27.0083 197.815 30.3037 180.645 41.1352 166.461C41.6823 165.754 41.5761 164.746 40.8738 164.183Z" fill="#F7C8C9"/>
<path d="M159.412 139.793C155.839 137.477 151.953 135.505 147.825 133.927C142.177 131.767 136.018 130.306 129.508 129.594C128.603 129.494 127.799 130.168 127.715 131.077C127.634 131.97 128.29 132.745 129.169 132.847C135.402 133.537 141.272 134.932 146.657 136.983C150.55 138.475 154.224 140.335 157.593 142.506C158.341 142.989 159.333 142.813 159.837 142.079C160.355 141.323 160.166 140.286 159.402 139.798L159.412 139.793Z" fill="#F7C8C9"/>
<path d="M92.1516 142.749C54.2244 152.991 28.1961 178.798 38.2756 216.159C46.7097 247.423 64.1552 226.476 91.8439 212.81C94.5841 211.455 97.8957 212.366 99.5733 214.916C102.681 219.621 107.741 223 113.757 223.793C117.154 224.243 120.469 223.817 123.475 222.689C126.068 221.711 126.376 218.094 123.974 216.711C122.439 215.834 121.066 214.717 119.905 213.421C116.631 209.778 119.028 203.949 123.904 203.459C156.339 200.203 184.399 211.597 175.633 179.076C165.553 141.714 130.079 132.508 92.1516 142.749Z" fill="#FFFBF2"/>
<path d="M122.106 224.845C119.339 225.595 116.416 225.79 113.549 225.409C107.292 224.587 101.698 221.087 98.2134 215.812C96.9818 213.95 94.554 213.283 92.5576 214.265C86.4413 217.284 80.7122 220.736 75.653 223.779C64.0967 230.74 54.9615 236.23 47.5328 233.246C42.6795 231.291 39.2341 225.993 36.6889 216.581C27.3077 181.767 48.393 152.868 91.7255 141.177C135.052 129.476 167.813 143.841 177.21 178.659C179.745 188.076 179.436 194.377 176.213 198.515C171.297 204.843 160.64 204.691 147.149 204.483C140.142 204.382 132.184 204.261 124.068 205.08C122.382 205.244 120.944 206.344 120.327 207.938C119.731 209.48 120.024 211.117 121.108 212.326C122.175 213.506 123.412 214.506 124.778 215.298C126.435 216.248 127.377 218.044 127.221 219.973C127.071 221.911 125.849 223.532 124.046 224.215C123.41 224.458 122.751 224.662 122.091 224.841L122.106 224.845ZM92.511 210.83C95.6436 209.983 99.0799 211.217 100.939 214.03C103.904 218.515 108.661 221.492 113.987 222.19C116.998 222.591 120.094 222.242 122.916 221.182C123.825 220.843 123.969 219.991 123.987 219.73C124.01 219.478 124.006 218.622 123.173 218.15C121.5 217.196 119.996 215.97 118.697 214.53C116.773 212.39 116.249 209.489 117.294 206.784C118.35 204.032 120.829 202.144 123.751 201.858C132.054 201.021 140.103 201.141 147.209 201.25C159.794 201.425 169.738 201.575 173.648 196.542C176.145 193.322 176.281 187.758 174.069 179.537C169.414 162.28 159.216 150.533 143.765 144.612C129.65 139.21 111.961 139.117 92.5853 144.356C73.2191 149.589 57.9702 158.574 48.4837 170.338C38.102 183.225 35.1999 198.512 39.8544 215.768C42.0722 223.998 44.989 228.737 48.7666 230.258C54.6897 232.638 63.208 227.512 73.9866 221.023C79.0948 217.952 84.8925 214.46 91.1321 211.381C91.5803 211.155 92.0477 210.985 92.5226 210.85L92.511 210.83Z" fill="#F7C8C9"/>
<path d="M55.749 189.818C55.4274 189.739 55.0038 189.61 54.4782 189.433C53.9491 189.245 53.3742 189.04 52.7535 188.817C52.1394 188.58 51.5302 188.341 50.9262 188.101C50.3321 187.857 49.7907 187.634 49.3019 187.433C48.8231 187.228 48.4597 187.061 48.2115 186.934C48.0312 186.838 47.8908 186.809 47.7901 186.844C47.6895 186.879 47.5848 186.984 47.4762 187.157C47.282 187.474 47.041 187.819 46.7532 188.191C46.4755 188.56 46.1759 188.93 45.8544 189.303C45.5329 189.676 45.2144 190.025 44.899 190.35C44.5835 190.675 44.2959 190.952 44.0363 191.178L42.3265 189.879C42.6299 189.648 42.9728 189.353 43.3552 188.992C43.7442 188.619 44.1344 188.216 44.5258 187.785C44.9172 187.354 45.275 186.923 45.599 186.493C45.933 186.059 46.1969 185.667 46.3905 185.317C46.6073 184.936 46.8433 184.706 47.0985 184.628C47.3537 184.55 47.6937 184.617 48.1186 184.83C48.3904 184.96 48.7894 185.131 49.3155 185.343C49.838 185.544 50.4232 185.762 51.0711 185.999C51.7255 186.221 52.3968 186.444 53.085 186.666C53.7731 186.888 54.4237 187.084 55.0369 187.253C55.6601 187.419 56.1932 187.537 56.6361 187.608C56.455 187.898 56.28 188.253 56.111 188.674C55.9385 189.085 55.8179 189.466 55.749 189.818ZM66.6258 181.765C66.4929 181.676 66.3144 181.586 66.0904 181.495C65.8765 181.401 65.6542 181.315 65.4237 181.237C65.1931 181.16 64.9882 181.108 64.809 181.08C65.0067 180.773 65.2137 180.412 65.43 179.997C65.6463 179.583 65.8538 179.142 66.0524 178.677C66.2511 178.212 66.4245 177.755 66.5729 177.308C66.0228 177.512 65.3907 177.756 64.6765 178.04C63.9689 178.311 63.2379 178.596 62.4835 178.894C61.7392 179.189 61.02 179.475 60.326 179.752C59.632 180.03 59.0168 180.274 58.4803 180.484C57.9438 180.695 57.5482 180.856 57.2936 180.968L56.5515 179.092C56.8907 178.996 57.3489 178.852 57.9262 178.661C58.51 178.456 59.1592 178.229 59.8739 177.978C60.5951 177.714 61.3364 177.443 62.0979 177.164C62.8558 176.876 63.5835 176.598 64.281 176.331C64.9851 176.05 65.6069 175.793 66.1464 175.558C66.696 175.32 67.1096 175.13 67.3874 174.987L68.9029 175.49C68.8226 175.971 68.7007 176.494 68.5373 177.06C68.3739 177.626 68.1854 178.201 67.9717 178.784C67.7645 179.354 67.5435 179.901 67.3086 180.424C67.0803 180.934 66.8527 181.381 66.6258 181.765ZM62.9088 189.834C62.7724 189.735 62.5969 189.621 62.3824 189.493C62.1715 189.375 61.9523 189.265 61.7247 189.164C61.4936 189.053 61.2817 188.98 61.0889 188.946C61.8416 188.094 62.3625 187.194 62.6516 186.245C62.9406 185.296 63.0334 184.302 62.9298 183.265C62.8263 182.227 62.5604 181.162 62.1321 180.069L64.0194 179.407C64.7389 181.461 65.0107 183.349 64.8346 185.072C64.6651 186.782 64.0232 188.369 62.9088 189.834ZM76.9163 185.007C76.6867 184.771 76.4234 184.536 76.1263 184.301C75.8257 184.056 75.5617 183.883 75.3341 183.782C76.3103 182.987 77.182 182.088 77.9492 181.084C78.7265 180.077 79.3697 179.01 79.8786 177.882C79.5061 177.786 79.1439 177.704 78.7921 177.635C78.4402 177.566 78.1073 177.519 77.7932 177.494L78.3482 175.739C79.0136 175.8 79.7458 175.922 80.5447 176.105C80.6759 175.641 80.7902 175.177 80.8877 174.713C80.9816 174.239 81.0436 173.771 81.0737 173.308C80.658 173.477 80.2088 173.663 79.7262 173.866C79.2501 174.055 78.8042 174.234 78.3885 174.403C77.9693 174.561 77.6406 174.687 77.4026 174.782C77.196 175.612 76.9235 176.431 76.585 177.239C76.2431 178.037 75.8248 178.811 75.3303 179.561C75.0987 179.416 74.8062 179.259 74.4528 179.089C74.0994 178.919 73.8026 178.814 73.5625 178.774C74.0908 178.023 74.5402 177.193 74.9108 176.283C75.2915 175.37 75.5708 174.441 75.7486 173.497C75.9365 172.549 76.014 171.657 75.981 170.821L77.9077 170.756C77.9064 171.107 77.8949 171.461 77.8734 171.819C77.8483 172.167 77.8115 172.514 77.7628 172.859C78.2021 172.693 78.6767 172.515 79.1865 172.325C79.7029 172.122 80.184 171.93 80.6299 171.752C81.0723 171.562 81.409 171.411 81.64 171.296L83.0398 171.517C83.0603 172.414 83.0163 173.289 82.9079 174.14C82.796 174.982 82.6314 175.803 82.4143 176.602C82.8955 176.75 83.3534 176.912 83.7878 177.087C84.2288 177.249 84.6041 177.417 84.9137 177.591C84.8081 177.741 84.6964 177.939 84.5787 178.183C84.4711 178.425 84.3702 178.669 84.2762 178.917C84.1922 179.161 84.1296 179.37 84.0884 179.542C83.4284 179.175 82.6438 178.822 81.7347 178.485C81.2172 179.718 80.5502 180.879 79.7337 181.968C78.9272 183.053 77.9881 184.066 76.9163 185.007ZM96.1581 177.701L93.8673 171.162C93.2857 171.954 92.6717 172.718 92.0252 173.453C91.3852 174.175 90.7409 174.836 90.0923 175.436C89.9589 175.314 89.7864 175.176 89.575 175.024C89.3635 174.872 89.1438 174.729 88.9157 174.594C88.6977 174.456 88.4938 174.358 88.304 174.3C89.0704 173.681 89.8334 172.955 90.5932 172.124C91.3529 171.292 92.058 170.418 92.7085 169.5C93.3691 168.579 93.9436 167.654 94.432 166.726C94.9204 165.797 95.2747 164.921 95.4948 164.098L97.4407 164.619C97.2089 165.345 96.9049 166.09 96.5287 166.855C96.159 167.606 95.7387 168.359 95.2679 169.111L98.0454 177.039L96.1581 177.701ZM109.714 173.473C109.595 173.357 109.431 173.228 109.223 173.086C109.025 172.941 108.812 172.801 108.584 172.666C108.356 172.531 108.15 172.428 107.967 172.357C108.852 171.56 109.526 170.742 109.989 169.901C110.451 169.061 110.697 168.149 110.726 167.167C110.751 166.175 110.552 165.075 110.129 163.867L109.886 163.172C109.808 162.951 109.703 162.665 109.569 162.317C109.446 161.964 109.314 161.604 109.173 161.235C109.043 160.862 108.919 160.527 108.804 160.228C108.698 159.926 108.617 159.712 108.561 159.584L110.509 158.901L112.016 163.205C112.51 164.614 112.754 165.908 112.749 167.085C112.74 168.253 112.483 169.36 111.98 170.407C111.473 171.444 110.718 172.466 109.714 173.473ZM106.631 168.688C106.609 168.594 106.531 168.372 106.398 168.023C106.271 167.661 106.112 167.225 105.922 166.715C105.743 166.202 105.549 165.665 105.341 165.105C105.134 164.544 104.93 164.011 104.73 163.505C104.54 162.995 104.378 162.565 104.245 162.217C104.108 161.858 104.018 161.635 103.976 161.548L105.849 160.891C105.887 161.002 105.969 161.234 106.092 161.586C106.215 161.938 106.365 162.366 106.542 162.869C106.725 163.359 106.916 163.874 107.117 164.414C107.317 164.954 107.513 165.479 107.703 165.989C107.899 166.485 108.068 166.918 108.208 167.287C108.355 167.642 108.457 167.884 108.513 168.011L106.631 168.688ZM121.546 168.29C121.337 168.115 121.068 167.91 120.737 167.675C120.416 167.437 120.113 167.267 119.828 167.163C120.467 166.566 121.077 165.889 121.659 165.131C122.241 164.373 122.767 163.567 123.236 162.713C123.712 161.845 124.112 160.97 124.436 160.088C124.766 159.192 125.003 158.318 125.145 157.466C124.662 157.669 124.131 157.895 123.551 158.143C122.981 158.388 122.412 158.633 121.842 158.878C121.279 159.109 120.768 159.328 120.309 159.534C119.856 159.727 119.508 159.877 119.263 159.986L118.38 158.142C118.632 158.054 119.007 157.916 119.507 157.73C120.007 157.543 120.565 157.331 121.182 157.092C121.796 156.843 122.404 156.595 123.008 156.35C123.621 156.101 124.167 155.87 124.647 155.657C125.132 155.43 125.489 155.254 125.716 155.129L127.214 155.485C127.22 156.275 127.151 157.079 127.008 157.897C126.862 158.706 126.657 159.507 126.392 160.301C126.84 160.449 127.32 160.625 127.832 160.83C128.355 161.031 128.871 161.246 129.38 161.474C129.89 161.702 130.364 161.926 130.802 162.145C131.241 162.365 131.612 162.568 131.915 162.756C131.719 163.005 131.527 163.31 131.337 163.671C131.143 164.021 130.981 164.349 130.851 164.655C130.564 164.45 130.21 164.23 129.788 163.993C129.363 163.747 128.912 163.509 128.436 163.28C127.967 163.038 127.498 162.812 127.03 162.604C126.557 162.385 126.119 162.199 125.716 162.047C125.194 163.236 124.572 164.364 123.85 165.431C123.127 166.498 122.359 167.451 121.546 168.29ZM140.053 162.564L135.789 150.393L137.631 149.747L139.234 154.323L139.574 153.118C139.876 153.205 140.269 153.31 140.753 153.434C141.244 153.545 141.763 153.656 142.312 153.769C142.856 153.872 143.379 153.96 143.879 154.034C144.379 154.107 144.795 154.148 145.126 154.156C145.044 154.309 144.959 154.52 144.872 154.787C144.792 155.042 144.725 155.302 144.672 155.57C144.615 155.827 144.573 156.045 144.545 156.225C144.258 156.178 143.897 156.118 143.465 156.044C143.038 155.956 142.58 155.857 142.089 155.746C141.608 155.632 141.139 155.52 140.682 155.409C140.232 155.284 139.835 155.169 139.493 155.063L141.895 161.918L140.053 162.564ZM74.8209 209.124C73.9955 209.413 73.2224 209.594 72.5017 209.666C71.7809 209.737 71.1675 209.664 70.6616 209.446C70.1521 209.218 69.7951 208.812 69.5906 208.228C69.4213 207.745 69.4138 207.255 69.5681 206.761C69.7189 206.255 69.9946 205.752 70.3951 205.25C70.792 204.738 71.27 204.231 71.829 203.73L71.7867 203.609C71.6633 203.256 71.4827 203.032 71.2451 202.934C71.0141 202.823 70.7591 202.805 70.4803 202.88C70.0067 203.012 69.5867 203.233 69.2204 203.542C68.8541 203.852 68.5387 204.29 68.2741 204.857C68.1956 205.021 68.0943 205.231 67.9701 205.49C67.8423 205.738 67.7145 205.986 67.5868 206.234C67.459 206.483 67.3459 206.692 67.2473 206.862L65.4787 206.024C66.0211 205.314 66.4808 204.497 66.858 203.574C67.2352 202.65 67.5008 201.715 67.655 200.768C67.0984 200.986 66.5921 201.186 66.1362 201.368C65.6767 201.541 65.3294 201.662 65.0944 201.733L64.4256 200.018C64.7784 199.928 65.2567 199.778 65.8607 199.566C66.4747 199.35 67.1337 199.102 67.8378 198.822C67.8365 198.076 67.7487 197.406 67.5743 196.812L69.4027 196.272C69.5595 196.816 69.6528 197.405 69.6827 198.039C70.4064 197.718 71.073 197.41 71.6824 197.118C72.2984 196.811 72.7599 196.548 73.0668 196.327L73.7598 197.966C73.4956 198.115 73.1476 198.299 72.7158 198.519C72.2805 198.728 71.7948 198.955 71.2589 199.199C70.733 199.44 70.1902 199.681 69.6306 199.922C69.5985 200.25 69.548 200.59 69.4792 200.942C69.4169 201.28 69.341 201.612 69.2515 201.937C69.5977 201.635 69.9772 201.412 70.3899 201.267C70.9837 201.059 71.5366 201.04 72.0486 201.211C72.5706 201.378 73.0072 201.802 73.3582 202.481C73.8549 202.092 74.3687 201.72 74.8996 201.364C75.437 200.995 75.9596 200.648 76.4674 200.323L77.5627 201.804C76.8933 202.152 76.253 202.518 75.6416 202.902C75.0266 203.275 74.464 203.654 73.9538 204.036L74.6574 206.044L72.8758 206.669L72.4102 205.34C71.9916 205.758 71.6772 206.151 71.4669 206.519C71.2531 206.876 71.1868 207.171 71.2679 207.402C71.3878 207.745 71.6788 207.914 72.1409 207.91C72.5994 207.896 73.2514 207.741 74.0969 207.445C74.4392 207.325 74.8146 207.17 75.2232 206.982C75.6384 206.78 76.0451 206.569 76.4431 206.351C76.8477 206.118 77.1952 205.9 77.4856 205.697C77.5113 205.835 77.5582 206.033 77.6262 206.292C77.7008 206.537 77.7804 206.78 77.865 207.022C77.9497 207.264 78.0182 207.443 78.0706 207.56C77.6197 207.854 77.0979 208.139 76.505 208.414C75.9157 208.7 75.3543 208.937 74.8209 209.124ZM88.4297 204.369C88.0842 203.834 87.6451 203.242 87.1123 202.593C86.5861 201.929 86.004 201.252 85.366 200.56C84.728 199.868 84.0719 199.205 83.3977 198.571C82.8659 199.085 82.3841 199.565 81.9524 200.01C81.5272 200.442 81.2085 200.774 80.9962 201.007L79.4638 199.73C79.7501 199.483 80.1262 199.153 80.5922 198.741C81.0581 198.329 81.5555 197.878 82.0843 197.387C81.5854 196.963 81.104 196.589 80.6403 196.266C80.1731 195.932 79.7338 195.662 79.3225 195.456L80.5165 194.122C80.962 194.361 81.427 194.656 81.9113 195.006C82.4057 195.353 82.9074 195.736 83.4165 196.157C83.739 195.852 84.0583 195.553 84.3743 195.262C84.6867 194.96 84.9793 194.682 85.252 194.428C85.0904 194.225 84.8915 194.012 84.6553 193.79C84.4257 193.554 84.1795 193.335 83.9167 193.133C83.6639 192.928 83.422 192.769 83.191 192.658L84.4363 191.374C84.6537 191.479 84.9007 191.635 85.1771 191.843C85.4535 192.052 85.7234 192.273 85.9867 192.509C86.2465 192.734 86.4623 192.947 86.634 193.147C87.1664 192.666 87.7345 192.32 88.3384 192.108C88.9524 191.893 89.5448 191.81 90.1156 191.858C90.6864 191.907 91.1919 192.091 91.6319 192.412C92.0719 192.732 92.396 193.189 92.6041 193.783C92.8722 194.548 92.9197 195.232 92.7468 195.836C92.5739 196.439 92.2343 196.954 91.7281 197.38C91.2284 197.792 90.6109 198.111 89.8756 198.334C89.1504 198.555 88.3645 198.666 87.5179 198.669C87.475 198.515 87.408 198.324 87.3168 198.096C87.2221 197.858 87.1241 197.626 87.0229 197.402C86.9216 197.177 86.8244 196.997 86.7312 196.86C87.2683 196.909 87.8044 196.89 88.3394 196.805C88.8744 196.719 89.3477 196.57 89.7594 196.357C90.1811 196.142 90.4873 195.871 90.678 195.544C90.8651 195.207 90.8828 194.822 90.7311 194.389C90.6006 194.017 90.3761 193.779 90.0574 193.676C89.7453 193.559 89.3879 193.571 88.9853 193.713C88.5792 193.844 88.173 194.088 87.767 194.445C87.3941 194.768 86.935 195.183 86.3895 195.691C85.8506 196.185 85.2954 196.713 84.7238 197.275C85.4181 197.902 86.0926 198.553 86.7472 199.228C87.4118 199.899 88.0274 200.559 88.5939 201.208C89.1604 201.858 89.6469 202.456 90.0532 203.003C89.8927 203.093 89.704 203.216 89.4871 203.371C89.2838 203.533 89.0823 203.699 88.8825 203.871C88.6964 204.049 88.5454 204.215 88.4297 204.369ZM102.852 199.566C102.627 199.374 102.332 199.178 101.968 198.978C101.608 198.787 101.277 198.649 100.975 198.563C102.164 197.536 102.94 196.348 103.304 194.999C103.678 193.648 103.59 192.186 103.039 190.616C102.704 189.66 102.301 189.055 101.828 188.803C101.362 188.537 100.897 188.502 100.435 188.698C100.069 188.848 99.7962 189.182 99.6152 189.697C99.4306 190.203 99.3934 190.854 99.5034 191.652C99.6235 192.447 99.9477 193.356 100.476 194.38C100.339 194.44 100.161 194.53 99.9439 194.652C99.7366 194.769 99.536 194.891 99.3423 195.015C99.1586 195.136 99.0235 195.234 98.9369 195.31C98.736 194.962 98.5116 194.515 98.2637 193.969C98.026 193.419 97.7773 192.823 97.5179 192.179C97.2685 191.532 97.0241 190.883 96.7848 190.232C96.5556 189.577 96.354 188.97 96.1801 188.409C96.0063 187.848 95.8795 187.39 95.7999 187.033L97.7001 186.554C97.7344 186.813 97.7934 187.143 97.8771 187.543C97.9673 187.929 98.0714 188.339 98.1894 188.773C98.3073 189.206 98.43 189.621 98.5575 190.017C98.5668 189.302 98.7156 188.662 99.0038 188.097C99.2985 187.519 99.7109 187.132 100.241 186.934C100.851 186.709 101.453 186.668 102.045 186.81C102.634 186.943 103.179 187.272 103.679 187.797C104.176 188.313 104.587 189.033 104.912 189.959C105.592 191.902 105.729 193.663 105.321 195.242C104.92 196.806 104.097 198.248 102.852 199.566ZM114.402 195.127C114.131 195.063 113.793 195.018 113.388 194.99C112.986 194.973 112.644 194.98 112.361 195.011C112.492 194.547 112.598 193.979 112.679 193.306C112.756 192.623 112.812 191.88 112.847 191.077C112.879 190.263 112.891 189.428 112.885 188.571C112.875 187.704 112.845 186.861 112.796 186.042C112.239 186.294 111.708 186.519 111.202 186.72C110.706 186.916 110.288 187.063 109.949 187.159L109.148 185.405C109.575 185.301 110.098 185.134 110.719 184.905C111.349 184.673 111.991 184.408 112.645 184.111C112.592 183.542 112.523 183.023 112.439 182.556C112.364 182.085 112.277 181.674 112.177 181.325L114.154 180.92C114.216 181.226 114.271 181.574 114.317 181.965C114.36 182.346 114.403 182.76 114.447 183.208C114.835 182.993 115.196 182.781 115.53 182.574C115.861 182.356 116.136 182.158 116.356 181.979L117.221 183.575C116.944 183.785 116.573 184.034 116.109 184.321C115.651 184.594 115.144 184.874 114.588 185.159C114.646 186.032 114.686 186.939 114.711 187.88C114.732 188.811 114.736 189.725 114.723 190.623C114.709 191.52 114.675 192.358 114.619 193.134C114.57 193.898 114.498 194.562 114.402 195.127ZM124.416 190.903C123.389 191.455 122.377 191.856 121.378 192.104C120.391 192.349 119.486 192.445 118.666 192.394C117.855 192.339 117.195 192.147 116.684 191.817L117.129 190.135C117.608 190.374 118.205 190.498 118.92 190.507C119.642 190.503 120.438 190.371 121.308 190.111C122.184 189.838 123.097 189.427 124.046 188.879C124.034 189.166 124.064 189.512 124.138 189.915C124.222 190.316 124.314 190.645 124.416 190.903ZM122.09 185.716C121.719 185.722 121.303 185.761 120.842 185.832C120.378 185.893 119.895 185.983 119.394 186.102C118.904 186.218 118.425 186.352 117.959 186.504C117.499 186.643 117.086 186.787 116.72 186.938L116.328 185.092C116.683 184.945 117.108 184.801 117.601 184.662C118.102 184.509 118.622 184.366 119.163 184.233C119.715 184.096 120.241 183.985 120.742 183.9C121.25 183.801 121.689 183.732 122.059 183.692L122.09 185.716ZM131.984 186.469C131.579 186.928 131.147 187.209 130.686 187.314C130.222 187.409 129.729 187.26 129.207 186.867C128.725 186.493 128.239 186.024 127.748 185.462C127.257 184.899 126.788 184.284 126.339 183.616C125.9 182.945 125.502 182.259 125.144 181.56C124.796 180.857 124.514 180.181 124.298 179.533L126.145 178.903C126.288 179.407 126.492 179.94 126.757 180.503C127.022 181.065 127.324 181.621 127.663 182.169C128.002 182.717 128.352 183.216 128.713 183.666C129.07 184.105 129.415 184.459 129.746 184.728C129.971 184.92 130.172 185.008 130.347 184.992C130.529 184.962 130.694 184.853 130.843 184.665C131.028 184.419 131.202 184.11 131.365 183.736C131.538 183.359 131.669 183.008 131.759 182.682C131.862 182.816 132.002 182.959 132.18 183.111C132.368 183.26 132.559 183.402 132.753 183.537C132.958 183.669 133.135 183.771 133.284 183.843C133.154 184.341 132.972 184.823 132.74 185.289C132.517 185.751 132.265 186.144 131.984 186.469ZM136.701 181.644C136.498 181.388 136.215 181.08 135.852 180.721C135.489 180.363 135.091 179.999 134.657 179.631C134.219 179.254 133.796 178.916 133.387 178.619C132.974 178.311 132.613 178.087 132.304 177.947L133.43 176.518C133.77 176.681 134.165 176.921 134.615 177.238C135.075 177.552 135.536 177.899 135.997 178.28C136.465 178.647 136.894 179.017 137.284 179.388C137.671 179.75 137.969 180.07 138.179 180.346C137.888 180.516 137.605 180.723 137.329 180.967C137.062 181.207 136.853 181.433 136.701 181.644Z" fill="#F8879C"/>
<path d="M44.4348 317.141C49.9746 319.755 53.1451 321.217 55.0307 322.261C56.9163 323.305 58.6011 325.468 58.3639 328.084C58.118 330.705 57.481 336.302 56.9966 339.193C58.8839 334.342 60.951 330.615 61.8404 328.677C62.7297 326.739 64.5187 325.411 66.481 325.565C69.7726 325.826 73.202 325.964 79.3805 326.54C73.8293 324.173 70.563 322.066 67.9055 320.972C66.6292 320.446 65.0759 318.725 65.2343 316.954C65.4128 314.932 66.3527 308.296 67.1597 303.703C65.0605 308.318 62.0768 314.879 61.0527 316.102C60.0287 317.325 58.9478 317.973 56.5554 317.909C53.4329 317.829 50.3153 317.757 44.4474 317.123L44.4348 317.141Z" fill="#FCC63D"/>
<path d="M52.7519 358.247C55.6087 359.597 57.2396 360.348 58.212 360.882C59.1844 361.416 60.0575 362.532 59.9297 363.885C59.802 365.239 59.4738 368.123 59.2268 369.611C60.1942 367.115 61.2631 365.191 61.7242 364.191C62.1766 363.195 63.108 362.504 64.1139 362.585C65.8112 362.715 67.5822 362.793 70.7593 363.094C67.8949 361.875 66.2131 360.785 64.8455 360.22C64.1889 359.944 63.389 359.062 63.4647 358.15C63.5617 357.112 64.0359 353.689 64.4588 351.324C63.3786 353.7 61.8374 357.077 61.3108 357.713C60.7794 358.341 60.2215 358.675 58.9942 358.649C57.3815 358.609 55.7824 358.573 52.7519 358.247Z" fill="#FCC63D"/>
<path d="M126.12 278.296C128.972 279.637 130.608 280.397 131.581 280.931C132.553 281.466 133.426 282.582 133.298 283.935C133.17 285.288 132.842 288.172 132.595 289.66C133.563 287.164 134.632 285.241 135.093 284.24C135.545 283.244 136.477 282.553 137.482 282.634C139.18 282.764 140.951 282.842 144.128 283.144C141.263 281.924 139.582 280.835 138.214 280.269C137.557 279.994 136.757 279.112 136.833 278.2C136.93 277.161 137.404 273.738 137.827 271.373C136.747 273.749 135.206 277.126 134.679 277.763C134.148 278.391 133.59 278.724 132.363 278.699C130.75 278.658 129.151 278.622 126.12 278.296Z" fill="#FCC63D"/>
<path d="M261.448 15.1488C250.328 18.1701 242.126 24.9418 237.723 34.7476C232.812 45.6917 232.683 59.9686 237.343 77.1547C238.186 80.2505 239.13 83.2368 240.144 86.0271C241.216 88.9459 240.722 92.2767 238.853 94.9439C235.094 100.28 234.006 106.94 235.842 113.196C236.83 116.545 238.64 119.63 241.073 122.111C242.376 123.438 244.286 123.874 246.055 123.254C247.845 122.632 249.081 121.07 249.275 119.192C249.469 117.314 250.026 115.514 250.929 113.839C251.545 112.679 252.597 111.892 253.886 111.628C255.207 111.35 256.584 111.679 257.664 112.525C266.703 119.63 277.691 121.698 289.452 118.506C300.571 115.485 308.773 108.713 313.177 98.9075C318.088 87.9635 318.216 73.6866 313.556 56.5005C308.895 39.3033 301.574 27.0514 291.815 20.0918C283.068 13.8515 272.569 12.1495 261.45 15.1709L261.448 15.1488Z" fill="#F7C8C9"/>
<path d="M292.391 10.9071C282.338 4.26413 270.583 2.33312 258.2 5.29313C257.35 5.49418 256.843 6.38743 257.065 7.22436L257.068 7.25749C257.3 8.08236 258.146 8.56097 258.973 8.36196C270.442 5.6312 281.325 7.39787 290.607 13.5219C291.307 13.9917 292.249 13.8267 292.743 13.1463L292.772 13.0991C293.285 12.3835 293.114 11.3748 292.378 10.886L292.391 10.9071Z" fill="#F7C8C9"/>
<path d="M229.259 30.3739L229.224 30.3549C228.411 29.9847 227.457 30.3847 227.122 31.2174C222.215 43.2858 222.034 58.3138 226.565 75.9127C226.788 76.7607 227.658 77.2593 228.494 77.0372L228.527 77.0341C229.363 76.801 229.84 75.9439 229.629 75.106C225.26 58.1714 225.413 43.8031 230.067 32.3705C230.385 31.595 230.014 30.7051 229.247 30.3639L229.259 30.3739Z" fill="#F7C8C9"/>
<path d="M237.447 94.0606C239.582 91.0235 240.206 87.1796 238.927 83.6899C237.929 80.9647 237.004 78.0548 236.171 74.9469C226.51 39.2921 238.954 20.3687 259.153 14.8932C279.352 9.41777 299.647 19.4456 309.32 55.1104C318.981 90.7652 306.537 109.689 286.338 115.164C275.718 118.05 265.069 116.641 255.946 109.466C252.981 107.134 248.604 107.951 246.831 111.289C245.853 113.116 245.227 115.134 245.008 117.226C244.723 119.925 241.416 121.121 239.513 119.193C237.314 116.957 235.619 114.163 234.666 110.955C232.899 104.96 234.123 98.8111 237.459 94.0706L237.447 94.0606Z" fill="#FFFBF2"/>
<path d="M254.96 110.715C253.88 109.869 252.502 109.54 251.181 109.818C249.892 110.082 248.84 110.869 248.224 112.029C247.332 113.704 246.775 115.503 246.57 117.382C246.376 119.26 245.14 120.822 243.35 121.444C241.582 122.064 239.67 121.617 238.369 120.301C235.924 117.821 234.115 114.747 233.137 111.386C231.301 105.13 232.39 98.4814 236.148 93.1339C238.017 90.4667 238.5 87.137 237.44 84.2172C236.425 81.4268 235.482 78.4516 234.639 75.3447C229.978 58.1476 230.107 43.8817 235.018 32.9377C239.41 23.1329 247.612 16.3612 258.743 13.3388C269.862 10.3175 280.361 12.0195 289.108 18.2598C298.867 25.2194 306.188 37.4713 310.849 54.6685C315.51 71.8656 315.381 86.1315 310.47 97.0755C306.077 106.88 297.865 113.653 286.745 116.674C274.984 119.866 263.996 117.798 254.958 110.693L254.96 110.715ZM237.703 74.538C238.515 77.5476 239.429 80.4475 240.423 83.1395C241.851 87.0276 241.225 91.4508 238.745 94.9762C235.548 99.5258 234.612 105.18 236.183 110.503C237.026 113.354 238.559 115.973 240.634 118.076C241.272 118.718 242.015 118.56 242.306 118.456C242.543 118.378 243.313 118.028 243.424 117.06C243.668 114.766 244.345 112.577 245.426 110.539C246.48 108.571 248.343 107.174 250.538 106.714C252.787 106.239 255.12 106.792 256.933 108.217C265.143 114.674 275.168 116.553 285.919 113.633C308.191 107.587 316.153 86.4164 307.778 55.5204C299.403 24.6353 281.834 10.3799 259.562 16.4257C237.29 22.4714 229.328 43.6419 237.703 74.538Z" fill="#F7C8C9"/>
<path d="M246.411 55.6535C246.285 55.4334 246.12 55.1688 245.914 54.8597C245.712 54.5608 245.515 54.3214 245.322 54.1414C246.702 53.6463 247.803 53.0777 248.623 52.4356C249.455 51.7906 250.007 51.0554 250.281 50.2298L245.478 51.5301L245.077 50.0473L250.451 48.5924C250.433 48.4427 250.409 48.2943 250.381 48.1474C250.359 47.9874 250.328 47.8301 250.286 47.6757L244.34 49.2853L243.948 47.8335L249.893 46.2239L249.651 45.328L245.404 46.4778L245.036 45.1186L249.284 43.9689L249.045 43.0885L243.578 44.5686L243.19 43.1322L246.587 42.2124C246.385 42.0352 246.18 41.8697 245.972 41.7158C245.762 41.5517 245.579 41.4246 245.422 41.3345L246.701 40.0599C246.869 40.1472 247.078 40.2893 247.33 40.4863C247.59 40.6701 247.847 40.8657 248.102 41.0729C248.368 41.2774 248.588 41.4607 248.765 41.6229L250.448 41.1672C250.547 40.9194 250.64 40.6511 250.728 40.3622C250.823 40.0602 250.9 39.774 250.96 39.5037C251.03 39.2307 251.076 39.0137 251.099 38.8528L253.047 39.0712C253.02 39.2555 252.966 39.4855 252.886 39.7614C252.803 40.0269 252.711 40.3004 252.611 40.5818L255.916 39.6871L256.304 41.1235L250.883 42.591L251.121 43.4714L255.214 42.3634L255.582 43.7226L251.489 44.8305L251.731 45.7263L257.708 44.1083L258.101 45.5601L252.124 47.1781C252.156 47.3354 252.187 47.4926 252.219 47.6499C252.247 47.7968 252.271 47.9451 252.289 48.0949L257.834 46.5939L258.235 48.0766L253.447 49.3727C254.174 49.8943 255.078 50.2131 256.159 50.3293C257.248 50.4324 258.449 50.3612 259.764 50.1158C259.681 50.3813 259.619 50.7021 259.577 51.0781C259.548 51.4617 259.536 51.7854 259.541 52.0492C258.047 52.2438 256.668 52.2304 255.403 52.0091C254.152 51.7953 253.057 51.2796 252.117 50.462C251.787 51.5682 251.132 52.5577 250.152 53.4306C249.173 54.3035 247.926 55.0445 246.411 55.6535ZM264.155 50.6012L262.994 46.3075C262.674 46.6372 262.35 46.9514 262.022 47.2502C261.694 47.5489 261.362 47.8323 261.026 48.1001C260.851 47.9043 260.623 47.6952 260.342 47.4729C260.069 47.2376 259.802 47.05 259.543 46.9101C260.131 46.508 260.714 46.0296 261.293 45.4749C261.883 44.9175 262.431 44.3273 262.936 43.7042C263.439 43.0708 263.865 42.4415 264.215 41.8163C264.576 41.1882 264.833 40.6049 264.985 40.0663L266.633 39.9684C267.014 40.2741 267.51 40.5763 268.121 40.875C268.73 41.1633 269.398 41.4298 270.128 41.6745C270.857 41.9191 271.606 42.1142 272.374 42.2597C273.143 42.4052 273.878 42.488 274.58 42.5081C274.427 42.7594 274.287 43.0791 274.16 43.4672C274.043 43.8524 273.958 44.1736 273.906 44.4308C273.113 44.3582 272.264 44.2013 271.359 43.9601L272.541 48.331L264.155 50.6012ZM258.998 41.7699L258.125 38.5419L263.855 36.9908L263.491 35.6471L265.437 35.1203L265.801 36.464L271.608 34.892L272.481 38.12L270.751 38.5882L270.279 36.843L260.287 39.548L260.759 41.2933L258.998 41.7699ZM265.543 48.5016L270.3 47.2139L269.732 45.1134L264.975 46.4011L265.543 48.5016ZM271.133 40.8554C270.829 40.794 270.483 40.6998 270.095 40.5728C269.704 40.4354 269.299 40.2854 268.879 40.1228C268.47 39.9574 268.076 39.7877 267.697 39.614C267.316 39.4299 266.987 39.2538 266.709 39.0858L267.625 37.694C267.989 37.894 268.42 38.0978 268.918 38.3055C269.424 38.5001 269.941 38.6751 270.469 38.8305C270.994 38.9756 271.463 39.0752 271.876 39.1293C271.725 39.347 271.575 39.6306 271.426 39.9803C271.288 40.3271 271.19 40.6188 271.133 40.8554ZM261.544 43.5837C261.358 43.4243 261.106 43.2493 260.789 43.0588C260.48 42.8552 260.22 42.7102 260.008 42.6237C260.334 42.3586 260.667 42.0145 261.005 41.5913C261.344 41.1681 261.651 40.7313 261.927 40.2809C262.2 39.8202 262.394 39.414 262.509 39.0625L264.2 39.6158C264.03 40.0486 263.801 40.5085 263.513 40.9954C263.225 41.4823 262.91 41.9541 262.57 42.411C262.226 42.8576 261.885 43.2484 261.544 43.5837ZM264.293 44.8617L269.591 43.4277C268.921 43.2 268.297 42.9546 267.718 42.6916C267.135 42.4182 266.646 42.1418 266.25 41.8622C266.024 42.3324 265.743 42.8282 265.409 43.3496C265.072 43.8607 264.7 44.3648 264.293 44.8617ZM284.704 44.0274C284.618 43.8738 284.488 43.6991 284.313 43.5032C284.139 43.3073 283.946 43.1273 283.736 42.9632C283.534 42.786 283.342 42.65 283.162 42.5552C284.514 41.9571 285.461 41.209 286.002 40.3109C286.551 39.3998 286.717 38.4598 286.499 37.4911C286.334 36.718 286.011 36.076 285.531 35.5653C285.05 35.0545 284.481 34.689 283.825 34.4688C283.179 34.2459 282.517 34.1875 281.839 34.2938C282.015 35.2737 282.125 36.2937 282.169 37.3538C282.213 38.4139 282.157 39.4345 282.003 40.4156C281.859 41.394 281.591 42.2622 281.199 43.0202C280.899 43.5875 280.559 43.9616 280.177 44.1423C279.805 44.3203 279.373 44.3766 278.88 44.3111C278.397 44.2428 277.937 44.0525 277.499 43.7401C277.061 43.4277 276.68 43.0224 276.358 42.5241C276.032 42.0154 275.8 41.4429 275.661 40.8064C275.459 39.8555 275.449 38.9409 275.631 38.0628C275.811 37.1743 276.154 36.3577 276.659 35.613C277.165 34.8683 277.806 34.2362 278.583 33.7165C279.36 33.1969 280.239 32.8318 281.22 32.6213C282.014 32.4506 282.798 32.4264 283.571 32.5485C284.344 32.6707 285.062 32.9349 285.725 33.3413C286.395 33.7346 286.965 34.2488 287.435 34.884C287.915 35.5164 288.244 36.2618 288.421 37.12C288.73 38.5502 288.557 39.8681 287.899 41.0737C287.239 42.2691 286.174 43.2536 284.704 44.0274ZM278.84 42.2663C278.976 42.318 279.105 42.3272 279.229 42.2937C279.353 42.2603 279.459 42.165 279.55 42.008C279.82 41.537 280.018 40.9199 280.143 40.1567C280.278 39.3907 280.333 38.5526 280.308 37.6422C280.293 36.729 280.197 35.8213 280.019 34.9191C279.353 35.2762 278.8 35.7462 278.361 36.3292C277.933 36.9094 277.642 37.5515 277.49 38.2558C277.335 38.9497 277.336 39.6677 277.493 40.4099C277.603 40.8994 277.779 41.3049 278.021 41.6262C278.27 41.9345 278.543 42.1479 278.84 42.2663ZM256.857 76.9932L256.398 75.2942L259.857 74.3577L258.37 68.8593L254.432 69.9255L253.964 68.1956L257.902 67.1295L256.674 62.5887L258.558 62.0786L259.786 66.6194L263.586 65.5909L264.053 67.3207L260.254 68.3492L261.742 73.8476L265.124 72.932L265.583 74.631L256.857 76.9932ZM254.141 78.2258L252.065 70.5497C251.944 70.8807 251.82 71.1962 251.691 71.4963C251.559 71.786 251.427 72.0538 251.295 72.2996C251.08 72.1589 250.801 72.0246 250.457 71.8967C250.123 71.766 249.833 71.6733 249.586 71.6186C249.797 71.2962 250.001 70.8873 250.199 70.3918C250.396 69.8963 250.581 69.3545 250.754 68.7663C250.926 68.1782 251.075 67.5853 251.201 66.9877C251.326 66.3901 251.423 65.828 251.49 65.3014C251.558 64.7748 251.587 64.3305 251.577 63.9684L253.465 64.0211C253.463 64.4636 253.427 64.943 253.356 65.4593C253.286 65.9756 253.197 66.5027 253.088 67.0404L255.979 77.7283L254.141 78.2258ZM272.161 73.3972C272.071 73.1454 271.943 72.8761 271.777 72.5895C271.622 72.3002 271.47 72.065 271.321 71.8842L272.68 71.5163C272.896 71.4577 273.043 71.385 273.119 71.2982C273.192 71.201 273.2 71.0495 273.145 70.8435L273.015 70.3647L268.011 71.7194L267.652 70.3911L272.656 69.0365L272.48 68.3878L266.256 70.0727L265.931 68.868L272.155 67.1831L271.987 66.5653L266.968 67.9241L266.646 66.7348L271.666 65.376L271.503 64.7737L267.503 65.8565L266.688 62.8448L270.688 61.7619L270.538 61.2059L264.762 62.7696L264.402 61.4413L270.178 59.8776L269.903 58.8583L271.756 58.3566L272.032 59.3759L277.792 57.8164L278.152 59.1447L272.391 60.7042L272.541 61.2602L276.495 60.1899L277.31 63.2016L273.356 64.272L273.519 64.8743L278.307 63.5782L278.796 65.3853L280.201 65.0048L280.527 66.2095L279.121 66.59L279.656 68.5669L274.868 69.863L275.136 70.8515C275.289 71.4178 275.236 71.8743 274.976 72.2209C274.726 72.5647 274.272 72.8258 273.613 73.0042L272.161 73.3972ZM274.509 68.5348L277.505 67.7237L277.33 67.075L274.334 67.8861L274.509 68.5348ZM274.008 66.6814L277.004 65.8703L276.837 65.2525L273.841 66.0636L274.008 66.6814ZM268.884 64.2228L271.185 63.5999L271.006 62.9357L268.704 63.5587L268.884 64.2228ZM273.039 63.0981L275.293 62.4877L275.114 61.8236L272.859 62.434L273.039 63.0981ZM291.139 67.8785C290.294 68.1071 289.51 68.231 288.786 68.2502C288.062 68.2694 287.456 68.1518 286.967 67.8973C286.475 67.6325 286.149 67.2016 285.987 66.6044C285.854 66.1101 285.882 65.6218 286.072 65.1394C286.259 64.6467 286.571 64.1645 287.006 63.6929C287.44 63.211 287.953 62.7404 288.547 62.2812L288.514 62.1577C288.416 61.7973 288.253 61.5598 288.023 61.4452C287.8 61.3176 287.547 61.2811 287.264 61.3357C286.782 61.4331 286.347 61.6226 285.959 61.9044C285.571 62.1862 285.225 62.6005 284.92 63.1473C284.829 63.3043 284.713 63.5071 284.57 63.7557C284.425 63.994 284.279 64.2323 284.134 64.4706C283.988 64.7088 283.86 64.9093 283.75 65.0719L282.047 64.1073C282.639 63.4386 283.157 62.6574 283.601 61.7639C284.044 60.8703 284.377 59.9568 284.6 59.0236C284.029 59.2002 283.509 59.363 283.041 59.5118C282.57 59.6503 282.215 59.7465 281.976 59.8003L281.433 58.0408C281.792 57.977 282.28 57.8614 282.898 57.6942C283.526 57.5241 284.201 57.3247 284.924 57.096C284.977 56.3523 284.938 55.6776 284.807 55.0721L286.67 54.6672C286.787 55.2213 286.837 55.8155 286.821 56.4498C287.566 56.1817 288.253 55.9239 288.882 55.6762C289.519 55.4154 289.998 55.1862 290.321 54.9885L290.892 56.6736C290.618 56.8031 290.258 56.9615 289.811 57.1487C289.362 57.3256 288.861 57.5164 288.308 57.7212C287.766 57.9232 287.207 58.1243 286.632 58.3243C286.576 58.6489 286.501 58.9841 286.406 59.3301C286.32 59.663 286.22 59.9884 286.107 60.3063C286.474 60.03 286.869 59.8348 287.291 59.7205C287.899 59.5561 288.451 59.5777 288.95 59.7854C289.458 59.9903 289.863 60.4444 290.163 61.1475C290.687 60.7958 291.227 60.4619 291.782 60.1458C292.345 59.8166 292.891 59.5084 293.421 59.2213L294.406 60.7781C293.713 61.0761 293.048 61.3944 292.41 61.7328C291.77 62.0609 291.181 62.3971 290.644 62.7413L291.2 64.7954L289.377 65.2888L289.01 63.9296C288.562 64.3161 288.22 64.685 287.983 65.0364C287.744 65.3774 287.656 65.6663 287.72 65.9031C287.815 66.2532 288.093 66.4432 288.554 66.4731C289.012 66.4927 289.674 66.3854 290.539 66.1513C290.889 66.0565 291.275 65.93 291.696 65.7717C292.125 65.6004 292.546 65.4201 292.959 65.231C293.379 65.0288 293.741 64.8367 294.046 64.6549C294.061 64.7943 294.094 64.9955 294.143 65.2585C294.199 65.5084 294.261 65.7569 294.328 66.004C294.395 66.2512 294.45 66.4351 294.494 66.5559C294.023 66.816 293.482 67.062 292.87 67.2938C292.262 67.5359 291.684 67.7308 291.139 67.8785ZM263.012 99.9919C262.275 100.291 261.591 100.437 260.96 100.432C260.331 100.436 259.802 100.297 259.372 100.016C258.943 99.7345 258.652 99.3157 258.502 98.7597C258.304 98.0286 258.404 97.2336 258.802 96.3745C259.207 95.5024 259.869 94.7042 260.789 93.9799L260.159 91.6478C259.603 91.8422 259.061 92.0223 258.531 92.1878C258.012 92.3505 257.522 92.4829 257.064 92.585L256.491 90.8339C256.893 90.7692 257.376 90.655 257.94 90.4914C258.5 90.3175 259.081 90.116 259.682 89.887L259.01 87.4004L260.728 86.9518L261.342 89.2222C261.835 89.0004 262.29 88.7833 262.707 88.5708C263.133 88.3452 263.474 88.1367 263.732 87.9454L264.377 89.5942C264.052 89.8256 263.668 90.0569 263.222 90.2881C262.776 90.5192 262.307 90.7457 261.814 90.9674L262.362 92.9907C262.7 92.8108 263.059 92.6473 263.439 92.5002C263.819 92.3531 264.22 92.2224 264.642 92.1081C265.631 91.8405 266.512 91.7678 267.285 91.89C268.066 91.999 268.706 92.2622 269.206 92.6795C269.703 93.0865 270.037 93.6091 270.21 94.2475C270.477 95.236 270.389 96.0942 269.945 96.8222C269.501 97.5502 268.768 98.047 267.746 98.3126C266.953 98.5273 266.231 98.5128 265.58 98.2693C264.936 98.0126 264.389 97.5251 263.941 96.8067C264.158 96.6705 264.417 96.4843 264.718 96.2482C265.016 96.0018 265.245 95.7851 265.404 95.5983C265.893 96.3833 266.502 96.6768 267.233 96.4789C267.686 96.3562 267.997 96.1342 268.164 95.8126C268.328 95.4808 268.357 95.1193 268.252 94.728C268.115 94.2235 267.776 93.8678 267.234 93.6609C266.689 93.4438 265.963 93.4578 265.057 93.7031C264.233 93.9261 263.484 94.2395 262.809 94.6433L263.849 98.4891C263.952 98.8701 263.94 99.1718 263.812 99.3942C263.687 99.6269 263.421 99.8262 263.012 99.9919ZM268.939 90.7129C268.625 90.5326 268.218 90.3555 267.718 90.1815C267.215 89.9972 266.707 89.8362 266.195 89.6987C265.68 89.5508 265.229 89.4573 264.843 89.4182L265.44 87.7648C265.849 87.8086 266.309 87.8941 266.819 88.0214C267.328 88.1487 267.832 88.2942 268.329 88.4579C268.826 88.6216 269.254 88.7932 269.612 88.9726C269.54 89.1137 269.453 89.303 269.351 89.5404C269.26 89.7751 269.172 90.0032 269.089 90.2248C269.015 90.4436 268.965 90.6063 268.939 90.7129ZM261.457 98.6558C261.656 98.6132 261.789 98.5549 261.858 98.4811C261.937 98.4046 261.958 98.2994 261.922 98.1655L261.282 95.8024C260.887 96.219 260.596 96.6347 260.41 97.0498C260.224 97.4648 260.177 97.8422 260.269 98.182C260.333 98.4189 260.469 98.5754 260.677 98.6515C260.886 98.7277 261.146 98.7291 261.457 98.6558ZM282.149 95.491L281.188 91.9387C280.84 92.6519 280.43 93.343 279.959 94.0119C279.498 94.6781 279.01 95.2634 278.494 95.7676C278.344 95.6204 278.125 95.4422 277.836 95.2331C277.547 95.0239 277.273 94.8662 277.012 94.76C277.414 94.408 277.811 93.9967 278.203 93.5259C278.595 93.0551 278.959 92.5641 279.296 92.053C279.641 91.5288 279.923 91.0213 280.144 90.5305L277.287 91.304L276.878 89.7904L280.352 88.8497L279.985 87.4905L281.715 87.0223C281.313 87.0094 281.049 86.7661 280.92 86.2924L280.181 83.5587L281.833 83.1113L282.339 84.9802C282.375 85.114 282.419 85.196 282.472 85.226C282.524 85.256 282.627 85.2502 282.782 85.2083L283.106 85.1205C283.322 85.062 283.455 84.9598 283.504 84.814C283.553 84.6681 283.542 84.3617 283.471 83.8947C283.658 83.9325 283.925 83.9596 284.272 83.9762C284.616 83.9825 284.91 83.9858 285.153 83.9863C285.224 84.5749 285.217 85.0408 285.133 85.384C285.057 85.7141 284.9 85.972 284.663 86.1578C284.434 86.3304 284.103 86.4753 283.67 86.5923L282.635 86.8725C282.254 86.9756 281.947 87.0255 281.715 87.0223L282.082 88.3814L285.773 87.3822L286.183 88.8958L283.187 89.7069C283.853 90.1675 284.604 90.5773 285.442 90.9363C286.277 91.285 287.09 91.5344 287.882 91.6847C287.736 91.923 287.598 92.209 287.468 92.5428C287.334 92.8662 287.236 93.136 287.173 93.352C286.473 93.1766 285.744 92.91 284.984 92.5521C284.234 92.1914 283.535 91.7897 282.884 91.3469L283.879 95.0228L282.149 95.491ZM274.354 97.6178C274.299 97.4559 274.22 97.2672 274.118 97.0518C274.018 96.8467 273.913 96.6431 273.803 96.4408C273.704 96.2357 273.605 96.0746 273.507 95.9574L274.403 95.715C274.609 95.6592 274.744 95.5893 274.81 95.5052C274.886 95.4184 274.898 95.2771 274.845 95.0815L274.084 92.2705C273.781 92.4963 273.505 92.7035 273.258 92.892C273.018 93.0675 272.832 93.1953 272.699 93.2755L271.769 91.5546C271.992 91.439 272.263 91.2772 272.582 91.0692C272.902 90.8612 273.234 90.6386 273.579 90.4017L272.806 87.5443L271.107 88.0042L270.668 86.3825L272.367 85.9226L271.657 83.297L273.356 82.8371L274.066 85.4627L275.302 85.1283L275.74 86.75L274.505 87.0844L275.11 89.324C275.626 88.9413 276.001 88.652 276.235 88.456L276.69 90.1395C276.576 90.2478 276.421 90.3893 276.225 90.5638C276.036 90.7253 275.824 90.8989 275.587 91.0847L276.736 95.332C276.88 95.8675 276.825 96.2968 276.57 96.62C276.328 96.9507 275.898 97.1997 275.281 97.367L274.354 97.6178ZM275.768 85.748L274.99 82.8753L283.963 80.4461L284.724 83.2571L283.04 83.7128L282.685 82.4L277.079 83.9177L277.451 85.2923L275.768 85.748ZM277.307 88.9282C277.149 88.7501 276.944 88.5457 276.694 88.3151C276.451 88.0714 276.237 87.8918 276.051 87.7764C276.606 87.4163 277.046 87.0649 277.374 86.7222C277.698 86.3691 277.913 85.9794 278.019 85.553C278.135 85.1238 278.137 84.6204 278.025 84.043L279.693 83.8398C279.814 84.9787 279.678 85.9491 279.288 86.7511C278.907 87.5503 278.247 88.276 277.307 88.9282ZM295.677 91.1493C294.853 91.3723 294.161 91.4711 293.602 91.4457C293.053 91.4175 292.607 91.2399 292.264 90.9127C291.932 90.5827 291.675 90.0831 291.494 89.4139L288.733 79.2048L290.789 78.7806C290.816 78.9612 290.875 79.2603 290.966 79.6777C291.057 80.0951 291.161 80.5421 291.279 81.0185C291.371 81.4023 291.474 81.8221 291.586 82.2779C291.709 82.731 291.844 83.2303 291.991 83.7761L293.278 88.5331C293.401 88.9862 293.608 89.2616 293.9 89.3595C294.202 89.4545 294.667 89.417 295.295 89.247C296.304 88.9739 297.204 88.5256 297.997 87.9021C298.8 87.2758 299.455 86.5903 299.96 85.8456C300.024 86.0385 300.108 86.2697 300.214 86.5394C300.328 86.796 300.439 87.0422 300.547 87.2782C300.662 87.5011 300.754 87.6753 300.821 87.8008C300.224 88.5369 299.478 89.2086 298.581 89.816C297.695 90.4206 296.727 90.865 295.677 91.1493Z" fill="#F8879C"/>
<path d="M498.047 109.499C495.633 107.375 494.397 104.119 494.747 100.795C496.159 87.0125 486.123 74.6791 472.375 73.2695C467.678 72.788 462.96 73.6348 458.747 75.7202C455.24 77.4568 451.06 77.0666 448.123 74.7266C443.355 70.9354 437.312 69.0237 431.127 69.3467C418.853 69.974 408.752 79.7545 407.622 92.0916L407.599 92.319C407.346 95.4422 405.512 98.3075 402.7 99.9814C395.985 103.974 391.762 111.016 391.401 118.838C390.861 130.546 399.537 141.036 411.142 142.724C415.668 143.379 420.234 142.699 424.338 140.746C427.768 139.116 431.719 139.493 434.637 141.735C435.356 142.287 436.125 142.806 436.91 143.27C438.787 144.381 439.567 146.663 438.719 148.586C438.121 149.941 437.28 151.147 436.219 152.168C435.116 153.222 434.737 154.772 435.22 156.219C435.697 157.637 436.906 158.632 438.389 158.813C438.484 158.823 438.579 158.832 438.673 158.842C441.277 159.109 443.936 158.75 446.388 157.786C451.232 155.899 454.842 151.943 456.302 146.943C456.656 145.725 457.484 144.738 458.572 144.208L458.674 144.151C461.966 142.555 465.847 142.963 468.793 145.218C472.634 148.158 477.241 149.798 482.115 149.943C493.274 150.293 503.306 142.305 505.452 131.355C507.057 123.163 504.287 114.992 498.037 109.498L498.047 109.499Z" fill="#F7C8C9"/>
<path d="M387.355 116.576C387.465 114.194 387.878 111.844 388.588 109.59C388.801 108.904 388.426 108.176 387.753 107.925C387.015 107.658 386.208 108.064 385.979 108.806C385.21 111.273 384.756 113.84 384.632 116.45C384.293 123.862 386.871 131.296 391.743 137.069C392.246 137.666 393.149 137.73 393.73 137.196C394.258 136.705 394.314 135.878 393.853 135.333C389.407 130.081 387.056 123.322 387.365 116.577L387.355 116.576Z" fill="#F7C8C9"/>
<path d="M496.451 78.5621C491.462 71.0344 483.441 65.9239 474.555 64.5916C473.783 64.4741 473.057 65.0219 472.977 65.7986C472.903 66.5185 473.4 67.182 474.117 67.2842C482.384 68.4956 489.587 73.0915 494.199 80.0924C494.596 80.6979 495.402 80.8666 496.023 80.4996C496.695 80.0995 496.882 79.2093 496.451 78.5621Z" fill="#F7C8C9"/>
<path d="M430.888 61.866C430.845 61.0766 430.158 60.4989 429.374 60.5813C420.395 61.4697 412.104 66.2766 406.751 73.7011C406.294 74.3338 406.441 75.2296 407.105 75.6614C407.705 76.0579 408.523 75.9216 408.947 75.3333C413.847 68.5037 421.446 64.0949 429.68 63.2928C430.395 63.2225 430.929 62.5881 430.888 61.866Z" fill="#F7C8C9"/>
<path d="M403.433 99.0802C406.57 97.2195 408.699 94.0015 408.995 90.3658C409.002 90.29 409.009 90.2237 409.017 90.1479C410.09 78.4653 419.53 69.2488 431.237 68.64C437.412 68.3255 442.989 70.2949 447.317 73.725C450.758 76.4612 455.458 76.8187 459.399 74.868C463.259 72.957 467.683 72.0801 472.285 72.552C485.304 73.8868 494.771 85.5205 493.437 98.545L493.434 98.5735C493.055 102.277 494.397 105.985 497.188 108.444C502.752 113.341 505.738 120.998 504.169 129.021C502.142 139.381 492.757 146.842 482.218 146.508C477.45 146.354 473.14 144.716 469.68 142.064C466.362 139.522 461.887 139.025 458.131 140.851L458.04 140.899C456.571 141.6 455.499 142.917 455.042 144.478C453.769 148.875 450.541 152.641 445.946 154.438C443.524 155.386 441.017 155.665 438.608 155.37C436.519 155.118 435.695 152.516 437.212 151.063C438.411 149.913 439.365 148.537 440.016 147.043C441.152 144.451 440.083 141.441 437.646 140.005C436.897 139.564 436.191 139.08 435.508 138.56C432.154 135.995 427.609 135.616 423.798 137.426C420.077 139.189 415.802 139.918 411.379 139.283C400.404 137.698 392.3 127.899 392.804 116.809C393.151 109.129 397.382 102.662 403.435 99.0613L403.433 99.0802Z" fill="#FFFBF2"/>
<path d="M438.439 156.741C436.955 156.56 435.746 155.565 435.269 154.147C434.786 152.7 435.165 151.15 436.268 150.095C437.329 149.075 438.171 147.869 438.769 146.513C439.616 144.59 438.836 142.309 436.96 141.197C436.175 140.734 435.405 140.215 434.687 139.663C431.767 137.43 427.816 137.053 424.387 138.674C420.284 140.617 415.717 141.307 411.191 140.652C399.585 138.973 390.91 128.483 391.45 116.765C391.811 108.944 396.035 101.901 402.749 97.9091C405.561 96.2352 407.394 93.3793 407.648 90.2466L407.671 90.0193C408.801 77.6822 418.903 67.9016 431.176 67.2743C437.36 66.9608 443.403 68.8726 448.173 72.6543C451.119 74.9952 455.289 75.3845 458.797 73.6479C463.01 71.5624 467.727 70.7157 472.424 71.1972C486.172 72.6068 496.209 84.9402 494.797 98.7225C494.455 102.057 495.681 105.312 498.096 107.427C504.345 112.92 507.115 121.091 505.511 129.283C503.365 140.234 493.333 148.222 482.174 147.872C477.29 147.725 472.684 146.085 468.851 143.146C465.906 140.892 462.024 140.484 458.732 142.08L458.632 142.127C457.536 142.647 456.706 143.643 456.361 144.862C454.911 149.863 451.291 153.818 446.457 155.706C444.006 156.66 441.346 157.029 438.743 156.762C438.648 156.752 438.553 156.743 438.458 156.733L438.439 156.741ZM470.507 140.99C473.888 143.577 477.96 145.018 482.261 145.153C492.104 145.463 500.949 138.416 502.837 128.77C504.247 121.544 501.809 114.326 496.297 109.482C493.226 106.774 491.648 102.65 492.083 98.406C493.339 86.1487 484.399 75.1625 472.146 73.9063C467.961 73.4772 463.76 74.2333 460.001 76.0878C455.546 78.292 450.24 77.7862 446.471 74.7867C442.224 71.4127 436.839 69.7119 431.308 69.9968C420.381 70.5611 411.385 79.268 410.373 90.2676L410.353 90.4665C410.028 94.4726 407.692 98.1288 404.127 100.242C398.198 103.76 394.479 109.983 394.166 116.872C393.692 127.199 401.346 136.445 411.575 137.934C415.573 138.507 419.595 137.914 423.215 136.199C427.57 134.128 432.6 134.624 436.336 137.477C436.975 137.964 437.646 138.415 438.341 138.831C441.409 140.639 442.659 144.404 441.261 147.592C440.524 149.278 439.47 150.778 438.144 152.049C437.646 152.524 437.787 153.104 437.847 153.272C437.912 153.47 438.132 153.943 438.755 154.026C441.006 154.285 443.312 154.005 445.435 153.17C449.481 151.594 452.499 148.285 453.712 144.102C454.277 142.14 455.638 140.528 457.42 139.667L457.511 139.619C459.615 138.6 461.913 138.214 464.147 138.443C466.382 138.672 468.59 139.53 470.48 140.978L470.507 140.99Z" fill="#F7C8C9"/>
<path d="M421.192 102.335C421.163 102.083 421.114 101.774 421.046 101.41C420.977 101.055 420.889 100.758 420.782 100.517C422.246 100.602 423.481 100.509 424.487 100.24C425.504 99.9716 426.301 99.5114 426.876 98.8589L421.947 98.1748L422.158 96.6534L427.673 97.4189C427.715 97.2739 427.751 97.1282 427.782 96.9817C427.825 96.8262 427.858 96.6692 427.88 96.5107L421.778 95.6638L421.985 94.174L428.086 95.021L428.214 94.1018L423.856 93.4968L424.049 92.1022L428.407 92.7071L428.533 91.8038L422.922 91.025L423.127 89.5511L426.613 90.0351C426.496 89.7927 426.372 89.5601 426.242 89.3374C426.113 89.1041 425.993 88.9152 425.884 88.7708L427.56 88.0989C427.68 88.2448 427.818 88.4577 427.973 88.7376C428.14 89.0085 428.3 89.2892 428.453 89.5797C428.618 89.8717 428.749 90.1269 428.848 90.3453L430.575 90.585C430.763 90.3957 430.954 90.1853 431.148 89.9537C431.353 89.713 431.536 89.48 431.697 89.2546C431.868 89.0306 431.995 88.8491 432.079 88.71L433.787 89.674C433.69 89.8327 433.55 90.0234 433.368 90.2458C433.188 90.4577 432.997 90.6735 432.794 90.893L436.186 91.3638L435.981 92.8377L430.419 92.0655L430.293 92.9689L434.493 93.5518L434.3 94.9465L430.1 94.3635L429.972 95.2827L436.106 96.1341L435.899 97.6238L429.766 96.7725C429.733 96.9295 429.701 97.0865 429.668 97.2435C429.637 97.39 429.601 97.5357 429.559 97.6807L435.248 98.4704L435.037 99.9918L430.124 99.3099C430.589 100.074 431.296 100.722 432.246 101.252C433.207 101.773 434.341 102.178 435.647 102.467C435.467 102.679 435.284 102.95 435.098 103.279C434.922 103.621 434.784 103.914 434.686 104.159C433.234 103.753 431.97 103.201 430.893 102.502C429.825 101.815 429.019 100.912 428.475 99.7916C427.738 100.68 426.748 101.334 425.505 101.754C424.262 102.174 422.825 102.367 421.192 102.335ZM439.498 104.633L440.109 100.227C439.686 100.406 439.265 100.568 438.846 100.714C438.427 100.861 438.011 100.992 437.597 101.106C437.513 100.858 437.385 100.576 437.213 100.262C437.053 99.9378 436.882 99.6609 436.698 99.4309C437.396 99.2908 438.12 99.079 438.87 98.7954C439.631 98.5133 440.366 98.1846 441.074 97.8092C441.785 97.4232 442.424 97.0111 442.991 96.5728C443.568 96.1361 444.032 95.6998 444.384 95.2639L445.938 95.8189C446.169 96.2495 446.507 96.7218 446.953 97.2359C447.4 97.7395 447.911 98.2466 448.487 98.7572C449.062 99.2678 449.675 99.7406 450.325 100.175C450.976 100.61 451.62 100.974 452.257 101.268C452.018 101.439 451.764 101.678 451.496 101.986C451.237 102.294 451.034 102.557 450.886 102.773C450.184 102.396 449.464 101.919 448.726 101.343L448.104 105.828L439.498 104.633ZM438.208 94.4875L438.667 91.1752L444.547 91.9913L444.738 90.6125L446.735 90.8897L446.544 92.2685L452.502 93.0956L452.043 96.4079L450.268 96.1615L450.516 94.3707L440.263 92.9474L440.014 94.7382L438.208 94.4875ZM441.597 103.245L446.478 103.922L446.777 101.767L441.896 101.089L441.597 103.245ZM449.732 98.397C449.476 98.2215 449.195 97.9994 448.887 97.7306C448.582 97.4512 448.267 97.1545 447.945 96.8405C447.633 96.528 447.337 96.2177 447.056 95.9095C446.777 95.5908 446.543 95.2999 446.353 95.0366L447.741 94.1147C447.998 94.441 448.314 94.7973 448.691 95.1835C449.081 95.5606 449.488 95.924 449.913 96.2738C450.34 96.613 450.733 96.8883 451.091 97.0996C450.867 97.2408 450.618 97.4431 450.344 97.7067C450.082 97.9717 449.877 98.2018 449.732 98.397ZM439.841 97.1533C439.731 96.9335 439.568 96.6739 439.351 96.3746C439.146 96.0662 438.964 95.8308 438.803 95.6685C439.207 95.5523 439.647 95.3657 440.124 95.1089C440.602 94.8521 441.055 94.5704 441.485 94.264C441.917 93.947 442.255 93.6492 442.498 93.3707L443.838 94.542C443.512 94.8737 443.121 95.2071 442.665 95.5423C442.209 95.8775 441.735 96.1886 441.243 96.4757C440.753 96.7522 440.285 96.9781 439.841 97.1533ZM441.871 99.4058L447.307 100.16C446.78 99.6887 446.301 99.2185 445.871 98.7495C445.442 98.27 445.1 97.8241 444.845 97.4118C444.453 97.7558 444.001 98.1023 443.489 98.4512C442.979 98.7897 442.44 99.1079 441.871 99.4058ZM452.558 106.091L452.78 104.49L458.945 105.346L459.094 104.268L454.688 103.656L454.912 102.04L459.318 102.651L459.485 101.447C458.631 101.393 457.795 101.331 456.975 101.26C456.156 101.189 455.444 101.118 454.841 101.045L454.829 99.3792C455.22 99.4335 455.628 99.4846 456.052 99.5327C456.488 99.5717 456.934 99.6175 457.39 99.67C457.582 99.449 457.789 99.1977 458.011 98.9163C458.233 98.6348 458.436 98.3722 458.621 98.1286L456.402 97.8207L456.611 96.3151L465.597 97.5624L465.388 99.068L463.597 98.8194C463.882 99.0958 464.182 99.4175 464.497 99.7843C464.814 100.141 465.119 100.501 465.414 100.865C465.72 101.219 465.987 101.547 466.214 101.848C466.089 101.895 465.921 101.98 465.71 102.101C465.512 102.214 465.312 102.336 465.11 102.47C464.91 102.593 464.754 102.706 464.643 102.809C464.556 102.657 464.44 102.485 464.295 102.292C464.161 102.091 464.008 101.876 463.835 101.647C463.481 101.641 463.089 101.63 462.661 101.613C462.243 101.598 461.804 101.58 461.343 101.56L461.157 102.907L465.626 103.527L465.402 105.144L460.932 104.523L460.783 105.601L467.027 106.468L466.805 108.068L452.558 106.091ZM453.967 97.2081L454.475 93.5471L460.355 94.3632L460.561 92.8735L462.622 93.1595L462.415 94.6492L468.326 95.4698L467.83 99.0515L465.991 98.7963L466.279 96.7202L456.136 95.3123L455.837 97.4676L453.967 97.2081ZM459.413 99.8701C459.978 99.9161 460.521 99.9592 461.043 99.9994C461.576 100.041 462.071 100.078 462.53 100.109C462.4 99.9616 462.268 99.8248 462.135 99.6986C462.013 99.5633 461.889 99.4492 461.762 99.3562L462.773 98.705L460.602 98.4036C460.206 98.9302 459.81 99.419 459.413 99.8701ZM476.715 109.525C475.849 109.404 475.078 109.211 474.405 108.945C473.731 108.68 473.219 108.334 472.869 107.908C472.52 107.472 472.388 106.948 472.473 106.335C472.543 105.828 472.76 105.39 473.124 105.02C473.489 104.64 473.964 104.318 474.55 104.055C475.137 103.781 475.794 103.549 476.52 103.359L476.538 103.232C476.589 102.863 476.531 102.58 476.365 102.385C476.21 102.18 475.991 102.047 475.709 101.987C475.227 101.888 474.753 101.892 474.286 101.999C473.819 102.107 473.338 102.352 472.843 102.736C472.699 102.845 472.512 102.986 472.283 103.159C472.056 103.321 471.829 103.483 471.602 103.646C471.375 103.808 471.179 103.942 471.013 104.049L469.823 102.494C470.63 102.111 471.413 101.595 472.17 100.946C472.928 100.298 473.592 99.5875 474.162 98.8159C473.567 98.7549 473.026 98.7012 472.537 98.6549C472.049 98.598 471.685 98.5474 471.443 98.5031L471.633 96.6717C471.987 96.7533 472.482 96.8381 473.116 96.9261C473.76 97.0155 474.46 97.0965 475.214 97.1689C475.554 96.5053 475.782 95.8693 475.899 95.2609L477.772 95.6178C477.662 96.1734 477.476 96.7398 477.213 97.3171C478.003 97.3622 478.737 97.394 479.413 97.4124C480.1 97.4218 480.631 97.3985 481.005 97.3428L480.872 99.1173C480.569 99.1291 480.175 99.1337 479.691 99.1311C479.208 99.1179 478.673 99.0974 478.084 99.0696C477.506 99.0432 476.913 99.0093 476.305 98.968C476.127 99.2448 475.927 99.5239 475.705 99.8054C475.495 100.078 475.275 100.338 475.047 100.586C475.493 100.476 475.933 100.451 476.366 100.511C476.989 100.598 477.49 100.834 477.867 101.22C478.255 101.608 478.449 102.184 478.451 102.949C479.07 102.83 479.697 102.734 480.332 102.661C480.979 102.578 481.602 102.509 482.203 102.452L482.5 104.27C481.745 104.273 481.009 104.305 480.289 104.367C479.572 104.418 478.898 104.497 478.27 104.604L477.977 106.711L476.107 106.452L476.301 105.057C475.737 105.237 475.278 105.443 474.923 105.674C474.569 105.894 474.376 106.125 474.342 106.368C474.292 106.728 474.474 107.011 474.886 107.219C475.3 107.417 475.951 107.577 476.839 107.7C477.198 107.75 477.602 107.785 478.052 107.804C478.514 107.814 478.971 107.813 479.425 107.801C479.891 107.779 480.3 107.745 480.651 107.696C480.611 107.831 480.562 108.029 480.504 108.29C480.459 108.542 480.418 108.795 480.383 109.048C480.348 109.302 480.327 109.493 480.32 109.621C479.785 109.676 479.19 109.69 478.537 109.664C477.882 109.649 477.275 109.602 476.715 109.525ZM430.618 124.982C429.823 124.968 429.136 124.835 428.558 124.582C427.977 124.34 427.545 124.006 427.259 123.578C426.974 123.151 426.871 122.652 426.95 122.082C427.054 121.332 427.457 120.639 428.159 120.004C428.873 119.36 429.795 118.885 430.925 118.579L431.257 116.186C430.67 116.147 430.1 116.101 429.548 116.046C429.006 115.992 428.504 115.922 428.042 115.837L428.2 114.001C428.596 114.099 429.085 114.183 429.667 114.253C430.251 114.312 430.865 114.355 431.507 114.379L431.861 111.828L433.618 112.088L433.295 114.417C433.835 114.406 434.339 114.384 434.806 114.352C435.286 114.311 435.682 114.253 435.994 114.178L435.942 115.948C435.553 116.034 435.108 116.096 434.608 116.134C434.107 116.172 433.587 116.197 433.047 116.208L432.759 118.284C433.14 118.251 433.535 118.241 433.942 118.255C434.349 118.268 434.77 118.305 435.203 118.365C436.217 118.506 437.056 118.784 437.72 119.199C438.396 119.605 438.882 120.098 439.179 120.678C439.477 121.247 439.58 121.859 439.489 122.514C439.349 123.528 438.932 124.283 438.238 124.779C437.545 125.275 436.676 125.446 435.632 125.29C434.818 125.177 434.159 124.881 433.655 124.402C433.163 123.913 432.851 123.251 432.719 122.414C432.972 122.374 433.283 122.304 433.653 122.204C434.023 122.094 434.318 121.985 434.538 121.875C434.681 122.789 435.127 123.298 435.877 123.402C436.342 123.466 436.714 123.383 436.994 123.153C437.275 122.912 437.444 122.591 437.499 122.189C437.571 121.671 437.398 121.211 436.98 120.809C436.563 120.395 435.89 120.124 434.961 119.995C434.115 119.878 433.303 119.873 432.524 119.98L431.976 123.926C431.922 124.317 431.793 124.59 431.588 124.745C431.382 124.91 431.059 124.989 430.618 124.982ZM439.703 118.764C439.484 118.475 439.179 118.152 438.787 117.796C438.396 117.43 437.992 117.083 437.574 116.756C437.158 116.418 436.78 116.156 436.44 115.968L437.636 114.681C437.996 114.881 438.385 115.14 438.805 115.457C439.224 115.773 439.63 116.104 440.024 116.45C440.417 116.795 440.744 117.12 441.003 117.426C440.881 117.527 440.727 117.667 440.541 117.846C440.365 118.026 440.195 118.202 440.031 118.373C439.878 118.546 439.769 118.676 439.703 118.764ZM429.71 123.143C429.91 123.182 430.055 123.18 430.147 123.139C430.249 123.1 430.31 123.011 430.329 122.874L430.665 120.449C430.138 120.677 429.708 120.946 429.374 121.255C429.041 121.564 428.85 121.893 428.802 122.242C428.768 122.485 428.832 122.682 428.994 122.834C429.156 122.986 429.395 123.089 429.71 123.143ZM449.99 128.333L450.495 124.688C449.895 125.207 449.248 125.683 448.553 126.114C447.868 126.547 447.19 126.894 446.518 127.156C446.438 126.962 446.305 126.712 446.122 126.407C445.938 126.101 445.747 125.848 445.548 125.649C446.056 125.482 446.582 125.259 447.127 124.979C447.672 124.7 448.2 124.391 448.71 124.052C449.232 123.705 449.69 123.348 450.085 122.983L447.154 122.576L447.369 121.023L450.935 121.518L451.128 120.123L452.903 120.37C452.539 120.201 452.391 119.873 452.458 119.387L452.847 116.582L454.543 116.817L454.277 118.735C454.258 118.872 454.266 118.965 454.303 119.013C454.339 119.061 454.437 119.096 454.595 119.118L454.928 119.165C455.15 119.195 455.312 119.153 455.414 119.038C455.516 118.923 455.626 118.637 455.743 118.179C455.9 118.287 456.135 118.417 456.448 118.568C456.763 118.709 457.032 118.827 457.255 118.922C457.09 119.492 456.902 119.918 456.69 120.201C456.491 120.475 456.246 120.651 455.955 120.729C455.676 120.798 455.315 120.801 454.871 120.74L453.809 120.592C453.418 120.538 453.116 120.464 452.903 120.37L452.71 121.764L456.497 122.29L456.282 123.843L453.208 123.417C453.64 124.101 454.172 124.773 454.802 125.431C455.434 126.079 456.084 126.627 456.755 127.075C456.527 127.237 456.288 127.446 456.038 127.702C455.788 127.948 455.592 128.157 455.45 128.331C454.875 127.896 454.307 127.365 453.748 126.738C453.2 126.113 452.713 125.469 452.288 124.807L451.765 128.579L449.99 128.333ZM441.984 127.238C441.997 127.067 441.998 126.863 441.988 126.624C441.977 126.397 441.96 126.168 441.938 125.939C441.927 125.711 441.899 125.524 441.854 125.378L442.774 125.506C442.985 125.535 443.137 125.524 443.231 125.472C443.334 125.422 443.4 125.297 443.428 125.096L443.828 122.211C443.46 122.3 443.126 122.383 442.825 122.46C442.535 122.527 442.314 122.572 442.16 122.594L441.978 120.646C442.228 120.627 442.541 120.584 442.916 120.518C443.291 120.452 443.684 120.377 444.094 120.294L444.501 117.362L442.757 117.12L442.988 115.456L444.732 115.698L445.105 113.004L446.849 113.246L446.475 115.94L447.743 116.116L447.512 117.78L446.244 117.604L445.925 119.902C446.549 119.752 447.007 119.632 447.3 119.543L447.06 121.271C446.912 121.326 446.714 121.395 446.466 121.479C446.229 121.554 445.966 121.631 445.675 121.709L445.07 126.067C444.994 126.616 444.775 126.99 444.414 127.187C444.062 127.397 443.569 127.458 442.935 127.37L441.984 127.238ZM447.929 116.869L448.338 113.921L457.546 115.199L457.146 118.083L455.418 117.844L455.605 116.496L449.852 115.698L449.656 117.108L447.929 116.869ZM448.102 120.398C448.025 120.172 447.917 119.904 447.777 119.594C447.649 119.274 447.522 119.025 447.396 118.846C448.048 118.732 448.591 118.581 449.026 118.394C449.463 118.196 449.813 117.922 450.077 117.571C450.352 117.221 450.55 116.759 450.673 116.183L452.288 116.65C451.953 117.745 451.449 118.585 450.776 119.17C450.113 119.756 449.222 120.166 448.102 120.398ZM464.137 129.634C463.292 129.517 462.617 129.337 462.112 129.095C461.618 128.854 461.277 128.516 461.09 128.08C460.913 127.647 460.872 127.086 460.967 126.4L462.42 115.924L464.479 116.339C464.433 116.516 464.37 116.814 464.29 117.234C464.21 117.653 464.131 118.105 464.053 118.59C463.989 118.979 463.919 119.406 463.844 119.869C463.779 120.334 463.708 120.846 463.631 121.406L462.953 126.288C462.889 126.753 462.972 127.087 463.202 127.291C463.443 127.497 463.885 127.645 464.53 127.734C465.565 127.878 466.57 127.818 467.543 127.555C468.527 127.293 469.397 126.918 470.154 126.431C470.137 126.633 470.124 126.879 470.116 127.169C470.121 127.449 470.126 127.719 470.133 127.979C470.152 128.229 470.168 128.425 470.181 128.567C469.344 129.011 468.394 129.337 467.332 129.545C466.279 129.754 465.215 129.784 464.137 129.634Z" fill="#F8879C"/>
<defs>
<clipPath id="clip0_84_2279">
<rect width="412.837" height="402" fill="white" transform="translate(59.9763 190)"/>
</clipPath>
</defs>
</svg>
