<svg width="108" height="27" viewBox="0 0 108 27" fill="none" xmlns="http://www.w3.org/2000/svg">
<path d="M42.9419 23.9699L33.7974 4.36686L32.105 0.710449H30.546L28.8506 4.36983L20.525 22.042L19.1844 24.8683H23.2729C23.837 24.8683 24.1525 24.5232 24.292 24.1781L26.0147 20.4503H36.5332L38.2559 24.1781C38.5016 24.6601 38.7473 24.8683 39.275 24.8683H43.3423L42.9541 24.0294C42.948 24.0085 42.9419 23.9907 42.9328 23.9699H42.9419ZM27.7435 16.6184L31.1921 9.02588H31.2982L34.8165 16.6184H27.7435Z" fill="black"/>
<path d="M24.1579 0.710449H19.5457C19.2306 0.710449 19.0184 0.92229 18.9487 1.09782L12.2002 16.193H11.9547L5.2031 1.09782C5.1334 0.92229 4.92128 0.710449 4.60612 0.710449H0L1.01516 2.91057L11.285 25.2477C11.285 25.2477 11.3001 25.2719 11.3092 25.284L12.1032 26.9999L13.7123 23.3411L22.8791 3.46741L24.1579 0.710449Z" fill="black"/>
<path d="M81.5335 0.710449H72.4737V24.8683H76.4347C76.7914 24.8683 77.1112 24.5589 77.1112 24.2138V16.1037H81.5705C85.922 16.1037 89.5263 12.6168 89.5263 8.33863C89.5263 4.06042 85.922 0.710449 81.5366 0.710449H81.5335ZM81.2475 11.8909H77.1082V4.95593H81.2475C83.2465 4.95593 84.9225 6.40481 84.9225 8.30293C84.9225 10.3379 83.2465 11.8909 81.2475 11.8909Z" fill="black"/>
<path d="M66.3863 3.3107L65.9175 0.710449H64.0825L63.3373 2.28726L56.1806 16.9992H56.0719L49.412 3.3107L48.1576 0.710449H46.3164L45.9221 2.97748L43.3419 16.9426L46.6207 24.2168L48.6885 11.2721H48.7972L54.1997 22.7649L55.1591 24.8683H57.0438L58.0032 22.7649L63.3436 11.2691H63.4522L65.576 24.3477C65.6474 24.5887 65.9361 24.8654 66.259 24.8654H70.342L69.7769 21.8427L66.3801 3.30772L66.3863 3.3107Z" fill="black"/>
<path d="M100.666 10.5183C97.8207 9.34515 96.5222 8.20879 96.5222 6.53946C96.5222 5.4031 97.6119 4.05232 99.6127 4.05232C101.217 4.05232 103.327 5.27751 104.156 5.7921C104.646 6.11983 105.106 6.49352 105.106 6.49352L105.721 5.57769L106.862 3.84404L107.549 2.88533C107.549 2.88533 107.047 2.51471 106.711 2.28192C105.842 1.65401 103.212 0 99.8215 0C94.2399 0 91.9214 3.66026 91.9214 6.82126C91.9214 11.0145 95.2207 13.1463 98.523 14.4971C101.471 15.7039 102.982 16.9475 102.982 18.7608C102.982 20.2892 101.613 21.496 99.7852 21.496C97.733 21.496 95.2328 19.8052 94.6213 19.3856C94.2036 19.0946 93.7496 18.724 93.7496 18.724L93.0655 19.9278L92.0243 21.7441L91.658 22.4057C91.658 22.4057 92.1363 22.8131 92.5207 23.0949C93.5256 23.9403 96.0107 25.5789 99.9244 25.5789C104.876 25.5789 108 22.2035 108 18.5433C108 13.9611 104.068 11.8997 100.663 10.5121L100.666 10.5183Z" fill="black"/>
</svg>
