<svg width="214" height="140" viewBox="0 0 214 140" fill="none" xmlns="http://www.w3.org/2000/svg">
<path d="M210.283 33.0078L206.936 49.1905L204.782 47.0922L201.117 49.7037L198.316 46.2298L192.035 50.7896L186.668 41.8271L180.681 45.329L178.306 42.061L170.704 46.338L168.417 41.4466L173.746 15.6765L202.317 21.5665L210.283 33.0078Z" fill="#EBEBEB"/>
<path d="M202.317 21.5659L210.283 33.0072L200.372 30.9648L202.317 21.5659Z" fill="#DBDBDB"/>
<path d="M206.223 52.4223L201.317 76.1639L162.833 68.2314L167.704 44.6819L169.991 49.5698L177.597 45.2929L179.968 48.5608L185.958 45.0624L191.322 54.0249L197.606 49.4651L200.404 52.9356L204.072 50.3275L206.223 52.4223Z" fill="#EBEBEB"/>
<path d="M151.142 49.6408L111.924 52.0638L108.808 1.80156L137.931 0L148.621 8.95545L151.142 49.6408Z" fill="#EBEBEB"/>
<path d="M137.93 0L148.621 8.95545L138.521 9.58041L137.93 0Z" fill="#DBDBDB"/>
<path d="M127.072 33.8222L126.919 32.6875C126.523 30.3378 127.167 27.7087 129.213 24.961C131.059 22.517 132.059 20.7713 131.947 18.7882C131.821 16.5537 130.335 15.1432 127.569 15.2549C125.988 15.3369 124.47 15.897 123.215 16.8609L122.009 14.1621C123.408 13.0274 125.855 12.1895 128.181 12.0673C133.227 11.7879 135.682 14.7696 135.874 18.0969C136.042 21.0751 134.496 23.3131 132.531 25.9281C130.727 28.3127 130.136 30.2784 130.391 32.5024L130.499 33.6406L127.072 33.8222ZM126.45 40.0055C126.359 38.3854 127.391 37.1844 128.926 37.1006C130.461 37.0168 131.58 38.0922 131.671 39.7157C131.755 41.2484 130.814 42.4844 129.192 42.5751C127.642 42.6624 126.523 41.5382 126.436 40.0055H126.45Z" fill="#DBDBDB"/>
<path d="M28.9759 25.2697L25.0314 23.4856L24.4824 24.6901C24.4013 24.8623 24.2748 25.0091 24.1165 25.1149C23.9581 25.2207 23.7739 25.2815 23.5836 25.2907C23.3669 25.2977 23.1508 25.3187 22.9367 25.3535C22.7488 25.3814 22.5568 25.3577 22.3813 25.2852C22.2058 25.2126 22.0533 25.0938 21.9401 24.9415L21.1672 23.8627L17.6458 26.3835L18.4186 27.4623C18.5261 27.618 18.5894 27.7999 18.6017 27.9886C18.614 28.1773 18.5749 28.3658 18.4886 28.5342C18.3889 28.7262 18.299 28.9231 18.2193 29.1242C18.15 29.3015 18.0337 29.4567 17.8827 29.5729C17.7318 29.6892 17.5519 29.7622 17.3625 29.7841L16.0442 29.9133L16.4673 34.2182L17.7927 34.0855C17.9827 34.0703 18.1734 34.1072 18.344 34.1921C18.5147 34.277 18.659 34.4067 18.7613 34.5673C18.8173 34.6581 18.8767 34.7454 18.9397 34.8327C19.0026 34.9199 19.0656 35.0037 19.132 35.0875C19.2527 35.2341 19.3303 35.4113 19.3562 35.5992C19.3821 35.7872 19.3554 35.9787 19.2789 36.1524L18.7264 37.3674L22.6744 39.155L23.2234 37.9435C23.3053 37.7715 23.4325 37.625 23.5915 37.5198C23.7504 37.4146 23.9351 37.3547 24.1257 37.3465C24.34 37.3376 24.5537 37.3167 24.7656 37.2836C24.9535 37.2558 25.1455 37.2794 25.321 37.3519C25.4965 37.4245 25.649 37.5433 25.7622 37.6956L26.5351 38.7744L30.06 36.2537L29.2872 35.1748C29.1764 35.0205 29.1111 34.8383 29.0987 34.6489C29.0864 34.4594 29.1274 34.2703 29.2172 34.103C29.3147 33.912 29.4022 33.7163 29.4795 33.5164C29.5468 33.3378 29.6626 33.1814 29.8139 33.0648C29.9652 32.9483 30.1461 32.8761 30.3363 32.8565L31.6616 32.7239L31.235 28.4189L29.9096 28.5481C29.7207 28.5647 29.531 28.5288 29.3612 28.4444C29.1915 28.36 29.0485 28.2303 28.948 28.0698C28.8885 27.979 28.8291 27.8917 28.7661 27.8045C28.7032 27.7172 28.6402 27.6299 28.5738 27.5496C28.4539 27.4012 28.3769 27.2229 28.351 27.0341C28.3251 26.8452 28.3514 26.6528 28.4269 26.4777L28.9759 25.2697ZM26.7379 29.2534C27.1468 29.8231 27.3773 30.5012 27.4003 31.2017C27.4232 31.9023 27.2376 32.5939 26.8668 33.1891C26.496 33.7844 25.9568 34.2564 25.3173 34.5456C24.6778 34.8348 23.9667 34.9282 23.2741 34.8139C22.5814 34.6997 21.9382 34.3828 21.4259 33.9036C20.9136 33.4243 20.5552 32.8042 20.3959 32.1215C20.2366 31.4388 20.2837 30.7243 20.5312 30.0684C20.7787 29.4125 21.2154 28.8445 21.7862 28.4364C22.5514 27.8893 23.5029 27.668 24.4315 27.8212C25.3601 27.9744 26.1897 28.4896 26.7379 29.2534Z" fill="#EBEBEB"/>
<path d="M207.286 82.3892L204.656 83.9044L205.121 84.7075C205.191 84.8227 205.225 84.9555 205.221 85.0899C205.217 85.2243 205.174 85.3546 205.097 85.4651C205.016 85.5908 204.939 85.72 204.87 85.8561C204.812 85.9766 204.721 86.0781 204.608 86.1486C204.494 86.2191 204.363 86.2558 204.23 86.2541H203.306V89.2882H204.237C204.37 89.2866 204.501 89.3232 204.615 89.3937C204.728 89.4643 204.819 89.5657 204.877 89.6862C204.946 89.8224 205.023 89.9515 205.104 90.0772C205.181 90.1878 205.224 90.3181 205.228 90.4524C205.232 90.5868 205.198 90.7196 205.128 90.8349L204.663 91.6379L207.293 93.1532L207.762 92.3466C207.829 92.2323 207.928 92.139 208.046 92.0773C208.164 92.0157 208.297 91.988 208.429 91.9975H208.877C209.01 91.9884 209.143 92.0162 209.26 92.0779C209.378 92.1395 209.477 92.2325 209.545 92.3466L210.014 93.1566L212.64 91.6414L212.175 90.8349C212.109 90.719 212.076 90.5871 212.081 90.4538C212.086 90.3206 212.128 90.1913 212.203 90.0807C212.283 89.955 212.36 89.8224 212.43 89.6897C212.487 89.5692 212.578 89.4677 212.692 89.3972C212.805 89.3267 212.936 89.2901 213.07 89.2917H214V86.2576H213.063C212.929 86.2593 212.798 86.2226 212.685 86.1521C212.571 86.0816 212.48 85.9801 212.423 85.8596C212.353 85.7269 212.276 85.5943 212.196 85.4686C212.121 85.358 212.079 85.2287 212.074 85.0955C212.069 84.9622 212.102 84.8303 212.168 84.7144L212.633 83.9079L210.007 82.3927L209.538 83.1887C209.47 83.3031 209.372 83.3963 209.254 83.458C209.136 83.5197 209.003 83.5473 208.87 83.5378H208.646H208.422C208.289 83.5468 208.156 83.5189 208.038 83.4573C207.919 83.3958 207.82 83.3028 207.751 83.1887L207.286 82.3892ZM208.646 85.287C209.139 85.2863 209.621 85.4316 210.031 85.7045C210.441 85.9774 210.76 86.3656 210.949 86.82C211.138 87.2744 211.188 87.7745 211.092 88.257C210.996 88.7396 210.759 89.1828 210.41 89.5307C210.062 89.8785 209.618 90.1154 209.135 90.2112C208.651 90.307 208.15 90.2575 207.695 90.0689C207.24 89.8803 206.851 89.5611 206.578 89.1518C206.305 88.7425 206.159 88.2614 206.16 87.7694C206.159 87.4431 206.223 87.12 206.348 86.8184C206.473 86.5168 206.656 86.2427 206.887 86.0118C207.118 85.781 207.392 85.5978 207.694 85.4728C207.996 85.3479 208.319 85.2835 208.646 85.2835V85.287Z" fill="#EBEBEB"/>
<path d="M36.9559 12.3692L34.5465 14.2126L35.1025 14.9493C35.1854 15.0543 35.2364 15.1808 35.2495 15.3139C35.2625 15.4469 35.237 15.5809 35.1759 15.7C35.109 15.8359 35.0506 15.9758 35.0011 16.1189C34.958 16.245 34.8805 16.3566 34.7773 16.4411C34.6741 16.5256 34.5494 16.5797 34.4171 16.5972L33.4939 16.716L33.8856 19.7221L34.8088 19.6033C34.9431 19.5846 35.0801 19.6042 35.2038 19.6598C35.3276 19.7154 35.433 19.8048 35.5081 19.9176C35.5924 20.039 35.6834 20.1556 35.7809 20.2667C35.871 20.3656 35.9308 20.4883 35.9531 20.6201C35.9754 20.7519 35.9593 20.8874 35.9068 21.0104L35.5571 21.8693L38.3547 23.0319L38.7044 22.173C38.7564 22.0498 38.842 21.9436 38.9514 21.8665C39.0608 21.7893 39.1896 21.7443 39.3233 21.7366L39.5471 21.7122L39.7674 21.6772C39.8969 21.6529 40.0305 21.6644 40.1538 21.7106C40.2771 21.7568 40.3854 21.8358 40.4668 21.9391L41.0368 22.6828L43.4462 20.8393L42.8832 20.1026C42.8019 19.9962 42.752 19.8692 42.739 19.736C42.726 19.6028 42.7505 19.4685 42.8098 19.3485C42.8761 19.2135 42.9345 19.0748 42.9846 18.933C43.0277 18.8069 43.1052 18.6953 43.2084 18.6108C43.3116 18.5263 43.4364 18.4722 43.5686 18.4547L44.4918 18.336L44.1002 15.3299L43.177 15.4486C43.0429 15.4676 42.9062 15.4486 42.7825 15.3936C42.6588 15.3387 42.5531 15.25 42.4776 15.1378C42.3902 15.0122 42.2992 14.8934 42.2013 14.7887C42.1199 14.6877 42.0671 14.5666 42.0487 14.4382C42.0302 14.3098 42.0467 14.1788 42.0964 14.059L42.4461 13.2001L39.6485 12.0375L39.2989 12.8964C39.2461 13.0191 39.1604 13.1249 39.0511 13.2019C38.9419 13.2789 38.8134 13.3242 38.6799 13.3328L38.4561 13.3537L38.2498 13.3607C38.1203 13.3851 37.9867 13.3735 37.8634 13.3274C37.7401 13.2812 37.6318 13.2022 37.5504 13.0989L36.9559 12.3692ZM38.6799 15.068C39.167 15.0055 39.6618 15.0884 40.1017 15.3063C40.5417 15.5242 40.9072 15.8673 41.1521 16.2923C41.397 16.7174 41.5103 17.2053 41.4778 17.6946C41.4452 18.1839 41.2683 18.6526 40.9693 19.0415C40.6703 19.4305 40.2625 19.7224 39.7976 19.8803C39.3326 20.0382 38.8312 20.0551 38.3567 19.9288C37.8821 19.8026 37.4556 19.5388 37.131 19.1708C36.8064 18.8028 36.5982 18.3471 36.5328 17.8611C36.4891 17.5368 36.51 17.2071 36.5944 16.8909C36.6788 16.5747 36.825 16.2783 37.0245 16.0187C37.2241 15.7592 37.473 15.5415 37.7571 15.3784C38.0412 15.2152 38.3548 15.1097 38.6799 15.068Z" fill="#EBEBEB"/>
<path d="M18.9535 91.1426C19.0849 87.7675 19.0382 84.3878 18.8137 81.0176C18.3133 74.0582 17.2503 67.1507 15.6349 60.3624C14.7467 56.5428 13.6557 52.7861 12.5156 49.0328C12.4807 48.9176 12.2988 48.949 12.3303 49.0677C15.8517 62.3002 18.7402 75.9515 18.5409 89.7077C18.485 93.5482 18.0373 97.3364 17.6737 101.163C17.6737 101.264 17.831 101.306 17.8555 101.201C18.5794 97.916 18.8172 94.4874 18.9535 91.1426Z" fill="#EBEBEB"/>
<path d="M12.3304 49.0581C12.3304 49.0581 7.00101 62.5698 8.19347 65.733C9.38594 68.8963 11.8478 69.5736 11.8478 69.5736C11.8478 69.5736 8.58513 74.2241 10.8651 78.5849C13.1452 82.9457 18.2088 82.7397 18.5585 87.6835C18.548 87.7079 18.8277 67.0353 12.3304 49.0581Z" fill="#EBEBEB"/>
<path d="M17.9675 79.1698C17.9761 79.1473 17.9761 79.1224 17.9675 79.1C17.268 69.8753 15.5343 60.7581 12.799 51.9194C12.799 51.8949 12.7465 51.9019 12.7535 51.9194C13.8096 55.8763 14.7421 59.8495 15.5511 63.839C14.8346 63.1614 13.9593 62.674 13.0053 62.4215C13.0053 62.4215 12.9773 62.4425 13.0053 62.4495C14.0075 62.8161 14.9086 63.4143 15.635 64.1952C15.7889 64.9807 15.9427 65.7628 16.0861 66.5484C14.8936 65.2181 13.2431 64.5583 11.589 63.9298C11.5853 63.9314 11.5821 63.9341 11.5798 63.9375C11.5776 63.9409 11.5764 63.9449 11.5764 63.949C11.5764 63.9531 11.5776 63.9571 11.5798 63.9605C11.5821 63.9639 11.5853 63.9666 11.589 63.9682C13.313 64.6665 15.0265 65.5673 16.1945 67.0511C16.6002 69.2926 16.9568 71.5422 17.2646 73.8C16.4036 72.8994 15.2994 72.2675 14.0858 71.981C14.0474 71.981 14.0264 72.0264 14.0649 72.0368C15.3114 72.4034 16.4244 73.1239 17.2681 74.1107H17.2891C17.394 74.9021 17.4942 75.697 17.5898 76.4954C16.9237 75.9326 16.1717 75.48 15.3622 75.1547C15.3413 75.1547 15.3273 75.1791 15.3622 75.1861C16.1883 75.5434 16.9447 76.0433 17.5968 76.663C17.5968 76.663 17.6143 76.663 17.6248 76.663C17.7122 77.4206 17.7996 78.1782 17.8765 78.9359C16.6757 77.4865 15.1173 76.3746 13.355 75.7098C13.3476 75.7098 13.3404 75.7127 13.3352 75.718C13.33 75.7232 13.327 75.7303 13.327 75.7377C13.327 75.7451 13.33 75.7523 13.3352 75.7575C13.3404 75.7627 13.3476 75.7657 13.355 75.7657C15.0952 76.5315 16.6238 77.7067 17.8101 79.1907C17.8232 79.207 17.8408 79.219 17.8607 79.2253C17.8807 79.2315 17.902 79.2316 17.922 79.2256C18.0374 80.3883 18.1423 81.5509 18.2262 82.717C18.2262 82.7345 18.2542 82.7345 18.2542 82.717C18.1633 81.5463 18.0677 80.3638 17.9675 79.1698Z" fill="white"/>
<path d="M13.6837 61.0924C12.7185 60.4927 11.6159 60.149 10.4805 60.0939C10.4749 60.0939 10.4696 60.0961 10.4656 60.1C10.4617 60.1039 10.4595 60.1093 10.4595 60.1148C10.4595 60.1204 10.4617 60.1257 10.4656 60.1296C10.4696 60.1336 10.4749 60.1358 10.4805 60.1358C11.5782 60.3436 12.6436 60.6958 13.6487 61.1832C13.6907 61.1937 13.7221 61.1203 13.6837 61.0924Z" fill="white"/>
<path d="M14.3306 75.3967C13.5888 74.9716 12.7719 74.693 11.9247 74.5762C11.8967 74.5762 11.8932 74.6146 11.9247 74.6216C12.752 74.7872 13.5523 75.0669 14.3026 75.4525C14.3341 75.47 14.362 75.4141 14.3306 75.3967Z" fill="white"/>
<path d="M32.9693 65.9662C30.7148 67.5221 28.6442 69.3282 26.7972 71.3499C24.8924 73.4905 23.4232 75.9808 22.4715 78.6819C20.446 84.3093 19.3568 90.2299 19.2473 96.2087C19.1793 99.5197 19.4973 102.827 20.1949 106.065C20.2006 106.088 20.2151 106.109 20.2354 106.122C20.2558 106.135 20.2804 106.14 20.3042 106.136C20.3281 106.131 20.3492 106.118 20.3634 106.098C20.3775 106.078 20.3836 106.054 20.3803 106.03C19.5122 100.317 19.5453 94.503 20.4782 88.7999C21.3944 83.2137 22.8316 77.1317 26.3915 72.5894C28.3289 70.114 30.7453 68.1692 33.1337 66.1582C33.2596 66.0465 33.0987 65.8754 32.9693 65.9662Z" fill="#EBEBEB"/>
<path d="M20.0305 92.1793C21.3138 90.1069 22.822 88.182 24.5276 86.4394C27.1958 83.7755 29.4408 81.8831 29.7905 80.1235C30.1402 78.3638 27.1189 77.065 27.1189 77.065C27.1189 77.065 30.8081 77.7283 31.8188 76.1817C32.8294 74.635 33.3155 65.676 33.3155 65.676C33.3155 65.676 26.6013 70.4627 23.4715 77.1732C20.3417 83.8837 20.0305 92.1793 20.0305 92.1793Z" fill="#EBEBEB"/>
<path d="M30.9061 74.0803C30.464 74.0143 30.0158 73.9991 29.5703 74.0347C29.5178 74.0347 29.5213 74.1259 29.5703 74.1294C30.0109 74.1294 30.455 74.1084 30.8956 74.1294C30.9007 74.1281 30.9052 74.1254 30.9088 74.1217C30.9124 74.1179 30.9149 74.1132 30.916 74.1081C30.9171 74.103 30.9167 74.0977 30.915 74.0928C30.9132 74.0879 30.9102 74.0836 30.9061 74.0803Z" fill="white"/>
<path d="M26.0839 82.7704C25.3749 82.7848 24.674 82.9243 24.0137 83.1824C24.0137 83.1824 24.0137 83.2173 24.0137 83.2138C24.7131 83.0497 25.388 82.9834 26.0804 82.8647C26.0894 82.8607 26.0972 82.8543 26.1027 82.8462C26.1083 82.838 26.1114 82.8285 26.1118 82.8186C26.1121 82.8088 26.1097 82.799 26.1048 82.7905C26.0998 82.782 26.0926 82.775 26.0839 82.7704Z" fill="white"/>
<path d="M24.6362 79.7675C24.3419 79.7651 24.0479 79.791 23.7585 79.8446C23.7531 79.8466 23.7485 79.8502 23.7452 79.8549C23.742 79.8596 23.7402 79.8652 23.7402 79.8709C23.7402 79.8766 23.742 79.8822 23.7452 79.8869C23.7485 79.8916 23.7531 79.8952 23.7585 79.8972C24.0516 79.9142 24.3457 79.9013 24.6362 79.8586C24.6483 79.8586 24.6598 79.8538 24.6684 79.8453C24.6769 79.8367 24.6817 79.8251 24.6817 79.813C24.6817 79.801 24.6769 79.7894 24.6684 79.7808C24.6598 79.7723 24.6483 79.7675 24.6362 79.7675Z" fill="white"/>
<path d="M0.346242 75.4714C2.53156 76.2111 4.62567 77.1962 6.58832 78.4077C8.62473 79.6997 10.3907 81.3739 11.7883 83.3376C14.7289 87.4243 16.9803 91.9637 18.4535 96.776C19.2751 99.4405 19.7821 102.192 19.9642 104.974C19.9604 104.992 19.9505 105.008 19.9361 105.02C19.9218 105.031 19.9039 105.037 19.8855 105.037C19.8671 105.037 19.8492 105.031 19.8349 105.02C19.8205 105.008 19.8106 104.992 19.8068 104.974C19.1896 100.15 17.8184 95.453 15.7434 91.0535C13.7046 86.7417 11.1344 82.154 7.20378 79.298C5.06364 77.7443 2.65773 76.7248 0.258818 75.6495C0.132928 75.6076 0.220352 75.4295 0.346242 75.4714Z" fill="#EBEBEB"/>
<path d="M16.8868 93.698C15.3676 92.3179 13.7012 91.1084 11.9176 90.0913C9.14105 88.5516 6.88551 87.5391 6.19661 86.1949C5.50771 84.8507 7.65135 83.105 7.65135 83.105C7.65135 83.105 4.81881 84.5016 3.64383 83.4716C2.46885 82.4417 0 75.3192 0 75.3192C0 75.3192 6.54281 77.641 10.6238 82.3509C14.7047 87.0608 16.8868 93.698 16.8868 93.698Z" fill="#EBEBEB"/>
<path d="M11.4561 87.1412C10.8128 87.0964 10.1669 87.1758 9.55371 87.3751C9.55371 87.3751 9.55371 87.4065 9.55371 87.403C10.1793 87.2959 10.8113 87.2306 11.4456 87.2075C11.491 87.2075 11.5015 87.1447 11.4561 87.1412Z" fill="white"/>
<path d="M5.74892 79.6711C5.45548 79.6471 5.16014 79.6636 4.87118 79.7202C4.83971 79.7202 4.8502 79.7763 4.87118 79.7728C5.16143 79.7412 5.44468 79.7517 5.73143 79.7447C5.74034 79.7451 5.74909 79.7423 5.7562 79.7369C5.7633 79.7315 5.76832 79.7238 5.77038 79.7151C5.77245 79.7064 5.77143 79.6973 5.76752 79.6892C5.7636 79.6812 5.75703 79.6748 5.74892 79.6711Z" fill="white"/>
<path d="M25.325 113.976H10.5574L12.6625 98.5757L13.2011 94.627H22.6813L23.2199 98.5757L25.325 113.976Z" fill="#DBDBDB"/>
<path d="M23.2197 98.5757H12.6624L13.2009 94.627H22.6811L23.2197 98.5757Z" fill="#C7C7C7"/>
<path d="M24.0346 93.2596H11.8442V96.6044H24.0346V93.2596Z" fill="#DBDBDB"/>
<path d="M1.16797 113.977L27.7484 113.893L54.3287 113.862L107.49 113.802L160.65 113.862L187.231 113.893L213.811 113.977L187.231 114.064L160.65 114.092L107.49 114.151L54.3287 114.092L27.7484 114.061L1.16797 113.977Z" fill="#263238"/>
<path d="M108.189 139.999C163.568 139.999 208.461 135.088 208.461 129.029C208.461 122.971 163.568 118.059 108.189 118.059C52.8105 118.059 7.91724 122.971 7.91724 129.029C7.91724 135.088 52.8105 139.999 108.189 139.999Z" fill="#EBEBEB"/>
<path d="M84.8467 127.214C84.0319 127.489 60.6687 127.563 59.7735 127.011C59.4238 126.802 59.2245 123.405 59.0741 119.292C59.0426 118.405 59.0182 117.487 58.9972 116.558L57.1333 104.115L72.7542 104.013L74.2264 116.46L74.167 119.197C74.167 119.197 83.1262 123.16 84.0424 123.879C84.9586 124.599 85.6615 126.938 84.8467 127.214Z" fill="#FFF5EA"/>
<path d="M84.8465 127.215C84.0317 127.491 60.6685 127.564 59.7733 127.012C59.3607 126.754 59.1369 121.793 59.011 116.559L74.2088 116.461L74.1493 119.198C74.1493 119.198 83.1085 123.161 84.0247 123.88C84.9409 124.6 85.6613 126.939 84.8465 127.215Z" fill="white"/>
<path d="M84.8466 127.214C84.0318 127.49 60.6686 127.563 59.7734 127.012C59.4237 126.802 59.2243 123.405 59.074 119.292L74.1354 119.198C74.1354 119.198 83.0946 123.16 84.0108 123.88C84.927 124.599 85.6614 126.938 84.8466 127.214Z" fill="#A6A6A6"/>
<path d="M84.5074 126.282C80.5908 126.198 64.7845 126.236 60.9064 126.453C60.8749 126.453 60.8749 126.474 60.9064 126.477C64.788 126.641 80.5943 126.477 84.5074 126.344C84.5913 126.341 84.5913 126.282 84.5074 126.282Z" fill="#263238"/>
<path d="M82.5175 123.046C82.082 123.036 81.6492 123.117 81.2465 123.282C80.8438 123.448 80.48 123.696 80.178 124.009C79.6278 124.569 79.3169 125.32 79.3108 126.104C79.3108 126.129 79.3527 126.129 79.3562 126.104C79.4863 125.332 79.863 124.622 80.4302 124.081C80.9974 123.54 81.7247 123.196 82.5035 123.102C82.5109 123.103 82.5188 123.102 82.5253 123.098C82.5319 123.094 82.5366 123.088 82.5385 123.081C82.5403 123.073 82.5392 123.065 82.5352 123.059C82.5313 123.052 82.5249 123.048 82.5175 123.046Z" fill="#263238"/>
<path d="M75.6671 119.581C74.1005 119.564 72.2856 120.122 71.3134 121.407C71.2784 121.456 71.3484 121.508 71.3938 121.484C72.7626 120.763 74.2045 120.189 75.6951 119.773C75.7181 119.767 75.7381 119.752 75.7512 119.732C75.7643 119.713 75.7696 119.688 75.7662 119.665C75.7627 119.641 75.7507 119.62 75.7325 119.604C75.7143 119.589 75.691 119.581 75.6671 119.581Z" fill="#263238"/>
<path d="M76.8839 120.046C75.3137 120.046 73.4988 120.59 72.5301 121.872C72.4917 121.924 72.5616 121.977 72.6106 121.952C73.9773 121.228 75.4182 120.653 76.9083 120.238C76.9311 120.232 76.9508 120.217 76.9639 120.198C76.977 120.178 76.9826 120.155 76.9796 120.131C76.9766 120.108 76.9653 120.086 76.9477 120.071C76.9301 120.055 76.9075 120.046 76.8839 120.046Z" fill="#263238"/>
<path d="M78.0941 120.514C76.5275 120.514 74.7126 121.056 73.7404 122.34C73.7054 122.389 73.7754 122.442 73.8208 122.417C75.1896 121.696 76.6315 121.122 78.1221 120.706C78.1452 120.7 78.1651 120.686 78.1782 120.666C78.1913 120.646 78.1966 120.622 78.1932 120.598C78.1897 120.574 78.1777 120.553 78.1595 120.538C78.1413 120.522 78.118 120.514 78.0941 120.514Z" fill="#263238"/>
<path d="M79.3074 120.982C77.7372 120.964 75.9223 121.523 74.9536 122.808C74.9152 122.856 74.9886 122.909 75.0341 122.884C76.4026 122.163 77.8445 121.589 79.3353 121.174C79.3584 121.167 79.3783 121.153 79.3914 121.133C79.4045 121.113 79.4098 121.089 79.4064 121.065C79.403 121.042 79.391 121.02 79.3727 121.005C79.3545 120.989 79.3313 120.981 79.3074 120.982Z" fill="#263238"/>
<path d="M61.8924 122.734C60.1439 122.734 60.1439 125.474 61.8924 125.464C63.6409 125.453 63.6549 122.723 61.8924 122.734Z" fill="#263238"/>
<path d="M77.349 115.398C76.5552 114.742 75.555 115.398 75.0689 116.072C74.2598 117.263 73.7775 118.645 73.6702 120.08C73.6702 120.112 73.6946 120.126 73.7191 120.126C73.7253 120.155 73.7385 120.183 73.7577 120.206C73.7768 120.23 73.8013 120.248 73.829 120.26C73.8568 120.272 73.887 120.277 73.9172 120.275C73.9474 120.273 73.9766 120.264 74.0024 120.248C75.1144 119.476 76.4013 118.785 77.2441 117.692C77.7231 117.057 78.1148 116.009 77.349 115.398ZM75.4396 118.729C74.9011 119.124 74.3451 119.49 73.8205 119.906C74.1003 119.124 74.3416 118.335 74.6983 117.58C74.8631 117.219 75.0523 116.869 75.2648 116.533C75.6145 116.013 77.1392 114.7 77.3 116.4C77.3909 117.333 76.0796 118.261 75.4396 118.729Z" fill="#263238"/>
<path d="M69.7675 120.674C71.1313 120.876 72.5406 120.485 73.8799 120.272C73.909 120.265 73.9359 120.25 73.9585 120.231C73.981 120.211 73.9986 120.186 74.0099 120.158C74.0211 120.13 74.0256 120.1 74.0231 120.07C74.0206 120.04 74.0111 120.011 73.9953 119.986C74.0004 119.982 74.0045 119.977 74.0074 119.971C74.0102 119.965 74.0117 119.959 74.0117 119.953C74.0117 119.946 74.0102 119.94 74.0074 119.934C74.0045 119.928 74.0004 119.923 73.9953 119.92C72.9192 118.961 71.6094 118.303 70.1976 118.01C69.3724 117.853 68.2044 118.08 68.0995 119.103C67.9736 120.066 68.9702 120.548 69.7675 120.674ZM68.8163 119.787C67.7673 118.446 69.771 118.331 70.3725 118.471C70.7627 118.568 71.1459 118.692 71.5195 118.841C72.2843 119.157 73.0325 119.513 73.761 119.906C73.0966 119.972 72.4427 120.091 71.7818 120.181C70.9915 120.286 69.4038 120.524 68.8163 119.787Z" fill="#263238"/>
<path d="M34.1653 46.6014C34.1653 46.6014 52.304 77.4096 52.7901 79.5743C53.5349 82.8981 57.483 115.721 57.483 115.721L76.3666 115.372C76.3666 115.372 73.1144 86.4314 70.0336 76.8963C67.8165 70.0288 51.8074 47.2508 51.8074 47.2508L34.1653 46.6014Z" fill="#37474F"/>
<path d="M74.6494 112.494C71.9393 112.473 62.3331 112.364 58.7243 112.7C58.6963 112.7 58.6998 112.748 58.7243 112.752C59.9657 112.93 71.9358 112.654 74.6459 112.567C74.6516 112.569 74.6577 112.57 74.6636 112.569C74.6696 112.568 74.6753 112.566 74.6804 112.563C74.6854 112.559 74.6895 112.555 74.6925 112.55C74.6955 112.544 74.6971 112.539 74.6974 112.533C74.6977 112.527 74.6966 112.521 74.6941 112.515C74.6917 112.51 74.688 112.505 74.6833 112.501C74.6786 112.497 74.6731 112.495 74.6672 112.493C74.6614 112.492 74.6553 112.492 74.6494 112.494Z" fill="#263238"/>
<path d="M37.2601 49.4295C38.449 51.2904 39.708 53.1129 40.9179 54.9599C42.1279 56.8068 43.3448 58.6538 44.5443 60.4972C46.9362 64.2214 49.2675 67.97 51.5382 71.743C52.6464 73.492 53.5944 75.3371 54.3707 77.256C55.0794 79.1753 55.6119 81.1549 55.9618 83.1704C56.3325 85.1919 56.5773 87.2344 56.8046 89.2769C57.0377 91.4485 57.2813 93.6213 57.5355 95.7953C58.032 100.243 58.5298 104.691 59.0287 109.139C59.0881 109.684 59.1476 110.229 59.2035 110.777C59.2035 110.857 59.0671 110.871 59.0566 110.777C58.5006 106.36 58.039 101.926 57.5355 97.5096C57.2837 95.3054 57.0331 93.1023 56.7836 90.9004C56.5493 88.8509 56.3255 86.798 56.0073 84.7625C55.7153 82.7533 55.271 80.7692 54.6784 78.8271C54.0255 76.8162 53.1505 74.884 52.0697 73.0663C49.8841 69.2991 47.5691 65.5982 45.2541 61.8938C42.9391 58.1894 40.5612 54.4536 38.1203 50.7946C37.8196 50.3442 37.5154 49.8938 37.2006 49.4504C37.1762 49.426 37.2391 49.3946 37.2601 49.4295Z" fill="#263238"/>
<path d="M40.11 129.03C39.2497 128.978 17.03 119.991 16.4146 119.139C16.3872 119.089 16.375 119.032 16.3796 118.975C16.3796 118.21 17.9218 115.543 19.2087 112.037C19.2891 111.814 19.8626 110.773 20.6564 109.373C22.863 105.536 26.7096 98.9271 26.7096 98.9271L41.2325 104.688L34.2805 115.075L33.2 117.589C33.2 117.589 40.0156 124.624 40.5891 125.619C41.1626 126.614 40.9667 129.079 40.11 129.03Z" fill="#FFF5EA"/>
<path d="M40.11 129.028C39.2497 128.976 17.03 119.989 16.4146 119.137C16.3872 119.087 16.375 119.03 16.3796 118.973C16.3796 118.208 17.9218 115.541 19.2087 112.036C19.2891 111.812 19.8626 110.772 20.6564 109.372L34.2945 115.073L33.214 117.587C33.214 117.587 40.0296 124.622 40.6031 125.617C41.1766 126.612 40.9667 129.077 40.11 129.028Z" fill="white"/>
<path d="M40.1099 129.029C39.2497 128.977 17.03 119.99 16.4145 119.138C16.1767 118.813 17.1698 115.786 19.2121 112.036L33.1999 117.591C33.1999 117.591 40.0155 124.619 40.5925 125.621C41.1695 126.623 40.9667 129.078 40.1099 129.029Z" fill="#A6A6A6"/>
<path d="M40.1449 128.039C36.5466 126.496 21.8803 120.609 18.205 119.359C18.1735 119.359 18.1665 119.359 18.205 119.38C21.7404 120.986 36.4521 126.754 40.1309 128.109C40.2009 128.126 40.2219 128.07 40.1449 128.039Z" fill="#263238"/>
<path d="M39.5157 124.291C39.1166 124.116 38.6856 124.025 38.2498 124.025C37.8139 124.025 37.3829 124.116 36.9839 124.291C36.2664 124.604 35.6978 125.182 35.3962 125.904C35.3962 125.925 35.4277 125.942 35.4382 125.921C35.8505 125.252 36.4689 124.734 37.2009 124.445C37.9328 124.156 38.7389 124.111 39.4982 124.318C39.5041 124.317 39.5091 124.313 39.5123 124.308C39.5156 124.303 39.5168 124.297 39.5157 124.291Z" fill="#263238"/>
<path d="M34.4694 118.517C33.0251 117.913 31.1298 117.753 29.7485 118.58C29.696 118.612 29.7485 118.685 29.7939 118.681C31.3337 118.525 32.8858 118.534 34.4239 118.706C34.4476 118.708 34.4714 118.702 34.4908 118.689C34.5103 118.675 34.5241 118.655 34.5297 118.631C34.5353 118.608 34.5322 118.584 34.5211 118.563C34.51 118.542 34.4916 118.526 34.4694 118.517Z" fill="#263238"/>
<path d="M35.4171 119.404C33.9729 118.8 32.0775 118.64 30.6962 119.467C30.6438 119.498 30.6962 119.572 30.7417 119.568C32.2814 119.411 33.8337 119.419 35.3717 119.593C35.3953 119.595 35.4191 119.589 35.4386 119.575C35.4581 119.562 35.4719 119.542 35.4774 119.518C35.483 119.495 35.48 119.471 35.4689 119.45C35.4578 119.429 35.4394 119.413 35.4171 119.404Z" fill="#263238"/>
<path d="M36.3682 120.291C34.9205 119.687 33.0251 119.527 31.6473 120.354C31.5914 120.385 31.6473 120.459 31.6893 120.455C33.229 120.298 34.7813 120.306 36.3193 120.48C36.3434 120.484 36.3682 120.479 36.3887 120.465C36.4093 120.452 36.4241 120.431 36.4302 120.408C36.4364 120.384 36.4334 120.359 36.4219 120.337C36.4105 120.316 36.3913 120.299 36.3682 120.291Z" fill="#263238"/>
<path d="M37.316 121.177C35.8682 120.573 33.9764 120.412 32.5951 121.236C32.5391 121.271 32.5951 121.344 32.637 121.341C34.1768 121.183 35.729 121.191 37.267 121.365C37.2912 121.369 37.316 121.364 37.3365 121.351C37.357 121.337 37.3718 121.317 37.378 121.293C37.3841 121.27 37.3812 121.244 37.3697 121.223C37.3582 121.201 37.339 121.185 37.316 121.177Z" fill="#263238"/>
<path d="M20.5131 116.279C18.88 115.629 17.8659 118.167 19.5059 118.817C21.146 119.466 22.1636 116.928 20.5131 116.279Z" fill="#263238"/>
<path d="M37.599 115.27C37.106 114.365 35.9415 114.589 35.2316 115.039C34.0358 115.839 33.0711 116.938 32.434 118.227C32.4312 118.233 32.4298 118.239 32.4297 118.245C32.4296 118.251 32.431 118.258 32.4337 118.263C32.4364 118.269 32.4403 118.274 32.4452 118.278C32.4501 118.282 32.4559 118.285 32.462 118.286C32.462 118.401 32.5389 118.538 32.6753 118.51C34.0007 118.206 35.4519 118.049 36.6409 117.351C37.3228 116.946 38.0641 116.125 37.599 115.27ZM34.5742 117.64C33.9272 117.804 33.2768 117.937 32.6369 118.126C33.1662 117.489 33.7276 116.879 34.3189 116.3C34.61 116.023 34.9196 115.766 35.2456 115.532C35.7527 115.182 37.669 114.537 37.1794 116.174C36.9101 117.078 35.347 117.445 34.5742 117.64Z" fill="#263238"/>
<path d="M28.5874 117.319C29.7764 118.018 31.2276 118.182 32.5495 118.489C32.6859 118.52 32.7768 118.384 32.7663 118.265C32.7729 118.265 32.7791 118.262 32.7845 118.259C32.7899 118.255 32.7942 118.25 32.797 118.244C32.7998 118.238 32.801 118.231 32.8005 118.224C32.8001 118.218 32.7979 118.212 32.7943 118.206C32.1582 116.915 31.1935 115.813 29.9967 115.011C29.2973 114.558 28.1258 114.331 27.6293 115.231C27.1327 116.132 27.8915 116.911 28.5874 117.319ZM28.0419 116.139C27.5558 114.502 29.4687 115.151 29.9757 115.504C30.3013 115.739 30.6098 115.997 30.8989 116.275C31.4891 116.856 32.0493 117.467 32.5775 118.105C31.9375 117.916 31.2871 117.78 30.6401 117.616C29.8568 117.407 28.3077 117.057 28.0419 116.139Z" fill="#263238"/>
<path d="M35.41 114.495L19.1526 107.941C19.1526 107.941 39.3091 78.3517 39.4559 76.1486C39.5888 74.2004 30.7345 57.2252 30.3883 52.2779C30.0107 46.936 32.5844 42.8057 35.4169 40.2395L52.1849 47.3585C52.1849 47.3585 50.4154 50.183 47.6388 51.7576C47.6388 51.7576 56.2378 71.3793 55.7483 77.4125C55.2587 83.4456 35.41 114.495 35.41 114.495Z" fill="#37474F"/>
<path d="M36.1302 111.408C33.7802 110.399 34.4691 110.654 32.1052 109.662C30.9512 109.18 23.3628 106.028 22.1948 105.766C22.1703 105.766 22.1528 105.801 22.1773 105.815C23.1879 106.433 30.8393 109.453 32.0038 109.914C34.3852 110.849 33.7103 110.556 36.1022 111.464C36.1058 111.468 36.1105 111.472 36.116 111.475C36.1214 111.477 36.1274 111.478 36.1333 111.478C36.1393 111.477 36.145 111.475 36.1499 111.472C36.1548 111.468 36.1588 111.464 36.1615 111.458C36.1641 111.453 36.1654 111.447 36.1651 111.441C36.1649 111.435 36.1631 111.429 36.1599 111.424C36.1568 111.419 36.1524 111.415 36.1472 111.412C36.142 111.409 36.1362 111.408 36.1302 111.408Z" fill="#263238"/>
<path d="M50.3876 51.3988C48.6418 51.8051 46.9338 52.3587 45.282 53.0537C45.2753 53.056 45.2692 53.0596 45.2639 53.0642C45.2587 53.0689 45.2544 53.0746 45.2513 53.0809C45.2482 53.0872 45.2464 53.0941 45.2459 53.1011C45.2455 53.1081 45.2465 53.1151 45.2488 53.1218C45.2511 53.1284 45.2547 53.1346 45.2593 53.1398C45.264 53.1451 45.2697 53.1494 45.276 53.1525C45.2823 53.1556 45.2892 53.1574 45.2962 53.1578C45.3033 53.1582 45.3103 53.1572 45.317 53.155C47.0305 52.6557 48.772 52.1878 50.4575 51.5978C50.5869 51.5524 50.5205 51.3708 50.3876 51.3988Z" fill="#263238"/>
<path d="M48.3909 50.7202C48.228 51.0095 48.0843 51.3093 47.9608 51.6175C47.8401 51.8514 47.7653 52.1062 47.7405 52.3681C47.7405 52.4205 47.8104 52.431 47.8419 52.3995C48.0173 52.19 48.1589 51.9544 48.2615 51.7013C48.4049 51.4254 48.5518 51.1531 48.6882 50.8703C48.7826 50.6643 48.4993 50.5316 48.3909 50.7202Z" fill="#263238"/>
<path d="M48.6006 49.1359C48.7055 48.8776 48.8069 48.6227 48.9153 48.3643C49.0237 48.106 49.1601 47.8406 49.265 47.5683C49.265 47.5264 49.3489 47.5683 49.3314 47.5997C49.2265 47.8581 49.1601 48.1304 49.0796 48.3957C48.9992 48.6611 48.9083 48.9264 48.8209 49.1918C48.6565 49.6841 48.4712 50.1729 48.2439 50.6512C48.519 50.6649 48.7938 50.6172 49.0482 50.5115C49.308 50.3455 49.5077 50.1008 49.6182 49.8133C49.765 49.527 49.9014 49.2337 50.0518 48.9474C50.2369 48.6379 50.3926 48.3118 50.5169 47.9733C50.5169 47.9314 50.6008 47.9733 50.5833 48.0047C50.3553 48.7203 50.0566 49.4115 49.6916 50.0681C49.5343 50.323 49.4119 50.5918 49.1251 50.6896C48.8147 50.7763 48.4899 50.7988 48.1704 50.7559C48.1285 50.7559 48.0795 50.7559 48.0935 50.6931C48.2367 50.166 48.4059 49.6463 48.6006 49.1359Z" fill="#263238"/>
<path d="M47.8871 52.3964C48.4851 53.6568 49.0096 54.9137 49.5656 56.1706C50.1217 57.4275 50.6147 58.6425 51.1148 59.8925C52.1149 62.4133 53.0101 64.9829 53.797 67.5736C54.1851 68.8584 54.5453 70.1537 54.867 71.4595C55.2214 72.7611 55.4808 74.0867 55.6434 75.4257C55.7837 76.7626 55.6649 78.1139 55.2937 79.4059C54.908 80.6831 54.4131 81.9248 53.8144 83.1173C53.4473 83.8714 53.3249 83.7702 53.4997 83.3896C53.9998 82.3073 55.3111 79.0288 55.2167 76.2741C55.1402 74.9553 54.9365 73.647 54.6083 72.3672C54.3028 71.0475 53.959 69.7382 53.5766 68.4394C52.8318 65.8767 51.9471 63.3664 51.0379 60.8596C50.5273 59.463 49.9888 58.0665 49.4642 56.6699C48.9397 55.2733 48.4151 53.9885 47.8276 52.4453C47.8102 52.3825 47.8696 52.358 47.8871 52.3964Z" fill="#263238"/>
<path d="M35.5465 48.2314C35.8367 48.1231 36.2459 48.3012 36.5396 48.3501C36.92 48.4145 37.3044 48.453 37.6901 48.4653C38.0717 48.4787 38.4538 48.4659 38.8336 48.4269C39.2161 48.417 39.591 48.3178 39.9282 48.1371C40.4813 47.7348 40.9555 47.2341 41.3269 46.6602C41.7696 46.0738 42.1351 45.4332 42.4145 44.7539C42.4145 44.712 42.4879 44.7539 42.4739 44.7819C42.3516 45.1694 42.2606 45.5604 42.1243 45.941C41.9735 46.2986 41.7934 46.6431 41.5857 46.971C41.249 47.6308 40.7511 48.1952 40.138 48.6119C39.4631 48.996 38.5958 48.9611 37.844 48.9296C37.4079 48.9043 36.9743 48.8471 36.5466 48.7586C36.2389 48.6922 35.7213 48.6434 35.5255 48.3745C35.5163 48.3642 35.5094 48.352 35.5055 48.3388C35.5015 48.3256 35.5005 48.3117 35.5025 48.298C35.5045 48.2844 35.5094 48.2713 35.517 48.2598C35.5246 48.2483 35.5347 48.2386 35.5465 48.2314Z" fill="#263238"/>
<path d="M23.793 104.837C26.4646 100.797 29.0874 96.7233 31.6611 92.6174C34.2349 88.5115 36.7737 84.3742 39.2775 80.2054C39.8755 79.2104 40.5644 78.2188 40.9491 77.1155C41.3687 75.918 41.1309 74.7553 40.7532 73.5822C40.0401 71.4422 39.2065 69.344 38.2564 67.2977C37.3192 65.2343 36.3086 63.2058 35.3155 61.1703C34.3223 59.1348 33.2837 57.1238 32.5179 55.001C31.8185 52.9725 31.5352 50.8707 32.0808 48.7688C32.6263 46.667 33.8013 44.8096 35.0287 43.0604C35.3504 42.5995 35.6826 42.1422 36.0078 41.6638C36.0323 41.6289 36.0848 41.6638 36.0603 41.7057C34.707 43.5282 33.3886 45.459 32.5948 47.5992C32.1891 48.6542 31.9622 49.7692 31.9234 50.8986C31.9168 52.045 32.0951 53.185 32.4514 54.2748C33.1089 56.3975 34.1475 58.4051 35.1161 60.4022C36.0848 62.3993 37.1199 64.4662 38.0746 66.5226C39.0594 68.5923 39.9349 70.7122 40.6973 72.8735C41.0225 73.8336 41.3967 74.8391 41.3687 75.8691C41.3442 76.9968 40.8057 78.0128 40.2462 78.9625C37.7983 83.0998 35.291 87.1882 32.7382 91.2522C30.1854 95.3162 27.5592 99.3802 24.9015 103.402L23.8944 104.921C23.8419 104.984 23.751 104.911 23.793 104.837Z" fill="#263238"/>
<path d="M53.1151 28.5403C54.6293 31.8571 62.2772 36.4274 65.858 36.9196C68.4318 37.2688 76.258 37.3945 78.9402 36.986C82.0874 36.5042 79.6815 28.0375 77.8246 28.2575C72.7191 28.851 68.3828 29.5144 67.019 29.5144C65.3545 29.5144 56.3498 26.6305 55.2658 26.222C52.6081 25.2339 52.2584 26.6584 53.1151 28.5403Z" fill="#FFF5EA"/>
<path d="M53.164 29.4227C55.0803 32.2542 61.4483 36.8838 61.4483 36.8838L62.333 34.9286L65.26 28.4625C65.26 28.4625 59.4096 26.6295 55.5594 25.7916C55.1063 25.6886 54.6455 25.6232 54.1816 25.5961C51.7233 25.4634 51.5099 26.9787 53.164 29.4227Z" fill="#F7F7F7"/>
<path d="M53.164 29.4224C55.0803 32.2539 61.4483 36.8835 61.4483 36.8835L62.333 34.9283C59.9586 32.1736 56.2903 28.0014 54.1816 25.6028C51.7233 25.4631 51.5099 26.9784 53.164 29.4224Z" fill="#263238"/>
<path d="M60.3013 35.571C60.7874 34.3805 62.9485 29.5868 63.487 28.5882C63.522 28.5184 63.5779 28.5254 63.5465 28.5882C62.609 30.9721 61.542 33.3032 60.3502 35.571C60.3363 35.6129 60.2803 35.599 60.3013 35.571Z" fill="#263238"/>
<path d="M76.8875 28.3453C79.9928 27.9403 83.8359 27.2455 87.0916 28.6246C87.4573 28.7678 87.764 29.0298 87.9623 29.3683C89.4311 29.9618 89.5919 30.8312 89.5919 30.8312C90.7914 31.8018 90.8333 32.7165 90.8333 32.7165C90.8333 32.7165 92.5538 33.4148 92.2916 34.539C92.0048 35.782 89.6479 34.539 87.9343 34.6403C84.0003 34.8847 78.4926 36.3266 77.356 36.5082L76.8875 28.3453Z" fill="#FFF5EA"/>
<path d="M83.6333 32.0033C84.7836 31.9247 85.9379 31.9247 87.0883 32.0033C88.341 32.1602 89.5801 32.4111 90.795 32.7539C90.8029 32.7567 90.8116 32.7562 90.8191 32.7526C90.8267 32.749 90.8325 32.7426 90.8353 32.7347C90.838 32.7269 90.8376 32.7182 90.834 32.7107C90.8304 32.7031 90.8239 32.6974 90.816 32.6946C88.5335 31.8005 86.049 31.5493 83.6333 31.9684C83.5773 31.9614 83.5773 32.0068 83.6333 32.0033Z" fill="#263238"/>
<path d="M82.9023 28.3753C84.8221 28.4731 86.0216 28.7803 87.9519 29.3599V29.3389C85.8258 28.4521 84.955 28.3683 82.8918 28.2915C82.8254 28.3194 82.8289 28.3753 82.9023 28.3753Z" fill="#263238"/>
<path d="M83.2136 35.2332C82.7135 35.4671 82.8359 35.7289 83.7906 35.9489C84.7453 36.1689 88.7143 36.2352 88.5745 37.6178C88.4346 39.0004 82.8359 38.8258 81.2728 38.337C79.7097 37.8482 77.3562 36.5075 77.3562 36.5075C78.4647 36.3225 81.0665 35.6207 83.2136 35.2332Z" fill="#FFF5EA"/>
<path d="M57.273 33.8256C57.2485 34.4226 57.1926 35.0301 57.1087 35.6341C57.1087 35.6097 57.1087 35.5887 57.1331 35.5678C57.2485 35.2536 57.3639 34.9324 57.5038 34.6286C57.5038 34.6286 57.5388 34.6286 57.5353 34.6286C57.4681 34.9614 57.3673 35.2866 57.2346 35.5992C57.1716 35.7493 57.1122 35.896 57.0457 36.0426C57.0038 36.3115 56.9548 36.5768 56.9023 36.8421C56.7974 37.3414 56.3253 39.4642 56.2029 39.8238C56.182 39.8971 56.091 39.8797 56.098 39.7959C56.1225 39.4048 56.5177 37.1948 56.5981 36.692C56.7543 35.7213 56.9633 34.7597 57.2241 33.8116C57.2415 33.7942 57.2765 33.8081 57.273 33.8256Z" fill="#263238"/>
<path d="M53.6364 49.7016C52.7027 50.18 51.4998 50.9236 46.0795 49.8588C45.7298 49.7889 45.4011 49.7051 45.0584 49.6039C39.9773 48.0816 33.8681 42.1148 33.5359 41.6924C33.5359 41.6924 41.6104 28.624 51.9369 24.5147C53.2133 24.0084 55.3254 24.986 56.4829 26.2045C56.8991 26.6409 57.8048 29.8495 57.4586 32.4471C57.1124 35.0447 54.5666 49.2233 53.6364 49.7016Z" fill="#F7F7F7"/>
<path d="M52.9095 32.3292C52.9486 32.8815 52.8709 33.4357 52.6816 33.9562C52.6371 33.4038 52.7149 32.8484 52.9095 32.3292Z" fill="white"/>
<path d="M49.3882 41.2275C49.4105 41.5024 49.401 41.7788 49.3601 42.0515C49.3263 42.3262 49.2592 42.5959 49.1603 42.8545C49.1361 42.5786 49.1455 42.3008 49.1883 42.0271C49.2242 41.7539 49.2912 41.4856 49.3882 41.2275Z" fill="white"/>
<path d="M43.4047 34.4999C43.4442 35.0533 43.3665 35.6088 43.1768 36.1304C43.1327 35.5768 43.2105 35.0204 43.4047 34.4999Z" fill="white"/>
<path d="M55.2141 40.7743C55.2365 41.0503 55.2271 41.3279 55.186 41.6018C55.1523 41.8765 55.0852 42.1461 54.9862 42.4048C54.962 42.1288 54.9715 41.851 55.0142 41.5773C55.0497 41.3029 55.1167 41.0334 55.2141 40.7743Z" fill="white"/>
<path d="M47.5305 33.3478C47.8056 33.3245 48.0825 33.3326 48.3558 33.3723C48.6311 33.4071 48.9012 33.4751 49.1601 33.5748C48.607 33.6144 48.0517 33.5371 47.5305 33.3478Z" fill="white"/>
<path d="M40.7393 39.7747C41.2924 39.7358 41.8475 39.8131 42.3688 40.0016C41.8156 40.0459 41.2593 39.9684 40.7393 39.7747Z" fill="white"/>
<path d="M48.7405 46.7341C49.2936 46.6944 49.8489 46.7718 50.3701 46.961C49.8168 47.0046 49.2607 46.9272 48.7405 46.7341Z" fill="white"/>
<path d="M38.6448 44.2054C39.1979 44.1664 39.753 44.2437 40.2744 44.4323C39.7211 44.4759 39.165 44.3984 38.6448 44.2054Z" fill="white"/>
<path d="M52.8562 26.0703C53.4093 26.0314 53.9645 26.1087 54.4858 26.2973C53.9327 26.3362 53.3775 26.2589 52.8562 26.0703Z" fill="white"/>
<path d="M50.8805 28.2993C50.7037 28.5115 50.5017 28.7014 50.279 28.8649C50.0623 29.0322 49.8277 29.1751 49.5796 29.2909C49.7552 29.0801 49.9547 28.8903 50.1741 28.7253C50.3928 28.5573 50.6298 28.4145 50.8805 28.2993Z" fill="white"/>
<path d="M40.1134 34.6282C39.9345 34.8385 39.7314 35.0272 39.5085 35.1903C39.294 35.3607 39.059 35.5038 38.8091 35.6162C38.989 35.4068 39.1919 35.2182 39.4141 35.0541C39.6291 34.8844 39.8639 34.7414 40.1134 34.6282Z" fill="white"/>
<path d="M53.5592 37.4854C53.3804 37.6968 53.1773 37.8866 52.9543 38.051C52.7393 38.2207 52.5044 38.3637 52.2549 38.4769C52.4338 38.2655 52.6368 38.0757 52.8599 37.9113C53.076 37.7433 53.3107 37.6004 53.5592 37.4854Z" fill="white"/>
<path d="M44.8517 42.9585C44.6728 43.1699 44.4698 43.3598 44.2468 43.5241C44.0314 43.6933 43.7966 43.8363 43.5474 43.9501C43.7263 43.7386 43.9293 43.5488 44.1523 43.3844C44.3685 43.2164 44.6032 43.0735 44.8517 42.9585Z" fill="white"/>
<path d="M56.8954 30.007C56.7165 30.2184 56.5135 30.4082 56.2905 30.5726C56.0738 30.7399 55.8392 30.8827 55.5911 30.9985C55.77 30.7871 55.973 30.5973 56.196 30.4329C56.4114 30.2637 56.6462 30.1207 56.8954 30.007Z" fill="white"/>
<path d="M56.7136 36.3506C56.5018 36.172 56.3117 35.9693 56.1471 35.7466C55.9769 35.5321 55.8336 35.2976 55.7205 35.0483C55.933 35.2248 56.1232 35.4265 56.287 35.6489C56.454 35.8668 56.5971 36.1021 56.7136 36.3506Z" fill="white"/>
<path d="M37.3054 40.721C37.0936 40.5424 36.9035 40.3397 36.7389 40.117C36.5706 39.9011 36.4275 39.6669 36.3123 39.4187C36.524 39.5973 36.7141 39.8 36.8788 40.0227C37.0483 40.2377 37.1915 40.4721 37.3054 40.721Z" fill="white"/>
<path d="M54.3532 45.9203C54.1407 45.7438 53.9505 45.5421 53.7867 45.3197C53.6192 45.1034 53.4761 44.8692 53.3601 44.6215C53.5719 44.8001 53.762 45.0028 53.9266 45.2255C54.0954 45.4397 54.2385 45.6729 54.3532 45.9203Z" fill="white"/>
<path d="M45.81 31.0996C45.5983 30.9222 45.4082 30.7207 45.2435 30.4991C45.0767 30.2822 44.9336 30.0481 44.8169 29.8008C45.0294 29.9773 45.2196 30.1789 45.3834 30.4013C45.5503 30.6181 45.6933 30.8522 45.81 31.0996Z" fill="white"/>
<path d="M45.9604 48.8802C45.7487 48.7016 45.5585 48.4989 45.3939 48.2762C45.2262 48.06 45.0831 47.8257 44.9673 47.5779C45.1798 47.7544 45.37 47.956 45.5338 48.1784C45.7021 48.3955 45.8452 48.6309 45.9604 48.8802Z" fill="white"/>
<path d="M47.4118 38.3929C47.202 38.2133 47.0131 38.0106 46.8487 37.7889C46.678 37.5747 46.5347 37.3401 46.4221 37.0906C46.6328 37.2692 46.8218 37.472 46.9851 37.6946C47.1551 37.9092 47.2984 38.1437 47.4118 38.3929Z" fill="white"/>
<path d="M54.5908 29.6843C53.2725 29.4399 52.0346 26.7201 51.8772 24.8906C51.8772 24.7649 52.4927 23.7699 53.1956 22.5234C53.6222 21.7658 54.0733 20.9104 54.4335 20.1004C54.5069 19.9363 54.937 20.4914 54.937 20.4914L55.8742 21.1897L58.969 23.5604C58.2321 24.4433 57.6061 25.413 57.1052 26.4478C57.0557 26.5599 57.0182 26.6769 56.9933 26.7969C56.9919 26.8167 56.9919 26.8365 56.9933 26.8563C56.8009 27.5476 55.8602 29.9182 54.5908 29.6843Z" fill="#FFF5EA"/>
<path d="M56.9934 26.8161C56.992 26.8358 56.992 26.8557 56.9934 26.8754C56.8097 26.8216 56.6307 26.7527 56.4584 26.6694C53.0698 25.0843 54.563 20.5525 54.563 20.5525L55.8919 21.2089L58.9867 23.5795C58.2497 24.4625 57.6238 25.4321 57.1228 26.4669C57.0673 26.5784 57.024 26.6954 56.9934 26.8161Z" fill="#263238"/>
<path d="M62.5256 13.9142C62.5256 13.9142 64.0748 14.8953 64.0818 16.641C64.0888 18.3867 63.3824 20.094 63.2355 20.1568C63.0886 20.2197 62.5256 13.9142 62.5256 13.9142Z" fill="#263238"/>
<path d="M54.8391 14.8209C53.9089 16.6538 53.9579 22.4321 55.1189 23.9194C56.8044 26.0771 60.0496 26.8208 62.0114 24.6876C63.9102 22.6206 63.7144 15.0932 62.3611 13.6896C60.3923 11.6157 56.2169 12.108 54.8391 14.8209Z" fill="#FFF5EA"/>
<path d="M59.7769 19.4476C59.7769 19.4476 59.7454 19.4686 59.7489 19.4825C59.7699 19.8771 59.7279 20.331 59.3748 20.4706C59.3748 20.4706 59.3748 20.4951 59.3748 20.4916C59.8119 20.4217 59.8608 19.8177 59.7769 19.4476Z" fill="#263238"/>
<path d="M59.4167 19.0458C58.7803 19.0108 58.7593 20.2817 59.3503 20.3131C59.9412 20.3446 59.9482 19.0737 59.4167 19.0458Z" fill="#263238"/>
<path d="M61.9345 19.4341C61.9345 19.4341 61.966 19.4341 61.966 19.469C61.945 19.8635 61.9905 20.3174 62.3472 20.4536C62.3472 20.4536 62.3472 20.478 62.3472 20.4745C61.9065 20.4082 61.8541 19.8042 61.9345 19.4341Z" fill="#263238"/>
<path d="M62.2948 19.0304C62.9278 18.992 62.9592 20.2629 62.3717 20.2978C61.7843 20.3327 61.7633 19.0618 62.2948 19.0304Z" fill="#263238"/>
<path d="M59.0182 18.0793C59.1853 18.0318 59.3499 17.9759 59.5113 17.9117C59.695 17.8785 59.8623 17.7851 59.9869 17.6464C60.0171 17.5955 60.0297 17.5362 60.0228 17.4775C60.0158 17.4188 59.9897 17.364 59.9484 17.3217C59.8538 17.2498 59.7417 17.2045 59.6236 17.1904C59.5056 17.1763 59.3859 17.1939 59.277 17.2414C59.041 17.3044 58.8368 17.4524 58.7035 17.6568C58.6769 17.7055 58.6648 17.7607 58.6687 17.816C58.6725 17.8712 58.6922 17.9243 58.7253 17.9687C58.7584 18.0132 58.8036 18.0472 58.8556 18.0668C58.9075 18.0864 58.9639 18.0907 59.0182 18.0793Z" fill="#263238"/>
<path d="M62.7282 18.6425C62.5581 18.6045 62.39 18.5579 62.2247 18.5029C62.0404 18.4785 61.8694 18.3938 61.7386 18.2619C61.7049 18.2134 61.6886 18.1549 61.6924 18.0959C61.6962 18.037 61.7199 17.9811 61.7596 17.9372C61.8498 17.8603 61.9591 17.8089 62.076 17.7887C62.1929 17.7684 62.3131 17.7799 62.424 17.822C62.6632 17.8715 62.8752 18.0085 63.0185 18.2061C63.0484 18.2528 63.0641 18.3073 63.0637 18.3628C63.0632 18.4183 63.0466 18.4725 63.0158 18.5187C62.9851 18.565 62.9415 18.6013 62.8904 18.6233C62.8394 18.6453 62.783 18.6519 62.7282 18.6425Z" fill="#263238"/>
<path d="M58.8816 23.18C58.976 23.2743 59.0669 23.4 59.2103 23.4139C59.3573 23.4138 59.5027 23.3829 59.6369 23.3231C59.6369 23.3231 59.6614 23.3231 59.6369 23.3441C59.5796 23.4208 59.5025 23.4806 59.4138 23.5168C59.3251 23.5531 59.2281 23.5646 59.1334 23.5501C59.0535 23.5283 58.9817 23.4837 58.927 23.4216C58.8723 23.3595 58.8371 23.2828 58.8256 23.2009C58.8228 23.1935 58.8231 23.1853 58.8264 23.1781C58.8297 23.1709 58.8357 23.1653 58.8431 23.1625C58.8505 23.1598 58.8588 23.16 58.866 23.1633C58.8732 23.1666 58.8788 23.1726 58.8816 23.18Z" fill="#263238"/>
<path d="M61.1688 21.4982C61.1688 21.4982 61.1862 22.0847 61.1688 22.3605C60.6314 22.3036 60.0887 22.3224 59.5567 22.4164C59.4308 22.4443 59.4448 22.3431 59.5881 22.2767C60.0167 22.0812 60.4941 22.0179 60.9589 22.0952C60.9869 22.0219 60.9135 21.1874 60.9589 21.1909C61.1705 21.2324 61.3752 21.3029 61.5674 21.4004C61.5674 20.1714 61.3716 18.9564 61.3891 17.7275C61.3891 17.6856 61.4555 17.6786 61.4625 17.7275C61.711 19.0275 61.8282 20.3493 61.8122 21.6727C61.8157 21.8229 61.2737 21.554 61.1688 21.4982Z" fill="#263238"/>
<path d="M60.3816 22.1505C60.2422 22.5166 59.9836 22.8253 59.6473 23.0269C59.1192 23.2398 58.9479 22.7615 59.4794 22.3286C59.7582 22.1879 60.0702 22.1263 60.3816 22.1505Z" fill="#263238"/>
<path d="M59.8328 22.9198C59.777 22.9652 59.7145 23.0017 59.6475 23.028C59.1614 23.2235 58.9691 22.836 59.3607 22.4449C59.6265 22.4659 59.9307 22.5637 59.8328 22.9198Z" fill="#FF99BA"/>
<path d="M54.5735 19.7626C55.2134 19.9581 55.9478 18.0379 56.1576 17.3186C56.3395 16.6692 56.5493 14.6058 56.5808 14.4627C56.6122 14.3195 59.3783 16.2887 60.9799 15.8208C62.5815 15.353 63.6691 13.904 63.6936 13.2302C63.718 12.5564 61.7143 10.8456 59.9833 10.7583C58.2523 10.671 55.9058 12.8531 55.9058 12.8531C56.1893 12.532 56.4465 12.1887 56.6752 11.8267C56.6472 11.7498 55.5282 12.1967 55.3218 12.9928C55.3218 12.9928 55.5457 11.9908 55.4617 11.9733C55.3778 11.9558 54.5071 12.8112 54.7029 13.4606C54.7029 13.4606 53.6958 14.33 53.6048 15.2831C53.5139 16.2363 53.8216 19.5322 54.5735 19.7626Z" fill="#263238"/>
<path d="M62.1268 15.457C61.6505 15.7148 61.1375 15.8985 60.6056 16.0016C60.0086 16.0548 59.4077 15.9588 58.8571 15.7223C58.3025 15.5084 57.7872 15.204 57.3324 14.8215C56.9303 14.4933 56.5701 14.0918 56.14 13.7985C56.0316 13.7217 55.9092 13.8788 55.9756 13.9766C56.6932 14.9886 57.7184 15.7428 58.8991 16.1273C59.4474 16.3058 60.0328 16.3392 60.598 16.2241C61.1631 16.1091 61.6887 15.8495 62.1233 15.4709C62.1233 15.4709 62.1338 15.457 62.1268 15.457Z" fill="#263238"/>
<path d="M55.2413 19.5922C55.2413 19.5922 54.2482 17.5811 53.3529 17.9058C52.4577 18.2305 53.0032 21.0132 53.9229 21.5229C54.0356 21.5957 54.1618 21.645 54.294 21.6679C54.4262 21.6908 54.5617 21.6868 54.6923 21.6561C54.8229 21.6255 54.946 21.5688 55.0542 21.4895C55.1623 21.4103 55.2533 21.31 55.3217 21.1947L55.2413 19.5922Z" fill="#FFF5EA"/>
<path d="M53.5313 18.6989C53.5313 18.6989 53.5103 18.6989 53.5313 18.7268C54.1677 19.1039 54.4265 19.7742 54.5804 20.4725C54.5514 20.3986 54.5067 20.3318 54.4494 20.2768C54.392 20.2219 54.3234 20.18 54.2482 20.1541C54.1731 20.1282 54.0932 20.1189 54.0141 20.1268C53.935 20.1348 53.8585 20.1598 53.7901 20.2002C53.7691 20.2002 53.7901 20.2386 53.7901 20.2386C53.9152 20.2191 54.0432 20.2389 54.1566 20.2952C54.2699 20.3515 54.363 20.4415 54.423 20.5528C54.5231 20.7392 54.6028 20.9359 54.6608 21.1393C54.6818 21.2057 54.7972 21.1882 54.7867 21.1149C54.9371 20.2455 54.4475 18.9293 53.5313 18.6989Z" fill="#263238"/>
<path d="M48.6843 28.572C47.9849 32.5277 52.2792 45.8544 55.0313 48.3438C59.1262 52.0447 66.6971 54.4782 69.4422 55.2707C70.6382 55.6199 73.9463 47.216 72.7364 46.6609C70.1451 45.4843 62.0951 42.9705 61.3293 42.342C60.5635 41.7136 55.9475 35.0555 53.8913 31.2219C51.1391 26.0616 49.0305 26.5714 48.6843 28.572Z" fill="#FFF5EA"/>
<path d="M70.6979 45.9208C70.6979 45.9208 74.2717 46.832 76.5762 47.5338C77.8631 47.9283 80.0103 48.7977 80.825 49.5169C82.042 50.5958 86.4412 55.8748 85.1823 56.9676C84.0422 57.9591 80.839 52.942 80.839 52.942C80.839 52.942 84.5178 57.7182 82.9372 58.6574C81.3566 59.5966 78.4646 53.4482 78.4646 53.4482C78.4646 53.4482 82.1329 58.4409 80.339 59.1497C78.9821 59.6839 76.0727 54.2617 76.0727 54.2617C76.0727 54.2617 79.199 58.5736 77.8212 59.1846C76.3035 59.862 73.3066 55.0229 73.3066 55.0229C69.5578 55.99 67.3618 54.9181 65.9175 53.9754C65.5783 53.745 70.6979 45.9208 70.6979 45.9208Z" fill="#FFF5EA"/>
<path d="M79.6711 51.2052C80.1257 51.7499 80.5873 52.3015 80.9894 52.8846C81.3916 53.4677 81.7727 54.0682 82.1189 54.6862C82.588 55.4855 82.9635 56.336 83.2379 57.2209C82.6365 55.6847 81.2272 53.5724 80.825 52.9894C80.4229 52.4063 80.0487 51.8023 79.6501 51.2192C79.6396 51.2052 79.6606 51.1913 79.6711 51.2052Z" fill="#263238"/>
<path d="M77.5344 52.6197C78.3107 53.2342 79.9368 55.5176 80.5628 57.0503C80.5907 57.1131 80.5628 57.1096 80.5173 57.0503C80.0277 56.2927 78.0415 53.3599 77.5169 52.6302C77.5064 52.6197 77.5239 52.6092 77.5344 52.6197Z" fill="#263238"/>
<path d="M75.4816 53.5134C76.4462 54.5235 77.2083 55.7086 77.7267 57.0048C77.7512 57.0676 77.7022 57.0572 77.6637 57.0048C76.9399 55.8282 76.3803 54.9099 75.4432 53.5448C75.4292 53.5134 75.4607 53.482 75.4816 53.5134Z" fill="#263238"/>
<path d="M52.5872 28.8612C49.3945 24.3538 47.4851 26.0227 48.1251 30.9176C48.7265 35.4949 50.3316 40.9484 50.3316 40.9484L58.3747 37.052C58.3747 37.052 54.6189 31.7486 52.5872 28.8612Z" fill="#F7F7F7"/>
<path d="M54.5279 30.6351C54.6342 30.8897 54.7106 31.1557 54.7558 31.4277C54.805 31.7006 54.8226 31.9782 54.8084 32.2551C54.7032 31.9992 54.6279 31.7321 54.584 31.4591C54.5318 31.1877 54.513 30.911 54.5279 30.6351Z" fill="white"/>
<path d="M49.7615 33.3747C50.2747 33.1663 50.827 33.071 51.3806 33.0954C51.1254 33.2001 50.8591 33.2751 50.5868 33.3189C50.3149 33.3707 50.0378 33.3894 49.7615 33.3747Z" fill="white"/>
<path d="M49.9679 26.366C49.7514 26.8762 49.4283 27.3345 49.0203 27.7102C49.2368 27.1999 49.5599 26.7416 49.9679 26.366Z" fill="white"/>
<path d="M56.7836 35.4801C56.6775 35.7355 56.5425 35.9779 56.3815 36.2028C56.2246 36.4306 56.0415 36.6392 55.8359 36.8243C56.0525 36.314 56.3756 35.8558 56.7836 35.4801Z" fill="white"/>
<path d="M51.1881 38.2137C50.9318 38.109 50.6888 37.9742 50.4643 37.8122C50.236 37.6558 50.0271 37.473 49.8418 37.2676C50.3529 37.4838 50.8119 37.8064 51.1881 38.2137Z" fill="white"/>
<path d="M53.6361 30.219C54.0662 30.809 54.5103 31.3851 54.9509 31.9647C54.839 31.6714 54.7411 31.3746 54.6572 31.0744H54.6781C54.7656 31.3048 54.867 31.5318 54.9509 31.7727L55.0768 32.1218C55.0876 32.1456 55.097 32.1701 55.1048 32.1951C55.4545 32.6455 55.8042 33.0959 56.1259 33.5568C56.521 34.1084 56.9022 34.667 57.2869 35.2257C57.6715 35.7843 58.0597 36.4791 58.4758 37.0412C58.5143 37.0901 57.7765 37.3903 57.696 37.4287C57.6156 37.4671 57.5736 37.4008 57.6506 37.3764C57.7275 37.3519 58.315 36.9923 58.322 36.9853C57.9373 36.4197 57.4932 35.8995 57.0911 35.3514C56.6889 34.8032 56.2902 34.2551 55.9021 33.6999C55.1153 32.5687 54.3949 31.3956 53.6116 30.2609L53.6361 30.219Z" fill="#263238"/>
<path d="M48.3138 34.1582C48.4362 34.3956 48.5691 34.6295 48.6635 34.8739L48.7964 35.1777C48.6111 34.3083 48.4467 33.432 48.2544 32.5626C48.6251 33.9592 48.9992 35.3872 49.3419 36.8047C49.6672 38.1593 50.0623 39.528 50.2512 40.9106C50.495 40.8038 50.7478 40.7185 51.0065 40.6557C50.7468 40.8235 50.4673 40.9584 50.1742 41.0572C49.7527 39.6513 49.4025 38.2249 49.1251 36.7837C49.0377 36.3927 48.9573 36.0017 48.8734 35.6106C48.7824 35.3732 48.674 35.1463 48.5656 34.9123C48.4572 34.6784 48.3593 34.4166 48.2614 34.1687C48.2824 34.1547 48.3068 34.1407 48.3138 34.1582Z" fill="#263238"/>
<path d="M50.4504 39.6007C51.5695 38.9722 56.2449 36.5562 57.2905 36.1093C57.3639 36.0779 57.4024 36.1093 57.3289 36.1582C55.1096 37.4457 52.8216 38.6112 50.4749 39.6496C50.4469 39.6566 50.419 39.6182 50.4504 39.6007Z" fill="#263238"/>
<path d="M178.59 131.389H72.0444L87.4485 44.1561H193.994L178.59 131.389Z" fill="#F7F7F7"/>
<path d="M123.915 35.1198H89.0468L87.4487 44.1555H124.765L123.915 35.1198Z" fill="#F7F7F7"/>
<g opacity="0.1">
<path d="M178.59 131.388H72.0442L87.4483 44.1555H193.994L178.59 131.388Z" fill="black"/>
<path d="M123.915 35.1191H89.0466L87.4485 44.1549H124.765L123.915 35.1191Z" fill="black"/>
</g>
<path d="M85.2845 38.8069C85.0507 37.8078 85.0507 36.7685 85.2845 35.7694C85.5182 36.7685 85.5182 37.8078 85.2845 38.8069Z" fill="#263238"/>
<path d="M82.1856 39.702C81.8295 39.3333 81.5227 38.9202 81.2729 38.473C81.0108 38.035 80.8052 37.5658 80.6609 37.0764C81.018 37.4429 81.3249 37.855 81.5736 38.3019C81.8351 38.7414 82.0407 39.2117 82.1856 39.702Z" fill="#263238"/>
<path d="M79.9474 42.0223C78.9648 41.724 78.0639 41.2044 77.3142 40.5035C77.8045 40.6458 78.2745 40.85 78.713 41.111C79.161 41.3621 79.5757 41.6682 79.9474 42.0223Z" fill="#263238"/>
<path d="M79.1642 45.1515C78.1635 45.3843 77.1225 45.3843 76.1218 45.1515C77.1225 44.9187 78.1635 44.9187 79.1642 45.1515Z" fill="#263238"/>
<path d="M80.0736 48.2445C79.7028 48.5982 79.2893 48.9043 78.8426 49.1558C78.4042 49.4168 77.9341 49.621 77.4438 49.7633C77.8131 49.4078 78.2268 49.1015 78.6748 48.852C79.1126 48.5897 79.5828 48.3855 80.0736 48.2445Z" fill="#263238"/>
<path d="M82.3954 50.4753C82.0977 51.4579 81.5772 52.3587 80.8743 53.1079C81.0167 52.6178 81.2224 52.1483 81.4862 51.7113C81.7355 51.2624 82.041 50.8471 82.3954 50.4753Z" fill="#263238"/>
<path d="M85.5293 51.2476C85.6515 51.7445 85.7104 52.2547 85.7046 52.7663C85.7121 53.278 85.6532 53.7885 85.5293 54.2851C85.4036 53.7888 85.3447 53.2781 85.354 52.7663C85.3481 52.2547 85.407 51.7445 85.5293 51.2476Z" fill="#263238"/>
<path d="M88.627 50.3715C88.983 50.7401 89.2898 51.1532 89.5397 51.6005C89.8024 52.0376 90.007 52.5071 90.1481 52.997C89.4452 52.2479 88.9247 51.3471 88.627 50.3645V50.3715Z" fill="#263238"/>
<path d="M90.8616 48.0305C91.3523 48.1715 91.8225 48.3757 92.2604 48.638C92.7083 48.8875 93.1221 49.1938 93.4913 49.5493C93.0006 49.4083 92.5303 49.2041 92.0925 48.9418C91.6445 48.6923 91.2308 48.386 90.8616 48.0305Z" fill="#263238"/>
<path d="M91.6343 44.9026C92.6362 44.6698 93.6782 44.6698 94.6801 44.9026C93.6782 45.1353 92.6362 45.1353 91.6343 44.9026Z" fill="#263238"/>
<path d="M90.7392 41.8103C91.1094 41.4569 91.523 41.1519 91.9701 40.9025C92.4071 40.6376 92.8775 40.4322 93.3689 40.2915C92.6186 40.9933 91.7163 41.513 90.7322 41.8103H90.7392Z" fill="#263238"/>
<path d="M88.4136 39.5795C88.5575 39.0906 88.7619 38.6214 89.022 38.1829C89.2719 37.7357 89.5787 37.3226 89.9347 36.954C89.7936 37.4439 89.589 37.9134 89.3263 38.3505C89.0764 38.7978 88.7696 39.2109 88.4136 39.5795Z" fill="#263238"/>
<path d="M178.433 131.389H71.6599L56.4971 47.3226H163.273L178.433 131.389Z" fill="#F7F7F7"/>
<path d="M93.4984 98.7126C95.9493 98.7126 97.9361 96.729 97.9361 94.282C97.9361 91.8351 95.9493 89.8514 93.4984 89.8514C91.0476 89.8514 89.0608 91.8351 89.0608 94.282C89.0608 96.729 91.0476 98.7126 93.4984 98.7126Z" fill="#263238"/>
<path d="M128.58 98.7126C131.031 98.7126 133.018 96.729 133.018 94.282C133.018 91.8351 131.031 89.8514 128.58 89.8514C126.129 89.8514 124.142 91.8351 124.142 94.282C124.142 96.729 126.129 98.7126 128.58 98.7126Z" fill="#263238"/>
<path d="M117.414 99.4216L117.169 98.9572C117.148 98.9154 114.854 94.6838 110.242 94.6838C106.046 94.6838 104.996 98.6675 104.968 98.8385L104.843 99.3448L103.825 99.1004L103.947 98.5906C103.947 98.5418 105.199 93.6364 110.242 93.6364C115.487 93.6364 117.995 98.2729 118.1 98.4719L118.344 98.9328L117.414 99.4216Z" fill="#263238"/>
<path d="M171.383 93.9425L171.309 93.5933C171.536 93.5445 171.76 93.4921 171.984 93.4327L172.071 93.7819C171.834 93.8412 171.613 93.8936 171.383 93.9425Z" fill="#263238"/>
<path d="M173.425 93.3798L173.313 93.0516C173.75 92.9015 174.187 92.7374 174.61 92.5593L174.747 92.8805C174.316 93.0621 173.872 93.2297 173.425 93.3798ZM176.03 92.266L175.873 91.9588C176.282 91.7458 176.691 91.5154 177.079 91.2605L177.261 91.5573C176.862 91.8331 176.446 92.067 176.03 92.266ZM178.436 90.7892L178.23 90.5064C178.607 90.2305 178.971 89.9408 179.314 89.644L179.544 89.9058C179.177 90.2236 178.828 90.5203 178.432 90.8031L178.436 90.7892ZM180.569 88.9318L180.314 88.6908C180.635 88.3417 180.94 87.9926 181.219 87.6434L181.496 87.8564C181.205 88.2404 180.894 88.6001 180.576 88.9457L180.569 88.9318ZM182.3 86.6972L182.003 86.5122C182.244 86.1222 182.459 85.7162 182.646 85.2972L182.968 85.4404C182.77 85.8772 182.546 86.3016 182.296 86.7112L182.3 86.6972ZM183.457 84.1066L183.108 84.0089C183.236 83.5708 183.33 83.1238 183.391 82.6717L183.741 82.717C183.683 83.1918 183.587 83.6611 183.454 84.1206L183.457 84.1066ZM183.846 81.3135H183.496V81.2123C183.496 80.7898 183.471 80.3604 183.43 79.9379L183.779 79.903C183.825 80.3379 183.849 80.7749 183.849 81.2123L183.846 81.3135ZM183.216 78.5797C183.122 78.1296 183.005 77.6845 182.866 77.246L183.216 77.1413C183.36 77.5952 183.482 78.056 183.566 78.5064L183.216 78.5797ZM182.387 75.9507C182.22 75.5387 182.038 75.1163 181.814 74.6903L182.129 74.5332C182.342 74.9661 182.538 75.3991 182.709 75.818L182.387 75.9507ZM181.163 73.4613C180.947 73.0808 180.709 72.6793 180.464 72.2673L180.761 72.0822C181.017 72.4977 181.258 72.9027 181.461 73.2903L181.163 73.4613ZM179.702 71.0907C179.446 70.7066 179.188 70.3191 178.922 69.9315L179.212 69.736C179.478 70.1236 179.737 70.5111 179.992 70.9021L179.702 71.0907ZM178.128 68.7794C177.866 68.3953 177.6 68.0078 177.341 67.6237L177.632 67.4282C177.89 67.8123 178.153 68.1998 178.415 68.5804L178.128 68.7794ZM176.565 66.4541C176.31 66.0631 176.061 65.665 175.817 65.267L176.114 65.0855C176.359 65.4835 176.607 65.8745 176.859 66.2656L176.565 66.4541ZM175.107 64.0555C174.869 63.633 174.649 63.2141 174.449 62.8126L174.764 62.6555C174.96 63.0535 175.18 63.4655 175.411 63.8844L175.107 64.0555ZM173.865 61.5417C173.68 61.1053 173.516 60.6619 173.362 60.2289L173.711 60.1172C173.858 60.5397 174.023 60.9761 174.205 61.4055L173.865 61.5417ZM172.956 58.8778C172.841 58.4239 172.739 57.9595 172.662 57.4812L173.012 57.4253C173.089 57.8722 173.183 58.3261 173.299 58.773L172.956 58.8778ZM172.488 56.0846C172.453 55.6552 172.435 55.2223 172.435 54.7893V54.6741H172.785V54.7858C172.785 55.2083 172.785 55.6342 172.837 56.0532L172.488 56.0846ZM172.837 53.2915L172.488 53.2566C172.488 53.1623 172.505 53.0646 172.516 52.9633C172.557 52.5897 172.61 52.2162 172.673 51.86L173.023 51.9194C172.963 52.2685 172.911 52.6351 172.869 53.0017C172.883 53.11 172.883 53.2042 172.855 53.302L172.837 53.2915ZM173.323 50.5752L172.974 50.4809C173.103 50.0201 173.253 49.5697 173.421 49.1402L173.746 49.2659C173.587 49.6982 173.452 50.1388 173.341 50.5857L173.323 50.5752ZM190.749 48.5397C190.553 48.5397 190.35 48.5118 190.151 48.4838C189.878 48.4454 189.605 48.4001 189.336 48.3477L189.406 47.9985C189.665 48.0474 189.934 48.0928 190.2 48.1312C190.388 48.1557 190.581 48.1731 190.766 48.1836L190.749 48.5397ZM192.186 48.4315L192.112 48.0823C192.551 47.9919 192.972 47.829 193.357 47.6005L193.539 47.8973C193.127 48.1518 192.676 48.3358 192.203 48.4419L192.186 48.4315ZM174.33 48.016L174.019 47.8519C174.242 47.4355 174.488 47.0322 174.757 46.6439L175.044 46.8429C174.788 47.2231 174.556 47.6184 174.348 48.0265L174.33 48.016ZM187.969 47.995C187.517 47.8521 187.074 47.6854 186.64 47.4958L186.783 47.1746C187.203 47.3611 187.634 47.5231 188.073 47.6599L187.969 47.995ZM194.613 46.9057L194.323 46.7102C194.572 46.3496 194.719 45.9287 194.749 45.4917L195.099 45.5162C195.069 46.017 194.905 46.5006 194.623 46.9162L194.613 46.9057ZM185.381 46.8534C184.972 46.6159 184.576 46.3559 184.195 46.0748L184.402 45.7955C184.772 46.0681 185.157 46.3199 185.556 46.5496L185.381 46.8534ZM175.904 45.764L175.645 45.5301C175.962 45.1785 176.299 44.8462 176.656 44.5351L176.887 44.7969C176.544 45.1034 176.219 45.4298 175.915 45.7745L175.904 45.764ZM183.104 45.174C182.756 44.8537 182.426 44.5145 182.115 44.158L182.377 43.9276C182.68 44.2738 183.001 44.6037 183.339 44.9156L183.104 45.174ZM194.487 44.2278C194.287 43.8288 194.01 43.473 193.672 43.1804L193.903 42.9186C194.274 43.2394 194.58 43.6296 194.802 44.0672L194.487 44.2278ZM177.974 43.952L177.775 43.6657C178.166 43.399 178.571 43.1531 178.988 42.929L179.153 43.2363C178.751 43.4579 178.361 43.7003 177.985 43.9625L177.974 43.952ZM181.24 43.0442C181.108 42.8557 180.978 42.6637 180.856 42.4647L180.401 42.6427L180.268 42.3215L180.67 42.1609C180.607 42.0562 180.545 41.9514 180.485 41.8467L180.789 41.6756C180.859 41.7978 180.929 41.92 181.003 42.0248C181.198 41.9549 181.398 41.8886 181.601 41.8257L181.702 42.1749C181.531 42.2273 181.352 42.2831 181.191 42.3425C181.3 42.5135 181.412 42.6916 181.541 42.8417L181.24 43.0442ZM192.546 42.4437C192.208 42.2754 191.857 42.133 191.497 42.0178L191.266 41.9444L191.368 41.5953L191.605 41.6721C191.98 41.7913 192.345 41.9396 192.696 42.1155L192.546 42.4437ZM183.041 41.8188L182.968 41.4696C183.419 41.3684 183.888 41.2846 184.367 41.2182L184.419 41.5674C183.958 41.6407 183.499 41.728 183.052 41.8292L183.041 41.8188ZM189.93 41.6302C189.493 41.5534 189.032 41.4941 188.56 41.4522L188.588 41.103C189.074 41.1449 189.546 41.2043 189.986 41.2846L189.93 41.6302ZM185.786 41.4277L185.762 41.0786C186.178 41.0541 186.594 41.0402 187.007 41.0402H187.178V41.3893H187.01C186.615 41.3998 186.203 41.4103 185.797 41.4382L185.786 41.4277ZM179.877 40.5933C179.688 40.1673 179.527 39.7239 179.37 39.2735L179.719 39.1653C179.866 39.6052 180.03 40.0381 180.212 40.4536L179.877 40.5933ZM178.992 37.9119C178.887 37.4615 178.8 36.9936 178.733 36.5153L179.083 36.4664C179.149 36.9273 179.233 37.3847 179.335 37.8281L178.992 37.9119ZM178.6 35.1188C178.583 34.8045 178.572 34.4833 178.572 34.1621C178.572 34.012 178.572 33.8584 178.572 33.7082H178.922C178.922 33.8584 178.922 34.005 178.922 34.1551C178.922 34.4694 178.922 34.7871 178.946 35.0908L178.6 35.1188ZM179.016 32.3256L178.667 32.2907C178.716 31.8299 178.782 31.3585 178.862 30.8942L179.212 30.9535C179.118 31.4179 179.051 31.8648 179.006 32.3326L179.016 32.3256ZM179.495 29.5988L179.146 29.5151C179.258 29.0647 179.387 28.6108 179.53 28.1569L179.88 28.2651C179.723 28.7225 179.593 29.1659 179.485 29.6058L179.495 29.5988ZM180.335 26.9559L180.009 26.8302C180.181 26.3937 180.359 25.9573 180.572 25.5349L180.887 25.6885C180.677 26.1074 180.492 26.5334 180.324 26.9768L180.335 26.9559ZM181.538 24.4665L181.233 24.2884C181.471 23.8869 181.726 23.4854 181.992 23.1013L182.279 23.3004C182.006 23.6844 181.758 24.0754 181.527 24.4735L181.538 24.4665ZM183.115 22.1936L182.842 21.9736C183.136 21.6245 183.451 21.2544 183.776 20.9262L184.027 21.1671C183.699 21.4953 183.391 21.8444 183.104 22.2006L183.115 22.1936ZM185.017 20.1825L184.783 19.9242C185.133 19.6134 185.482 19.3062 185.856 19.0094L186.073 19.2852C185.699 19.582 185.342 19.8858 185.007 20.1895L185.017 20.1825ZM187.189 18.4578L186.989 18.168C187.371 17.9061 187.769 17.6478 188.175 17.4034L188.353 17.7001C187.948 17.948 187.57 18.2029 187.178 18.4648L187.189 18.4578ZM189.563 17.0158L189.399 16.7086C189.811 16.4886 190.238 16.2791 190.665 16.0836L190.812 16.4013C190.367 16.6004 189.958 16.8098 189.553 17.0228L189.563 17.0158ZM192.091 15.8567L191.962 15.5285C192.403 15.3574 192.847 15.1794 193.287 15.0502L193.399 15.3993C192.955 15.532 192.515 15.6926 192.081 15.8637L192.091 15.8567Z" fill="#263238"/>
<path d="M194.788 14.9746L194.7 14.6254C195.134 14.5137 195.4 14.4648 195.4 14.4648L195.463 14.814C195.463 14.814 195.211 14.8664 194.788 14.9746Z" fill="#263238"/>
<path d="M200.97 12.7184C200.079 9.9602 194.106 10.9518 195.27 14.5584C196.435 18.165 201.862 15.4801 200.97 12.7184Z" fill="#263238"/>
<path d="M192.021 11.6155C192.067 10.404 193.752 9.47176 196.137 9.9012C198.522 10.3306 200.764 11.9367 200.764 11.9367C200.764 11.9367 198.41 13.3612 196.001 13.623C193.592 13.8849 191.976 12.8235 192.021 11.6155Z" fill="#EBEBEB"/>
<path d="M200.764 11.9305C199.526 11.9305 198.292 11.8956 197.057 11.8572C195.823 11.8188 194.585 11.756 193.35 11.6582C194.588 11.6582 195.826 11.6896 197.061 11.728C198.295 11.7664 199.533 11.8293 200.764 11.9305Z" fill="#263238"/>
<path d="M194.417 10.5359C195.119 10.8716 195.782 11.285 196.393 11.7684C196.041 11.6036 195.7 11.417 195.371 11.2097C195.04 11.0039 194.722 10.7789 194.417 10.5359Z" fill="#263238"/>
<path d="M197.659 11.8138C197.026 12.3257 196.34 12.7682 195.613 13.1336C196.249 12.6211 196.938 12.1786 197.669 11.8138H197.659Z" fill="#263238"/>
<path d="M198.019 11.1331C198.372 11.3022 198.681 11.5508 198.921 11.8593C198.745 11.7761 198.579 11.6718 198.428 11.5485C198.276 11.4261 198.139 11.2867 198.019 11.1331Z" fill="#263238"/>
<path d="M194.294 18.7905C195.039 19.7471 196.952 19.5167 198.634 17.778C200.316 16.0393 201.208 13.4242 201.208 13.4242C201.208 13.4242 198.452 13.6337 196.351 14.8208C194.249 16.0078 193.546 17.8303 194.294 18.7905Z" fill="#EBEBEB"/>
<path d="M201.208 13.4242C200.201 14.1225 199.222 14.8976 198.239 15.6482C197.256 16.3989 196.295 17.174 195.354 17.9735C196.361 17.2752 197.34 16.5036 198.319 15.753C199.299 15.0023 200.253 14.2272 201.208 13.4242Z" fill="#263238"/>
<path d="M196.865 18.2492C197.052 17.9101 197.219 17.5603 197.365 17.2018C197.514 16.8423 197.64 16.4738 197.742 16.0985C197.555 16.4374 197.388 16.7871 197.242 17.1459C197.095 17.506 196.969 17.8744 196.865 18.2492Z" fill="#263238"/>
<path d="M198.76 15.3293C197.942 15.2854 197.121 15.3289 196.312 15.459C196.72 15.4835 197.129 15.4835 197.536 15.459C197.946 15.4389 198.355 15.3956 198.76 15.3293Z" fill="#263238"/>
<path d="M199.435 15.6749C199.529 15.5025 199.602 15.3197 199.652 15.1303C199.704 14.9422 199.735 14.749 199.744 14.5542C199.557 14.8998 199.452 15.283 199.435 15.6749Z" fill="#263238"/>
<path d="M200.97 12.7177C200.773 12.7817 200.561 12.7858 200.361 12.7294C200.161 12.673 199.983 12.5587 199.848 12.4009C199.713 12.2431 199.628 12.049 199.604 11.8431C199.58 11.6372 199.618 11.4287 199.712 11.2442C199.807 11.0597 199.954 10.9073 200.136 10.8064C200.317 10.7056 200.525 10.6607 200.731 10.6775C200.938 10.6944 201.136 10.7722 201.298 10.901C201.461 11.0299 201.582 11.2041 201.645 11.4015C201.73 11.6654 201.707 11.9521 201.58 12.1988C201.454 12.4455 201.234 12.6321 200.97 12.7177Z" fill="#455A64"/>
<path d="M201.614 14.7116C201.416 14.7753 201.205 14.7792 201.005 14.7228C200.805 14.6664 200.627 14.5521 200.492 14.3945C200.358 14.2368 200.273 14.0429 200.249 13.8372C200.225 13.6315 200.262 13.4232 200.356 13.2387C200.451 13.0542 200.598 12.9018 200.779 12.8008C200.96 12.6997 201.167 12.6545 201.374 12.6709C201.581 12.6873 201.778 12.7645 201.941 12.8928C202.104 13.0212 202.225 13.1948 202.289 13.3918C202.331 13.5227 202.347 13.6607 202.337 13.7979C202.326 13.9351 202.288 14.0688 202.225 14.1913C202.162 14.3139 202.076 14.4229 201.971 14.5122C201.866 14.6014 201.745 14.6692 201.614 14.7116Z" fill="#455A64"/>
<path d="M86.9657 13.8231C86.7982 15.4267 86.1876 16.9523 85.2021 18.2297C84.2166 19.507 82.895 20.4858 81.3848 21.0569C79.8745 21.6279 78.2351 21.7688 76.6493 21.4637C75.0636 21.1586 73.5939 20.4195 72.4044 19.329L68.0437 19.9679L70.2258 16.2042C69.7268 14.9796 69.5139 13.6575 69.6033 12.3384C69.6926 11.0193 70.0819 9.73784 70.7416 8.59144C71.4012 7.44504 72.3139 6.46381 73.4102 5.72228C74.5065 4.98075 75.7577 4.49843 77.0687 4.31195C78.3797 4.12548 79.716 4.23975 80.9761 4.64609C82.2362 5.05243 83.387 5.74015 84.3411 6.65701C85.2952 7.57387 86.0274 8.69576 86.4822 9.93746C86.937 11.1792 87.1023 12.508 86.9657 13.8231Z" fill="white"/>
<path d="M86.9657 13.8238C86.8017 15.4267 86.1965 16.9529 85.2172 18.2335C84.7388 18.8812 84.1618 19.4501 83.5072 19.9198C82.867 20.4071 82.1605 20.8009 81.4091 21.0894C80.6572 21.3851 79.8672 21.5731 79.0626 21.6481C78.6603 21.6841 78.256 21.6923 77.8526 21.6725C77.4478 21.6621 77.0444 21.6201 76.6462 21.5468C75.0391 21.2516 73.546 20.5153 72.3344 19.4206L72.4359 19.452L68.0821 20.1188L67.7639 20.1677L67.9248 19.8884L70.0929 16.1177V16.2678C69.5813 15.0206 69.3638 13.6725 69.4571 12.328C69.5505 10.9834 69.9523 9.67825 70.6314 8.51341C71.3097 7.35224 72.2422 6.35921 73.3591 5.60857C74.4741 4.86789 75.7427 4.38889 77.0697 4.20749C78.3966 4.02609 79.7474 4.147 81.0209 4.56114C82.2809 4.98911 83.4291 5.69292 84.3815 6.62107C85.3318 7.5469 86.0584 8.67668 86.5062 9.92469C86.9539 11.1727 87.1111 12.5061 86.9657 13.8238ZM86.9657 13.8238C87.107 12.5126 86.9447 11.1865 86.4911 9.94795C86.0376 8.70936 85.305 7.5914 84.3499 6.68038C83.3949 5.76937 82.2429 5.08967 80.983 4.69377C79.723 4.29786 78.3888 4.19634 77.0833 4.39705C75.7909 4.58804 74.5598 5.07302 73.4849 5.81456C72.4193 6.56192 71.5292 7.53165 70.8762 8.65656C70.2333 9.78397 69.8543 11.042 69.7677 12.3365C69.6825 13.6397 69.8929 14.9453 70.3831 16.1561L70.4146 16.2329L70.3726 16.3062L68.1766 20.063L68.0227 19.8325L72.3869 19.2215H72.4464L72.4883 19.26C73.6549 20.344 75.1006 21.0827 76.6637 21.3932C77.0532 21.4724 77.4485 21.5203 77.8457 21.5363C78.2427 21.5643 78.6411 21.5643 79.0381 21.5363C79.8343 21.4723 80.6179 21.2996 81.3671 21.0231C82.118 20.7502 82.8248 20.3691 83.4653 19.8919C84.1171 19.426 84.6948 18.8645 85.1788 18.2265C86.1707 16.9521 86.7892 15.4281 86.9657 13.8238Z" fill="#263238"/>
<path d="M74.0373 16.9767C74.0306 16.8611 74.0477 16.7454 74.0877 16.6367C74.1277 16.528 74.1896 16.4286 74.2696 16.3448C74.3496 16.261 74.446 16.1945 74.5528 16.1495C74.6596 16.1044 74.7746 16.0817 74.8906 16.0829C75.128 16.0829 75.3557 16.1771 75.5236 16.3447C75.6915 16.5123 75.7858 16.7396 75.7858 16.9767C75.7858 17.2137 75.6915 17.4411 75.5236 17.6087C75.3557 17.7763 75.128 17.8705 74.8906 17.8705C74.7746 17.8716 74.6596 17.849 74.5528 17.8039C74.446 17.7589 74.3496 17.6924 74.2696 17.6086C74.1896 17.5247 74.1277 17.4254 74.0877 17.3167C74.0477 17.208 74.0306 17.0923 74.0373 16.9767ZM74.387 14.9133L74.1842 7.98633H75.583L75.3801 14.9133H74.387Z" fill="#F7F7F7"/>
<path d="M77.363 16.9767C77.3563 16.8614 77.3733 16.746 77.4131 16.6375C77.4528 16.529 77.5144 16.4299 77.5941 16.3461C77.6737 16.2624 77.7697 16.1958 77.8761 16.1505C77.9825 16.1052 78.0971 16.0822 78.2127 16.0829C78.4502 16.0829 78.6779 16.1771 78.8458 16.3447C79.0136 16.5123 79.108 16.7396 79.108 16.9767C79.108 17.2137 79.0136 17.4411 78.8458 17.6087C78.6779 17.7763 78.4502 17.8705 78.2127 17.8705C78.0971 17.8712 77.9825 17.8482 77.8761 17.8029C77.7697 17.7576 77.6737 17.691 77.5941 17.6073C77.5144 17.5235 77.4528 17.4243 77.4131 17.3159C77.3733 17.2074 77.3563 17.092 77.363 16.9767ZM77.7127 14.9133L77.5203 7.98633H78.9191L78.7163 14.9133H77.7127Z" fill="#F7F7F7"/>
<path d="M80.6853 16.9767C80.6785 16.8611 80.6957 16.7454 80.7357 16.6367C80.7756 16.528 80.8375 16.4286 80.9175 16.3448C80.9975 16.261 81.0939 16.1945 81.2008 16.1495C81.3076 16.1044 81.4226 16.0817 81.5385 16.0829C81.7759 16.0829 82.0036 16.1771 82.1715 16.3447C82.3394 16.5123 82.4337 16.7396 82.4337 16.9767C82.4337 17.2137 82.3394 17.4411 82.1715 17.6087C82.0036 17.7763 81.7759 17.8705 81.5385 17.8705C81.4226 17.8716 81.3076 17.849 81.2008 17.8039C81.0939 17.7589 80.9975 17.6924 80.9175 17.6086C80.8375 17.5247 80.7756 17.4254 80.7357 17.3167C80.6957 17.208 80.6785 17.0923 80.6853 16.9767ZM81.035 14.9133L80.8321 7.98633H82.2309L82.0316 14.9133H81.035Z" fill="#F7F7F7"/>
</svg>
