<svg width="254" height="245" viewBox="0 0 254 245" fill="none" xmlns="http://www.w3.org/2000/svg">
<circle cx="47" cy="56" r="40.5" stroke="#DCDFE6" stroke-dasharray="8 8"/>
<circle cx="174" cy="165" r="79.5" stroke="#DCDFE6" stroke-dasharray="8 8"/>
<path d="M89.0566 173.271L55.9463 173.235L67.7535 129.13H77.0344L89.0566 173.271Z" fill="#DC5E4F"/>
<path d="M94.5391 193.513H50.5173L53.6707 181.715H91.3319L94.5391 193.513Z" fill="#DC5E4F"/>
<path d="M100.434 215.242H44.6765L48.6899 200.235H96.3846L100.434 215.242Z" fill="#DC5E4F"/>
<path d="M112.689 215.242H32.2961V224.027H112.689V215.242Z" fill="#DC5E4F"/>
<path d="M131 118H121V224H131V118Z" fill="#DC5E4F"/>
<path d="M1 224.027H57.1306" stroke="#7B8799" stroke-width="2" stroke-miterlimit="10" stroke-linecap="round"/>
<path d="M62.0176 224.027H154.442" stroke="#7B8799" stroke-width="2" stroke-miterlimit="10" stroke-linecap="round" stroke-dasharray="32.93 32.93"/>
<path d="M96.4089 224.027H188.833" stroke="#7B8799" stroke-width="2" stroke-miterlimit="10" stroke-linecap="round" stroke-dasharray="32.93 32.93"/>
<path d="M159.869 224.027H216" stroke="#7B8799" stroke-width="2" stroke-miterlimit="10" stroke-linecap="round"/>
<path d="M148.487 5.87671H103.479L71.6411 37.7183V82.7556L103.479 114.597H148.487L180.307 82.7556V37.7183L148.487 5.87671Z" fill="#DC5E4F"/>
<path d="M150.726 1H101.957L67.4668 35.513V84.3154L101.957 118.81H150.726L185.216 84.3154V35.513L150.726 1Z" stroke="#DC5E4F" stroke-width="1.9565" stroke-miterlimit="10"/>
<path d="M88.3757 69.2913V63.6437L101.115 46.1631H108.371V63.3927H111.721V69.2734H108.371V74.401H101.545V69.2734H88.3757V69.2913ZM102.082 53.9801L95.22 63.4106H102.082V53.9801Z" fill="white"/>
<path d="M114.785 60.1832C114.785 55.8445 115.663 52.4021 117.419 49.8742C119.175 47.3283 121.988 46.0732 125.858 46.0732C129.692 46.0732 132.505 47.3462 134.279 49.8742C136.053 52.4201 136.931 55.8445 136.931 60.1832C136.931 64.5579 136.035 68.0002 134.279 70.564C132.505 73.1099 129.692 74.3829 125.858 74.3829C121.988 74.3829 119.175 73.1099 117.419 70.564C115.663 68.0002 114.785 64.54 114.785 60.1832ZM130.23 60.1832C130.23 57.6911 129.925 55.7727 129.352 54.446C128.761 53.1193 127.596 52.4559 125.858 52.4559C124.102 52.4559 122.92 53.1193 122.31 54.4639C121.701 55.8086 121.397 57.7091 121.397 60.1832C121.397 62.6754 121.701 64.6117 122.31 65.9563C122.92 67.301 124.102 67.9823 125.858 67.9823C127.596 67.9823 128.761 67.301 129.352 65.9563C129.943 64.5937 130.23 62.6754 130.23 60.1832Z" fill="white"/>
<path d="M140.245 69.2913V63.6437L152.984 46.1631H160.24V63.3927H163.591V69.2734H160.24V74.401H153.414V69.2734H140.245V69.2913ZM153.969 53.9801L147.107 63.4106H153.969V53.9801Z" fill="white"/>
</svg>
