<svg width="36" height="36" viewBox="0 0 36 36" fill="none" xmlns="http://www.w3.org/2000/svg">
<g clip-path="url(#clip0_203_3887)">
<path d="M10.0173 6.62793H14.6859V11.2966H10.0173V6.62793Z" fill="white"/>
<path d="M25.343 9.03732H31.9932L23.5735 0.617676V7.26783C23.5735 8.24356 24.3673 9.03732 25.343 9.03732Z" fill="white"/>
<path d="M25.3429 11.1469C23.2042 11.1469 21.4641 9.40683 21.4641 7.26799V0H7.26797C5.12913 0 3.38904 1.74009 3.38904 3.87893V32.1211C3.38904 34.2599 5.12913 36 7.2679 36H28.7321C30.8709 36 32.6109 34.2599 32.6109 32.1211V11.1469H25.3429ZM7.90788 5.57346C7.90788 4.99099 8.38003 4.51877 8.96257 4.51877H15.7406C16.3231 4.51877 16.7952 4.99099 16.7952 5.57346V12.3515C16.7952 12.934 16.3231 13.4062 15.7406 13.4062H8.96257C8.38003 13.4062 7.90788 12.934 7.90788 12.3515V5.57346ZM8.96257 15.8157H22.5188C23.1013 15.8157 23.5734 16.2879 23.5734 16.8704C23.5734 17.4528 23.1013 17.925 22.5188 17.925H8.96257C8.38003 17.925 7.90788 17.4528 7.90788 16.8704C7.90788 16.2878 8.38003 15.8157 8.96257 15.8157ZM27.0375 31.4812H8.96257C8.38003 31.4812 7.90788 31.0089 7.90788 30.4265C7.90788 29.844 8.38003 29.3718 8.96257 29.3718H27.0375C27.6199 29.3718 28.0922 29.844 28.0922 30.4265C28.0922 31.009 27.6199 31.4812 27.0375 31.4812ZM27.0375 26.9625H8.96257C8.38003 26.9625 7.90788 26.4903 7.90788 25.9078C7.90788 25.3254 8.38003 24.8531 8.96257 24.8531H27.0375C27.6199 24.8531 28.0922 25.3254 28.0922 25.9078C28.0922 26.4903 27.6199 26.9625 27.0375 26.9625ZM27.0375 22.4437H8.96257C8.38003 22.4437 7.90788 21.9715 7.90788 21.389C7.90788 20.8065 8.38003 20.3343 8.96257 20.3343H27.0375C27.6199 20.3343 28.0922 20.8065 28.0922 21.389C28.0922 21.9715 27.6199 22.4437 27.0375 22.4437Z" fill="white"/>
</g>
<defs>
<clipPath id="clip0_203_3887">
<rect width="36" height="36" fill="white"/>
</clipPath>
</defs>
</svg>
