<svg width="36" height="36" viewBox="0 0 36 36" fill="none" xmlns="http://www.w3.org/2000/svg">
<g clip-path="url(#clip0_276_4531)">
<path d="M0 5.45477V27.8196C0 28.911 0.884808 29.7958 1.97625 29.7958H23.9735V25.8729C23.5718 25.4087 23.2478 24.888 23.0076 24.3203C22.7008 23.5949 22.5454 22.8253 22.5454 22.0324C22.5454 21.2395 22.7009 20.4698 23.0076 19.7445C23.3036 19.0445 23.7272 18.4163 24.2666 17.8768C24.8059 17.3375 25.4343 16.914 26.1342 16.6179C26.8596 16.3111 27.6293 16.1556 28.4221 16.1556C29.215 16.1556 29.9847 16.3111 30.71 16.6179C31.41 16.9139 32.0383 17.3375 32.5777 17.8768C33.117 18.4162 33.5405 19.0445 33.8367 19.7445C34.1435 20.4698 34.299 21.2395 34.299 22.0324C34.299 22.8253 34.1434 23.5949 33.8367 24.3203C33.5965 24.888 33.2724 25.4087 32.8708 25.8729V29.7958H34.0238C35.1152 29.7958 36.0001 28.911 36.0001 27.8196V12.6556H29.1943C27.8866 12.6556 26.8228 11.5917 26.8228 10.2841V3.47852H1.97625C0.884769 3.47852 0 4.36332 0 5.45477ZM4.38827 9.68059H24.1263V11.8545H4.38827V9.68059ZM4.38827 17.4572H21.1224V18.6429H4.38827V17.4572ZM4.38827 21.1725H14.2573V22.3583H4.38827V21.1725Z" fill="white"/>
<path d="M28.0085 3.66399V10.2839C28.0085 10.9388 28.5394 11.4697 29.1943 11.4697H35.8151H36L28.0085 3.47803V3.66399Z" fill="white"/>
<path d="M31.685 29.7955V26.9209C31.3785 27.1258 31.0529 27.3016 30.71 27.4466C29.9847 27.7533 29.215 27.9089 28.4221 27.9089C27.6293 27.9089 26.8596 27.7533 26.1342 27.4466C25.7914 27.3016 25.4658 27.1257 25.1593 26.9209V29.7955V32.5219L28.4221 31.2223L31.6849 32.5219V29.7955H31.685Z" fill="white"/>
<path d="M32.2778 24.7045C32.5277 24.3446 32.7286 23.948 32.8707 23.5245C33.0278 23.0558 33.1131 22.554 33.1131 22.0323C33.1131 19.4416 31.0128 17.3413 28.4221 17.3413C25.8313 17.3413 23.7311 19.4416 23.7311 22.0324C23.7311 22.554 23.8164 23.0558 23.9735 23.5245C24.1155 23.9481 24.3165 24.3446 24.5664 24.7045C24.7411 24.9562 24.9398 25.1899 25.1592 25.4024C26.0035 26.22 27.154 26.7235 28.4221 26.7235C29.6902 26.7235 30.8406 26.2201 31.6849 25.4024C31.9043 25.1899 32.103 24.9561 32.2778 24.7045Z" fill="white"/>
</g>
<defs>
<clipPath id="clip0_276_4531">
<rect width="36" height="36" fill="white"/>
</clipPath>
</defs>
</svg>
