<svg width="36" height="36" viewBox="0 0 36 36" fill="none" xmlns="http://www.w3.org/2000/svg">
<path d="M14.8359 19.0547H21.1641V21.1641H14.8359V19.0547Z" fill="white"/>
<path d="M29.2063 21.164H23.2734V22.2187C23.2734 22.8015 22.8016 23.2734 22.2188 23.2734H13.7812C13.1984 23.2734 12.7266 22.8015 12.7266 22.2187V21.164H6.79367C5.42999 21.164 4.22397 20.2947 3.79221 19.0011L0 7.62256V30.6562C0 32.4008 1.41943 33.8203 3.16406 33.8203H32.8359C34.5806 33.8203 36 32.4008 36 30.6562V7.62338L32.2075 19.0011C31.776 20.2947 30.57 21.164 29.2063 21.164Z" fill="white"/>
<path d="M22.2188 2.17969H13.7813C12.0367 2.17969 10.6172 3.59912 10.6172 5.34375V6.39844H1.8147L5.79257 18.3337C5.93677 18.7652 6.33942 19.0547 6.7937 19.0547H12.7266V18C12.7266 17.4172 13.1985 16.9453 13.7813 16.9453H22.2188C22.8016 16.9453 23.2735 17.4172 23.2735 18V19.0547H29.2064C29.6606 19.0547 30.0633 18.7652 30.2075 18.3337L34.1856 6.39844H25.3828V5.34375C25.3828 3.59912 23.9634 2.17969 22.2188 2.17969ZM12.7266 6.39844V5.34375C12.7266 4.76175 13.1993 4.28906 13.7813 4.28906H22.2188C22.8008 4.28906 23.2735 4.76175 23.2735 5.34375V6.39844H12.7266Z" fill="white"/>
</svg>
