<svg width="36" height="36" viewBox="0 0 36 36" fill="none" xmlns="http://www.w3.org/2000/svg">
<g clip-path="url(#clip0_276_4559)">
<path d="M20.3106 24.9569C19.6699 25.3498 18.8493 25.5663 18 25.5663C17.1507 25.5663 16.3302 25.3499 15.6894 24.9569L5.22862 18.5412C5.22862 18.5412 4.28442 17.9624 4.28442 19.2735C4.28442 20.7623 4.28442 25.2288 4.28442 25.2288C4.28442 25.2884 4.28442 25.5873 4.28442 25.68C4.28442 29.0549 10.425 32.6931 17.9997 32.6931C25.5745 32.6931 31.7151 29.055 31.7151 25.68C31.7151 25.5873 31.7151 25.2884 31.7151 25.2288C31.7151 25.2288 31.7151 20.4915 31.7151 18.9123C31.7151 17.8599 31.0438 18.3742 31.0438 18.3742L20.3106 24.9569Z" fill="white"/>
<path d="M35.3972 13.4379C36.2009 12.9449 36.2009 12.1382 35.3972 11.6452L19.4614 3.67635C18.6576 3.18341 17.3423 3.18341 16.5385 3.67635L0.602842 11.6452C-0.200947 12.1382 -0.200947 12.9448 0.602842 13.4379L16.5385 23.2114C17.3423 23.7043 18.6576 23.7043 19.4614 23.2114" fill="white"/>
<path d="M34.7382 27.9246C34.7382 25.2261 34.7382 17.1305 34.7382 17.1305C34.7382 17.1305 34.7457 16.6193 34.4423 16.7881C34.1989 16.9235 33.6024 17.256 33.3923 17.4389C33.1496 17.6497 33.2043 18.1231 33.2043 18.1231C33.2043 18.1231 33.2043 25.4742 33.2043 27.9246C33.2043 28.0637 33.0847 28.1301 33.0277 28.1637C32.4768 28.4875 32.1064 29.0853 32.1064 29.7706C32.1064 30.8005 32.9413 31.6355 33.9713 31.6355C35.0012 31.6355 35.836 30.8005 35.836 29.7706C35.836 29.0827 35.4629 28.483 34.9085 28.16C34.8534 28.1279 34.7382 28.0636 34.7382 27.9246Z" fill="white"/>
</g>
<defs>
<clipPath id="clip0_276_4559">
<rect width="36" height="36" fill="white"/>
</clipPath>
</defs>
</svg>
