<svg width="36" height="36" viewBox="0 0 36 36" fill="none" xmlns="http://www.w3.org/2000/svg">
<g clip-path="url(#clip0_203_3900)">
<path d="M18 27.2905C18.8042 27.2905 19.4562 26.6385 19.4562 25.8342C19.4562 25.0299 18.8042 24.3779 18 24.3779C17.1957 24.3779 16.5437 25.0299 16.5437 25.8342C16.5437 26.6385 17.1957 27.2905 18 27.2905Z" fill="white"/>
<path d="M21.9411 20.083C25.3079 20.083 28.0374 17.3817 28.0374 14.0491C28.0374 10.7172 25.3079 8.01562 21.9411 8.01562C18.5738 8.01562 15.8446 10.7172 15.8446 14.0491C15.8445 17.3818 18.5738 20.083 21.9411 20.083Z" fill="white"/>
<path d="M33.632 34.8814L29.5673 24.1374C29.464 23.8648 28.5895 22.0649 26.966 22.0649C26.4525 22.0649 17.5457 22.0784 17.2542 22.0784C17.2542 22.0784 17.2068 22.0784 16.9176 22.0784C15.1004 22.0784 14.4199 23.8648 14.317 24.1374L10.2519 34.8814C10.1486 35.1542 10.2085 35.4926 10.7805 35.4926C10.7805 35.4926 12.9747 35.4926 13.7803 35.4926C14.3268 35.4926 14.497 35.0142 14.497 35.0142L16.4351 29.8142C16.4351 29.8142 16.6788 29.1486 16.6788 29.8706C16.6788 30.8633 16.6918 33.5154 16.6981 34.7898C16.7005 35.2196 16.767 35.4926 17.2745 35.4926C19.9034 35.4926 24.6973 35.4926 27.1714 35.4926C27.8743 35.4926 27.7885 35.1268 27.7869 34.5752C27.7832 33.2301 27.7766 30.7797 27.7766 29.8315C27.7766 29.3439 27.9494 29.6766 27.9494 29.6766L29.7698 34.9331C29.7698 34.9331 29.9434 35.4927 30.5874 35.4927C31.2722 35.4927 33.073 35.4927 33.073 35.4927C33.6643 35.4926 33.7353 35.1542 33.632 34.8814Z" fill="white"/>
<path d="M8.43233 30.6069C7.21671 30.6069 3.56954 30.6069 3.56954 30.6069C3.14752 30.6069 2.80225 30.9522 2.80225 31.3743V34.725C2.80225 35.1471 3.14752 35.4924 3.56954 35.4924C3.56954 35.4924 5.98164 35.4924 6.78575 35.4924C7.42699 35.4924 7.66681 34.6954 7.66681 34.6954L8.94587 31.1871C8.94587 31.187 9.10831 30.6069 8.43233 30.6069Z" fill="white"/>
<path d="M11.1492 23.1509C9.27642 23.1509 3.6583 23.1509 3.6583 23.1509C2.84432 23.1509 2.17842 22.4851 2.17842 21.671V4.43411C2.17842 3.62003 2.84432 2.95413 3.6583 2.95413H32.3417C33.1556 2.95413 33.8216 3.61992 33.8216 4.43411V21.671C33.8216 22.3329 33.3767 22.8832 32.7789 23.0845C32.1697 23.2899 32.3365 23.6955 32.3365 23.6955L34.1603 28.5165C34.1603 28.5165 34.3102 28.9662 34.8171 28.8969C35.4979 28.8038 36 28.1594 36 27.4472V1.98769C36 1.17381 35.334 0.507812 34.52 0.507812H1.47988C0.665892 0.507812 0 1.17381 0 1.98769V12.5905V17.6863V27.4472C0 28.2611 0.665892 28.9271 1.47988 28.9271C1.47988 28.9271 6.99099 28.9271 8.86564 28.9271C9.55888 28.9271 9.77322 28.3868 9.77322 28.3868L11.5672 23.6452C11.5672 23.6453 11.7602 23.1509 11.1492 23.1509Z" fill="white"/>
</g>
<defs>
<clipPath id="clip0_203_3900">
<rect width="36" height="36" fill="white"/>
</clipPath>
</defs>
</svg>
