<svg width="36" height="36" viewBox="0 0 36 36" fill="none" xmlns="http://www.w3.org/2000/svg">
<g clip-path="url(#clip0_276_4554)">
<path d="M35.6207 24.6652L32.2098 21.2539L25.1535 28.3102C23.8939 29.5697 22.313 30.391 20.5958 30.6983L25.0917 35.1942C25.5034 35.6062 26.1714 35.6062 26.5831 35.1942L35.6207 26.1568C36.0327 25.7448 36.0327 25.0769 35.6207 24.6652Z" fill="white"/>
<path d="M30.8202 19.6604C32.0092 18.4716 32.0095 16.5372 30.8219 15.3477C30.8205 15.3463 30.8191 15.3449 30.8178 15.3436C30.5239 15.0499 30.1806 14.8236 29.8068 14.6723C30.1308 13.8524 30.1992 12.466 29.1256 11.392C29.1229 11.3893 29.1201 11.3863 29.1171 11.3835C28.8246 11.0929 28.4834 10.8688 28.1121 10.7183C28.4362 9.899 28.5049 8.51225 27.4318 7.43888C27.431 7.43806 27.4304 7.43751 27.4299 7.43696C27.1357 7.1428 26.7921 6.91594 26.4177 6.7646C26.7418 5.94474 26.8102 4.55799 25.7366 3.48408C25.7363 3.48408 25.7363 3.4838 25.736 3.4838C25.7358 3.48353 25.7355 3.48325 25.7352 3.48298C24.5457 2.29343 22.6104 2.29343 21.4209 3.48298L19.4211 5.48249L20.4436 6.50505C22.1476 8.20903 22.1476 10.9814 20.4439 12.6854C19.8704 13.2586 19.1659 13.6525 18.398 13.8401C18.2142 14.5888 17.8308 15.2985 17.2466 15.8824C16.674 16.4551 15.9706 16.8487 15.2034 17.0365C15.0158 17.8034 14.622 18.5071 14.0496 19.0795C13.4769 19.6521 12.7735 20.0457 12.0064 20.2336C11.8188 21.0004 11.425 21.7041 10.8526 22.2768C10.0272 23.1018 8.92969 23.5567 7.76239 23.5567C6.5951 23.5567 5.49756 23.1021 4.67221 22.2765L3.64966 21.2539L0.238678 24.6652C-0.173309 25.0772 -0.173309 25.7449 0.238678 26.1569L9.27604 35.1942C9.68803 35.6062 10.3557 35.6059 10.7677 35.1942L17.237 28.7252H19.0596C20.7982 28.7252 22.4327 28.0479 23.6621 26.8188L30.8202 19.6604Z" fill="white"/>
<path d="M6.16384 20.7853C7.04659 21.6683 8.47811 21.6683 9.36086 20.7853C10.2439 19.9025 10.2439 18.4713 9.36086 17.5883C10.2439 18.4713 11.6751 18.4713 12.5582 17.5883C13.4409 16.7055 13.4409 15.274 12.5582 14.3912C13.4409 15.274 14.8724 15.274 15.7552 14.3912C16.6379 13.5085 16.6379 12.077 15.7552 11.1942C16.6379 12.077 18.0695 12.077 18.9522 11.1942C19.8352 10.3112 19.8352 8.87993 18.9522 7.99691L14.4445 3.48921C13.5618 2.60646 12.1302 2.60646 11.2475 3.48921C10.3647 4.37196 10.3647 5.80348 11.2475 6.68624L11.8122 7.25121C10.9294 6.36818 9.49791 6.36818 8.61516 7.25121C7.73241 8.13396 7.73241 9.56548 8.61516 10.4482L9.74483 11.5779C8.86208 10.6952 7.43056 10.6952 6.54781 11.5779C5.66478 12.4607 5.66478 13.8922 6.54781 14.7749L7.67748 15.9049C6.79445 15.0218 5.36321 15.0218 4.48018 15.9049C3.59743 16.7876 3.59743 18.2189 4.48018 19.1019L6.16384 20.7853Z" fill="white"/>
<path d="M19.9293 1.99123C20.0853 1.83522 20.2503 1.69185 20.422 1.55864L19.8051 0.941759C19.4843 0.620684 18.9935 0.541307 18.5878 0.744005L15.9846 2.04561L17.9297 3.99102L19.9293 1.99123Z" fill="white"/>
</g>
<defs>
<clipPath id="clip0_276_4554">
<rect width="36" height="36" fill="white"/>
</clipPath>
</defs>
</svg>
