<svg width="56" height="56" viewBox="0 0 56 56" fill="none" xmlns="http://www.w3.org/2000/svg">
<path d="M28 56C43.464 56 56 43.464 56 28C56 12.536 43.464 0 28 0C12.536 0 0 12.536 0 28C0 43.464 12.536 56 28 56Z" fill="#DC5E4F"/>
<path d="M19.7257 15.4049C20.4634 15.4049 21.2019 15.3963 21.9396 15.4066C23.1826 15.4229 24.0172 16.2231 24.0541 17.4548C24.0978 18.9206 24.2908 20.3589 24.7335 21.7604C24.9951 22.5881 24.8553 23.3188 24.2857 24.0058C23.6269 24.8001 23.023 25.6406 22.4226 26.4803C22.3291 26.6107 22.3025 26.8851 22.3754 27.0249C23.8825 29.9162 26.0965 32.1102 28.9821 33.6215C29.1193 33.6935 29.3938 33.6558 29.5259 33.5606C30.4026 32.9276 31.2638 32.2723 32.1182 31.6076C32.692 31.1616 33.3285 31.0184 34.013 31.2216C35.5142 31.6685 37.0393 31.919 38.6082 31.9541C39.7517 31.9798 40.5717 32.8393 40.5854 33.986C40.6043 35.511 40.6052 37.036 40.5854 38.561C40.57 39.7677 39.689 40.6186 38.4633 40.5997C32.0444 40.5002 26.5434 38.193 22.0297 33.6292C18.4853 30.0457 16.3666 25.7195 15.6357 20.7329C15.4796 19.6668 15.4273 18.5792 15.4007 17.5002C15.3698 16.284 16.2439 15.4289 17.4637 15.4066C18.2168 15.3929 18.9717 15.4049 19.7257 15.4049Z" fill="white"/>
</svg>
