<svg width="90" height="90" viewBox="0 0 90 90" fill="none" xmlns="http://www.w3.org/2000/svg">
<g clip-path="url(#clip0_785_9571)">
<path d="M66.1148 80.3065C66.1148 82.9849 65.0301 85.4078 63.2754 87.1607C61.5225 88.9154 59.0978 90.0001 56.4212 90.0001H32.1628C26.8207 90.0001 22.491 85.6829 22.4692 80.3465V80.3065C22.4692 77.6301 23.5539 75.2072 25.3086 73.4524C27.0615 71.6994 29.4864 70.6147 32.1628 70.6147H56.4212C61.776 70.6147 66.1148 74.9535 66.1148 80.3065Z" fill="#F8F6F9"/>
<path d="M45.0018 70.6147V80.3463H22.4692V80.3065C22.4692 77.6301 23.5539 75.2072 25.3086 73.4524C27.0615 71.6994 29.4864 70.6147 32.1628 70.6147H45.0018Z" fill="#DDDAEC"/>
<path d="M76.3495 31.3485C76.3495 14.0353 62.3144 0 45.001 0C27.753 0 13.813 13.805 13.6537 31.0523C13.5438 42.952 20.065 53.3379 29.7465 58.7404C35.1742 61.7693 38.5498 67.4855 38.5498 73.701V73.8955C38.5498 77.4583 41.438 80.3467 45.001 80.3467C48.5638 80.3467 51.4521 77.4584 51.4521 73.8955V73.7017C51.4521 67.456 54.8825 61.7575 60.3283 58.6995C69.8893 53.3306 76.3495 43.0944 76.3495 31.3485V31.3485Z" fill="#DD636E"/>
<path d="M47.7362 79.7384C46.907 80.1296 45.9778 80.3468 45 80.3468C41.4381 80.3468 38.5497 77.4586 38.5497 73.8965V73.7008C38.5497 67.4859 35.1725 61.7689 29.7453 58.7413C20.0644 53.3377 13.5436 42.9523 13.6522 31.0531C13.8117 13.8047 27.7516 0.000488281 45 0.000488281C45.9181 0.000488281 46.8254 0.0403954 47.7236 0.1181C31.7662 1.49446 19.2767 14.7318 19.1263 31.0531C19.0177 42.9523 25.5387 53.3377 35.2195 58.7413C40.6466 61.7691 44.0221 67.4859 44.0221 73.7008V73.8965C44.0221 76.4806 45.5415 78.7098 47.7362 79.7384Z" fill="#DA4A54"/>
<path d="M45.0007 53.1665C57.0505 53.1665 66.8188 43.3982 66.8188 31.3484C66.8188 19.2986 57.0505 9.53027 45.0007 9.53027C32.9509 9.53027 23.1826 19.2986 23.1826 31.3484C23.1826 43.3982 32.9509 53.1665 45.0007 53.1665Z" fill="#F8F6F9"/>
<path d="M49.0364 52.7946C47.729 53.0391 46.3799 53.1676 45.0018 53.1676C32.9523 53.1676 23.1826 43.3999 23.1826 31.3485C23.1826 19.299 32.9523 9.53125 45.0018 9.53125C46.3799 9.53125 47.729 9.65976 49.0364 9.9043C38.9137 11.7966 31.2519 20.6771 31.2519 31.3485C31.2519 42.0218 38.9137 50.9023 49.0364 52.7946Z" fill="#DDDAEC"/>
<path d="M51.3765 31.3488L56.8244 25.9009C57.7437 24.9816 57.7437 23.4912 56.8244 22.5719L53.7774 19.5249C52.8582 18.6056 51.3677 18.6056 50.4486 19.5249L45.0007 24.973L39.5528 19.5249C38.6335 18.6056 37.143 18.6056 36.2238 19.5249L33.1768 22.5719C32.2575 23.4912 32.2575 24.9816 33.1768 25.9009L38.6249 31.3488L33.1768 36.7969C32.2575 37.7162 32.2575 39.2067 33.1768 40.1259L36.2238 43.1729C37.143 44.0922 38.6335 44.0922 39.5528 43.1729L45.0007 37.725L50.4486 43.1729C51.3679 44.0922 52.8583 44.0922 53.7774 43.1729L56.8244 40.1259C57.7437 39.2067 57.7437 37.7162 56.8244 36.7969L51.3765 31.3488Z" fill="#DD636E"/>
</g>
<defs>
<clipPath id="clip0_785_9571">
<rect width="90" height="90" fill="white"/>
</clipPath>
</defs>
</svg>
