<svg width="24" height="24" viewBox="0 0 24 24" fill="none" xmlns="http://www.w3.org/2000/svg">
    <path d="M19.2812 21.375H15.0313C13.875 21.375 12.9375 20.4375 12.9375 19.2812V13.5625C12.9375 13.2188 13.2188 12.9375 13.5625 12.9375H19.2812C20.4375 12.9375 21.375 13.875 21.375 15.0313V19.2812C21.375 20.4375 20.4375 21.375 19.2812 21.375ZM14.1875 14.1875V19.2812C14.1875 19.75 14.5625 20.125 15.0313 20.125H19.2812C19.75 20.125 20.125 19.75 20.125 19.2812V15.0313C20.125 14.5625 19.75 14.1875 19.2812 14.1875H14.1875Z" fill="#7B8799"/>
    <path d="M8.96875 21.375H4.71875C3.5625 21.375 2.625 20.4375 2.625 19.2812V15.0313C2.625 13.875 3.5625 12.9375 4.71875 12.9375H10.4375C10.7812 12.9375 11.0625 13.2188 11.0625 13.5625V19.2812C11.0625 20.4375 10.125 21.375 8.96875 21.375ZM4.71875 14.1875C4.25 14.1875 3.875 14.5625 3.875 15.0313V19.2812C3.875 19.75 4.25 20.125 4.71875 20.125H8.96875C9.4375 20.125 9.8125 19.75 9.8125 19.2812V14.1875H4.71875Z" fill="#7B8799"/>
    <path d="M19.2812 11.0625H13.5625C13.2188 11.0625 12.9375 10.7812 12.9375 10.4375V4.71875C12.9375 3.5625 13.875 2.625 15.0313 2.625H19.2812C20.4375 2.625 21.375 3.5625 21.375 4.71875V8.96875C21.375 10.125 20.4375 11.0625 19.2812 11.0625ZM14.1875 9.8125H19.2812C19.75 9.8125 20.125 9.4375 20.125 8.96875V4.71875C20.125 4.25 19.75 3.875 19.2812 3.875H15.0313C14.5625 3.875 14.1875 4.25 14.1875 4.71875V9.8125Z" fill="#7B8799"/>
    <path d="M10.4375 11.0625H4.71875C3.5625 11.0625 2.625 10.125 2.625 8.96875V4.71875C2.625 3.5625 3.5625 2.625 4.71875 2.625H8.96875C10.125 2.625 11.0625 3.5625 11.0625 4.71875V10.4375C11.0625 10.7812 10.7812 11.0625 10.4375 11.0625ZM4.71875 3.875C4.25 3.875 3.875 4.25 3.875 4.71875V8.96875C3.875 9.4375 4.25 9.8125 4.71875 9.8125H9.8125V4.71875C9.8125 4.25 9.4375 3.875 8.96875 3.875H4.71875Z" fill="#7B8799"/>
</svg>
