<svg width="56" height="56" viewBox="0 0 56 56" fill="none" xmlns="http://www.w3.org/2000/svg">
<path d="M28 56C43.464 56 56 43.464 56 28C56 12.536 43.464 0 28 0C12.536 0 0 12.536 0 28C0 43.464 12.536 56 28 56Z" fill="#DC5E4F"/>
<path d="M21.5713 39.25C21.4532 39.25 21.3342 39.2235 21.2226 39.1705C20.9453 39.0363 20.7677 38.7559 20.7677 38.4465V34.4286H18.357C17.0279 34.4286 15.9463 33.347 15.9463 32.0179V19.1607C15.9463 17.8316 17.0279 16.75 18.357 16.75H37.6428C38.9719 16.75 40.0535 17.8316 40.0535 19.1607V32.0179C40.0535 33.347 38.9719 34.4286 37.6428 34.4286H27.8802L22.0735 39.0741C21.9281 39.1906 21.7505 39.25 21.5713 39.25ZM18.357 18.3571C17.9134 18.3571 17.5534 18.718 17.5534 19.1607V32.0179C17.5534 32.4607 17.9134 32.8215 18.357 32.8215H21.5713C22.0157 32.8215 22.3749 33.1807 22.3749 33.625V36.775L27.0959 32.9974C27.2389 32.8833 27.4149 32.8215 27.5981 32.8215H37.6428C38.0863 32.8215 38.4463 32.4607 38.4463 32.0179V19.1607C38.4463 18.718 38.0863 18.3571 37.6428 18.3571H18.357Z" fill="white"/>
<path d="M34.4286 24.7857H21.5714C21.127 24.7857 20.7678 24.4257 20.7678 23.9821C20.7678 23.5386 21.127 23.1786 21.5714 23.1786H34.4286C34.8729 23.1786 35.2321 23.5386 35.2321 23.9821C35.2321 24.4257 34.8729 24.7857 34.4286 24.7857Z" fill="white"/>
<path d="M28 28H21.5714C21.127 28 20.7678 27.64 20.7678 27.1965C20.7678 26.7529 21.127 26.3929 21.5714 26.3929H28C28.4444 26.3929 28.8036 26.7529 28.8036 27.1965C28.8036 27.64 28.4444 28 28 28Z" fill="white"/>
</svg>
