<svg width="24" height="24" viewBox="0 0 24 24" fill="none" xmlns="http://www.w3.org/2000/svg">
<g clip-path="url(#clip0_3157_13346)">
<path d="M10.7489 2C5.92576 2 2 5.19585 2 9.12411C2 11.1139 2.99987 12.9799 4.7659 14.3222C4.20472 15.1946 3.42732 16.1557 2.47494 16.392C2.17373 16.4669 1.9725 16.7519 2.00375 17.0606C2.03375 17.3706 2.28871 17.6093 2.59867 17.623C2.61367 17.623 2.66867 17.6255 2.7574 17.6255C3.40607 17.6255 5.89951 17.5218 8.72791 16.0545C9.37283 16.1832 10.0515 16.2482 10.7489 16.2482C15.572 16.2482 19.4978 13.0524 19.4978 9.12411C19.4978 5.19585 15.572 2 10.7489 2ZM10.7489 14.9984C10.0615 14.9984 9.39782 14.9271 8.77415 14.7859C8.62792 14.7522 8.47294 14.7734 8.3392 14.8459C7.12936 15.4983 5.97075 15.8733 5.01837 16.0882C5.45957 15.5733 5.82827 14.9984 6.14198 14.4672C6.31196 14.1797 6.22447 13.8098 5.94576 13.6273C4.23222 12.5049 3.24984 10.8639 3.24984 9.12411C3.24984 5.88451 6.61317 3.24984 10.7489 3.24984C14.8846 3.24984 18.248 5.88451 18.248 9.12411C18.248 12.3625 14.8846 14.9984 10.7489 14.9984Z" fill="#7B8799"/>
<path d="M21.5271 20.7552C20.8122 20.5739 20.121 19.9977 19.4699 19.0391C21.0847 17.7893 21.9983 16.0682 21.9983 14.236C21.9983 13.3673 21.7908 12.5112 21.3821 11.6938C21.2272 11.3838 20.8485 11.2626 20.5435 11.4151C20.2348 11.5701 20.1098 11.945 20.2635 12.2537C20.5847 12.8961 20.7485 13.5623 20.7485 14.236C20.7485 15.8208 19.8486 17.3206 18.28 18.3505C18.0001 18.5329 17.9151 18.9041 18.0863 19.1916C18.395 19.7128 18.7137 20.1615 19.0462 20.5389C18.1975 20.3627 17.1814 20.044 16.1203 19.4728C15.9891 19.4016 15.8341 19.3816 15.6891 19.4128C13.1769 19.9653 10.471 19.3116 8.77622 17.8168C8.515 17.5868 8.1213 17.613 7.89383 17.8718C7.66511 18.1305 7.6901 18.5254 7.94882 18.7542C9.88733 20.4614 12.8957 21.2313 15.7316 20.6802C18.0063 21.85 20.0498 22 20.9509 22C21.2372 22 21.4071 21.985 21.4346 21.9825C21.7371 21.9538 21.9758 21.7113 21.9983 21.4088C22.0208 21.1051 21.8221 20.8301 21.5271 20.7552Z" fill="#7B8799"/>
</g>
<defs>
<clipPath id="clip0_3157_13346">
<rect width="20" height="20" fill="white" transform="translate(2 2)"/>
</clipPath>
</defs>
</svg>
