<svg width="38" height="38" viewBox="0 0 38 38" fill="none" xmlns="http://www.w3.org/2000/svg">
<rect width="38" height="38" rx="5" fill="#DCDADA"/>
<path d="M14.592 28.652C23.5524 28.652 28.4582 21.2268 28.4582 14.7858C28.4582 14.5768 28.4582 14.364 28.443 14.155C29.3968 13.4634 30.2214 12.6122 30.875 11.6318C29.9858 12.027 29.0434 12.2854 28.0782 12.3994C29.0966 11.7914 29.8566 10.8338 30.2214 9.70517C29.2638 10.2714 28.2188 10.6742 27.1282 10.887C25.2814 8.92617 22.1958 8.83117 20.235 10.6742C18.9696 11.8636 18.4338 13.6382 18.8252 15.3292C14.9074 15.1316 11.2556 13.281 8.78177 10.2372C7.48977 12.464 8.14717 15.3102 10.2904 16.7428C9.51517 16.72 8.75517 16.511 8.07877 16.1348C8.07877 16.1538 8.07877 16.1766 8.07877 16.1956C8.07877 18.5136 9.71277 20.5124 11.989 20.9722C11.2708 21.166 10.5184 21.1964 9.78877 21.0558C10.4272 23.0394 12.255 24.3998 14.3412 24.4416C12.616 25.7982 10.4842 26.5354 8.29157 26.5316C7.90397 26.5316 7.51637 26.5088 7.13257 26.4594C9.35177 27.892 11.9472 28.652 14.592 28.6482" fill="white"/>
</svg>
