<svg width="20" height="20" viewBox="0 0 20 20" fill="none" xmlns="http://www.w3.org/2000/svg">
    <path fill-rule="evenodd" clip-rule="evenodd" d="M3.30931 1.66675C2.40201 1.66675 1.6665 2.41294 1.6665 3.33341V16.6667C1.6665 17.5872 2.40201 18.3334 3.30931 18.3334H16.4518C17.3591 18.3334 18.0946 17.5872 18.0946 16.6667V13.3334C18.0946 12.8732 17.7268 12.5001 17.2732 12.5001C16.8195 12.5001 16.4518 12.8732 16.4518 13.3334V16.6667H3.30931V3.33341H9.88055C10.3342 3.33341 10.702 2.96032 10.702 2.50008C10.702 2.03984 10.3342 1.66675 9.88055 1.66675H3.30931ZM16.5072 2.40324C15.869 1.85441 14.9262 1.87985 14.3176 2.46232L6.12385 10.3048C5.92323 10.4968 5.77349 10.737 5.68845 11.0032L5.08762 12.8836C4.6475 14.2611 6.02902 15.5135 7.32889 14.9154L9.25549 14.029C9.42071 13.953 9.57237 13.8497 9.70432 13.7234L17.8177 5.95787C18.5303 5.27587 18.4999 4.1168 17.7526 3.47419L16.5072 2.40324ZM15.445 3.67462L16.6904 4.74557L8.57698 12.5111L6.65037 13.3975L7.2512 11.5171L15.445 3.67462Z" fill="#FFFFFF"/>
</svg>
