<svg width="22" height="15" viewBox="0 0 22 15" fill="none" xmlns="http://www.w3.org/2000/svg">
<path fill-rule="evenodd" clip-rule="evenodd" d="M2 7.93298C2 7.89633 2.01754 7.75941 2.1326 7.5068C2.24213 7.26633 2.41576 6.97404 2.65807 6.64446C3.14242 5.98568 3.85554 5.23981 4.73184 4.53807C6.50385 3.11904 8.78933 1.99996 11.0046 1.99996C13.2236 1.99996 15.5076 3.1052 17.2745 4.51374C18.1487 5.21069 18.8593 5.95327 19.3417 6.61327C19.8602 7.32265 20 7.77937 20 7.93298C20 8.06176 19.8808 8.45705 19.3719 9.07614C18.8989 9.6516 18.1957 10.2895 17.3224 10.8846C15.5654 12.0821 13.2619 13.0117 11.0099 12.9999C8.75451 12.988 6.44504 12.0409 4.6823 10.8392C3.80624 10.242 3.10037 9.60537 2.62551 9.03499C2.11086 8.4168 2 8.03667 2 7.93298ZM11.0046 -4.48227e-05C8.16511 -4.48227e-05 5.44828 1.40209 3.48169 2.97694C2.48868 3.77213 1.64842 4.64136 1.04671 5.45976C0.745996 5.86877 0.493429 6.28059 0.312521 6.67775C0.137144 7.06277 0 7.49699 0 7.93298C0 8.77458 0.511959 9.62215 1.08846 10.3146C1.70477 11.0549 2.55842 11.8119 3.55575 12.4918C5.5398 13.8443 8.23263 14.9853 10.9994 14.9999C13.7694 15.0144 16.4636 13.8902 18.4487 12.5373C19.4465 11.8574 20.3006 11.096 20.917 10.3462C21.4975 9.6399 22 8.78376 22 7.93298C22 7.10704 21.5223 6.20735 20.9564 5.43313C20.3544 4.60951 19.514 3.74128 18.5212 2.94987C16.5541 1.38167 13.8404 -4.48227e-05 11.0046 -4.48227e-05ZM11 11C12.933 11 14.5 9.43295 14.5 7.49996C14.5 5.56696 12.933 3.99996 11 3.99996C9.067 3.99996 7.5 5.56696 7.5 7.49996C7.5 9.43295 9.067 11 11 11ZM12.5 7.49996C12.5 8.32838 11.8284 8.99996 11 8.99996C10.1716 8.99996 9.5 8.32838 9.5 7.49996C9.5 6.67153 10.1716 5.99996 11 5.99996C11.8284 5.99996 12.5 6.67153 12.5 7.49996Z" fill="#DCDADA"/>
</svg>
