<svg width="36" height="36" viewBox="0 0 36 36" fill="none" xmlns="http://www.w3.org/2000/svg">
<rect width="36" height="36" rx="4" fill="#FFF7FF"/>
<path fill-rule="evenodd" clip-rule="evenodd" d="M28 11C28 11.5523 27.5523 12 27 12L9 12C8.44772 12 8 11.5523 8 11C8 10.4477 8.44772 10 9 10H27C27.5523 10 28 10.4477 28 11ZM28 18C28 18.5523 27.5523 19 27 19L9 19C8.44772 19 8 18.5523 8 18C8 17.4477 8.44772 17 9 17L27 17C27.5523 17 28 17.4477 28 18ZM27 26C27.5523 26 28 25.5523 28 25C28 24.4477 27.5523 24 27 24L9 24C8.44772 24 8 24.4477 8 25C8 25.5523 8.44772 26 9 26L27 26Z" fill="#E739EB"/>
</svg>
