<svg width="24" height="24" viewBox="0 0 24 24" fill="none" xmlns="http://www.w3.org/2000/svg">
<path fill-rule="evenodd" clip-rule="evenodd" d="M20.5147 10.8291L13.1709 3.4856C12.8579 3.17249 12.4418 3 11.9992 3C11.5566 3 11.1405 3.17235 10.8274 3.48546L3.48864 10.8241L3.48122 10.8316C2.83852 11.478 2.83962 12.5268 3.48438 13.1716C3.77895 13.4663 4.168 13.637 4.58397 13.6548C4.60086 13.6565 4.61789 13.6573 4.63506 13.6573H4.92771V19.0608C4.92771 20.13 5.79769 21 6.86721 21H9.73986C10.031 21 10.2672 20.7639 10.2672 20.4727V16.2363C10.2672 15.7484 10.6641 15.3515 11.152 15.3515H12.8464C13.3343 15.3515 13.7312 15.7484 13.7312 16.2363V20.4727C13.7312 20.7639 13.9673 21 14.2585 21H17.1312C18.2007 21 19.0707 20.13 19.0707 19.0608V13.6573H19.342C19.7845 13.6573 20.2006 13.4849 20.5139 13.1718C21.1593 12.526 21.1596 11.4754 20.5147 10.8291ZM19.6297 12.2882C19.7875 12.1303 19.7877 11.8702 19.6299 11.7121L12.287 4.3695C12.2084 4.29079 12.11 4.25 11.9992 4.25C11.8882 4.25 11.79 4.29061 11.7112 4.36934L4.37689 11.7036L4.37602 11.7045L4.36764 11.7129C4.2104 11.8711 4.21097 12.1304 4.36826 12.2877C4.44107 12.3605 4.53378 12.4015 4.63757 12.406L4.66837 12.4073H6.17771V19.0608C6.17771 19.4395 6.48793 19.75 6.86721 19.75H9.0172V16.2363C9.0172 15.058 9.97372 14.1015 11.152 14.1015H12.8464C14.0247 14.1015 14.9812 15.058 14.9812 16.2363V19.75H17.1312C17.5105 19.75 17.8207 19.4395 17.8207 19.0608V12.4073H19.342C19.4526 12.4073 19.5508 12.3669 19.6297 12.2882ZM4.63506 12.4073C4.63588 12.4073 4.63669 12.4073 4.63751 12.4073L4.63506 12.4073Z" fill="#DC5E4F"/>
</svg>
