<svg width="24" height="24" viewBox="0 0 24 24" fill="none" xmlns="http://www.w3.org/2000/svg">
<path fill-rule="evenodd" clip-rule="evenodd" d="M16.003 4C15.4538 4 15.0086 4.44697 15.0086 4.99834C15.0086 5.5497 15.4538 5.99668 16.003 5.99668H18.0112L18.0112 18.0033H16.003C15.4538 18.0033 15.0086 18.4503 15.0086 19.0017C15.0086 19.553 15.4538 20 16.003 20H18.0112C19.1096 20 20 19.1061 20 18.0033V5.99668C20 4.89394 19.1096 4 18.0112 4H16.003ZM10.5199 15.2502L12.8 12.9611H4.99441C4.44522 12.9611 4 12.5141 4 11.9628C4 11.4114 4.44522 10.9644 4.99442 10.9644H12.8L10.5199 8.67533C10.1315 8.28546 10.1315 7.65335 10.5199 7.26347C10.9082 6.8736 11.5378 6.8736 11.9262 7.26347L15.2007 10.5509C15.9774 11.3306 15.9774 12.5949 15.2007 13.3746L11.9262 16.662C11.5378 17.0519 10.9082 17.0519 10.5199 16.662C10.1315 16.2722 10.1315 15.64 10.5199 15.2502Z" fill="white"/>
</svg>
