<svg width="55" height="55" viewBox="0 0 55 55" fill="none" xmlns="http://www.w3.org/2000/svg">
<rect width="55" height="55" rx="10" fill="url(#paint0_linear_157_4327)"/>
<path d="M27.5 12.111C32.5105 12.111 33.1045 12.1275 35.0845 12.221C36.916 12.3035 37.9115 12.6115 38.5715 12.87C39.446 13.211 40.073 13.618 40.7275 14.2725C41.382 14.927 41.789 15.554 42.13 16.4285C42.3885 17.0885 42.691 18.084 42.779 19.9155C42.867 21.8955 42.889 22.4895 42.889 27.5C42.889 32.5105 42.8725 33.1045 42.779 35.0845C42.6965 36.916 42.3885 37.9115 42.13 38.5715C41.789 39.446 41.382 40.073 40.7275 40.7275C40.073 41.382 39.446 41.789 38.5715 42.13C37.9115 42.3885 36.916 42.691 35.0845 42.779C33.1045 42.867 32.5105 42.889 27.5 42.889C22.4895 42.889 21.8955 42.8725 19.9155 42.779C18.084 42.6965 17.0885 42.3885 16.4285 42.13C15.554 41.789 14.927 41.382 14.2725 40.7275C13.618 40.073 13.211 39.446 12.87 38.5715C12.6115 37.9115 12.309 36.916 12.221 35.0845C12.133 33.1045 12.111 32.5105 12.111 27.5C12.111 22.4895 12.1275 21.8955 12.221 19.9155C12.3035 18.084 12.6115 17.0885 12.87 16.4285C13.211 15.554 13.618 14.927 14.2725 14.2725C14.927 13.618 15.554 13.211 16.4285 12.87C17.0885 12.6115 18.084 12.309 19.9155 12.221C21.8955 12.1275 22.4895 12.111 27.5 12.111ZM27.5 8.72852C22.4015 8.72852 21.7635 8.75052 19.7615 8.84402C17.765 8.93752 16.401 9.25102 15.202 9.71852C13.97 10.1915 12.9195 10.835 11.88 11.88C10.835 12.925 10.197 13.97 9.71302 15.2075C9.25102 16.401 8.93202 17.765 8.83852 19.767C8.74502 21.769 8.72302 22.407 8.72302 27.5055C8.72302 32.604 8.74502 33.242 8.83852 35.244C8.93202 37.2405 9.24552 38.6045 9.71302 39.8035C10.1915 41.03 10.835 42.0805 11.88 43.12C12.925 44.165 13.97 44.803 15.2075 45.287C16.401 45.749 17.765 46.068 19.767 46.1615C21.769 46.255 22.407 46.277 27.5055 46.277C32.604 46.277 33.242 46.255 35.244 46.1615C37.2405 46.068 38.6045 45.7545 39.8035 45.287C41.03 44.8085 42.0805 44.165 43.12 43.12C44.165 42.075 44.803 41.03 45.287 39.7925C45.749 38.599 46.068 37.235 46.1615 35.233C46.255 33.231 46.277 32.593 46.277 27.4945C46.277 22.396 46.255 21.758 46.1615 19.756C46.068 17.7595 45.7545 16.3955 45.287 15.1965C44.8085 13.97 44.165 12.9195 43.12 11.88C42.075 10.835 41.03 10.197 39.7925 9.71302C38.599 9.25102 37.235 8.93202 35.233 8.83852C33.2365 8.75052 32.5985 8.72852 27.5 8.72852Z" fill="white"/>
<path d="M27.5 17.8594C22.176 17.8594 17.8585 22.1769 17.8585 27.5009C17.8585 32.8249 22.176 37.1424 27.5 37.1424C32.824 37.1424 37.1415 32.8249 37.1415 27.5009C37.1415 22.1769 32.824 17.8594 27.5 17.8594ZM27.5 33.7599C24.046 33.7599 21.241 30.9604 21.241 27.5009C21.241 24.0414 24.046 21.2419 27.5 21.2419C30.954 21.2419 33.759 24.0414 33.759 27.5009C33.759 30.9604 30.954 33.7599 27.5 33.7599Z" fill="white"/>
<path d="M37.521 19.7346C38.7664 19.7346 39.776 18.725 39.776 17.4796C39.776 16.2342 38.7664 15.2246 37.521 15.2246C36.2756 15.2246 35.266 16.2342 35.266 17.4796C35.266 18.725 36.2756 19.7346 37.521 19.7346Z" fill="white"/>
<defs>
<linearGradient id="paint0_linear_157_4327" x1="8.05456" y1="46.9454" x2="46.9454" y2="8.05456" gradientUnits="userSpaceOnUse">
<stop stop-color="#FFD521"/>
<stop offset="0.0551048" stop-color="#FFD020"/>
<stop offset="0.1241" stop-color="#FEC01E"/>
<stop offset="0.2004" stop-color="#FCA71B"/>
<stop offset="0.2821" stop-color="#FA8316"/>
<stop offset="0.3681" stop-color="#F85510"/>
<stop offset="0.4563" stop-color="#F51E09"/>
<stop offset="0.5" stop-color="#F30005"/>
<stop offset="0.5035" stop-color="#F20007"/>
<stop offset="0.5966" stop-color="#E1003B"/>
<stop offset="0.6879" stop-color="#D30067"/>
<stop offset="0.7757" stop-color="#C70088"/>
<stop offset="0.8589" stop-color="#BF00A0"/>
<stop offset="0.9357" stop-color="#BB00AF"/>
<stop offset="1" stop-color="#B900B4"/>
</linearGradient>
</defs>
</svg>
