<svg width="24" height="25" viewBox="0 0 24 25" fill="none" xmlns="http://www.w3.org/2000/svg">
<rect y="0.632812" width="24" height="24" rx="3" fill="#F7F7F7"/>
<path fill-rule="evenodd" clip-rule="evenodd" d="M5.61533 11.8442C5.17977 11.8442 4.82667 12.1972 4.82667 12.6328C4.82667 13.0684 5.17977 13.4215 5.61533 13.4215L11.136 13.4215L11.136 18.9421C11.136 19.3777 11.4891 19.7308 11.9246 19.7308C12.3602 19.7308 12.7133 19.3777 12.7133 18.9421L12.7133 13.4215H18.2339C18.6695 13.4215 19.0226 13.0684 19.0226 12.6328C19.0226 12.1972 18.6695 11.8442 18.2339 11.8442H12.7133L12.7133 6.32353C12.7133 5.88796 12.3602 5.53487 11.9246 5.53487C11.4891 5.53487 11.136 5.88796 11.136 6.32353L11.136 11.8442L5.61533 11.8442Z" fill="#A6B3C6"/>
</svg>
