<svg width="20" height="20" viewBox="0 0 20 20" fill="none" xmlns="http://www.w3.org/2000/svg">
<path fill-rule="evenodd" clip-rule="evenodd" d="M4.72233 3.56766C4.3993 3.24962 3.88161 3.25602 3.56603 3.58194C3.25046 3.90787 3.2565 4.42991 3.57954 4.74795L8.91393 9.99992L3.57954 15.2519C3.2565 15.5699 3.25046 16.092 3.56603 16.4179C3.88161 16.7438 4.3993 16.7502 4.72233 16.4322L10.0847 11.1526L15.2775 16.2652C15.6005 16.5832 16.1182 16.5768 16.4338 16.2509C16.7494 15.925 16.7433 15.4029 16.4203 15.0849L11.2555 9.99992L16.4203 4.91495C16.7433 4.59691 16.7494 4.07487 16.4338 3.74894C16.1182 3.42302 15.6005 3.41662 15.2775 3.73466L10.0847 8.84721L4.72233 3.56766Z" fill="#B3ABAB"/>
</svg>
