<svg width="24" height="24" viewBox="0 0 24 24" fill="none" xmlns="http://www.w3.org/2000/svg">
<path fill-rule="evenodd" clip-rule="evenodd" d="M4 12C4 7.58172 7.58172 4 12 4C16.4183 4 20 7.58172 20 12C20 16.4183 16.4183 20 12 20C7.58172 20 4 16.4183 4 12ZM12 2C6.47715 2 2 6.47715 2 12C2 17.5228 6.47715 22 12 22C17.5228 22 22 17.5228 22 12C22 6.47715 17.5228 2 12 2ZM8.1802 6.42757C8.49639 5.97475 9.11979 5.864 9.57261 6.1802L12.0001 7.87527L14.4276 6.1802C14.8804 5.864 15.5038 5.97475 15.82 6.42757C16.1362 6.88038 16.0254 7.50379 15.5726 7.81998L13.1451 9.51505C13.0978 9.54811 13.0494 9.5789 13 9.6074L13.0001 9.61867V9.86485H15.0001C15.5524 9.86485 16.0001 10.3126 16.0001 10.8649C16.0001 11.4171 15.5524 11.8649 15.0001 11.8649H13.0001V13.1561H15.0001C15.5524 13.1561 16.0001 13.6038 16.0001 14.1561C16.0001 14.7084 15.5524 15.1561 15.0001 15.1561H13.0001V17.9981C13.0001 18.5504 12.5524 18.9981 12.0001 18.9981C11.4478 18.9981 11.0001 18.5504 11.0001 17.9981V15.1561H9.00009C8.4478 15.1561 8.00009 14.7084 8.00009 14.1561C8.00009 13.6038 8.4478 13.1561 9.00009 13.1561H11.0001V11.8649H9.00009C8.4478 11.8649 8.00009 11.4171 8.00009 10.8649C8.00009 10.3126 8.4478 9.86485 9.00009 9.86485H11.0001V9.61867L11.0001 9.6074C10.9508 9.5789 10.9024 9.54811 10.855 9.51505L8.42757 7.81998C7.97475 7.50379 7.864 6.88038 8.1802 6.42757Z" fill="#38B4B8"/>
</svg>
