<svg width="24" height="24" viewBox="0 0 24 24" fill="none" xmlns="http://www.w3.org/2000/svg">
<path fill-rule="evenodd" clip-rule="evenodd" d="M15.5194 4L5 4.00001V20L8 20V15C8 13.8954 8.89543 13 10 13H14C15.1046 13 16 13.8954 16 15V20L19 20V8.35079L15.5194 4ZM14 20V15H10V20H14ZM5 2.00001L15.5194 2C16.1269 2 16.7016 2.27618 17.0811 2.75061L20.5617 7.1014C20.8454 7.45603 21 7.89665 21 8.35079V20C21 21.1046 20.1046 22 19 22H5C3.89543 22 3 21.1046 3 20V4.00001C3 2.89544 3.89543 2.00001 5 2.00001Z" fill="#38B4B8"/>
</svg>
