<svg width="32" height="32" viewBox="0 0 32 32" fill="none" xmlns="http://www.w3.org/2000/svg">
<path fill-rule="evenodd" clip-rule="evenodd" d="M8.00004 2.6665C6.52728 2.6665 5.33337 3.86041 5.33337 5.33317V26.6665C5.33337 28.1393 6.52728 29.3332 8.00004 29.3332H24C25.4728 29.3332 26.6667 28.1393 26.6667 26.6665V5.33317C26.6667 3.86041 25.4728 2.6665 24 2.6665H8.00004ZM8.00004 5.33317L24 5.33317V26.6665H8.00004V5.33317ZM12 9.33317C11.2637 9.33317 10.6667 9.93012 10.6667 10.6665C10.6667 11.4029 11.2637 11.9998 12 11.9998H14.6667C15.4031 11.9998 16 11.4029 16 10.6665C16 9.93012 15.4031 9.33317 14.6667 9.33317H12ZM10.6667 15.9998C10.6667 15.2635 11.2637 14.6665 12 14.6665H17.3334C18.0698 14.6665 18.6667 15.2635 18.6667 15.9998C18.6667 16.7362 18.0698 17.3332 17.3334 17.3332H12C11.2637 17.3332 10.6667 16.7362 10.6667 15.9998ZM12 19.9998C11.2637 19.9998 10.6667 20.5968 10.6667 21.3332C10.6667 22.0696 11.2637 22.6665 12 22.6665H20C20.7364 22.6665 21.3334 22.0696 21.3334 21.3332C21.3334 20.5968 20.7364 19.9998 20 19.9998H12Z" fill="white"/>
</svg>
