<svg width="24" height="24" viewBox="0 0 24 24" fill="none" xmlns="http://www.w3.org/2000/svg">
<path fill-rule="evenodd" clip-rule="evenodd" d="M12 7.87163L10.4775 6.43398L10.4647 6.42154C9.67518 5.64896 8.61631 5.21351 7.51177 5.20703C6.44945 5.20828 5.4308 5.63035 4.67888 6.38096C3.92623 7.13229 3.50229 8.15144 3.5 9.21486C3.5002 10.499 3.71158 11.2554 4.37123 12.1587C5.14619 13.2199 6.55344 14.4966 9.22213 16.6054L12 18.7616L14.7779 16.6054C17.4466 14.4966 18.8538 13.2199 19.6288 12.1587C20.2885 11.2553 20.4998 10.4988 20.5 9.21459C20.4976 8.15125 20.0737 7.13221 19.3211 6.38095C18.5692 5.63036 17.5505 5.20828 16.4882 5.20703C15.3837 5.21351 14.3248 5.64896 13.5353 6.42154L13.5225 6.43398L12 7.87163ZM16.4835 3.20703C18.0773 3.20703 19.6061 3.83947 20.7341 4.96551C21.8621 6.09155 22.4972 7.61918 22.5 9.21303C22.5 12.447 21.3135 13.9905 16.011 18.18L13.2263 20.3415C12.5047 20.9016 11.4953 20.9016 10.7737 20.3415L7.989 18.18C2.6865 13.9905 1.5 12.447 1.5 9.21303C1.50278 7.61918 2.13789 6.09155 3.2659 4.96551C4.39391 3.83947 5.92264 3.20703 7.5165 3.20703C9.14236 3.21475 10.7014 3.85493 11.8635 4.99203L12 5.12092L12.1365 4.99203C13.2986 3.85493 14.8576 3.21475 16.4835 3.20703Z" fill="#38B4B8"/>
</svg>
