<svg width="18" height="18" viewBox="0 0 18 18" fill="none" xmlns="http://www.w3.org/2000/svg">
<path fill-rule="evenodd" clip-rule="evenodd" d="M13.9993 8.16699C13.9993 11.3887 11.3877 14.0003 8.16602 14.0003C4.94436 14.0003 2.33268 11.3887 2.33268 8.16699C2.33268 4.94533 4.94436 2.33366 8.16602 2.33366C11.3877 2.33366 13.9993 4.94533 13.9993 8.16699ZM12.8474 14.0269C11.5644 15.0533 9.93686 15.667 8.16602 15.667C4.02388 15.667 0.666016 12.3091 0.666016 8.16699C0.666016 4.02486 4.02388 0.666992 8.16602 0.666992C12.3082 0.666992 15.666 4.02486 15.666 8.16699C15.666 9.93784 15.0523 11.5653 14.0259 12.8484L17.0886 15.9111C17.414 16.2365 17.414 16.7641 17.0886 17.0896C16.7632 17.415 16.2355 17.415 15.9101 17.0896L12.8474 14.0269Z" fill="#38B4B8"/>
</svg>
