<svg width="32" height="32" viewBox="0 0 32 32" fill="none" xmlns="http://www.w3.org/2000/svg">
<path fill-rule="evenodd" clip-rule="evenodd" d="M16 18.6665C20.4182 18.6665 24 15.0848 24 10.6665C24 6.24823 20.4182 2.6665 16 2.6665C11.5817 2.6665 7.99996 6.24823 7.99996 10.6665C7.99996 15.0848 11.5817 18.6665 16 18.6665ZM21.3333 10.6665C21.3333 13.612 18.9455 15.9998 16 15.9998C13.0544 15.9998 10.6666 13.612 10.6666 10.6665C10.6666 7.72099 13.0544 5.33317 16 5.33317C18.9455 5.33317 21.3333 7.72099 21.3333 10.6665ZM9.33329 24.6665C9.33329 24.6627 9.33334 24.6392 9.35563 24.5894C9.37927 24.5365 9.42886 24.453 9.52803 24.3452C9.73195 24.1235 10.0976 23.8517 10.6763 23.5886C11.8313 23.0636 13.6309 22.6665 16 22.6665C18.369 22.6665 20.1686 23.0636 21.3236 23.5886C21.9023 23.8517 22.268 24.1235 22.4719 24.3452C22.5711 24.453 22.6206 24.5365 22.6443 24.5894C22.6666 24.6392 22.6666 24.6627 22.6666 24.6665L22.6666 27.2707V27.8306V27.9591V27.9899V27.9974V27.9992V27.9997V27.9998V27.9998C22.6666 28.7362 23.2636 29.3332 24 29.3332C24.7363 29.3332 25.3333 28.7362 25.3333 27.9998V27.9998V27.9997V27.9992V27.9974V27.9899V27.9591V27.8306L25.3333 27.2707V24.6665C25.3333 22.9976 23.9055 21.8331 22.4272 21.161C20.8325 20.4361 18.6321 19.9998 16 19.9998C13.3679 19.9998 11.1675 20.4361 9.57275 21.161C8.09444 21.8331 6.66663 22.9976 6.66663 24.6665V24.6763V24.686V24.6958V24.7056V24.7153V24.7251V24.7349V24.7446V24.7544V24.7642V24.7739V24.7837V24.7934V24.8032V24.8129V24.8227V24.8325V24.8422V24.852V24.8617V24.8715V24.8812V24.891V24.9007V24.9105V24.9202V24.9299V24.9397V24.9494V24.9591V24.9689V24.9786V24.9883V24.998V25.0078V25.0175V25.0272V25.0369V25.0466V25.0563V25.066V25.0757V25.0854V25.0951V25.1048V25.1145V25.1242V25.1339V25.1436V25.1532V25.1629V25.1726V25.1822V25.1919V25.2015V25.2112V25.2208V25.2305V25.2401V25.2498V25.2594V25.269V25.2786V25.2882V25.2979V25.3075V25.3171V25.3267V25.3363V25.3458V25.3554V25.365V25.3746V25.3841V25.3937V25.4032V25.4128V25.4223V25.4319V25.4414V25.4509V25.4604V25.47V25.4795V25.489V25.4984V25.5079V25.5174V25.5269V25.5364V25.5458V25.5553V25.5647V25.5742V25.5836V25.593V25.6024V25.6118V25.6213V25.6306V25.64V25.6494V25.6588V25.6682V25.6775V25.6869V25.6962V25.7055V25.7149V25.7242V25.7335V25.7428V25.7521V25.7614V25.7707V25.7799V25.7892V25.7984V25.8077V25.8169V25.8261V25.8354V25.8446V25.8538V25.863V25.8721V25.8813V25.8905V25.8996V25.9088V25.9179V25.927V25.9361V25.9452V25.9543V25.9634V25.9725V25.9815V25.9906V25.9996V26.0086V26.0177V26.0267V26.0357V26.0447V26.0536V26.0626V26.0716V26.0805V26.0894V26.0984V26.1073V26.1162V26.1251V26.1339V26.1428V26.1517V26.1605V26.1693V26.1781V26.1869V26.1957V26.2045V26.2133V26.2221V26.2308V26.2395V26.2482V26.257V26.2657V26.2743V26.283V26.2917V26.3003V26.3089V26.3176V26.3262V26.3348V26.3433V26.3519V26.3604V26.369V26.3775V26.386V26.3945V26.403V26.4115V26.4199V26.4284V26.4368V26.4452V26.4536V26.462V26.4704V26.4787V26.4871V26.4954V26.5037V26.512V26.5203V26.5286V26.5368V26.545V26.5533V26.5615V26.5697V26.5778V26.586V26.5942V26.6023V26.6104V26.6185V26.6266V26.6346V26.6427V26.6507V26.6588V26.6668V26.6747V26.6827V26.6907V26.6986V26.7065V26.7144V26.7223V26.7302V26.7381V26.7459V26.7537V26.7615V26.7693V26.7771V26.7848V26.7926V26.8003V26.808V26.8157V26.8233V26.831V26.8386V26.8462V26.8538V26.8614V26.8689V26.8765V26.884V26.8915V26.899V26.9064V26.9139V26.9213V26.9287V26.9361V26.9435V26.9508V26.9582V26.9655V26.9728V26.9801V26.9873V26.9946V27.0018V27.009V27.0161V27.0233V27.0304V27.0376V27.0447V27.0517V27.0588V27.0658V27.0729V27.0799V27.0868V27.0938V27.1007V27.1077V27.1146V27.1214V27.1283V27.1351V27.1419V27.1487V27.1555V27.1623V27.169V27.1757V27.1824V27.189V27.1957V27.2023V27.2089V27.2155V27.222V27.2286V27.2351V27.2416V27.248V27.2545V27.2609V27.2673V27.2737V27.2801V27.2864V27.2927V27.299V27.3053V27.3115V27.3177V27.3239V27.3301V27.3362V27.3424V27.3485V27.3546V27.3606V27.3666V27.3727V27.3786V27.3846V27.3905V27.3965V27.4023V27.4082V27.4141V27.4199V27.4257V27.4314V27.4372V27.4429V27.4486V27.4543V27.4599V27.4655V27.4711V27.4767V27.4823V27.4878V27.4933V27.4988V27.5042V27.5096V27.515V27.5204V27.5257V27.531V27.5363V27.5416V27.5469V27.5521V27.5573V27.5624V27.5676V27.5727V27.5777V27.5828V27.5878V27.5928V27.5978V27.6028V27.6077V27.6126V27.6175V27.6223V27.6271V27.6319V27.6367V27.6414V27.6461V27.6508V27.6554V27.6601V27.6647V27.6692V27.6738V27.6783V27.6828V27.6872V27.6917V27.6961V27.7004V27.7048V27.7091V27.7134V27.7176V27.7219V27.7261V27.7302V27.7344V27.7385V27.7426V27.7466V27.7507V27.7547V27.7586V27.7626V27.7665V27.7704V27.7742V27.778V27.7818V27.7856V27.7893V27.793V27.7967V27.8003V27.8039V27.8075V27.8111V27.8146V27.8181V27.8215V27.8249V27.8283V27.8317V27.835V27.8383V27.8416V27.8449V27.8481V27.8512V27.8544V27.8575V27.8606V27.8636V27.8667V27.8697V27.8726V27.8755V27.8784V27.8813V27.8841V27.8869V27.8897V27.8924V27.8951V27.8978V27.9004V27.903V27.9056V27.9081V27.9106V27.9131V27.9155V27.918V27.9203V27.9227V27.925V27.9272V27.9295V27.9317V27.9339V27.936V27.9381V27.9402V27.9422V27.9442V27.9462V27.9481V27.95V27.9519V27.9537V27.9555V27.9573V27.959V27.9607V27.9623V27.964V27.9656V27.9671V27.9686V27.9701V27.9716V27.973V27.9744V27.9757V27.977V27.9783V27.9795V27.9807V27.9819V27.983V27.9841V27.9852V27.9862V27.9872V27.9881V27.989V27.9899V27.9907V27.9915V27.9923V27.993V27.9937V27.9944V27.995V27.9956V27.9961V27.9966V27.9971V27.9975V27.9979V27.9983V27.9986V27.9989V27.9992V27.9994V27.9995V27.9997V27.9998V27.9998C6.66663 28.7362 7.26358 29.3332 7.99996 29.3332C8.73634 29.3332 9.33329 28.7362 9.33329 27.9998V27.9998V27.9997V27.9995V27.9994V27.9992V27.9989V27.9986V27.9983V27.9979V27.9975V27.9971V27.9966V27.9961V27.9956V27.995V27.9944V27.9937V27.993V27.9923V27.9915V27.9907V27.9899V27.989V27.9881V27.9872V27.9862V27.9852V27.9841V27.983V27.9819V27.9807V27.9795V27.9783V27.977V27.9757V27.9744V27.973V27.9716V27.9701V27.9686V27.9671V27.9656V27.964V27.9623V27.9607V27.959V27.9573V27.9555V27.9537V27.9519V27.95V27.9481V27.9462V27.9442V27.9422V27.9402V27.9381V27.936V27.9339V27.9317V27.9295V27.9272V27.925V27.9227V27.9203V27.918V27.9155V27.9131V27.9106V27.9081V27.9056V27.903V27.9004V27.8978V27.8951V27.8924V27.8897V27.8869V27.8841V27.8813V27.8784V27.8755V27.8726V27.8697V27.8667V27.8636V27.8606V27.8575V27.8544V27.8512V27.8481V27.8449V27.8416V27.8383V27.835V27.8317V27.8283V27.8249V27.8215V27.8181V27.8146V27.8111V27.8075V27.8039V27.8003V27.7967V27.793V27.7893V27.7856V27.7818V27.778V27.7742V27.7704V27.7665V27.7626V27.7586V27.7547V27.7507V27.7466V27.7426V27.7385V27.7344V27.7302V27.7261V27.7219V27.7176V27.7134V27.7091V27.7048V27.7004V27.6961V27.6917V27.6872V27.6828V27.6783V27.6738V27.6692V27.6647V27.6601V27.6554V27.6508V27.6461V27.6414V27.6367V27.6319V27.6271V27.6223V27.6175V27.6126V27.6077V27.6028V27.5978V27.5928V27.5878V27.5828V27.5777V27.5727V27.5676V27.5624V27.5573V27.5521V27.5469V27.5416V27.5363V27.531V27.5257V27.5204V27.515V27.5096V27.5042V27.4988V27.4933V27.4878V27.4823V27.4767V27.4711V27.4655V27.4599V27.4543V27.4486V27.4429V27.4372V27.4314V27.4257V27.4199V27.4141V27.4082V27.4023V27.3965V27.3905V27.3846V27.3786V27.3727V27.3666V27.3606V27.3546V27.3485V27.3424V27.3362V27.3301V27.3239V27.3177V27.3115V27.3053V27.299V27.2927V27.2864V27.2801V27.2737V27.2673V27.2609V27.2545V27.248V27.2416V27.2351V27.2286V27.222V27.2155V27.2089V27.2023V27.1957V27.189V27.1824V27.1757V27.169V27.1623V27.1555V27.1487V27.1419V27.1351V27.1283V27.1214V27.1146V27.1077V27.1007V27.0938V27.0868V27.0799V27.0729V27.0658V27.0588V27.0517V27.0447V27.0376V27.0304V27.0233V27.0161V27.009V27.0018V26.9946V26.9873V26.9801V26.9728V26.9655V26.9582V26.9508V26.9435V26.9361V26.9287V26.9213V26.9139V26.9064V26.899V26.8915V26.884V26.8765V26.8689V26.8614V26.8538V26.8462V26.8386V26.831V26.8233V26.8157V26.808V26.8003V26.7926V26.7848V26.7771V26.7693V26.7615V26.7537V26.7459V26.7381V26.7302V26.7223V26.7144V26.7065V26.6986V26.6907V26.6827V26.6747V26.6668V26.6588V26.6507V26.6427V26.6346V26.6266V26.6185V26.6104V26.6023V26.5942V26.586V26.5778V26.5697V26.5615V26.5533V26.545V26.5368V26.5286V26.5203V26.512V26.5037V26.4954V26.4871V26.4787V26.4704V26.462V26.4536V26.4452V26.4368V26.4284V26.4199V26.4115V26.403V26.3945V26.386V26.3775V26.369V26.3604V26.3519V26.3433V26.3348V26.3262V26.3176V26.3089V26.3003V26.2917V26.283V26.2743V26.2657V26.257V26.2482V26.2395V26.2308V26.2221V26.2133V26.2045V26.1957V26.1869V26.1781V26.1693V26.1605V26.1517V26.1428V26.1339V26.1251V26.1162V26.1073V26.0984V26.0894V26.0805V26.0716V26.0626V26.0536V26.0447V26.0357V26.0267V26.0177V26.0086V25.9996V25.9906V25.9815V25.9725V25.9634V25.9543V25.9452V25.9361V25.927V25.9179V25.9088V25.8996V25.8905V25.8813V25.8721V25.863V25.8538V25.8446V25.8354V25.8261V25.8169V25.8077V25.7984V25.7892V25.7799V25.7707V25.7614V25.7521V25.7428V25.7335V25.7242V25.7149V25.7055V25.6962V25.6869V25.6775V25.6682V25.6588V25.6494V25.64V25.6306V25.6213V25.6118V25.6024V25.593V25.5836V25.5742V25.5647V25.5553V25.5458V25.5364V25.5269V25.5174V25.5079V25.4984V25.489V25.4795V25.47V25.4604V25.4509V25.4414V25.4319V25.4223V25.4128V25.4032V25.3937V25.3841V25.3746V25.365V25.3554V25.3458V25.3363V25.3267V25.3171V25.3075V25.2979V25.2882V25.2786V25.269V25.2594V25.2498V25.2401V25.2305V25.2208V25.2112V25.2015V25.1919V25.1822V25.1726V25.1629V25.1532V25.1436V25.1339V25.1242V25.1145V25.1048V25.0951V25.0854V25.0757V25.066V25.0563V25.0466V25.0369V25.0272V25.0175V25.0078V24.998V24.9883V24.9786V24.9689V24.9591V24.9494V24.9397V24.9299V24.9202V24.9105V24.9007V24.891V24.8812V24.8715V24.8617V24.852V24.8422V24.8325V24.8227V24.8129V24.8032V24.7934V24.7837V24.7739V24.7642V24.7544V24.7446V24.7349V24.7251V24.7153V24.7056V24.6958V24.686V24.6763V24.6665Z" fill="white"/>
</svg>
