<svg width="16" height="16" viewBox="0 0 16 16" fill="none" xmlns="http://www.w3.org/2000/svg">
<path fill-rule="evenodd" clip-rule="evenodd" d="M0.905277 7.12371C0.421315 7.12371 0.0289868 7.51604 0.0289868 8C0.0289868 8.48396 0.421315 8.87629 0.905277 8.87629L7.03931 8.87629L7.03931 15.0103C7.03931 15.4943 7.43163 15.8866 7.9156 15.8866C8.39956 15.8866 8.79189 15.4943 8.79189 15.0103L8.79189 8.87629L14.9259 8.87629C15.4099 8.87629 15.8022 8.48396 15.8022 8C15.8022 7.51604 15.4099 7.12371 14.9259 7.12371L8.79189 7.12371L8.79189 0.989682C8.79189 0.505722 8.39956 0.113392 7.9156 0.113393C7.43163 0.113393 7.03931 0.505721 7.03931 0.989682L7.03931 7.12371L0.905277 7.12371Z" fill="#38B4B8"/>
</svg>
