<svg width="55" height="55" viewBox="0 0 55 55" fill="none" xmlns="http://www.w3.org/2000/svg">
<rect width="55" height="55" rx="10" fill="#24ACFF"/>
<path d="M21.12 41.4696C34.089 41.4696 41.1895 30.7226 41.1895 21.4001C41.1895 21.0976 41.1895 20.7896 41.1675 20.4871C42.548 19.4861 43.7415 18.2541 44.6875 16.8351C43.4005 17.4071 42.0365 17.7811 40.6395 17.9461C42.1135 17.0661 43.2135 15.6801 43.7415 14.0466C42.3555 14.8661 40.843 15.4491 39.2645 15.7571C36.5915 12.9191 32.1255 12.7816 29.2875 15.4491C27.456 17.1706 26.6805 19.7391 27.247 22.1866C21.5765 21.9006 16.291 19.2221 12.7105 14.8166C10.8405 18.0396 11.792 22.1591 14.894 24.2326C13.772 24.1996 12.672 23.8971 11.693 23.3526C11.693 23.3801 11.693 23.4131 11.693 23.4406C11.693 26.7956 14.058 29.6886 17.3525 30.3541C16.313 30.6346 15.224 30.6786 14.168 30.4751C15.092 33.3461 17.7375 35.3151 20.757 35.3756C18.26 37.3391 15.1745 38.4061 12.001 38.4006C11.44 38.4006 10.879 38.3676 10.3235 38.2961C13.5355 40.3696 17.292 41.4696 21.12 41.4641" fill="white"/>
</svg>
