<svg width="28" height="28" viewBox="0 0 28 28" fill="none" xmlns="http://www.w3.org/2000/svg">
<path fill-rule="evenodd" clip-rule="evenodd" d="M21 12.8333C21 17.3436 17.3437 20.9999 12.8334 20.9999C8.32305 20.9999 4.66671 17.3436 4.66671 12.8333C4.66671 8.32293 8.32305 4.66659 12.8334 4.66659C17.3437 4.66659 21 8.32293 21 12.8333ZM19.3873 21.0371C17.5911 22.474 15.3126 23.3333 12.8334 23.3333C7.03438 23.3333 2.33337 18.6322 2.33337 12.8333C2.33337 7.03426 7.03438 2.33325 12.8334 2.33325C18.6324 2.33325 23.3334 7.03426 23.3334 12.8333C23.3334 15.3124 22.4742 17.5909 21.0373 19.3872L25.325 23.675C25.7806 24.1306 25.7806 24.8693 25.325 25.3249C24.8694 25.7805 24.1307 25.7805 23.6751 25.3249L19.3873 21.0371Z" fill="#D7D7D7"/>
</svg>
