<svg width="32" height="32" viewBox="0 0 32 32" fill="none" xmlns="http://www.w3.org/2000/svg">
<path fill-rule="evenodd" clip-rule="evenodd" d="M18.6936 3.34694C19.6345 2.89995 20.651 2.6665 21.683 2.6665C22.7151 2.6665 23.7315 2.89995 24.6724 3.34694C25.6126 3.79357 26.454 4.44212 27.1544 5.24543C27.8546 6.04796 28.402 6.99129 28.7729 8.0177C29.1439 9.04429 29.3333 10.1396 29.3333 11.2423C29.3333 12.3451 29.1439 13.4404 28.7729 14.467C28.4019 15.4936 27.8543 16.4371 27.154 17.2397L17.0045 28.8763C16.7513 29.1666 16.3849 29.3332 15.9997 29.3332C15.6144 29.3332 15.248 29.1666 14.9948 28.8763L4.84514 17.2395C3.43414 15.6217 2.66663 13.4622 2.66663 11.2423C2.66663 9.02247 3.43414 6.86294 4.84514 5.2452C6.26121 3.62166 8.22406 2.66721 10.3163 2.66721C12.4085 2.66721 14.3714 3.62166 15.7874 5.2452C15.829 5.29288 15.8672 5.34346 15.9016 5.39655L15.9997 5.54792L16.0977 5.39655C16.1321 5.34354 16.1702 5.29304 16.2117 5.24543C16.912 4.44212 17.7535 3.79357 18.6936 3.34694ZM21.683 5.33317C21.056 5.33317 20.4297 5.47449 19.8379 5.75562C19.27 6.02538 18.7403 6.42109 18.2813 6.93062L17.1186 8.7249C16.8728 9.1042 16.4516 9.33317 15.9997 9.33317C15.5477 9.33317 15.1265 9.1042 14.8807 8.7249L13.7181 6.93073C12.7729 5.88192 11.5484 5.33387 10.3163 5.33387C9.05813 5.33387 7.80782 5.90537 6.8548 6.99803C5.89672 8.09648 5.33329 9.6209 5.33329 11.2423C5.33329 12.8638 5.89672 14.3882 6.8548 15.4866L15.9997 25.9714L25.1445 15.4866C25.6175 14.9446 26.001 14.2912 26.265 13.5606C26.5291 12.8299 26.6666 12.0417 26.6666 11.2423C26.6666 10.4429 26.5291 9.65473 26.265 8.92406C26.001 8.19341 25.6177 7.54032 25.1447 6.99826C24.6722 6.45625 24.1207 6.03712 23.5282 5.75562C22.9364 5.47449 22.31 5.33317 21.683 5.33317Z" fill="white"/>
</svg>
