<svg width="22" height="20" viewBox="0 0 22 20" fill="none" xmlns="http://www.w3.org/2000/svg">
<path fill-rule="evenodd" clip-rule="evenodd" d="M11.8043 2C7.2515 2 3.60945 5.58042 3.60945 9.93781C3.60945 11.202 3.91382 12.3952 4.45561 13.455C4.69645 13.926 4.57834 14.4028 4.50431 14.6348C4.41569 14.9125 4.27159 15.192 4.12616 15.4417C3.85153 15.9131 3.46738 16.4517 3.11884 16.9403C3.09616 16.9721 3.07364 17.0037 3.0513 17.035C2.899 17.2487 2.75535 17.4513 2.62486 17.6411C2.9085 17.5256 3.21855 17.3902 3.54863 17.244C3.60799 17.2178 3.66801 17.1911 3.72855 17.1643C4.29593 16.9125 4.90832 16.6407 5.44145 16.4536C5.73719 16.3498 6.05024 16.2566 6.3473 16.2108C6.61048 16.1702 7.03351 16.1369 7.43421 16.3304C7.4844 16.3547 7.53566 16.3795 7.58793 16.4048C8.18854 16.6955 8.92217 17.0506 9.67624 17.3446C10.518 17.6728 11.2661 17.8756 11.8043 17.8756C16.3572 17.8756 19.9992 14.2952 19.9992 9.93781C19.9992 5.58042 16.3572 2 11.8043 2ZM1.45172 17.9996C1.45172 17.9996 1.45577 17.9994 1.46275 18.0001C1.45503 18.0001 1.45172 17.9996 1.45172 17.9996ZM1.60945 9.93781C1.60945 4.42277 6.20078 0 11.8043 0C17.4079 0 21.9992 4.42277 21.9992 9.93781C21.9992 15.4529 17.4079 19.8756 11.8043 19.8756C10.8746 19.8756 9.83572 19.5534 8.94967 19.2079C8.11784 18.8836 7.31544 18.495 6.72207 18.2077C6.70585 18.1998 6.68978 18.192 6.67387 18.1843C6.66722 18.1852 6.65997 18.1863 6.65212 18.1875C6.53149 18.2061 6.35103 18.2539 6.10387 18.3407C5.65127 18.4996 5.11495 18.7374 4.52777 18.9977C4.47175 19.0226 4.41526 19.0476 4.35834 19.0728C3.73575 19.3485 3.0504 19.6478 2.46586 19.8244C2.17604 19.912 1.84993 19.9889 1.53395 19.9989C1.24188 20.0081 0.747539 19.966 0.364714 19.5776C-0.0748861 19.1315 -0.0195233 18.5684 0.039932 18.2958C0.105247 17.9964 0.243618 17.704 0.376024 17.4612C0.646374 16.9655 1.05541 16.3894 1.42266 15.8742L1.46582 15.8136C1.83726 15.2926 2.17157 14.8237 2.39798 14.435C2.4734 14.3055 2.52494 14.2047 2.55838 14.1298C1.94954 12.8557 1.60945 11.4346 1.60945 9.93781ZM2.60808 13.991C2.60808 13.991 2.60763 13.9975 2.60336 14.0124C2.60538 13.9988 2.60808 13.991 2.60808 13.991Z" fill="#DCDADA"/>
<path d="M3.60945 9.93781C3.60945 5.58042 7.2515 2 11.8043 2C16.3572 2 19.9992 5.58042 19.9992 9.93781C19.9992 14.2952 16.3572 17.8756 11.8043 17.8756C11.2661 17.8756 10.518 17.6728 9.67624 17.3446C8.92217 17.0506 8.18854 16.6955 7.58793 16.4048L7.43421 16.3304C7.03351 16.1369 6.61048 16.1702 6.3473 16.2108C6.05024 16.2566 5.73719 16.3498 5.44145 16.4536C4.90832 16.6407 4.29593 16.9125 3.72855 17.1643L3.54863 17.244C3.21855 17.3902 2.9085 17.5256 2.62486 17.6411C2.75535 17.4513 2.899 17.2487 3.0513 17.035L3.11884 16.9403C3.46738 16.4517 3.85153 15.9131 4.12616 15.4417C4.27159 15.192 4.41569 14.9125 4.50431 14.6348C4.57834 14.4028 4.69645 13.926 4.45561 13.455C3.91382 12.3952 3.60945 11.202 3.60945 9.93781Z" fill="#DCDADA"/>
</svg>
