<svg width="55" height="55" viewBox="0 0 55 55" fill="none" xmlns="http://www.w3.org/2000/svg">
<rect width="55" height="55" rx="10" fill="#00CF2E"/>
<path d="M46.8359 24.5605C46.8359 17.4707 38.457 9.73633 27.5 9.73633C16.825 9.73633 8.16406 16.0205 8.16406 24.5605C8.16406 32.4399 14.9155 38.9497 24.4143 39.9084C24.7037 39.9323 24.9838 40.0216 25.2336 40.1695C25.4834 40.3175 25.6964 40.5202 25.8564 40.7624C26.0847 41.1215 26.2075 41.5374 26.2109 41.9629C26.1888 42.837 26.0917 43.7076 25.9209 44.5652C25.8946 44.6814 25.901 44.8027 25.9394 44.9155C25.9779 45.0283 26.0469 45.1282 26.1387 45.2042C26.2305 45.2801 26.3416 45.3291 26.4596 45.3458C26.5776 45.3624 26.6979 45.346 26.8071 45.2983C31.3591 43.2842 46.8359 35.002 46.8359 24.5605Z" fill="white"/>
<path d="M20.4102 28.1055H17.5098V21.3379C17.5098 21.0815 17.4079 20.8356 17.2266 20.6543C17.0453 20.473 16.7994 20.3711 16.543 20.3711C16.2866 20.3711 16.0406 20.473 15.8593 20.6543C15.678 20.8356 15.5762 21.0815 15.5762 21.3379V29.0723C15.5762 29.3287 15.678 29.5746 15.8593 29.7559C16.0406 29.9372 16.2866 30.0391 16.543 30.0391H20.4102C20.6666 30.0391 20.9125 29.9372 21.0938 29.7559C21.2751 29.5746 21.377 29.3287 21.377 29.0723C21.377 28.8159 21.2751 28.5699 21.0938 28.3886C20.9125 28.2073 20.6666 28.1055 20.4102 28.1055Z" fill="#00CF2E"/>
<path d="M22.9883 20.3711C22.7319 20.3711 22.486 20.473 22.3047 20.6543C22.1233 20.8356 22.0215 21.0815 22.0215 21.3379V29.0723C22.0215 29.3287 22.1233 29.5746 22.3047 29.7559C22.486 29.9372 22.7319 30.0391 22.9883 30.0391C23.2447 30.0391 23.4906 29.9372 23.6719 29.7559C23.8532 29.5746 23.9551 29.3287 23.9551 29.0723V21.3379C23.9551 21.0815 23.8532 20.8356 23.6719 20.6543C23.4906 20.473 23.2447 20.3711 22.9883 20.3711Z" fill="#00CF2E"/>
<path d="M32.0117 20.3711C31.8848 20.3711 31.759 20.3961 31.6417 20.4447C31.5244 20.4933 31.4179 20.5645 31.3281 20.6543C31.2383 20.744 31.1671 20.8506 31.1185 20.9679C31.0699 21.0852 31.0449 21.2109 31.0449 21.3379V26.1719L27.0166 20.7578C26.8949 20.5955 26.7251 20.4756 26.5314 20.4151C26.3377 20.3546 26.1299 20.3565 25.9374 20.4207C25.7449 20.4849 25.5775 20.608 25.4589 20.7726C25.3402 20.9372 25.2764 21.135 25.2764 21.3379V29.0723C25.3174 29.2944 25.435 29.4952 25.6087 29.6397C25.7823 29.7842 26.0011 29.8633 26.2271 29.8633C26.453 29.8633 26.6718 29.7842 26.8454 29.6397C27.0191 29.4952 27.1367 29.2944 27.1777 29.0723V24.2383L31.2061 29.6523C31.2988 29.7774 31.4207 29.8779 31.5611 29.9453C31.7014 30.0127 31.8561 30.0449 32.0117 30.0391C32.1156 30.0387 32.2189 30.0224 32.3179 29.9907C32.5105 29.9264 32.678 29.8031 32.7966 29.6382C32.9152 29.4734 32.9788 29.2753 32.9785 29.0723V21.3379C32.9785 21.2109 32.9535 21.0852 32.9049 20.9679C32.8563 20.8506 32.7851 20.744 32.6953 20.6543C32.6056 20.5645 32.499 20.4933 32.3817 20.4447C32.2644 20.3961 32.1387 20.3711 32.0117 20.3711Z" fill="#00CF2E"/>
<path d="M39.1016 26.1719C39.2285 26.1719 39.3542 26.1469 39.4715 26.0983C39.5888 26.0497 39.6954 25.9785 39.7852 25.8887C39.875 25.7989 39.9462 25.6924 39.9948 25.5751C40.0434 25.4578 40.0684 25.332 40.0684 25.2051C40.0684 25.0781 40.0434 24.9524 39.9948 24.8351C39.9462 24.7178 39.875 24.6112 39.7852 24.5214C39.6954 24.4317 39.5888 24.3605 39.4715 24.3119C39.3542 24.2633 39.2285 24.2383 39.1016 24.2383H36.2012V22.3047H39.1016C39.358 22.3047 39.6039 22.2028 39.7852 22.0215C39.9665 21.8402 40.0684 21.5943 40.0684 21.3379C40.0684 21.0815 39.9665 20.8356 39.7852 20.6543C39.6039 20.473 39.358 20.3711 39.1016 20.3711H35.2344C34.978 20.3711 34.7321 20.473 34.5507 20.6543C34.3694 20.8356 34.2676 21.0815 34.2676 21.3379V29.0723C34.2676 29.3287 34.3694 29.5746 34.5507 29.7559C34.7321 29.9372 34.978 30.0391 35.2344 30.0391H39.1016C39.358 30.0391 39.6039 29.9372 39.7852 29.7559C39.9665 29.5746 40.0684 29.3287 40.0684 29.0723C40.0684 28.8159 39.9665 28.5699 39.7852 28.3886C39.6039 28.2073 39.358 28.1055 39.1016 28.1055H36.2012V26.1719H39.1016Z" fill="#00CF2E"/>
</svg>
