<svg width="90" height="90" viewBox="0 0 90 90" fill="none" xmlns="http://www.w3.org/2000/svg">
<g clip-path="url(#clip0_3308_31036)">
<path d="M27.5239 65.5122C25.083 66.5767 22.241 65.4611 21.1765 63.02L20.3587 61.1453C18.4561 56.7827 19.5013 51.6823 22.9596 48.4532C25.5608 46.0242 26.2163 42.1184 24.5529 38.9548C22.7316 35.4907 18.581 33.8793 14.8983 35.2065C11.0019 36.608 8.82061 40.8148 9.92909 44.779C10.0282 45.1334 10.1539 45.486 10.3026 45.8272C11.3672 48.2681 10.2515 51.1101 7.8104 52.1746C5.3695 53.2392 2.52747 52.1235 1.46294 49.6824C1.13651 48.9341 0.860184 48.158 0.641512 47.3756C-1.81995 38.5715 3.00559 29.2398 11.6287 26.1337C19.8145 23.1839 29.0404 26.7663 33.0888 34.467C36.7684 41.4659 35.3094 50.1157 29.5408 55.502C29.0636 55.9474 28.9259 56.6658 29.1981 57.2899L30.0158 59.1646C31.0807 61.6057 29.965 64.4477 27.5239 65.5122Z" fill="#FFD15B"/>
<path d="M33.2589 78.6633C30.818 79.7278 27.976 78.6122 26.9114 76.1711L26.8954 76.1345C25.8309 73.6936 26.9466 70.8516 29.3877 69.787C31.8286 68.7225 34.6706 69.8382 35.7351 72.2793L35.7511 72.3158C36.8157 74.7569 35.6998 77.5988 33.2589 78.6633Z" fill="#FFD15B"/>
<path d="M4.54951 45.6723C4.7673 46.4549 5.04486 47.2299 5.37129 47.9782C6.12996 49.7178 7.79109 50.7855 9.56648 50.8677C9.10418 51.4162 8.51303 51.8685 7.81113 52.1747C5.37164 53.2387 2.52873 52.1242 1.46385 49.6826C1.13742 48.9341 0.862148 48.1582 0.644179 47.3757C-1.81922 38.5704 3.00809 29.2391 11.6302 26.133C11.939 26.0219 12.2496 25.9207 12.5618 25.8291C5.84555 29.7989 2.38793 37.9388 4.54951 45.6723Z" fill="#FFC344"/>
<path d="M26.8672 46.7486C23.4092 49.9777 22.363 55.0796 24.2656 59.4419L25.083 61.3163C25.8417 63.056 27.5051 64.1225 29.2805 64.2047C28.8182 64.7532 28.227 65.2055 27.5252 65.5117C25.0836 66.5766 22.2428 65.4612 21.1779 63.0196L20.3605 61.1453C18.458 56.7829 19.502 51.6821 22.962 48.4519C25.5626 46.0223 26.217 42.1187 24.5536 38.9553C22.9904 35.9795 19.7083 34.3708 16.4805 34.8196C17.16 34.263 17.9417 33.8143 18.8069 33.5028C22.4897 32.1751 26.6399 33.7861 28.4612 37.2511C30.1244 40.4145 29.4679 44.3191 26.8672 46.7486Z" fill="#FFC344"/>
<path d="M35.0163 77.3556C34.554 77.9041 33.9628 78.3564 33.2609 78.6626C30.8193 79.7275 27.9785 78.6121 26.9136 76.1705L26.8973 76.1329C25.8333 73.6934 26.9477 70.8505 29.3893 69.7856C30.0914 69.4794 30.8249 69.3539 31.5414 69.3884C30.3948 70.7477 30.0448 72.6923 30.8024 74.4298L30.8188 74.4674C31.5776 76.2067 33.2411 77.2734 35.0163 77.3556Z" fill="#FFC344"/>
<path d="M65.9849 65.0432C63.4127 64.3539 61.8861 61.7098 62.5753 59.1376L63.1048 57.162C64.3366 52.5648 68.3335 49.2281 73.0506 48.8593C76.5988 48.5818 79.5461 45.9363 80.2176 42.4257C80.9531 38.5818 78.7122 34.7344 75.0053 33.4764C71.0851 32.1432 66.7571 34.0728 65.1524 37.8635C65.009 38.2023 64.8874 38.5565 64.7912 38.9159C64.102 41.4881 61.4579 43.0148 58.8857 42.3256C56.3134 41.6363 54.7868 38.9922 55.476 36.42C55.6873 35.6315 55.955 34.8524 56.2718 34.1043C59.8356 25.6857 69.426 21.3974 78.1049 24.3444C86.3443 27.1409 91.3247 35.6933 89.6899 44.2382C88.2039 52.0046 81.671 57.8585 73.8026 58.474C73.1519 58.5248 72.5962 59.0009 72.4201 59.6583L71.8907 61.6339C71.2012 64.2059 68.5571 65.7324 65.9849 65.0432Z" fill="#6FD7A3"/>
<path d="M62.2704 78.9017C59.6982 78.2124 58.1716 75.5683 58.8608 72.9961L58.8712 72.9574C59.5604 70.3852 62.2045 68.8586 64.7767 69.5478C67.3489 70.237 68.8756 72.8811 68.1863 75.4534L68.176 75.492C67.4867 78.0644 64.8428 79.5909 62.2704 78.9017Z" fill="#6FD7A3"/>
<path d="M60.3886 35.2076C60.0711 35.9554 59.805 36.7343 59.5937 37.523C59.1025 39.3563 59.7359 41.2264 61.0727 42.3976C60.3692 42.5382 59.6251 42.5235 58.8855 42.3252C56.3148 41.6363 54.7866 38.9927 55.476 36.4197C55.6873 35.6309 55.9557 34.8526 56.2733 34.105C59.8362 25.6843 69.4278 21.3974 78.1059 24.3437C78.4167 24.4493 78.7227 24.5637 79.0238 24.6868C71.2974 23.604 63.5194 27.8132 60.3886 35.2076Z" fill="#3EC3A4"/>
<path d="M77.1676 49.9619C72.4508 50.3312 68.4521 53.6683 67.2204 58.2651L66.6912 60.2402C66.2 62.0734 66.8357 63.9443 68.1725 65.1153C67.469 65.2559 66.7249 65.2412 65.9852 65.0429C63.4121 64.3535 61.8864 61.7104 62.5758 59.1373L63.1051 57.1623C64.3369 52.5652 68.333 49.2277 73.0522 48.8591C76.6001 48.5804 79.5453 45.9362 80.2167 42.4258C80.8495 39.1245 79.2861 35.8207 76.4824 34.1594C77.3606 34.1479 78.2516 34.2843 79.1224 34.58C82.8298 35.8377 85.0703 39.6845 84.3343 43.5292C83.663 47.0397 80.7155 49.6835 77.1676 49.9619Z" fill="#3EC3A4"/>
<path d="M64.4596 78.9736C63.7561 79.1142 63.012 79.0994 62.2723 78.9012C59.6992 78.2118 58.1735 75.5687 58.8629 72.9958L58.8734 72.9563C59.5623 70.3856 62.2059 68.8574 64.7788 69.5468C65.5187 69.7451 66.1705 70.1042 66.7092 70.5778C64.9653 70.9258 63.4792 72.2282 62.9886 74.0591L62.9781 74.0987C62.4871 75.9317 63.1228 77.8025 64.4596 78.9736Z" fill="#3EC3A4"/>
<path d="M47.1638 58.6355C44.1739 58.6355 41.7501 56.2117 41.7501 53.2218V50.9254C41.7501 45.5818 45.1151 40.8018 50.1234 39.0312C53.8906 37.6991 56.3183 33.9736 56.0263 29.9714C55.7068 25.589 52.1586 22.0678 47.773 21.7805C43.1342 21.4741 39.0012 24.8242 38.3626 29.4015C38.3055 29.8106 38.2766 30.23 38.2766 30.6478C38.2766 33.6377 35.8528 36.0615 32.8629 36.0615C29.8731 36.0615 27.4492 33.6377 27.4492 30.6478C27.4492 29.7313 27.5132 28.8084 27.6392 27.9051C29.0578 17.7397 38.2123 10.3022 48.4806 10.976C58.2287 11.6144 66.1153 19.4421 66.8255 29.1841C67.4707 38.0384 62.0871 46.2853 53.7329 49.2393C53.0419 49.4837 52.5777 50.1611 52.5777 50.9254V53.2218C52.5775 56.2117 50.1537 58.6355 47.1638 58.6355Z" fill="#0573CE"/>
<path d="M47.1637 74.7438C44.1738 74.7438 41.75 72.32 41.75 69.3301V69.2853C41.75 66.2954 44.1738 63.8716 47.1637 63.8716C50.1536 63.8716 52.5774 66.2954 52.5774 69.2853V69.3301C52.5774 72.32 50.1536 74.7438 47.1637 74.7438Z" fill="#0573CE"/>
<path d="M32.4247 27.9058C32.2976 28.809 32.2354 29.7311 32.2354 30.6478C32.2354 32.7786 33.4657 34.6228 35.2558 35.5043C34.5339 35.8613 33.7227 36.0614 32.8628 36.0614C29.8746 36.0614 27.4492 33.6386 27.4492 30.6478C27.4492 29.7311 27.5141 28.809 27.6412 27.9058C29.0581 17.7384 38.2142 10.302 48.4816 10.9754C48.8494 10.9997 49.2145 11.0349 49.5767 11.0809C40.8831 12.1518 33.6713 18.977 32.4247 27.9058Z" fill="#0067C5"/>
<path d="M54.9099 39.0305C49.9019 40.8017 46.5353 45.5826 46.5353 50.9258V53.2215C46.5353 55.3523 47.7684 57.1966 49.5586 58.0782C48.8366 58.4352 48.0254 58.6352 47.1655 58.6352C44.1747 58.6352 41.752 56.2123 41.752 53.2215V50.9258C41.752 45.5824 45.1159 40.8017 50.1265 39.0305C53.8933 37.6974 56.3189 33.9738 56.0268 29.9718C55.7536 26.2076 53.0983 23.0791 49.5747 22.0921C50.524 21.8243 51.5298 21.7134 52.56 21.7811C56.9461 22.0678 60.4939 25.5885 60.813 29.9718C61.1049 33.9738 58.6767 37.6972 54.9099 39.0305Z" fill="#0067C5"/>
<path d="M49.5586 74.1867C48.8366 74.5437 48.0254 74.7437 47.1655 74.7437C44.1747 74.7437 41.752 72.3209 41.752 69.3302V69.2841C41.752 66.296 44.1747 63.8706 47.1655 63.8706C48.0254 63.8706 48.8366 64.0706 49.5586 64.4277C47.7684 65.3118 46.5353 67.1561 46.5353 69.2841V69.3302C46.5353 71.461 47.7684 73.3051 49.5586 74.1867Z" fill="#0067C5"/>
</g>
<defs>
<clipPath id="clip0_3308_31036">
<rect width="90" height="90" fill="white"/>
</clipPath>
</defs>
</svg>
