<svg width="92" height="92" viewBox="0 0 92 92" fill="none" xmlns="http://www.w3.org/2000/svg">
<g clip-path="url(#clip0_270_4457)">
<path d="M46.5663 32.2644L79.9982 17.8557L83.0913 26.5914C83.0913 26.5914 89.1256 58.4866 81.838 90.9789L74.1774 90.162L46.5663 32.2644Z" fill="#EDE3E7"/>
<path d="M18.1079 81.5727L14.0886 86.8473L73.544 92C84.1627 62.29 79.3983 25.4234 79.3983 25.4234L75.8492 17.8661L52.6699 32.231L18.1079 81.5727Z" fill="#DFD1D7"/>
<path d="M18.2481 74.6429L11.595 80.9756L68.5763 86.1988C82.1526 58.6853 75.5181 24.1958 75.5181 24.1958L72.4726 15.2599L42.0971 30.1391L18.2481 74.6429Z" fill="#EDE3E7"/>
<path d="M26.9276 33.0238C26.9276 33.0238 24.5327 61.0002 6.56311 73.3171L63.5599 79.7844C63.5599 79.7844 77.1525 49.4189 72.611 23.2762L66.5152 17.6953L26.9276 33.0238Z" fill="#FFFBFC"/>
<path d="M83.0915 26.5908L72.6106 23.2757L26.9279 33.0229L27.3581 18.6479L69.5274 9.65015L80.5159 14.4782L83.0915 26.5908Z" fill="#FFA8B8"/>
<path d="M55.5075 1.96869C50.371 5.48591 49.0532 12.509 52.5641 17.6547C54.5538 20.5705 57.6701 22.2587 60.9317 22.5323C61.7447 21.2954 61.7133 19.9105 61.1883 18.5146C59.1193 18.3199 57.1459 17.2383 55.8805 15.3838C53.6215 12.0732 54.4695 7.55373 57.7742 5.29081C62.0292 2.37714 67.8793 4.73167 68.9544 9.77125L69.5268 9.6503L73.1283 11.2313C73.1194 9.05269 72.4837 6.85243 71.164 4.91825C67.6529 -0.227013 60.6421 -1.54733 55.5075 1.96869Z" fill="#52528C"/>
<path d="M83.0914 26.5908L72.6105 23.2757L69.5273 9.65015L80.5158 14.4782L83.0914 26.5908Z" fill="#F8879C"/>
<path d="M29.6386 7.56041C24.5021 11.0776 23.1843 18.1008 26.6952 23.2464C28.6675 26.1371 31.7473 27.8216 34.9792 28.1184C35.8203 26.8762 35.8068 25.505 35.2992 24.1059C33.2367 23.9039 31.2728 22.8243 30.0116 20.9756C27.7526 17.6649 28.6008 13.1454 31.9053 10.8825C36.1323 7.98809 41.9547 10.2903 43.0696 15.294L46.9977 14.458C45.3159 6.69811 36.2505 3.03298 29.6386 7.56041Z" fill="#52528C"/>
<path d="M64.5863 45.0225C61.6419 51.6033 51.3791 54.8332 51.0599 54.9324C51.0778 54.9304 51.0956 54.9284 51.1115 54.9264C51.631 54.855 55.4339 54.3792 58.4893 55.2813C59.328 55.5292 60.1013 56.5424 60.6287 57.9838C62.1693 62.1873 61.6221 70.033 54.5436 73.2035C49.0692 75.6542 47.7923 69.92 47.6952 64.6122C47.6952 64.6122 47.6952 64.6142 47.6932 64.6201C46.6225 67.5705 44.9273 70.0727 43.0357 71.7937C39.4231 75.0831 35.0948 75.5273 33.0347 70.8202C31.5952 67.5288 32.5509 64.7589 34.0062 62.7246C35.6737 60.3929 37.9995 59.0287 38.1304 58.9514C38.1343 58.9494 38.1363 58.9494 38.1363 58.9494C24.3541 59.8357 24.0349 47.6576 32.8879 45.8077C36.3716 45.082 39.0682 45.5618 41.1085 46.5036C41.1085 46.5036 41.1065 46.5017 41.1045 46.4997C39.7423 44.3722 38.9591 42.4826 38.6161 40.827C37.018 33.1081 45.0006 30.5087 48.1393 32.6362C49.6918 33.6871 50.4611 36.1854 50.824 38.8205V38.8224C51.3474 42.6194 51.0242 46.696 50.9905 47.1044C55.1206 26.0218 67.4038 38.7352 64.5863 45.0225Z" fill="#FFA8B8"/>
<path d="M50.3104 51.5298C50.3104 51.5298 51.5139 58.5072 44.5188 57.8053C37.5236 57.1034 43.8149 45.4606 50.3104 51.5298Z" fill="#F8879C"/>
<path d="M50.9906 47.1044C50.9906 47.1083 50.9906 47.1123 50.9886 47.1163C50.9866 47.1262 50.9866 47.1321 50.9866 47.1321C50.9846 47.1361 50.9866 47.1381 50.9866 47.1381C50.7269 48.4645 50.4988 49.9258 50.3105 51.5299C50.3105 51.5299 47.7309 50.9132 50.824 38.8224C51.3475 42.6194 51.0243 46.6959 50.9906 47.1044Z" fill="#F8879C"/>
<path d="M47.6951 64.6122C47.6951 64.6122 47.6951 64.6142 47.6932 64.6201C46.6225 67.5705 44.9272 70.0727 43.0357 71.7937C42.8453 62.332 47.8756 59.802 47.8756 59.802C47.7586 61.1503 47.6614 62.8594 47.6951 64.6122Z" fill="#F8879C"/>
<path d="M44.5188 57.8053C44.5188 57.8053 41.0906 63.018 34.0062 62.7245C35.6737 60.3928 37.9995 59.0287 38.1304 58.9513C38.1343 58.9493 38.1363 58.9493 38.1363 58.9493C40.012 58.8284 42.1355 58.4675 44.5188 57.8053Z" fill="#F8879C"/>
<path d="M42.992 47.6119C42.4388 47.2094 41.8143 46.8287 41.1084 46.5035C41.1084 46.5035 41.1064 46.5016 41.1045 46.4996C39.7423 44.3721 38.9591 42.4825 38.6161 40.8269C44.2035 43.7594 42.992 47.6119 42.992 47.6119Z" fill="#F8879C"/>
<path d="M48.1848 55.2938C48.0585 55.2938 47.9344 55.2335 47.8577 55.1215C47.727 54.9309 44.6591 50.3869 44.7414 44.4733C44.7445 44.2544 44.9228 44.0841 45.1435 44.0823C45.3624 44.0854 45.5374 44.2653 45.5345 44.4844C45.4558 50.1382 48.4815 54.6286 48.512 54.6734C48.6355 54.854 48.5893 55.1009 48.4087 55.2246C48.3401 55.2712 48.2622 55.2938 48.1848 55.2938Z" fill="#52528C"/>
<path d="M47.0038 56.5291C46.9558 56.5291 46.9069 56.5203 46.8595 56.5017C46.6459 56.4182 41.596 54.3976 38.6364 49.3219C38.5259 49.1328 38.59 48.8899 38.7791 48.7797C38.9685 48.669 39.2112 48.7333 39.3214 48.9224C42.1433 53.7619 47.0986 55.7435 47.1484 55.7629C47.3524 55.8428 47.4531 56.0728 47.3732 56.2767C47.3119 56.4333 47.1622 56.5291 47.0038 56.5291Z" fill="#52528C"/>
<path d="M60.6287 57.9838C54.2185 59.003 51.052 54.9343 51.052 54.9343C51.054 54.9343 51.0579 54.9343 51.0599 54.9324C51.0778 54.9304 51.0956 54.9284 51.1115 54.9264C51.631 54.855 55.4339 54.3792 58.4893 55.2813C59.328 55.5292 60.1013 56.5424 60.6287 57.9838Z" fill="#F8879C"/>
</g>
<defs>
<clipPath id="clip0_270_4457">
<rect width="92" height="92" fill="white"/>
</clipPath>
</defs>
</svg>
