<svg width="24" height="24" viewBox="0 0 24 24" fill="none" xmlns="http://www.w3.org/2000/svg">
<path d="M19 9.95204L12 4L5 9.95204V20.0013H9V16.218C9 15.1134 9.89543 14.218 11 14.218H13.0029C14.1075 14.218 15.0029 15.1134 15.0029 16.218V20.0013H19V9.95204Z" fill="#E739EB"/>
<path d="M11 20.0013H13.0029V16.218L11 16.218V20.0013Z" fill="#E739EB"/>
<path fill-rule="evenodd" clip-rule="evenodd" d="M10.7044 2.47634C11.4514 1.84122 12.5486 1.84122 13.2956 2.47634L20.2956 8.42838C20.7425 8.80837 21 9.36542 21 9.95204V20.0013C21 21.1059 20.1046 22.0013 19 22.0013H5C3.89543 22.0013 3 21.1059 3 20.0013V9.95204C3 9.36542 3.25754 8.80837 3.70445 8.42838L10.7044 2.47634ZM19 9.95204L12 4L5 9.95204V20.0013H9V22H11V20.0013H13.0029L13 22H15V20.0013H15.0029H19V9.95204Z" fill="#E739EB"/>
</svg>
