<svg width="24" height="24" viewBox="0 0 24 24" fill="none" xmlns="http://www.w3.org/2000/svg">
<path fill-rule="evenodd" clip-rule="evenodd" d="M12.8043 4C8.2515 4 4.60945 7.58042 4.60945 11.9378C4.60945 13.202 4.91382 14.3952 5.45561 15.455C5.69645 15.926 5.57834 16.4028 5.50431 16.6348C5.41569 16.9125 5.27159 17.192 5.12616 17.4417C4.85153 17.9131 4.46738 18.4517 4.11884 18.9403C4.09616 18.9721 4.07364 19.0037 4.0513 19.035C3.899 19.2487 3.75535 19.4513 3.62486 19.6411C3.9085 19.5256 4.21855 19.3902 4.54863 19.244C4.60799 19.2178 4.66801 19.1911 4.72855 19.1643C5.29593 18.9125 5.90832 18.6407 6.44145 18.4536C6.73719 18.3498 7.05024 18.2566 7.3473 18.2108C7.61048 18.1702 8.03351 18.1369 8.43421 18.3304C8.4844 18.3547 8.53566 18.3795 8.58793 18.4048C9.18854 18.6955 9.92217 19.0506 10.6762 19.3446C11.518 19.6728 12.2661 19.8756 12.8043 19.8756C17.3572 19.8756 20.9992 16.2952 20.9992 11.9378C20.9992 7.58042 17.3572 4 12.8043 4ZM2.45172 19.9996C2.45172 19.9996 2.45577 19.9994 2.46275 20.0001C2.45503 20.0001 2.45172 19.9996 2.45172 19.9996ZM2.60945 11.9378C2.60945 6.42277 7.20078 2 12.8043 2C18.4079 2 22.9992 6.42277 22.9992 11.9378C22.9992 17.4529 18.4079 21.8756 12.8043 21.8756C11.8746 21.8756 10.8357 21.5534 9.94967 21.2079C9.11784 20.8836 8.31544 20.495 7.72207 20.2077C7.70585 20.1998 7.68978 20.192 7.67387 20.1843C7.66722 20.1852 7.65997 20.1863 7.65212 20.1875C7.53149 20.2061 7.35103 20.2539 7.10387 20.3407C6.65127 20.4996 6.11495 20.7374 5.52777 20.9977C5.47175 21.0226 5.41526 21.0476 5.35834 21.0728C4.73575 21.3485 4.0504 21.6478 3.46586 21.8244C3.17604 21.912 2.84993 21.9889 2.53395 21.9989C2.24188 22.0081 1.74754 21.966 1.36471 21.5776C0.925114 21.1315 0.980477 20.5684 1.03993 20.2958C1.10525 19.9964 1.24362 19.704 1.37602 19.4612C1.64637 18.9655 2.05541 18.3894 2.42266 17.8742L2.46582 17.8136C2.83726 17.2926 3.17157 16.8237 3.39798 16.435C3.4734 16.3055 3.52494 16.2047 3.55838 16.1298C2.94954 14.8557 2.60945 13.4346 2.60945 11.9378ZM3.60808 15.991C3.60808 15.991 3.60763 15.9975 3.60336 16.0124C3.60538 15.9988 3.60808 15.991 3.60808 15.991Z" fill="#E739EB"/>
<path d="M4.60945 11.9378C4.60945 7.58042 8.2515 4 12.8043 4C17.3572 4 20.9992 7.58042 20.9992 11.9378C20.9992 16.2952 17.3572 19.8756 12.8043 19.8756C12.2661 19.8756 11.518 19.6728 10.6762 19.3446C9.92217 19.0506 9.18854 18.6955 8.58793 18.4048L8.43421 18.3304C8.03351 18.1369 7.61048 18.1702 7.3473 18.2108C7.05024 18.2566 6.73719 18.3498 6.44145 18.4536C5.90832 18.6407 5.29593 18.9125 4.72855 19.1643L4.54863 19.244C4.21855 19.3902 3.9085 19.5256 3.62486 19.6411C3.75535 19.4513 3.899 19.2487 4.0513 19.035L4.11884 18.9403C4.46738 18.4517 4.85153 17.9131 5.12616 17.4417C5.27159 17.192 5.41569 16.9125 5.50431 16.6348C5.57834 16.4028 5.69645 15.926 5.45561 15.455C4.91382 14.3952 4.60945 13.202 4.60945 11.9378Z" fill="#E739EB"/>
</svg>
