<svg width="18" height="21" viewBox="0 0 18 21" fill="none" xmlns="http://www.w3.org/2000/svg">
<path fill-rule="evenodd" clip-rule="evenodd" d="M10.2956 0.47634C9.54861 -0.15878 8.45139 -0.15878 7.70445 0.47634L0.704446 6.42838C0.257541 6.80837 0 7.36542 0 7.95204V18.0013C0 19.1059 0.895431 20.0013 2 20.0013H16C17.1046 20.0013 18 19.1059 18 18.0013V7.95204C18 7.36542 17.7425 6.80837 17.2956 6.42838L10.2956 0.47634ZM9 2L16 7.95204V18.0013H12.0029V14.218C12.0029 13.1134 11.1075 12.218 10.0029 12.218H8C6.89543 12.218 6 13.1134 6 14.218V18.0013H2V7.95204L9 2ZM8 18.0013H10.0029V14.218L8 14.218V18.0013Z" fill="#E739EB"/>
</svg>
