<svg width="24" height="24" viewBox="0 0 24 24" fill="none" xmlns="http://www.w3.org/2000/svg">
<path fill-rule="evenodd" clip-rule="evenodd" d="M12 3C12.3699 3 12.7096 3.20418 12.8832 3.53084L16.2686 9.90342L20.3147 6.09533C20.6265 5.8018 21.0907 5.73946 21.469 5.9403C21.8473 6.14115 22.0556 6.56058 21.9872 6.98335L19.8539 20.1598C19.7754 20.6441 19.3573 21 18.8667 21H4.86671C4.36861 21 3.94646 20.6334 3.87659 20.1403L2.00993 6.9638C1.95036 6.54335 2.16284 6.13113 2.53985 5.93571C2.91686 5.74029 3.37618 5.80429 3.68541 6.09533L7.7315 9.90342L11.1169 3.53085C11.2905 3.20419 11.6301 3 12 3ZM12 6.13149L8.88317 11.9986C8.7369 12.2739 8.4706 12.4653 8.163 12.5161C7.8554 12.5669 7.54171 12.4713 7.31469 12.2576L4.38988 9.50486L5.73503 19H18.0156L19.5426 9.5685L16.6854 12.2576C16.4584 12.4713 16.1447 12.5669 15.8371 12.5161C15.5295 12.4653 15.2632 12.2739 15.1169 11.9986L12 6.13149Z" fill="#E739EB"/>
</svg>
