<svg width="194" height="189" viewBox="0 0 194 189" fill="none" xmlns="http://www.w3.org/2000/svg">
<g filter="url(#filter0_d_139_2809)">
<path d="M178 93.5C178 138.235 141.735 174.5 97 174.5C52.2649 174.5 16 138.235 16 93.5C16 48.7649 52.2649 12.5 97 12.5C141.735 12.5 178 48.7649 178 93.5ZM40.3 93.5C40.3 124.815 65.6855 150.2 97 150.2C128.315 150.2 153.7 124.815 153.7 93.5C153.7 62.1855 128.315 36.8 97 36.8C65.6855 36.8 40.3 62.1855 40.3 93.5Z" fill="#EEEEEE"/>
</g>
<path d="M90.902 25.9205C90.3077 19.2367 95.2659 13.2409 101.964 13.6522C111.921 14.2635 121.716 16.7116 130.843 20.9089C143.664 26.8052 154.723 35.9489 162.923 47.4342C171.123 58.9194 176.18 72.3478 177.593 86.3889C179.006 100.43 176.726 114.597 170.979 127.486C165.232 140.375 156.218 151.539 144.829 159.871C133.439 168.204 120.071 173.417 106.047 174.993C92.023 176.569 77.8308 174.454 64.876 168.858C55.6538 164.873 47.2866 159.223 40.177 152.225C35.3949 147.517 36.5412 139.822 41.9103 135.797V135.797C47.2795 131.772 54.8272 132.989 59.9019 137.379C64.2582 141.148 69.1816 144.247 74.5131 146.55C83.5815 150.468 93.5161 151.949 103.333 150.845C113.149 149.742 122.507 146.093 130.48 140.26C138.452 134.427 144.763 126.612 148.785 117.59C152.808 108.568 154.404 98.6511 153.415 88.8223C152.426 78.9934 148.886 69.5936 143.146 61.5539C137.406 53.5142 129.665 47.1136 120.69 42.9862C115.414 40.5596 109.818 38.9683 104.103 38.2466C97.4455 37.406 91.4963 32.6044 90.902 25.9205V25.9205Z" fill="url(#paint0_linear_139_2809)"/>
<path d="M77.4517 104.248C76.5166 104.243 75.614 104.086 74.744 103.778C73.8799 103.47 73.1045 102.97 72.418 102.278C71.7314 101.585 71.1869 100.668 70.7844 99.5255C70.3879 98.3832 70.1896 96.9805 70.1896 95.3174C70.1955 93.7904 70.3701 92.4262 70.7134 91.2247C71.0626 90.0173 71.5598 88.9934 72.2049 88.153C72.8559 87.3125 73.6342 86.6733 74.5398 86.2353C75.4453 85.7915 76.4603 85.5695 77.5849 85.5695C78.7982 85.5695 79.8694 85.8063 80.7987 86.2797C81.7279 86.7473 82.4736 87.3835 83.0359 88.1885C83.604 88.9934 83.9473 89.896 84.0657 90.8962H80.2749C80.1269 90.2629 79.8162 89.7658 79.3427 89.4047C78.8692 89.0437 78.2833 88.8632 77.5849 88.8632C76.4012 88.8632 75.5015 89.3781 74.886 90.4079C74.2764 91.4378 73.9657 92.8375 73.9538 94.6072H74.0781C74.3504 94.0686 74.7173 93.6099 75.179 93.2311C75.6465 92.8464 76.1763 92.5534 76.7681 92.3522C77.3659 92.145 77.9962 92.0415 78.6591 92.0415C79.7363 92.0415 80.6951 92.296 81.5355 92.805C82.3759 93.308 83.0388 94.0005 83.5241 94.8824C84.0095 95.7642 84.2521 96.7733 84.2521 97.9097C84.2521 99.1408 83.9651 100.236 83.391 101.195C82.8228 102.153 82.0268 102.905 81.0028 103.449C79.9848 103.988 78.8011 104.254 77.4517 104.248ZM77.4339 101.23C78.0258 101.23 78.5555 101.088 79.0231 100.804C79.4906 100.52 79.8576 100.135 80.1239 99.6498C80.3903 99.1644 80.5234 98.6199 80.5234 98.0162C80.5234 97.4126 80.3903 96.871 80.1239 96.3916C79.8635 95.9122 79.5025 95.5304 79.0408 95.2464C78.5792 94.9623 78.0524 94.8202 77.4606 94.8202C77.0167 94.8202 76.6054 94.9031 76.2266 95.0688C75.8537 95.2345 75.5252 95.4653 75.2411 95.7613C74.9629 96.0572 74.744 96.4005 74.5842 96.7911C74.4244 97.1758 74.3445 97.5871 74.3445 98.0251C74.3445 98.6111 74.4776 99.1467 74.744 99.632C75.0162 100.117 75.3832 100.505 75.8448 100.795C76.3124 101.085 76.8421 101.23 77.4339 101.23ZM94.1065 104.399C92.5795 104.393 91.2656 104.018 90.1648 103.272C89.0698 102.526 88.2264 101.446 87.6346 100.032C87.0487 98.617 86.7586 96.9154 86.7646 94.9268C86.7646 92.944 87.0575 91.2543 87.6435 89.8575C88.2353 88.4607 89.0787 87.3983 90.1737 86.6704C91.2745 85.9365 92.5855 85.5695 94.1065 85.5695C95.6276 85.5695 96.9356 85.9365 98.0305 86.6704C99.1314 87.4043 99.9777 88.4696 100.57 89.8664C101.161 91.2572 101.454 92.944 101.449 94.9268C101.449 96.9213 101.153 98.6259 100.561 100.04C99.9748 101.455 99.1344 102.535 98.0394 103.281C96.9445 104.027 95.6335 104.399 94.1065 104.399ZM94.1065 101.212C95.1482 101.212 95.9798 100.688 96.6012 99.6409C97.2227 98.5933 97.5304 97.0219 97.5245 94.9268C97.5245 93.5477 97.3825 92.3995 97.0984 91.4822C96.8202 90.5648 96.4237 89.8753 95.9087 89.4136C95.3997 88.952 94.799 88.7211 94.1065 88.7211C93.0708 88.7211 92.2422 89.239 91.6207 90.2748C90.9993 91.3105 90.6856 92.8612 90.6797 94.9268C90.6797 96.3235 90.8188 97.4895 91.0969 98.4246C91.381 99.3538 91.7805 100.052 92.2955 100.52C92.8104 100.981 93.4141 101.212 94.1065 101.212ZM114.142 100.591V99.632C114.142 98.904 114.295 98.2352 114.603 97.6256C114.917 97.0101 115.37 96.5188 115.962 96.1519C116.559 95.779 117.287 95.5926 118.146 95.5926C119.016 95.5926 119.746 95.7761 120.338 96.143C120.936 96.51 121.386 97.0012 121.688 97.6167C121.996 98.2264 122.149 98.8981 122.149 99.632V100.591C122.149 101.319 121.996 101.991 121.688 102.606C121.38 103.216 120.927 103.704 120.329 104.071C119.732 104.444 119.004 104.63 118.146 104.63C117.275 104.63 116.545 104.444 115.953 104.071C115.361 103.704 114.911 103.216 114.603 102.606C114.295 101.991 114.142 101.319 114.142 100.591ZM116.725 99.632V100.591C116.725 101.011 116.826 101.408 117.027 101.78C117.234 102.153 117.607 102.34 118.146 102.34C118.684 102.34 119.051 102.156 119.246 101.789C119.448 101.422 119.548 101.023 119.548 100.591V99.632C119.548 99.2 119.454 98.7975 119.264 98.4246C119.075 98.0518 118.702 97.8653 118.146 97.8653C117.613 97.8653 117.243 98.0518 117.036 98.4246C116.829 98.7975 116.725 99.2 116.725 99.632ZM104.811 90.186V89.2272C104.811 88.4933 104.968 87.8215 105.282 87.2119C105.595 86.5964 106.048 86.1051 106.64 85.7382C107.238 85.3712 107.96 85.1878 108.806 85.1878C109.682 85.1878 110.416 85.3712 111.008 85.7382C111.6 86.1051 112.049 86.5964 112.357 87.2119C112.665 87.8215 112.819 88.4933 112.819 89.2272V90.186C112.819 90.9199 112.662 91.5916 112.348 92.2013C112.041 92.8109 111.588 93.2992 110.99 93.6661C110.398 94.0271 109.67 94.2076 108.806 94.2076C107.942 94.2076 107.211 94.0242 106.613 93.6572C106.021 93.2844 105.572 92.7961 105.264 92.1924C104.962 91.5828 104.811 90.914 104.811 90.186ZM107.412 89.2272V90.186C107.412 90.618 107.513 91.0175 107.714 91.3845C107.921 91.7514 108.285 91.9349 108.806 91.9349C109.351 91.9349 109.72 91.7514 109.916 91.3845C110.117 91.0175 110.218 90.618 110.218 90.186V89.2272C110.218 88.7951 110.123 88.3927 109.934 88.0198C109.744 87.6469 109.368 87.4605 108.806 87.4605C108.279 87.4605 107.915 87.6499 107.714 88.0287C107.513 88.4075 107.412 88.807 107.412 89.2272ZM105.983 104L118.483 85.8181H120.809L108.309 104H105.983Z" fill="#60AFDE"/>
<defs>
<filter id="filter0_d_139_2809" x="4" y="0.5" width="186" height="186" filterUnits="userSpaceOnUse" color-interpolation-filters="sRGB">
<feFlood flood-opacity="0" result="BackgroundImageFix"/>
<feColorMatrix in="SourceAlpha" type="matrix" values="0 0 0 0 0 0 0 0 0 0 0 0 0 0 0 0 0 0 127 0" result="hardAlpha"/>
<feMorphology radius="12" operator="dilate" in="SourceAlpha" result="effect1_dropShadow_139_2809"/>
<feOffset/>
<feComposite in2="hardAlpha" operator="out"/>
<feColorMatrix type="matrix" values="0 0 0 0 0 0 0 0 0 0 0 0 0 0 0 0 0 0 0.02 0"/>
<feBlend mode="normal" in2="BackgroundImageFix" result="effect1_dropShadow_139_2809"/>
<feBlend mode="normal" in="SourceGraphic" in2="effect1_dropShadow_139_2809" result="shape"/>
</filter>
<linearGradient id="paint0_linear_139_2809" x1="79.6902" y1="15.3711" x2="114.31" y2="173.629" gradientUnits="userSpaceOnUse">
<stop stop-color="#F8879C"/>
<stop offset="1" stop-color="#FFB0B2"/>
</linearGradient>
</defs>
</svg>
