<svg width="38" height="38" viewBox="0 0 38 38" fill="none" xmlns="http://www.w3.org/2000/svg">
<rect width="38" height="38" rx="5" fill="url(#paint0_linear_139_3631)"/>
<path d="M19.0001 8.36764C22.4619 8.36764 22.8723 8.37904 24.2403 8.44364C25.5057 8.50064 26.1935 8.71344 26.6495 8.89204C27.2537 9.12764 27.6869 9.40884 28.1391 9.86104C28.5913 10.3132 28.8725 10.7464 29.1081 11.3506C29.2867 11.8066 29.4957 12.4944 29.5565 13.7598C29.6173 15.1278 29.6325 15.5382 29.6325 19C29.6325 22.4618 29.6211 22.8722 29.5565 24.2402C29.4995 25.5056 29.2867 26.1934 29.1081 26.6494C28.8725 27.2536 28.5913 27.6868 28.1391 28.139C27.6869 28.5912 27.2537 28.8724 26.6495 29.108C26.1935 29.2866 25.5057 29.4956 24.2403 29.5564C22.8723 29.6172 22.4619 29.6324 19.0001 29.6324C15.5383 29.6324 15.1279 29.621 13.7599 29.5564C12.4945 29.4994 11.8067 29.2866 11.3507 29.108C10.7465 28.8724 10.3133 28.5912 9.86106 28.139C9.40886 27.6868 9.12766 27.2536 8.89206 26.6494C8.71346 26.1934 8.50446 25.5056 8.44366 24.2402C8.38285 22.8722 8.36766 22.4618 8.36766 19C8.36766 15.5382 8.37906 15.1278 8.44366 13.7598C8.50065 12.4944 8.71346 11.8066 8.89206 11.3506C9.12766 10.7464 9.40886 10.3132 9.86106 9.86104C10.3133 9.40884 10.7465 9.12764 11.3507 8.89204C11.8067 8.71344 12.4945 8.50444 13.7599 8.44364C15.1279 8.37904 15.5383 8.36764 19.0001 8.36764ZM19.0001 6.03064C15.4775 6.03064 15.0367 6.04584 13.6535 6.11044C12.2741 6.17504 11.3317 6.39164 10.5033 6.71464C9.65205 7.04144 8.92626 7.48604 8.20806 8.20804C7.48606 8.93004 7.04526 9.65204 6.71086 10.507C6.39166 11.3316 6.17126 12.274 6.10666 13.6572C6.04206 15.0404 6.02686 15.4812 6.02686 19.0038C6.02686 22.5264 6.04206 22.9672 6.10666 24.3504C6.17126 25.7298 6.38786 26.6722 6.71086 27.5006C7.04146 28.348 7.48606 29.0738 8.20806 29.792C8.93006 30.514 9.65206 30.9548 10.5071 31.2892C11.3317 31.6084 12.2741 31.8288 13.6573 31.8934C15.0405 31.958 15.4813 31.9732 19.0039 31.9732C22.5265 31.9732 22.9673 31.958 24.3505 31.8934C25.7299 31.8288 26.6723 31.6122 27.5007 31.2892C28.3481 30.9586 29.0739 30.514 29.7921 29.792C30.5141 29.07 30.9549 28.348 31.2893 27.493C31.6085 26.6684 31.8289 25.726 31.8935 24.3428C31.9581 22.9596 31.9733 22.5188 31.9733 18.9962C31.9733 15.4736 31.9581 15.0328 31.8935 13.6496C31.8289 12.2702 31.6123 11.3278 31.2893 10.4994C30.9587 9.65204 30.5141 8.92624 29.7921 8.20804C29.0701 7.48604 28.3481 7.04524 27.4931 6.71084C26.6685 6.39164 25.7261 6.17124 24.3429 6.10664C22.9635 6.04584 22.5227 6.03064 19.0001 6.03064Z" fill="white"/>
<path d="M19 12.3386C15.3216 12.3386 12.3386 15.3216 12.3386 19C12.3386 22.6784 15.3216 25.6614 19 25.6614C22.6784 25.6614 25.6614 22.6784 25.6614 19C25.6614 15.3216 22.6784 12.3386 19 12.3386ZM19 23.3244C16.6136 23.3244 14.6756 21.3902 14.6756 19C14.6756 16.6098 16.6136 14.6756 19 14.6756C21.3864 14.6756 23.3244 16.6098 23.3244 19C23.3244 21.3902 21.3864 23.3244 19 23.3244Z" fill="white"/>
<path d="M25.9235 13.6344C26.7839 13.6344 27.4815 12.9369 27.4815 12.0764C27.4815 11.216 26.7839 10.5184 25.9235 10.5184C25.063 10.5184 24.3655 11.216 24.3655 12.0764C24.3655 12.9369 25.063 13.6344 25.9235 13.6344Z" fill="white"/>
<defs>
<linearGradient id="paint0_linear_139_3631" x1="5.56497" y1="32.435" x2="32.435" y2="5.56497" gradientUnits="userSpaceOnUse">
<stop stop-color="#FFD521"/>
<stop offset="0.0551048" stop-color="#FFD020"/>
<stop offset="0.1241" stop-color="#FEC01E"/>
<stop offset="0.2004" stop-color="#FCA71B"/>
<stop offset="0.2821" stop-color="#FA8316"/>
<stop offset="0.3681" stop-color="#F85510"/>
<stop offset="0.4563" stop-color="#F51E09"/>
<stop offset="0.5" stop-color="#F30005"/>
<stop offset="0.5035" stop-color="#F20007"/>
<stop offset="0.5966" stop-color="#E1003B"/>
<stop offset="0.6879" stop-color="#D30067"/>
<stop offset="0.7757" stop-color="#C70088"/>
<stop offset="0.8589" stop-color="#BF00A0"/>
<stop offset="0.9357" stop-color="#BB00AF"/>
<stop offset="1" stop-color="#B900B4"/>
</linearGradient>
</defs>
</svg>
