<svg width="38" height="38" viewBox="0 0 38 38" fill="none" xmlns="http://www.w3.org/2000/svg">
<rect width="38" height="38" rx="5" fill="#DCDADA"/>
<path d="M32.3594 16.9692C32.3594 12.0708 26.5703 6.72705 19 6.72705C11.6245 6.72705 5.64062 11.0688 5.64062 16.9692C5.64062 22.4132 10.3053 26.9108 16.8681 27.5732C17.068 27.5897 17.2615 27.6514 17.4341 27.7536C17.6067 27.8558 17.7539 27.9959 17.8645 28.1633C18.0221 28.4114 18.107 28.6987 18.1094 28.9927C18.0941 29.5966 18.027 30.1981 17.909 30.7906C17.8908 30.8709 17.8952 30.9547 17.9218 31.0326C17.9484 31.1106 17.996 31.1796 18.0594 31.2321C18.1229 31.2846 18.1996 31.3184 18.2812 31.3299C18.3627 31.3414 18.4458 31.3301 18.5213 31.2972C21.6663 29.9056 32.3594 24.1833 32.3594 16.9692Z" fill="white"/>
<path d="M14.1016 19.4185H12.0977V14.7427C12.0977 14.5655 12.0273 14.3956 11.902 14.2704C11.7767 14.1451 11.6068 14.0747 11.4297 14.0747C11.2525 14.0747 11.0826 14.1451 10.9574 14.2704C10.8321 14.3956 10.7617 14.5655 10.7617 14.7427V20.0864C10.7617 20.2636 10.8321 20.4335 10.9574 20.5588C11.0826 20.684 11.2525 20.7544 11.4297 20.7544H14.1016C14.2787 20.7544 14.4486 20.684 14.5739 20.5588C14.6992 20.4335 14.7695 20.2636 14.7695 20.0864C14.7695 19.9093 14.6992 19.7394 14.5739 19.6141C14.4486 19.4888 14.2787 19.4185 14.1016 19.4185Z" fill="#DCDADA"/>
<path d="M15.8828 14.0747C15.7057 14.0747 15.5358 14.1451 15.4105 14.2704C15.2852 14.3956 15.2148 14.5655 15.2148 14.7427V20.0864C15.2148 20.2636 15.2852 20.4335 15.4105 20.5588C15.5358 20.684 15.7057 20.7544 15.8828 20.7544C16.06 20.7544 16.2299 20.684 16.3551 20.5588C16.4804 20.4335 16.5508 20.2636 16.5508 20.0864V14.7427C16.5508 14.5655 16.4804 14.3956 16.3551 14.2704C16.2299 14.1451 16.06 14.0747 15.8828 14.0747Z" fill="#DCDADA"/>
<path d="M22.1171 14.0747C22.0294 14.0747 21.9426 14.092 21.8615 14.1256C21.7805 14.1591 21.7068 14.2083 21.6448 14.2704C21.5828 14.3324 21.5336 14.406 21.5 14.4871C21.4664 14.5681 21.4492 14.655 21.4492 14.7427V18.0825L18.666 14.3419C18.5818 14.2297 18.4646 14.1469 18.3308 14.1051C18.1969 14.0633 18.0534 14.0647 17.9204 14.109C17.7874 14.1533 17.6717 14.2384 17.5897 14.3521C17.5077 14.4658 17.4636 14.6025 17.4636 14.7427V20.0864C17.492 20.2399 17.5732 20.3786 17.6932 20.4785C17.8132 20.5783 17.9644 20.633 18.1205 20.633C18.2765 20.633 18.4277 20.5783 18.5477 20.4785C18.6677 20.3786 18.7489 20.2399 18.7773 20.0864V16.7466L21.5605 20.4872C21.6246 20.5736 21.7088 20.6431 21.8058 20.6896C21.9028 20.7362 22.0096 20.7584 22.1171 20.7544C22.1889 20.7542 22.2603 20.7429 22.3287 20.721C22.4618 20.6766 22.5775 20.5914 22.6594 20.4774C22.7413 20.3635 22.7853 20.2267 22.7851 20.0864V14.7427C22.7851 14.655 22.7678 14.5681 22.7343 14.4871C22.7007 14.406 22.6515 14.3324 22.5895 14.2704C22.5274 14.2083 22.4538 14.1591 22.3728 14.1256C22.2917 14.092 22.2049 14.0747 22.1171 14.0747Z" fill="#DCDADA"/>
<path d="M27.0156 18.0825C27.1033 18.0825 27.1902 18.0652 27.2712 18.0317C27.3523 17.9981 27.4259 17.9489 27.488 17.8869C27.55 17.8248 27.5992 17.7512 27.6328 17.6702C27.6663 17.5891 27.6836 17.5023 27.6836 17.4146C27.6836 17.3268 27.6663 17.24 27.6328 17.1589C27.5992 17.0779 27.55 17.0043 27.488 16.9422C27.4259 16.8802 27.3523 16.831 27.2712 16.7974C27.1902 16.7639 27.1033 16.7466 27.0156 16.7466H25.0117V15.4106H27.0156C27.1928 15.4106 27.3627 15.3403 27.488 15.215C27.6132 15.0897 27.6836 14.9198 27.6836 14.7427C27.6836 14.5655 27.6132 14.3956 27.488 14.2704C27.3627 14.1451 27.1928 14.0747 27.0156 14.0747H24.3438C24.1666 14.0747 23.9967 14.1451 23.8714 14.2704C23.7462 14.3956 23.6758 14.5655 23.6758 14.7427V20.0864C23.6758 20.2636 23.7462 20.4335 23.8714 20.5588C23.9967 20.684 24.1666 20.7544 24.3438 20.7544H27.0156C27.1928 20.7544 27.3627 20.684 27.488 20.5588C27.6132 20.4335 27.6836 20.2636 27.6836 20.0864C27.6836 19.9093 27.6132 19.7394 27.488 19.6141C27.3627 19.4888 27.1928 19.4185 27.0156 19.4185H25.0117V18.0825H27.0156Z" fill="#DCDADA"/>
</svg>
