<svg width="56" height="56" viewBox="0 0 56 56" fill="none" xmlns="http://www.w3.org/2000/svg">
<path d="M28 56C43.464 56 56 43.464 56 28C56 12.536 43.464 0 28 0C12.536 0 0 12.536 0 28C0 43.464 12.536 56 28 56Z" fill="#DC5E4F"/>
<path d="M45.4884 27.9517C45.5246 29.2917 45.3128 30.5912 44.9484 31.8807C44.5829 33.1691 44.0858 34.3928 43.4141 35.5463C42.6821 36.8007 41.8008 37.9454 40.767 38.9693C40.5508 39.1833 40.3445 39.4072 40.1349 39.6267C39.6937 39.9658 39.258 40.3137 38.8091 40.6419C37.3198 41.7317 35.701 42.5679 33.9517 43.1716C32.8893 43.5392 31.805 43.8092 30.7031 43.9672C29.0251 44.2054 27.3349 44.2284 25.6426 44.0155C24.7394 43.9025 23.8494 43.7532 22.9725 43.5129C22.8122 43.469 22.674 43.5392 22.5401 43.6138C21.6105 44.1264 20.6798 44.64 19.7492 45.1536C18.9008 45.6222 18.0503 46.0887 17.2052 46.565C16.9473 46.7098 16.9188 46.5979 16.9188 46.3685C16.9232 44.6466 16.9122 42.9257 16.9276 41.2038C16.9319 40.7648 16.7904 40.4663 16.4271 40.2018C15.8136 39.7562 15.2671 39.2228 14.7381 38.6763C14.6415 38.5775 14.5559 38.4601 14.4143 38.4151C14.3858 38.3734 14.3562 38.3328 14.3276 38.2911C14.3046 38.2669 14.2815 38.2428 14.2596 38.2197C14.0434 37.7873 13.6889 37.457 13.4024 37.0784C12.5058 35.8942 11.8243 34.6013 11.2832 33.224C10.9079 32.2692 10.6686 31.2782 10.4623 30.2795C10.256 29.2775 10.3229 28.2546 10.3086 27.2394C10.2922 26.0037 10.5358 24.814 10.842 23.6222C11.2591 22.0045 11.9615 20.5196 12.8724 19.1389C13.6647 17.9394 14.6097 16.8628 15.6951 15.9003C16.9297 14.805 18.2731 13.8908 19.7547 13.1763C21.0705 12.5409 22.4435 12.0832 23.8735 11.7474C25.7414 11.3073 27.628 11.2876 29.5145 11.3787C30.4913 11.4248 31.4681 11.63 32.4327 11.8736C33.9034 12.2435 35.3027 12.7725 36.6405 13.4749C37.4076 13.8776 38.1298 14.3517 38.8311 14.8599C38.9518 14.9488 39.0637 15.0585 39.2196 15.0892C39.8298 15.717 40.5409 16.2372 41.1358 16.8847C42.4933 18.3586 43.5919 19.995 44.3634 21.8519C44.7037 22.6739 44.9912 23.5168 45.1712 24.3772C45.3534 25.2475 45.541 26.1332 45.4917 27.0408C45.473 27.3415 45.4807 27.6477 45.4884 27.9517Z" fill="white"/>
<path d="M38.1902 23.5003C38.1079 23.5991 38.03 23.7023 37.9422 23.7967C37.1092 24.6878 36.274 25.5779 35.4388 26.4657C35.4037 26.503 35.3576 26.5305 35.3159 26.5623C35.2951 26.5843 35.2742 26.6073 35.2544 26.6293C35.2336 26.6501 35.2127 26.6721 35.1919 26.6929L35.1908 26.694C34.9724 27.0024 34.7123 27.2724 34.4237 27.5149L34.4215 27.5182C34.4017 27.5391 34.383 27.561 34.3633 27.5819L34.3611 27.5841C34.3402 27.6049 34.3205 27.6269 34.3007 27.6477L34.2996 27.6488C34.0187 28.0483 33.6554 28.3742 33.3251 28.7298C32.1596 29.9864 30.9798 31.2299 29.8142 32.4865C29.6485 32.6643 29.5465 32.695 29.3731 32.4953C28.9033 31.9531 28.3733 31.4648 27.931 30.8974L27.9299 30.8963C27.278 30.2915 26.7007 29.6155 26.0971 28.9658C25.5132 28.3369 25.522 28.3205 24.7614 28.7375C23.0362 29.6824 21.3143 30.6351 19.5901 31.5822C19.4892 31.6371 19.3805 31.6777 19.2751 31.7249C19.2751 31.7249 19.2751 31.7249 19.274 31.7249C18.8757 32.0036 18.4444 32.2209 18.0054 32.4261C17.9527 32.4514 17.8802 32.5502 17.8199 32.447C17.7815 32.3811 17.8572 32.334 17.8978 32.2901C18.2446 31.918 18.5925 31.5471 18.9404 31.1761C20.3891 29.6298 21.8389 28.0834 23.2886 26.5371C23.3237 26.4998 23.3698 26.4723 23.4104 26.4405L23.4115 26.4383C23.6903 26.063 24.0195 25.7348 24.3642 25.4209L24.3653 25.4187C24.9381 24.724 25.5802 24.093 26.1904 23.4334C26.3243 23.2885 26.3901 23.4147 26.4658 23.4938C27.2066 24.2675 27.9463 25.0412 28.6849 25.816C29.226 26.3834 29.7703 26.9475 30.3037 27.5226C30.4376 27.6664 30.5441 27.6784 30.712 27.583C31.4572 27.1571 32.2089 26.7434 32.9607 26.3274C33.0617 26.2715 33.1703 26.2309 33.2757 26.1826L33.2779 26.1815C33.8848 25.7732 34.5422 25.455 35.1765 25.0939C36.0249 24.6121 36.8787 24.1413 37.7315 23.6661C37.8686 23.5914 38.008 23.5223 38.1902 23.5003Z" fill="#DC5E4F"/>
</svg>
