<svg width="32" height="32" viewBox="0 0 32 32" fill="none" xmlns="http://www.w3.org/2000/svg">
<g clip-path="url(#clip0_382_7272)">
<path d="M16.8853 31.9999H15.0303C15.0005 31.9351 14.9408 31.9632 14.8948 31.9598C14.0526 31.9061 13.2189 31.7876 12.398 31.5924C9.61986 30.9317 7.16737 29.6512 5.0857 27.6913C2.13026 24.9087 0.476518 21.4833 0.0656384 17.45C0.0502944 17.3026 0.0784251 17.1457 0 17.0067V15.0357C0.0613762 15.0042 0.0358028 14.9453 0.0383601 14.8985C0.139801 13.4338 0.433043 12.0101 0.930019 10.6291C2.03394 7.56598 3.89653 5.05958 6.50673 3.12267C8.84073 1.39207 11.4722 0.39377 14.3586 0.0885698C16.4948 -0.137347 18.5978 0.0664044 20.6539 0.701528C24.3484 1.84305 27.2809 4.02719 29.3847 7.25993C31.7187 10.8465 32.4842 14.7868 31.7059 18.9939C31.1672 21.9078 29.8979 24.4918 27.8963 26.6853C25.0722 29.78 21.5669 31.5387 17.3865 31.9368C17.2194 31.953 17.0438 31.9181 16.8844 31.9991L16.8853 31.9999ZM15.9996 1.85924C8.20821 1.85413 1.8643 8.18917 1.85492 15.9837C1.84555 23.791 8.15962 30.1193 15.9834 30.1448C23.7662 30.1696 30.1357 23.8098 30.1383 16.0101C30.1408 8.20536 23.8063 1.86436 15.9996 1.85924Z" fill="#B1B1B1"/>
<path d="M10.37 25.9644C10.6769 25.6762 10.9403 25.4137 11.1713 25.1204C12.3954 23.5714 13.1294 21.799 13.5607 19.8894C13.7815 18.9124 13.8855 17.9226 13.8548 16.92C13.8497 16.7436 13.8096 16.7282 13.6502 16.7956C12.9768 17.082 12.3067 17.3779 11.6461 17.6924C11.5106 17.7572 11.4159 17.7504 11.3017 17.6558C11.1397 17.5211 10.9633 17.4043 10.774 17.2662C11.3674 16.926 11.9393 16.6004 12.5096 16.2713C13.9076 15.464 15.2895 14.631 16.5639 13.6328C16.7105 13.5177 16.7275 13.464 16.5869 13.3276C15.8316 12.5918 15.2826 11.7078 14.7891 10.7862C14.7285 10.6737 14.6629 10.6191 14.5274 10.6114C14.1549 10.5901 13.784 10.5475 13.4115 10.5151C13.241 10.4998 13.0884 10.4461 12.9529 10.3361C12.4943 9.96523 12.1397 9.50232 11.762 9.01212C12.2488 8.98655 12.7014 8.96097 13.1541 8.9388C14.5171 8.87316 15.8811 8.80496 17.2441 8.74784C17.4018 8.74102 17.4155 8.69754 17.3882 8.56029C17.2228 7.7163 16.7855 7.02491 16.205 6.4111C16.0072 6.20138 15.795 6.00701 15.5529 5.8186C16.4036 5.55773 17.2075 5.57734 17.9875 5.98228C18.504 6.24997 18.972 6.57308 19.2636 7.09396C19.544 7.59524 19.5756 8.09396 19.2056 8.57308C19.1937 8.58842 19.1843 8.60462 19.1749 8.62167C19.1724 8.62593 19.1758 8.6336 19.1732 8.614C19.5133 8.614 19.8509 8.62508 20.1868 8.61144C20.9267 8.58245 21.6658 8.53898 22.4057 8.50658C22.5267 8.50146 22.6299 8.45543 22.7364 8.41366C23.155 8.25083 23.5744 8.09226 24.0253 8.03429C24.2137 8.00956 24.3714 8.05986 24.5104 8.17069C25.0321 8.58501 25.4489 9.08544 25.726 9.69413C25.7677 9.7862 25.7916 9.88936 25.8078 9.98996C25.8359 10.1741 25.7575 10.2969 25.5776 10.3599C25.2026 10.4912 24.8147 10.5049 24.4345 10.429C23.8932 10.3216 23.3579 10.3923 22.8191 10.4205C22.7739 10.423 22.7279 10.4367 22.6844 10.4299C22.2625 10.3651 21.9871 10.568 21.7178 10.8749C21.0682 11.6148 20.3871 12.3276 19.7145 13.0471C19.6097 13.1588 19.5994 13.2022 19.7571 13.2738C22.1934 14.3855 24.6255 15.5032 27.06 16.6191C27.2314 16.6975 27.3934 16.7862 27.5118 16.938C27.7079 17.1886 27.6431 17.4605 27.3584 17.5893C26.5511 17.955 25.743 18.3182 24.9392 18.6907C24.8249 18.7436 24.7465 18.7376 24.6425 18.6694C24.0253 18.2653 23.403 17.8689 22.7484 17.4478C22.7825 17.8058 22.8123 18.1281 22.8438 18.4495C23.0101 20.1485 23.0945 21.8518 23.109 23.5594C23.1149 24.2355 23.1311 24.9124 22.9495 25.5731C22.895 25.7726 22.8259 25.9652 22.704 26.1349C22.5404 26.3617 22.3315 26.4205 22.0792 26.3062C21.8976 26.2235 21.7246 26.1255 21.5609 26.0096C21.1884 25.747 21.0153 25.3779 21.0222 24.9337C21.0324 24.2704 21.0682 23.608 21.0852 22.9456C21.0938 22.5978 21.0776 22.25 21.0887 21.9021C21.0938 21.741 21.0426 21.6984 20.8832 21.6992C19.3701 21.7052 17.857 21.7027 16.3431 21.7027C15.9441 21.7027 15.5435 21.7189 15.1454 21.6958C14.9357 21.6839 14.8624 21.77 14.7916 21.9456C14.3756 22.9823 13.8105 23.9269 12.9947 24.7035C12.3843 25.2849 11.6913 25.7248 10.855 25.9107C10.711 25.9422 10.5652 25.9627 10.3674 25.9644H10.37ZM18.2705 17.1161H18.9652C19.4861 17.1161 20.0069 17.111 20.5277 17.1195C20.6854 17.1221 20.7605 17.1076 20.7187 16.9166C20.6633 16.6669 20.6377 16.4094 20.6062 16.1545C20.5968 16.0761 20.5627 16.0309 20.4979 15.9891C19.752 15.5108 19.007 15.0309 18.2645 14.5475C18.1878 14.4972 18.1349 14.4998 18.0599 14.5501C17.4001 14.9959 16.7113 15.394 15.9919 15.7368C15.9041 15.7785 15.8751 15.8314 15.8725 15.9277C15.8649 16.2687 15.8546 16.6097 15.8282 16.949C15.8171 17.0931 15.864 17.1195 15.9944 17.1187C16.7531 17.1136 17.5118 17.1161 18.2713 17.1161H18.2705ZM15.3721 20.1579C15.396 20.1664 15.4088 20.1732 15.4207 20.1732C17.2475 20.1741 19.0752 20.1732 20.902 20.1775C21.0188 20.1775 21.0239 20.1289 21.017 20.0403C20.9847 19.6362 20.9497 19.2329 20.9284 18.828C20.9207 18.6745 20.8568 18.6455 20.7153 18.6455C19.0939 18.6507 17.4726 18.6489 15.8512 18.6489C15.8129 18.6489 15.7736 18.6498 15.7353 18.6489C15.6833 18.6489 15.6535 18.666 15.6449 18.724C15.575 19.2056 15.4744 19.6822 15.3713 20.157L15.3721 20.1579ZM15.8239 10.6558C16.2851 11.198 17.2526 11.9925 17.8451 12.3369C17.944 12.394 17.9883 12.3634 18.0514 12.296C18.3975 11.9243 18.747 11.5552 19.0607 11.1545C19.2005 10.9755 19.3369 10.7939 19.4988 10.5807C18.2534 10.6438 17.0532 10.6319 15.8239 10.6558Z" fill="#B1B1B1"/>
<path d="M5.16833 21.7227C5.92787 21.8301 6.64648 21.9947 7.34634 22.2351C7.48273 22.282 7.52791 22.2589 7.5765 22.1242C8.5892 19.3578 9.60703 16.594 10.624 13.8293C10.6453 13.7704 10.67 13.7125 10.699 13.6392C10.9403 14.0918 10.9752 14.5369 10.8951 15.0296C10.4671 17.663 10.0656 20.3007 9.65476 22.9375C9.64965 22.9691 9.64283 23.0006 9.63601 23.0322C9.58145 23.3041 9.57975 23.5479 9.71614 23.8225C9.93351 24.2581 9.94374 24.7329 9.67011 25.1686C9.44932 25.5207 9.11005 25.6502 8.70769 25.6025C8.23203 25.5454 7.85866 25.2939 7.53387 24.9546C6.75559 24.1413 6.13245 23.212 5.51784 22.276C5.40191 22.0995 5.29279 21.9196 5.16833 21.7227Z" fill="#B1B1B1"/>
<path d="M4.37048 13.447C5.51191 13.3429 6.60134 13.2909 7.67712 13.5723C8.11869 13.6882 8.5219 13.8792 8.81855 14.2458C8.96261 14.4239 9.05638 14.6251 9.10071 14.8502C9.18595 15.285 8.97796 15.6805 8.56623 15.8485C8.18944 16.0019 7.81437 15.9934 7.44611 15.8161C6.76245 15.487 6.17597 15.0164 5.5946 14.539C5.18372 14.2014 4.78307 13.8519 4.37134 13.4461L4.37048 13.447Z" fill="#B1B1B1"/>
<path d="M6.75903 7.57031C7.27135 7.63084 7.75554 7.75787 8.23462 7.89512C8.80917 8.05966 9.37008 8.26596 9.88155 8.5831C10.3572 8.87807 10.7536 9.23954 10.8755 9.82351C11.0366 10.5993 10.4731 11.1577 9.69571 11.0017C9.23283 10.9088 8.92595 10.6019 8.63442 10.2762C7.91154 9.46801 7.32932 8.55838 6.76926 7.63425C6.7633 7.62487 6.765 7.60953 6.75989 7.57116L6.75903 7.57031Z" fill="#B1B1B1"/>
</g>
<defs>
<clipPath id="clip0_382_7272">
<rect width="32" height="32" fill="#B1B1B1"/>
</clipPath>
</defs>
</svg>
