<svg width="34" height="34" viewBox="0 0 34 34" fill="none" xmlns="http://www.w3.org/2000/svg">
<path d="M29.4992 25.8546L25.8525 29.5014C25.3338 30.02 24.4929 30.02 23.9742 29.5014L4.49835 10.0255C3.97972 9.50685 3.97972 8.66588 4.49835 8.14725L8.14512 4.50049C8.66375 3.98185 9.50472 3.98185 10.0233 4.50049L29.4992 23.9764C30.0179 24.495 30.0179 25.336 29.4992 25.8546Z" fill="#F1F2F2"/>
<path d="M25.3818 28.0938L5.9059 8.61794C5.38726 8.09931 5.38726 7.25834 5.9059 6.73971L8.14512 4.50049L4.49835 8.14725C3.97972 8.66589 3.97972 9.50686 4.49835 10.0255L23.9742 29.5014C24.4929 30.02 25.3338 30.02 25.8525 29.5014L27.26 28.0938C26.7413 28.6125 25.9004 28.6125 25.3818 28.0938V28.0938Z" fill="#E6E7E8"/>
<path d="M12.3191 6.79642L9.34007 9.7754C9.23634 9.87913 9.0682 9.87913 8.96447 9.7754L8.17716 8.98809C8.07343 8.88436 8.07343 8.71622 8.17716 8.61249L11.1561 5.63338L12.3191 6.79642Z" fill="#D1D3D4"/>
<path d="M15.468 9.94527L12.489 12.9243C12.3853 13.028 12.2171 13.028 12.1134 12.9243L11.3261 12.1369C11.2224 12.0332 11.2224 11.8651 11.3261 11.7613L14.3051 8.78236L15.468 9.94527Z" fill="#D1D3D4"/>
<path d="M18.6169 13.0941L15.6379 16.0731C15.5342 16.1768 15.3661 16.1768 15.2623 16.0731L14.475 15.2858C14.3713 15.1821 14.3713 15.0139 14.475 14.9102L17.454 11.9312L18.6169 13.0941Z" fill="#D1D3D4"/>
<path d="M21.7658 16.2431L18.7868 19.2221C18.6831 19.3258 18.515 19.3258 18.4113 19.2221L17.6239 18.4348C17.5202 18.3311 17.5202 18.1629 17.6239 18.0592L20.6029 15.0802L21.7658 16.2431Z" fill="#D1D3D4"/>
<path d="M24.9148 19.392L21.9358 22.3709C21.832 22.4747 21.6639 22.4747 21.5602 22.3709L20.7729 21.5836C20.6691 21.4799 20.6691 21.3118 20.7729 21.208L23.7518 18.229L24.9148 19.392Z" fill="#D1D3D4"/>
<path d="M28.0634 22.5408L25.0845 25.5198C24.9807 25.6235 24.8126 25.6235 24.7089 25.5198L23.9215 24.7325C23.8178 24.6288 23.8178 24.4606 23.9215 24.3569L26.9005 21.3779L28.0634 22.5408Z" fill="#D1D3D4"/>
<path d="M4.40861 29.015L6.24528 22.9202C6.35485 22.5565 6.55287 22.2255 6.82142 21.957L24.4086 4.36979C24.9272 3.85116 25.7682 3.85116 26.2868 4.36979L29.6325 7.71547C30.1511 8.23411 30.1511 9.07507 29.6325 9.59371L12.1274 27.0988C11.8628 27.3634 11.5379 27.5594 11.1806 27.6699L4.98555 29.5873C4.63333 29.6965 4.30236 29.3679 4.40861 29.015V29.015Z" fill="#FFA91A"/>
<path d="M8.58089 21.59C8.50917 21.59 8.44276 21.5621 8.39229 21.5116C8.28883 21.4081 8.28883 21.2407 8.39229 21.1371C8.49336 21.0362 8.66854 21.0362 8.76815 21.1371C8.87175 21.2407 8.87175 21.4081 8.76815 21.5116C8.71782 21.5621 8.65141 21.59 8.58089 21.59ZM9.33141 20.8382C9.26102 20.8382 9.19461 20.8103 9.14414 20.7611C9.04055 20.6577 9.04055 20.4889 9.14414 20.3854L23.9818 5.54758C24.0814 5.44664 24.2567 5.44664 24.3577 5.54758C24.4083 5.59805 24.4347 5.66446 24.4347 5.73485C24.4347 5.80657 24.4068 5.87297 24.3577 5.92211L9.52 20.7611C9.46954 20.8103 9.40313 20.8382 9.33141 20.8382V20.8382Z" fill="#FFC91D"/>
<path d="M29.6323 7.71547L28.3042 6.38734C28.8228 6.90611 28.8228 7.74695 28.3042 8.26558L10.7991 25.7708C10.5345 26.0352 10.2095 26.2314 9.85227 26.3419L4.73686 27.9251L4.40841 29.015C4.30203 29.3679 4.633 29.6965 4.98522 29.5876L11.1803 27.6701C11.5377 27.5595 11.8626 27.3635 12.1271 27.0991L29.6323 9.5937C30.1511 9.07507 30.1511 8.2341 29.6323 7.71547V7.71547Z" fill="#F79219"/>
<path d="M29.6323 7.71547L28.9682 7.05141C29.4869 7.57004 29.4869 8.41101 28.9682 8.92964L11.4631 26.4349C11.1986 26.6993 10.8736 26.8955 10.5163 27.006L4.44786 28.8842L4.40841 29.015C4.30203 29.3679 4.633 29.6965 4.98522 29.5876L11.1803 27.6701C11.5377 27.5595 11.8626 27.3635 12.1271 27.0991L29.6323 9.5937C30.1511 9.07507 30.1511 8.2341 29.6323 7.71547V7.71547Z" fill="#EF7816"/>
<path d="M4.40841 29.0149C4.30203 29.3679 4.633 29.6963 4.98522 29.5874L11.1803 27.67C11.5006 27.5708 11.7949 27.4029 12.043 27.1788L6.82109 21.9568C6.55241 22.2255 6.35452 22.5563 6.24494 22.9201L4.40841 29.0149Z" fill="#FFD2C0"/>
<path d="M4.91069 27.3489L4.40866 29.0149C4.30227 29.3678 4.63324 29.6963 4.98546 29.5873L6.63778 29.0758L4.91069 27.3489Z" fill="#808285"/>
</svg>
