<svg width="20" height="20" viewBox="0 0 20 20" fill="none" xmlns="http://www.w3.org/2000/svg">
    <path fill-rule="evenodd" clip-rule="evenodd" d="M7.22206 1.66675C6.19931 1.66675 5.37021 2.45221 5.37021 3.42113V5.17552H4.44428H2.59243C2.08106 5.17552 1.6665 5.56825 1.6665 6.05271C1.6665 6.53717 2.08106 6.9299 2.59243 6.9299H3.52947L3.6528 16.6002C3.66505 17.5608 4.49049 18.3334 5.50451 18.3334H14.6295C15.6522 18.3334 16.4813 17.5479 16.4813 16.579V6.9299H17.4072C17.9186 6.9299 18.3332 6.53717 18.3332 6.05271C18.3332 5.56825 17.9186 5.17552 17.4072 5.17552H15.5554H14.6295V3.42113C14.6295 2.45221 13.8004 1.66675 12.7776 1.66675H7.22206ZM12.7776 5.17552V3.42113H7.22206V5.17552H12.7776ZM7.22206 6.9299H5.38146L5.50451 16.579L14.6295 16.579V6.9299H12.7776H7.22206ZM9.07391 8.68429C9.07391 8.19983 8.65936 7.80709 8.14799 7.80709C7.63661 7.80709 7.22206 8.19983 7.22206 8.68429V13.9474C7.22206 14.4319 7.63661 14.8246 8.14799 14.8246C8.65936 14.8246 9.07391 14.4319 9.07391 13.9474V8.68429ZM11.8517 7.80709C12.3631 7.80709 12.7776 8.19983 12.7776 8.68429V13.9474C12.7776 14.4319 12.3631 14.8246 11.8517 14.8246C11.3403 14.8246 10.9258 14.4319 10.9258 13.9474V8.68429C10.9258 8.19983 11.3403 7.80709 11.8517 7.80709Z" fill="#F72121"/>
</svg>
