<svg width="24" height="24" viewBox="0 0 24 24" fill="none" xmlns="http://www.w3.org/2000/svg">
<path d="M8.48438 20.4373C8.48438 21.6004 9.43063 22.5467 10.5937 22.5467C11.7568 22.5467 12.7031 21.6004 12.7031 20.4373C12.7031 19.2743 11.7568 18.328 10.5937 18.328C9.43063 18.328 8.48438 19.2743 8.48438 20.4373ZM10.5937 19.7342C10.9814 19.7342 11.2968 20.0496 11.2968 20.4373C11.2968 20.825 10.9814 21.1405 10.5937 21.1405C10.206 21.1405 9.8906 20.825 9.8906 20.4373C9.8906 20.0496 10.206 19.7342 10.5937 19.7342Z" fill="#DC5E4F"/>
<path d="M15.5625 20.4373C15.5625 21.6004 16.5088 22.5467 17.6718 22.5467C18.8349 22.5467 19.7812 21.6004 19.7812 20.4373C19.7812 19.2743 18.8349 18.328 17.6718 18.328C16.5088 18.328 15.5625 19.2743 15.5625 20.4373ZM17.6718 19.7342C18.0595 19.7342 18.375 20.0496 18.375 20.4373C18.375 20.825 18.0595 21.1405 17.6718 21.1405C17.2841 21.1405 16.9687 20.825 16.9687 20.4373C16.9687 20.0496 17.2841 19.7342 17.6718 19.7342Z" fill="#DC5E4F"/>
<path d="M23.2965 4.26573H5.49915C5.2584 3.42298 5.03406 2.63774 4.84136 1.96327C4.75516 1.6614 4.47921 1.45328 4.16529 1.45328H0.703114C0.314808 1.45328 0 1.76809 0 2.15639C0 2.5447 0.314808 2.85951 0.703114 2.85951H3.63491C4.42118 5.61178 6.25931 12.0454 7.02992 14.7426L6.76354 15.2753C6.06159 16.6794 7.08387 18.328 8.65022 18.328H20.4841C20.8724 18.328 21.1872 18.0132 21.1872 17.6249C21.1872 17.2366 20.8724 16.9218 20.4841 16.9218H8.65022C8.1273 16.9218 7.78769 16.3716 8.02131 15.9042L8.21565 15.5156H20.4841C20.798 15.5156 21.0739 15.3075 21.1601 15.0056L23.9726 5.16202C24.1007 4.71366 23.7638 4.26573 23.2965 4.26573ZM19.9537 14.1093H8.31151C7.92841 12.7684 6.85621 9.01574 5.90091 5.67196H22.3644L19.9537 14.1093Z" fill="#DC5E4F"/>
</svg>
