<svg width="32" height="32" viewBox="0 0 32 32" fill="none" xmlns="http://www.w3.org/2000/svg">
  <path d="M28.8431 13.3672L28.8334 13.4158V13.4653C28.8334 13.5703 28.7836 13.6478 28.7098 13.6847L28.6401 13.7196L28.5843 13.7741L23.1176 19.1074L22.9287 19.2917L22.9743 19.5517L24.3069 27.1475C24.307 27.1482 24.3071 27.1488 24.3072 27.1495C24.3904 27.6547 24.0699 28.0637 23.6777 28.1653H23.6774H23.6768H23.6762H23.6757H23.6751H23.6746H23.674H23.6735H23.6729H23.6724H23.6718H23.6713H23.6707H23.6702H23.6696H23.6691H23.6686H23.668H23.6675H23.667H23.6664H23.6659H23.6654H23.6649H23.6643H23.6638H23.6633H23.6628H23.6623H23.6618H23.6612H23.6607H23.6602H23.6597H23.6592H23.6587H23.6582H23.6577H23.6572H23.6567H23.6562H23.6557H23.6552H23.6547H23.6542H23.6538H23.6533H23.6528H23.6523H23.6518H23.6513H23.6509H23.6504H23.6499H23.6494H23.649H23.6485H23.648H23.6476H23.6471H23.6466H23.6462H23.6457H23.6452H23.6448H23.6443H23.6439H23.6434H23.6429H23.6425H23.642H23.6416H23.6411H23.6407H23.6402H23.6398H23.6393H23.6389H23.6385H23.638H23.6376H23.6371H23.6367H23.6362H23.6358H23.6354H23.6349H23.6345H23.6341H23.6336H23.6332H23.6328H23.6323H23.6319H23.6315H23.6311H23.6306H23.6302H23.6298H23.6294H23.6289H23.6285H23.6281H23.6277H23.6273H23.6269H23.6264H23.626H23.6256H23.6252H23.6248H23.6244H23.6239H23.6235H23.6231H23.6227H23.6223H23.6219H23.6215H23.6211H23.6207H23.6203H23.6199H23.6195H23.6191H23.6186H23.6182H23.6178H23.6174H23.617H23.6166H23.6162H23.6158H23.6154H23.615H23.6146H23.6142H23.6138H23.6134H23.613H23.6126H23.6122H23.6119H23.6115H23.6111H23.6107H23.6103H23.6099H23.6095H23.6091H23.6087H23.6083H23.6079H23.6075H23.6071H23.6067H23.6063H23.6059H23.6056H23.6052H23.6048H23.6044H23.604H23.6036H23.6032H23.6028H23.6024H23.602H23.6016H23.6013H23.6009H23.6005H23.6001H23.5997H23.5993H23.5989H23.5985H23.5981H23.5977H23.5973H23.597H23.5966H23.5962H23.5958H23.5954H23.595H23.5946H23.5942H23.5938H23.5934H23.593H23.5926H23.5923H23.5919H23.5915H23.5911H23.5907H23.5903H23.5899H23.5895H23.5891H23.5887H23.5883H23.5879H23.5875H23.5871H23.5867H23.5863H23.5859H23.5855H23.5851H23.5847H23.5843H23.5839H23.5835H23.5831H23.5827H23.5823H23.5819H23.5815H23.5811H23.5807H23.5803H23.5799H23.5795H23.5791H23.5787H23.5783H23.5779H23.5774H23.577H23.5766H23.5762H23.5758H23.5754H23.575H23.5746H23.5741H23.5737H23.5733H23.5729H23.5725H23.5721H23.5716H23.5712H23.5708H23.5704H23.5699H23.5695H23.5691H23.5687H23.5682H23.5678H23.5674H23.567H23.5665H23.5661H23.5657H23.5652H23.5648H23.5644H23.5639H23.5635H23.563H23.5626H23.5622H23.5617H23.5613H23.5608H23.5604H23.5599H23.5595H23.559H23.5586H23.5581H23.5577H23.5572H23.5568H23.5563H23.5559H23.5554H23.5549H23.5545H23.554H23.5535H23.5531H23.5526H23.5521H23.5517H23.5512H23.5507H23.5502H23.5498H23.5493H23.5488H23.5483H23.5479H23.5474H23.5469H23.5464H23.5459H23.5454H23.5449H23.5444H23.5439H23.5435H23.543H23.5425H23.542H23.5415H23.541H23.5404H23.5399H23.5394H23.5389H23.5384H23.5379H23.5374H23.5369H23.5363H23.5358H23.5353H23.5348H23.5343H23.5337H23.5332H23.5327H23.5321H23.5316H23.5311H23.5305H23.53H23.5294H23.5289H23.5284H23.5278H23.5273H23.5267H23.5261H23.5256H23.525H23.5245H23.5239H23.5234H23.5228H23.5222H23.5216H23.5211H23.5205H23.5199H23.5193H23.5188H23.5182H23.5176H23.517H23.5164H23.5158H23.5152H23.5146H23.514H23.5134H23.5128H23.5122H23.5116H23.511H23.5104H23.5098H23.5092H23.5086H23.5079H23.5073H23.5067H23.5061H23.5054H23.5048H23.5042H23.5035H23.5029H23.5022H23.5016H23.501H23.5003H23.4997H23.499H23.4983H23.4977H23.497H23.4964H23.4957H23.495H23.4943H23.4937H23.493H23.4923H23.4916H23.4909H23.4903H23.4896H23.4889H23.4882H23.4875H23.4868H23.4861H23.4854H23.4846H23.4839H23.4832H23.4825H23.4818H23.4811H23.4803H23.4796H23.4789H23.4781H23.4774H23.4767H23.4759H23.4752H23.4744H23.4737H23.4729H23.4721H23.4714H23.4706H23.4699H23.4691H23.4683H23.4675H23.4667C23.3242 28.1653 23.2287 28.1643 23.1541 28.1536C23.1415 28.1518 23.1314 28.15 23.1235 28.1483L23.1005 28.1252L23.034 28.0901L16.234 24.4901L16.0001 24.3662L15.7661 24.4901L8.96614 28.0901L8.95431 28.0963L8.94283 28.1032C8.55453 28.3362 8.05572 28.2128 7.77274 27.7587C7.71046 27.6249 7.701 27.4839 7.70015 27.2417L9.02589 19.685L9.0715 19.425L8.88258 19.2407L3.41835 13.9098C3.08223 13.5718 3.08288 13.0896 3.4203 12.7522L3.47768 12.6948L3.51396 12.6222C3.53342 12.5833 3.58063 12.4986 3.86675 12.4986H3.90166L3.93624 12.4938L11.5362 11.4271L11.8014 11.3899L11.9174 11.1486L15.2398 4.23786C15.5229 3.78427 16.0214 3.66117 16.4095 3.89403L16.426 3.90391L16.4431 3.9125C16.5463 3.96408 16.5965 4.00213 16.6299 4.0355C16.6632 4.06888 16.7013 4.11905 16.7529 4.22222L17.2001 3.99862L16.7529 4.22222L20.2195 11.1556L20.337 11.3906L20.5973 11.4271L28.1973 12.4938L28.2318 12.4986H28.2668C28.3922 12.4986 28.5556 12.5777 28.6916 12.7703C28.827 12.9621 28.8783 13.1913 28.8431 13.3672Z" stroke="#FFCC59"/>
</svg>
