<svg width="67" height="67" viewBox="0 0 67 67" fill="none" xmlns="http://www.w3.org/2000/svg">
<circle cx="33.5" cy="33.5" r="33.5" fill="#E739EB"/>
<path d="M34.3682 29.5676C34.3682 30.0378 34.3682 30.2975 34.3682 30.5585C34.3682 36.8053 34.3682 43.0522 34.3682 49.299C34.3682 49.5384 34.3989 49.7865 34.3443 50.0173C34.201 50.6346 33.7423 51.0081 32.9884 50.9995C32.238 50.9908 31.7843 50.6144 31.6564 49.9927C31.6087 49.7591 31.6377 49.5139 31.6377 49.273C31.6377 43.0262 31.6377 36.7794 31.6377 30.5326C31.6377 30.2773 31.6377 30.022 31.6377 29.6239C31.3153 29.8749 31.1107 30.022 30.9196 30.1821C28.4467 32.2706 25.9771 34.3606 23.5058 36.4491C23.3455 36.5847 23.192 36.7289 23.0163 36.8501C22.3887 37.2842 21.6127 37.2597 21.0993 36.7981C20.6064 36.3568 20.5774 35.7207 21.0942 35.2317C21.6041 34.7486 22.167 34.3057 22.7093 33.8471C25.7025 31.3172 28.694 28.7859 31.6888 26.256C32.6985 25.4036 33.2971 25.3949 34.2795 26.2243C37.7178 29.1277 41.151 32.034 44.5859 34.9389C44.6456 34.9894 44.7087 35.0399 44.765 35.0933C45.4011 35.676 45.4455 36.3395 44.881 36.8212C44.3147 37.3044 43.508 37.2871 42.8429 36.7332C41.3847 35.5202 39.9452 34.2913 38.4989 33.0668C37.1789 31.9475 35.8571 30.8282 34.3682 29.5676Z" fill="white"/>
<path d="M33.0941 21.0087C37.4107 21.0087 41.7274 21.0087 46.0423 21.0087C46.2981 21.0087 46.5591 20.9856 46.8081 21.0231C47.5415 21.1342 47.9866 21.515 47.9968 22.1511C48.0071 22.7886 47.5653 23.1737 46.8371 23.2992C46.5915 23.341 46.3271 23.3179 46.073 23.3179C37.3544 23.3179 28.6376 23.3179 19.919 23.3179C19.6922 23.3179 19.4619 23.3309 19.2385 23.3078C18.5034 23.2328 17.9628 22.7338 18.002 22.1381C18.0446 21.502 18.4727 21.1255 19.2078 21.0203C19.4568 20.9842 19.7177 21.0073 19.9736 21.0073C24.3482 21.0087 28.7211 21.0087 33.0941 21.0087Z" fill="white"/>
</svg>
