<svg width="56" height="56" viewBox="0 0 56 56" fill="none" xmlns="http://www.w3.org/2000/svg">
<path d="M28 56C43.464 56 56 43.464 56 28C56 12.536 43.464 0 28 0C12.536 0 0 12.536 0 28C0 43.464 12.536 56 28 56Z" fill="#DC5E4F"/>
<path d="M45.4884 27.9517C45.5246 29.2917 45.3128 30.5912 44.9484 31.8807C44.5829 33.1691 44.0858 34.3928 43.4141 35.5463C42.6821 36.8007 41.8008 37.9454 40.767 38.9693C40.5508 39.1833 40.3445 39.4072 40.1349 39.6267C39.6937 39.9658 39.258 40.3137 38.8091 40.6419C37.3198 41.7317 35.701 42.5679 33.9517 43.1716C32.8893 43.5392 31.805 43.8092 30.7031 43.9672C29.0251 44.2054 27.3349 44.2284 25.6426 44.0155C24.7394 43.9025 23.8494 43.7532 22.9725 43.5129C22.8122 43.469 22.674 43.5392 22.5401 43.6138C21.6105 44.1264 20.6798 44.64 19.7492 45.1536C18.9008 45.6222 18.0503 46.0887 17.2052 46.565C16.9473 46.7098 16.9188 46.5979 16.9188 46.3685C16.9232 44.6466 16.9122 42.9257 16.9276 41.2038C16.9319 40.7648 16.7904 40.4663 16.4271 40.2018C15.8136 39.7562 15.2671 39.2228 14.7381 38.6763C14.6415 38.5775 14.5559 38.4601 14.4143 38.4151C14.3858 38.3734 14.3562 38.3328 14.3276 38.2911C14.3046 38.2669 14.2815 38.2428 14.2596 38.2197C14.0434 37.7873 13.6889 37.457 13.4024 37.0784C12.5058 35.8942 11.8243 34.6013 11.2832 33.224C10.9079 32.2692 10.6686 31.2782 10.4623 30.2795C10.256 29.2775 10.3229 28.2546 10.3086 27.2394C10.2922 26.0037 10.5358 24.814 10.842 23.6222C11.2591 22.0045 11.9615 20.5196 12.8724 19.1389C13.6647 17.9394 14.6097 16.8628 15.6951 15.9003C16.9297 14.805 18.2731 13.8908 19.7547 13.1763C21.0705 12.5409 22.4435 12.0832 23.8735 11.7474C25.7414 11.3073 27.628 11.2876 29.5145 11.3787C30.4913 11.4248 31.4681 11.63 32.4327 11.8736C33.9034 12.2435 35.3027 12.7725 36.6405 13.4749C37.4076 13.8776 38.1298 14.3517 38.8311 14.8599C38.9518 14.9488 39.0637 15.0585 39.2196 15.0892C39.8298 15.717 40.5409 16.2372 41.1358 16.8847C42.4933 18.3586 43.5919 19.995 44.3634 21.8519C44.7037 22.6739 44.9912 23.5168 45.1712 24.3772C45.3534 25.2475 45.541 26.1332 45.4917 27.0408C45.473 27.3415 45.4807 27.6477 45.4884 27.9517Z" fill="white"/>
<path d="M19.2597 30.8249C20.3473 30.8249 21.4305 30.8205 22.5148 30.826C23.1568 30.8293 23.5321 31.3111 23.3083 31.8478C23.1689 32.1825 22.8791 32.3548 22.5301 32.3581C20.9937 32.3702 19.4561 32.3691 17.9185 32.3581C17.563 32.3559 17.2535 32.2132 17.0888 31.8653C16.9089 31.4867 17.0449 31.1487 17.26 30.8425C17.9394 29.8811 18.6308 28.9285 19.3167 27.9715C19.8457 27.234 20.3725 26.4954 20.9004 25.7579C20.8005 25.6349 20.6831 25.6843 20.5843 25.6843C19.7305 25.6799 18.8766 25.6898 18.0228 25.6788C17.3983 25.6712 17.0965 25.3858 17.1404 24.8788C17.1777 24.454 17.4784 24.1621 17.9065 24.161C19.3464 24.1566 20.7852 24.1555 22.225 24.161C22.923 24.1643 23.2929 24.735 23.0361 25.3946C22.8704 25.8204 22.5554 26.1507 22.2964 26.514C21.3317 27.8683 20.3484 29.2094 19.3738 30.5571C19.3189 30.6318 19.252 30.7053 19.2597 30.8249Z" fill="#DC5E4F"/>
<path d="M28.1724 31.7567C26.9289 33.0715 25.1334 32.4514 24.3839 31.2628C23.474 29.8196 23.687 27.4666 25.3222 26.435C26.2485 25.8511 27.4733 25.9938 28.1658 26.8038C28.2634 26.5941 28.3534 26.3933 28.5598 26.2748C29.1579 25.9302 29.7505 26.2693 29.7571 26.9848C29.767 28.0955 29.7593 29.2061 29.7593 30.3168C29.7593 30.6954 29.7593 31.073 29.7593 31.4516C29.7582 32.0728 29.6101 32.3043 29.1425 32.413C28.7332 32.5085 28.416 32.2999 28.1724 31.7567ZM28.0955 29.2841C28.1076 28.9636 28.0538 28.6563 27.9166 28.3655C27.5095 27.4996 26.5305 27.3338 25.9247 28.0307C25.3628 28.6761 25.3705 29.9239 25.9401 30.5593C26.4998 31.1827 27.3745 31.1004 27.8179 30.3914C28.033 30.0479 28.0944 29.6737 28.0955 29.2841Z" fill="#DC5E4F"/>
<path d="M33.0384 29.295C32.9934 27.7673 34.0997 26.2945 35.6779 26.0937C36.9147 25.9357 38.2032 26.705 38.7453 28.0088C39.3676 29.5025 38.7815 31.4209 37.4547 32.1287C35.7887 33.0166 33.7287 32.3087 33.1394 30.2334C33.0516 29.9272 33.0439 29.6111 33.0384 29.295ZM37.2999 29.3049C37.3406 28.9427 37.2517 28.6069 37.0859 28.2897C36.6283 27.4173 35.5034 27.3536 34.9898 28.1888C34.5793 28.856 34.5815 29.5683 34.9173 30.2663C35.1478 30.7437 35.5385 31.0038 36.0883 30.9709C36.625 30.9391 36.9378 30.6043 37.1496 30.1533C37.2736 29.8866 37.3384 29.6034 37.2999 29.3049Z" fill="#DC5E4F"/>
<path d="M32.3285 27.9759C32.3285 29.1787 32.3339 30.3815 32.3252 31.5844C32.3219 32.0267 32.1243 32.2736 31.7314 32.3943C31.265 32.5381 30.7766 32.2264 30.713 31.7369C30.6954 31.6041 30.6932 31.4691 30.6932 31.3352C30.6921 29.0788 30.6921 26.8235 30.6932 24.5671C30.6932 24.4453 30.6954 24.3224 30.7108 24.2027C30.7689 23.7341 31.0729 23.4839 31.5602 23.4949C31.9827 23.5047 32.3153 23.8142 32.3219 24.2576C32.3372 25.3024 32.3306 26.3472 32.3328 27.392C32.3328 27.5863 32.3328 27.7805 32.3328 27.9748C32.3328 27.9759 32.3306 27.9759 32.3285 27.9759Z" fill="#DC5E4F"/>
</svg>
