<svg width="88" height="22" viewBox="0 0 88 22" fill="none" xmlns="http://www.w3.org/2000/svg">
<g clip-path="url(#clip0_47_9754)">
<path d="M34.7939 19.826L27.3002 3.36102L25.9134 0.289917H24.6358L23.2465 3.36352L16.4239 18.2068L15.3253 20.5807H18.6757C19.138 20.5807 19.3965 20.2908 19.5108 20.001L20.9226 16.8699H29.5421L30.9539 20.001C31.1552 20.4058 31.3565 20.5807 31.789 20.5807H35.122L34.8038 19.876C34.7989 19.8585 34.7939 19.8435 34.7864 19.826H34.7939ZM22.3393 13.6513L25.1652 7.27424H25.2522L28.1353 13.6513H22.3393Z" fill="white"/>
<path d="M19.814 0.289917H16.0312C15.7727 0.289917 15.5987 0.464838 15.5415 0.609772L10.0064 13.0741H9.80512L4.26753 0.609772C4.21036 0.464838 4.03638 0.289917 3.77789 0.289917H0L0.832627 2.10659L9.25583 20.5507C9.25583 20.5507 9.26826 20.5707 9.27572 20.5807L9.9269 21.9975L11.2467 18.9764L18.7652 2.56638L19.814 0.289917Z" fill="white"/>
<path d="M66.6996 0.289917H59.3775V20.5807H62.5788C62.8671 20.5807 63.1256 20.3208 63.1256 20.0309V13.219H66.7295C70.2464 13.219 73.1594 10.2904 73.1594 6.697C73.1594 3.10364 70.2464 0.289917 66.7021 0.289917H66.6996ZM66.4685 9.68065H63.1231V3.8558H66.4685C68.084 3.8558 69.4386 5.07274 69.4386 6.66702C69.4386 8.37624 68.084 9.68065 66.4685 9.68065Z" fill="white"/>
<path d="M53.8026 2.47392L53.4273 0.289917H51.9584L51.3619 1.61432L45.6329 13.9712H45.546L40.2147 2.47392L39.2105 0.289917H37.7367L37.421 2.19405L35.3556 13.9237L37.9802 20.0334L39.6355 9.16088H39.7225L44.0472 18.814L44.8152 20.5807H46.3239L47.0919 18.814L51.3669 9.15839H51.4539L53.1539 20.1434C53.2111 20.3458 53.4422 20.5782 53.7007 20.5782H56.9691L56.5168 18.0393L53.7977 2.47143L53.8026 2.47392Z" fill="white"/>
<path d="M81.9753 8.57866C79.6389 7.62159 78.5727 6.69451 78.5727 5.33263C78.5727 4.40555 79.4674 3.30356 81.1103 3.30356C82.4276 3.30356 84.16 4.3031 84.841 4.72291C85.2436 4.99029 85.6214 5.29515 85.6214 5.29515L86.126 4.54799L87.063 3.13363L87.6272 2.35149C87.6272 2.35149 87.2146 2.04913 86.9387 1.85921C86.2254 1.34695 84.0655 -0.00244141 81.2818 -0.00244141C76.6986 -0.00244141 74.7948 2.9837 74.7948 5.56253C74.7948 8.98347 77.5039 10.7227 80.2156 11.8247C82.6364 12.8092 83.8766 13.8238 83.8766 15.3031C83.8766 16.55 82.7532 17.5346 81.252 17.5346C79.5669 17.5346 77.5139 16.1552 77.0118 15.8129C76.6688 15.5755 76.296 15.2731 76.296 15.2731L75.7343 16.2552L74.8793 17.737L74.5786 18.2767C74.5786 18.2767 74.9713 18.6091 75.2869 18.839C76.1121 19.5287 78.1526 20.8656 81.3663 20.8656C85.4325 20.8656 87.9975 18.1118 87.9975 15.1257C87.9975 11.3874 84.7689 9.70564 81.9728 8.57366L81.9753 8.57866Z" fill="white"/>
</g>
<defs>
<clipPath id="clip0_47_9754">
<rect width="88" height="22" fill="white"/>
</clipPath>
</defs>
</svg>
