<svg width="344" height="243" viewBox="0 0 344 243" fill="none" xmlns="http://www.w3.org/2000/svg">
<path d="M148.258 91.9036L147.343 91.5414C147.55 90.2469 147.557 88.9473 147.379 87.687L148.437 87.2253C150.018 86.5356 150.743 84.69 150.055 83.1029C149.368 81.5161 147.529 80.7886 145.948 81.4784L145.044 81.8728C144.298 80.8349 143.397 79.9065 142.357 79.1218C142.356 79.1215 142.356 79.1213 142.356 79.121L142.778 78.0435C143.41 76.4336 142.623 74.6141 141.019 73.9798C139.415 73.3455 137.602 74.1362 136.97 75.7461L136.609 76.6652C135.319 76.4574 134.024 76.4501 132.769 76.6288L132.309 75.5667C131.621 73.9798 129.783 73.2523 128.201 73.9421C126.62 74.6319 125.895 76.4774 126.583 78.0645L126.975 78.9712C125.941 79.7199 125.016 80.6243 124.234 81.669C124.234 81.6692 124.234 81.6695 124.233 81.6698L123.16 81.2453C121.556 80.6109 119.744 81.4017 119.112 83.0116C118.48 84.6214 119.267 86.4409 120.871 87.0752L121.786 87.4372C121.579 88.7319 121.572 90.0317 121.75 91.292L120.693 91.7532C119.111 92.443 118.387 94.2885 119.074 95.8756C119.761 97.4627 121.6 98.19 123.181 97.5002L124.082 97.1073C124.082 97.1076 124.082 97.1078 124.082 97.1081C124.829 98.1431 125.733 99.0731 126.773 99.8606L126.351 100.935C125.718 102.545 126.506 104.364 128.11 104.999C129.714 105.633 131.527 104.842 132.159 103.232L132.52 102.314C133.81 102.522 135.105 102.529 136.36 102.351L136.82 103.412C137.508 104.999 139.346 105.726 140.928 105.036C142.509 104.347 143.233 102.501 142.546 100.914L142.155 100.01H142.155C143.186 99.2602 144.113 98.3532 144.897 97.3096L145.969 97.7333C147.573 98.3679 149.385 97.5769 150.017 95.9673C150.65 94.3574 149.862 92.5382 148.258 91.9036ZM143.212 92.9103C141.331 97.7024 135.932 100.058 131.157 98.1692C126.382 96.2806 124.036 90.8617 125.917 86.0696C127.8 81.2746 133.198 78.9221 137.973 80.8106C142.747 82.6992 145.095 88.1153 143.212 92.9103Z" fill="#E1DEFF"/>
<path d="M129.098 87.3281C127.909 90.3578 129.391 93.7815 132.41 94.9753C135.428 96.1692 138.842 94.6821 140.032 91.6525C141.221 88.6228 139.737 85.1953 136.719 84.0015C133.7 82.8078 130.288 84.2987 129.098 87.3281Z" fill="#E1DEFF"/>
<path d="M120.255 64.0833L119.559 64.2496C119.145 63.3913 118.611 62.6134 117.983 61.9363L118.423 61.2192C119.08 60.148 118.747 58.7449 117.679 58.0855C116.612 57.4261 115.214 57.76 114.557 58.8315L114.182 59.4438C113.307 59.1365 112.385 58.9588 111.439 58.9254C111.439 58.9254 111.439 58.9254 111.438 58.9254L111.244 58.1063C110.954 56.8824 109.73 56.1266 108.511 56.4179C107.291 56.7093 106.538 57.9374 106.828 59.161L106.994 59.8597C106.139 60.274 105.364 60.8101 104.689 61.4409L103.975 60.9997C102.908 60.3403 101.51 60.6742 100.853 61.7457C100.196 62.8169 100.528 64.22 101.596 64.8794L102.206 65.2563C101.899 66.1344 101.722 67.0601 101.689 68.0093C101.689 68.0095 101.689 68.0098 101.689 68.01L100.873 68.2049C99.6539 68.4963 98.9008 69.7244 99.1911 70.948C99.4814 72.1719 100.705 72.9277 101.924 72.6364L102.62 72.4701C103.033 73.3284 103.567 74.1065 104.196 74.7839L103.756 75.5005C103.099 76.5717 103.432 77.9748 104.499 78.6342C105.567 79.2936 106.965 78.9597 107.622 77.8882L107.996 77.2782C107.996 77.2782 107.996 77.2785 107.996 77.2785C108.871 77.5837 109.795 77.7612 110.741 77.7966L110.935 78.6134C111.225 79.8373 112.449 80.5931 113.668 80.3018C114.887 80.0104 115.64 78.7823 115.35 77.5587L115.185 76.8605C116.04 76.4459 116.815 75.9096 117.49 75.279L118.204 75.72C119.271 76.3794 120.669 76.0455 121.326 74.974C121.983 73.9028 121.65 72.4997 120.583 71.8403L119.974 71.4647C119.974 71.4647 119.974 71.4647 119.974 71.4644C120.279 70.5868 120.455 69.6591 120.491 68.7094L121.305 68.515C122.524 68.2237 123.277 66.9955 122.987 65.7719C122.698 64.548 121.474 63.792 120.255 64.0833ZM117.663 66.7897C118.527 70.4327 116.283 74.0906 112.654 74.9578C109.025 75.8248 105.38 73.5732 104.516 69.9305C103.652 66.2855 105.895 62.6296 109.525 61.7624C113.154 60.8954 116.799 63.145 117.663 66.7897Z" fill="#E1DEFF"/>
<path d="M106.935 69.3539C107.482 71.6568 109.785 73.0793 112.079 72.5313C114.373 71.9833 115.793 69.6715 115.247 67.3686C114.701 65.0657 112.395 63.6416 110.101 64.1896C107.806 64.7376 106.389 67.0509 106.935 69.3539Z" fill="#E1DEFF"/>
<path d="M285.881 86.8165L284.984 87.0572C284.418 85.9589 283.697 84.9689 282.857 84.1131L283.402 83.1672C284.216 81.754 283.734 79.9459 282.326 79.1291C280.918 78.3123 279.116 78.796 278.302 80.2092L277.837 81.0172C276.692 80.6501 275.489 80.4529 274.261 80.4436C274.261 80.4436 274.261 80.4436 274.26 80.4436L273.979 79.3881C273.559 77.8111 271.944 76.8745 270.373 77.2965C268.802 77.7182 267.869 79.3387 268.289 80.9157L268.529 81.816C267.435 82.3845 266.448 83.108 265.596 83.9504L264.653 83.4036C263.245 82.5868 261.444 83.0703 260.63 84.4837C259.816 85.8972 260.298 87.705 261.706 88.5218L262.511 88.9886C262.145 90.1388 261.948 91.3457 261.939 92.5784C261.939 92.5786 261.939 92.5792 261.939 92.5794L260.888 92.8616C259.317 93.2833 258.384 94.9039 258.804 96.4808C259.224 98.0578 260.839 98.9944 262.41 98.5724L263.306 98.3317C263.873 99.4302 264.594 100.42 265.433 101.276L264.889 102.222C264.075 103.635 264.557 105.443 265.965 106.26C267.373 107.077 269.174 106.593 269.988 105.18L270.452 104.375C270.452 104.375 270.452 104.375 270.453 104.375C271.598 104.74 272.803 104.936 274.031 104.948L274.312 106.001C274.732 107.578 276.347 108.514 277.918 108.092C279.489 107.671 280.422 106.05 280.002 104.473L279.762 103.574C280.857 103.005 281.843 102.281 282.696 101.439L283.638 101.985C285.046 102.802 286.847 102.318 287.661 100.905C288.475 99.4917 287.993 97.6837 286.585 96.8668L285.782 96.4013C285.782 96.4013 285.782 96.4013 285.782 96.4011C286.146 95.2516 286.342 94.042 286.354 92.8087L287.403 92.527C288.974 92.105 289.907 90.4848 289.487 88.9078C289.066 87.3311 287.452 86.3948 285.881 86.8165ZM282.616 90.4208C283.867 95.115 281.088 99.9413 276.411 101.197C271.734 102.452 266.925 99.6631 265.674 94.9689C264.423 90.2719 267.202 85.4484 271.879 84.1929C276.556 82.9374 281.364 85.724 282.616 90.4208Z" fill="#E1DEFF"/>
<path d="M268.791 94.1324C269.582 97.1001 272.62 98.8623 275.577 98.0685C278.534 97.2747 280.292 94.2248 279.501 91.2572C278.71 88.2895 275.669 86.5253 272.712 87.3191C269.755 88.1126 268 91.1648 268.791 94.1324Z" fill="#E1DEFF"/>
<path d="M326.773 198.088H19.4952C13.9309 198.32 6.34047 200.004 6.11878 201.488C5.86709 203.172 14.3044 203.804 20.6896 203.889C34.6738 204.073 48.6583 204.258 62.6425 204.443C63.9249 204.46 65.2674 204.481 66.3665 204.656C69.4105 205.141 68.4234 206.46 65.6298 207.041C62.8362 207.621 59.0971 207.74 55.7504 208.058C52.4039 208.376 48.9844 209.091 49.2035 210.027C49.5014 211.301 55.6772 211.751 60.5056 211.837C80.6276 212.197 100.859 212.13 120.94 211.638C129.404 211.43 139.023 211.242 145.283 212.757C147.09 213.195 148.494 213.754 150.561 214.103C166.549 216.801 193.175 215.019 210.415 215.223C228.606 215.439 247.175 215.643 264.684 214.325C269.567 213.957 274.877 213.331 276.555 212.067C278.338 210.724 275.253 209.315 272.887 208.036C270.521 206.757 269.121 205.012 273.193 204.079C275.355 203.583 278.428 203.492 281.292 203.469C295.594 203.352 310.641 204.309 323.79 202.821C330.856 202.022 330.4 199.875 326.773 198.088Z" fill="#EAE8FF"/>
<path d="M63.1089 178.164H5.75977V152.177L63.1089 83.7578H90.5467V153.651H104.768V178.164H90.5467V199.419H63.1089V178.164ZM63.1089 153.651V117.862L32.8064 153.651H63.1089Z" fill="#A294FE"/>
<path d="M104.769 153.652H98.8672V178.165H104.769V153.652Z" fill="#7767E0"/>
<path d="M90.5462 83.7578H84.6445V153.651H90.5462V83.7578Z" fill="#7767E0"/>
<path d="M32.806 153.652L63.1085 118.705V111.734L26.9043 153.652H32.806Z" fill="#7767E0"/>
<path d="M90.5462 178.164H84.6445V199.419H90.5462V178.164Z" fill="#7767E0"/>
<path d="M295.491 178.164H238.143V152.177L295.492 83.7578H322.929V153.651H337.151V178.164H322.929V199.419H295.492V178.164H295.491ZM295.491 153.651V117.862L265.189 153.651H295.491Z" fill="#A294FE"/>
<path d="M337.15 153.652H331.248V178.165H337.15V153.652Z" fill="#7767E0"/>
<path d="M322.929 83.7578H317.027V153.651H322.929V83.7578Z" fill="#7767E0"/>
<path d="M265.189 153.652L295.491 118.705V111.734L259.287 153.652H265.189Z" fill="#7767E0"/>
<path d="M322.929 178.164H317.027V199.419H322.929V178.164Z" fill="#7767E0"/>
<path d="M126.795 143.008C126.795 120.504 130.831 104.756 138.905 95.7643C146.977 86.7733 159.274 82.2773 175.797 82.2773C183.735 82.2773 190.253 83.2605 195.35 85.225C200.445 87.1913 204.603 89.7476 207.822 92.8975C211.04 96.0468 213.575 99.358 215.425 102.831C217.276 106.303 218.764 110.355 219.891 114.985C222.09 123.815 223.19 133.022 223.19 142.604C223.19 164.087 219.569 179.808 212.327 189.768C205.086 199.729 192.614 204.708 174.912 204.708C164.987 204.708 156.968 203.119 150.853 199.943C144.738 196.767 139.721 192.11 135.806 185.972C132.962 181.611 130.75 175.649 129.168 168.084C127.586 160.521 126.795 152.162 126.795 143.008ZM159.302 143.089C159.302 158.165 160.63 168.462 163.285 173.979C165.941 179.499 169.789 182.257 174.832 182.257C178.157 182.257 181.04 181.086 183.482 178.744C185.922 176.402 187.718 172.701 188.873 167.64C190.026 162.58 190.603 154.692 190.603 143.978C190.603 128.257 189.275 117.69 186.62 112.279C183.964 106.869 179.981 104.163 174.671 104.163C169.252 104.163 165.337 106.923 162.923 112.441C160.509 117.961 159.302 128.176 159.302 143.089Z" fill="#A294FE"/>
<path d="M171.099 104.626C169.987 104.32 168.801 104.162 167.538 104.162C162.12 104.162 158.205 106.922 155.791 112.44C153.377 117.959 152.17 128.175 152.17 143.088C152.17 158.164 153.497 168.46 156.153 173.978C158.808 179.497 162.657 182.256 167.7 182.256C168.965 182.256 170.165 182.085 171.302 181.746C167.954 180.718 165.282 178.13 163.284 173.978C160.629 168.46 159.301 158.163 159.301 143.088C159.301 128.175 160.508 117.959 162.922 112.44C164.768 108.22 167.496 105.619 171.099 104.626Z" fill="#7767E0"/>
<path d="M219.891 114.985C218.764 110.355 217.276 106.303 215.425 102.831C213.574 99.358 211.039 96.0468 207.821 92.8975C204.603 89.7476 200.445 87.1913 195.349 85.225C190.252 83.2605 183.735 82.2773 175.797 82.2773C174.595 82.2773 173.419 82.3039 172.262 82.3515C178.592 82.6097 183.914 83.566 188.218 85.225C193.314 87.1913 197.471 89.7476 200.69 92.8975C203.908 96.0468 206.443 99.358 208.293 102.831C210.144 106.303 211.633 110.355 212.759 114.985C214.958 123.815 216.058 133.022 216.058 142.604C216.058 164.087 212.438 179.808 205.196 189.768C198.45 199.046 187.165 204 171.344 204.636C172.504 204.684 173.693 204.708 174.911 204.708C192.613 204.708 205.085 199.729 212.327 189.768C219.569 179.808 223.189 164.086 223.189 142.604C223.19 133.022 222.09 123.815 219.891 114.985Z" fill="#7767E0"/>
<path d="M176.796 69.5084C176.831 72.8195 176.341 75.8129 175.302 78.7821C175.109 79.3397 174.894 79.8974 174.66 80.4553L174.929 82.2497H169.764L173.098 80.2533C173.174 79.7764 173.237 79.2833 173.291 78.7823C173.642 75.3902 173.493 71.6424 173.392 69.9533C173.357 69.3418 173.452 68.733 173.669 68.1589C174.568 65.8094 176.981 59.2922 177.759 55.2617H183.43C184.401 61.7113 181.783 64.4919 176.796 69.5084Z" fill="#F9CBCB"/>
<path d="M180.918 65.0551C179.832 66.4374 178.445 67.8519 176.796 69.5089C176.831 72.82 176.605 76.5794 175.565 79.5483L172.982 79.4136C173.333 76.0215 172.741 70.3553 173.269 68.2106C173.87 65.7677 176.981 59.2922 177.759 55.2617H183.429C184.079 59.5805 183.122 62.2558 180.918 65.0551Z" fill="#1F1C80"/>
<path d="M180.922 65.0453L180.919 65.056C179.834 66.4383 178.446 67.8527 176.797 69.5097C176.833 72.8208 176.606 76.5802 175.567 79.5491L174.801 79.5091C175.879 76.7131 176.179 73.0504 176.055 69.3168C181.688 64.7125 177.949 63.0537 179.7 59.7168L180.922 65.0453Z" fill="#13106B"/>
<path d="M173.099 80.2539C171.856 80.8928 169.688 80.7159 169.561 82.2503H174.93C174.991 81.5279 174.956 80.8503 174.745 80.2539C174.229 80.346 173.68 80.3448 173.099 80.2539Z" fill="#1F1C80"/>
<path d="M188.292 80.0171C188.516 80.5034 188.726 80.9542 188.943 81.4273C187.501 81.7728 186.059 82.1199 184.617 82.4666C185.49 81.7394 186.368 81.0259 187.237 80.2893C186.904 79.6124 186.499 78.6576 186.139 78.0445C184.693 75.5897 183.058 73.4154 181.404 71.1239C181.01 70.5789 180.756 70.0519 180.635 69.3411C179.864 64.8276 179.961 60.1722 179.15 55.6501C180.431 55.4501 181.708 55.2567 182.987 55.0605C186.552 60.6498 185.798 63.6303 184.303 69.6292C186.078 72.0397 187.056 74.7628 187.768 77.675C187.914 78.2746 188.163 79.3484 188.292 80.0171Z" fill="#F9CBCB"/>
<path d="M180.64 69.3477C180.765 70.0597 180.97 70.5189 181.416 71.1454C183.292 73.7799 184.761 76.7779 186.411 79.5727C187.124 79.4099 187.826 79.2401 188.534 79.0743C187.715 75.8138 186.34 72.3619 184.304 69.6324C185.797 63.6301 186.553 60.6554 182.99 55.0651C182.99 55.0633 182.989 55.0621 182.988 55.0605C181.533 55.2836 180.079 55.5066 178.625 55.7293C178.645 55.8399 178.665 55.9508 178.686 56.0617C178.686 56.0639 178.686 56.069 178.686 56.0715C179.461 60.4784 179.865 64.9448 180.64 69.3477Z" fill="#1F1C80"/>
<path d="M179.508 56.2438C179.975 56.9034 179.535 58.2245 180.048 58.9433C181.374 60.8043 183.157 59.425 184.305 60.175C186.258 61.4508 184.089 67.2666 183.659 68.841C183.646 68.8886 183.345 69.9368 183.147 69.9148C184.048 70.0236 183.728 69.386 184.879 71.346C185.399 72.2301 188.086 77.3924 188.187 79.0301C188.417 79.2541 188.402 79.0293 188.536 79.0756C187.713 75.8098 186.34 72.3628 184.304 69.6313C185.797 63.6294 186.554 60.654 182.99 55.0645C181.572 55.3902 179.801 55.1718 178.417 55.494C178.254 55.532 179.204 55.8142 179.508 56.2438Z" fill="#13106B"/>
<path d="M187.011 79.8528C185.797 80.7056 184.115 80.96 184.004 82.6144C185.678 82.2122 187.351 81.809 189.025 81.408C188.882 80.7258 188.589 80.1528 188.206 79.5703C187.837 79.8892 187.488 79.9578 187.011 79.8528Z" fill="#1F1C80"/>
<path d="M169.724 41.9523C169.754 42.0012 169.894 42.2963 169.923 42.394C170.264 42.1887 170.566 41.9288 170.891 41.6977C170.797 41.606 170.613 41.3595 170.617 41.2438C170.63 40.8624 170.876 40.325 170.591 40.0544C170.306 39.7838 170.172 40.4283 170.152 40.6125C169.706 40.1081 169.707 39.9493 169.326 39.2862C168.312 37.5226 169.405 41.4278 169.724 41.9523Z" fill="#F9CBCB"/>
<path d="M169.693 42.2063C170.376 43.8946 171.127 46.1563 172.84 46.9321C174.788 47.8145 176.441 46.8446 178.388 46.8549C178.686 45.3891 179.033 43.9774 179.345 42.5313C177.213 42.83 175.583 43.9949 173.726 44.9978C172.603 43.9212 171.787 42.6655 170.942 41.3672C170.523 41.6454 170.106 41.9046 169.693 42.2063Z" fill="#5F4AFF"/>
<path d="M170.115 41.9375C170.798 43.659 172.264 46.3619 172.961 46.8471C173.521 47.2362 176.57 46.7451 178.384 46.8322C178.392 46.8021 178.382 46.8276 178.388 46.8524C176.44 46.8451 173.657 47.909 172.745 47.3799C171.602 46.7168 170.378 43.8916 169.693 42.2043C169.823 42.083 169.974 42.0071 170.115 41.9375Z" fill="#4A33F5"/>
<path d="M176.188 48.3045L177.76 55.2687H183.431C183.431 55.2687 184.369 48.5738 182.93 45.0667C182.282 43.4867 180.155 42.8046 180.021 42.7623L180.015 42.7598L178.434 42.8511L176.188 48.3045Z" fill="#F9CBCB"/>
<path d="M176.253 48.5897L177.578 54.4607C177.685 54.9338 178.098 55.2692 178.575 55.2692C179.397 55.6491 180.566 55.5188 181.817 55.2692C182.752 55.2692 183.529 54.5397 183.606 53.5907C183.785 51.3741 183.916 47.4712 182.928 45.0657C182.421 43.8302 181.008 43.1425 180.354 42.8823C180.148 42.8003 179.93 42.7598 179.708 42.7598L178.485 42.7626C178.298 42.7626 176.214 48.0139 176.214 48.0139C176.197 48.2068 176.21 48.4009 176.253 48.5897Z" fill="white"/>
<path d="M176.426 55.6328H182.443V54.7365H176.426V55.6328Z" fill="#182F57"/>
<path d="M178.796 58.72C178.719 59.0028 178.494 59.2192 178.213 59.2994C177.865 59.402 177.498 59.4131 177.111 59.3577C177.095 59.3549 177.081 59.3521 177.065 59.3493C176.782 59.305 176.489 59.2217 176.189 59.1137L176.186 50.4307C176.186 50.4307 176.149 48.8348 176.186 48.3045C176.35 45.9641 176.118 43.2111 178.335 42.7719C178.442 42.7506 178.488 42.7598 178.488 42.7598C176.796 49.9465 179.598 55.7372 178.796 58.72Z" fill="#5F4AFF"/>
<path d="M185.109 59.5776C183.919 59.8376 182.588 59.7189 181.564 59.5733C180.703 59.4511 180.092 58.6687 180.156 57.7858C180.512 52.845 179.096 48.005 180.015 42.7598L180.02 42.7626C180.154 42.8043 182.291 43.4822 182.929 45.0662C184.128 48.0453 184.597 54.643 185.512 58.9304C185.574 59.2218 185.395 59.5151 185.109 59.5776Z" fill="#5F4AFF"/>
<path d="M184.185 55.5041C183.327 55.6712 182.433 55.6785 181.498 55.5041V55.0918C182.309 55.2176 183.208 55.2125 184.185 55.0918V55.5041Z" fill="#7549EB"/>
<path d="M185.005 55.9515C185.005 55.9515 185.104 55.6308 185.282 55.3005L184.196 54.8691C184.196 54.8691 184.11 55.4154 183.968 55.5073C183.735 55.6581 183.223 55.8361 183.018 56.177C182.811 56.5175 183.689 56.235 183.689 56.235C183.689 56.235 183.547 57.0999 183.08 57.6664C182.612 58.2324 184.263 58.7764 185.005 55.9515Z" fill="#F9CBCB"/>
<path d="M184.031 55.1195L185.354 55.686C186.031 54.4335 187.579 51.0093 187.683 49.6583C187.813 47.9507 182.234 44.0488 182.234 44.0488L180.83 46.6239C182.293 48.4985 184.777 49.8603 184.777 49.8603L184.031 55.1195Z" fill="#5F4AFF"/>
<path d="M180.918 46.6133C183.364 48.7261 185.078 49.746 185.071 49.5789L184.393 55.2757L184.03 55.1203L184.776 49.8609C183.441 49.0734 182.155 47.9938 180.918 46.6133Z" fill="#4A33F5"/>
<path d="M179.408 41.6509C179.408 41.6509 180.762 41.6464 181.087 40.0654C181.412 38.4843 180.12 37.9222 179.273 37.933C178.095 37.9482 177.489 37.082 177.489 37.082C177.489 37.082 176.736 38.1115 177.169 39.0149C177.545 39.7981 179.408 41.6509 179.408 41.6509Z" fill="#1F1C80"/>
<path d="M178.363 40.9044L178.394 41.3607L178.473 42.5851L178.486 42.7717C178.51 43.7432 179.941 43.3409 180.015 42.7595L179.779 41.7928L179.607 41.0846L179.546 40.836L179.444 40.4141L178.363 40.9044Z" fill="#F9CBCB"/>
<path d="M178.393 41.3609L178.473 42.5853C178.833 42.5109 179.379 42.3423 179.656 41.9654C179.699 41.9074 179.74 41.85 179.779 41.7927L179.606 41.0845L179.546 40.8359L178.393 41.3609Z" fill="#F0B4B4"/>
<path d="M177.846 38.8279C177.614 38.6836 177.312 38.8537 177.299 39.1309C177.25 40.1277 177.295 41.7462 178.073 42.0102C179.209 42.3962 180.021 40.8886 180.021 40.8886C180.021 40.8886 180.509 40.1905 180.166 39.9515C179.823 39.7126 179.498 40.3003 179.498 40.3003C179.442 39.1926 178.526 39.2501 177.846 38.8279Z" fill="#F9CBCB"/>
<path d="M146.287 37.168C146.269 38.5665 146.265 39.968 146.276 41.3668C146.862 41.3471 147.907 41.3124 148.377 41.2967C148.848 41.281 148.451 41.2944 148.87 41.2802C149.29 41.2661 149.206 41.2694 149.886 41.2463C150.566 41.2235 148.844 41.2818 150.632 41.2213C152.421 41.161 155.55 41.0532 159.055 40.9231C162.56 40.793 169.057 40.5178 173.12 40.3715C173.255 39.7253 173.256 39.1016 173.125 38.4536C169.062 38.2506 162.569 37.977 159.061 37.8091C155.554 37.6411 152.402 37.4834 150.61 37.3917C148.818 37.3001 150.542 37.3877 149.861 37.3527C149.181 37.3178 149.266 37.3219 148.847 37.3004C148.428 37.2788 148.819 37.2988 148.353 37.2748C147.888 37.251 146.865 37.1981 146.287 37.168Z" fill="#FDB0FF"/>
<path d="M148.872 40.737C149.292 40.7231 149.208 40.7264 149.887 40.7033C150.567 40.6803 148.846 40.7388 150.634 40.6783C152.423 40.6178 155.552 40.5089 159.056 40.3786C162.561 40.2482 169.059 39.9708 173.122 39.8242C173.254 40.0014 173.254 40.1834 173.12 40.37C169.057 40.5163 162.56 40.7914 159.055 40.9218C155.55 41.0524 152.421 41.1592 150.633 41.22C148.844 41.2807 150.566 41.222 149.886 41.245C149.206 41.268 149.291 41.2648 148.871 41.2789C148.451 41.2931 148.848 41.2797 148.378 41.2954C147.907 41.3111 146.862 41.3458 146.276 41.3655C146.262 41.1853 146.262 41.0048 146.277 40.8236C146.864 40.8041 147.908 40.7691 148.379 40.7534C148.849 40.7377 148.452 40.7512 148.872 40.737Z" fill="#F3A4F5"/>
<path d="M173.624 37.9824C173.859 37.984 174.032 38.127 174.035 38.4062C174.043 39.001 174.041 39.7675 174.031 40.3621C174.026 40.641 173.852 40.7817 173.617 40.78C173.383 40.7785 173.21 40.6354 173.206 40.3562C173.198 39.7614 173.2 38.9952 173.211 38.4006C173.215 38.1214 173.389 37.9807 173.624 37.9824Z" fill="#C727CC"/>
<path d="M145.793 39.2634C145.792 39.7388 145.785 41.3051 146.482 41.3102C147.179 41.3155 147.18 39.7507 147.181 39.2753C147.182 38.7999 147.19 37.2336 146.493 37.2285C145.796 37.2235 145.794 38.788 145.793 39.2634Z" fill="white"/>
<path d="M145.6 39.2617C145.601 38.6476 145.634 37.0286 146.493 37.0352C147.352 37.0418 147.376 38.6635 147.375 39.2774C147.374 39.8912 147.34 41.5104 146.482 41.5038C145.623 41.497 145.598 39.8755 145.6 39.2617ZM145.987 39.2652C145.986 39.6041 145.964 41.1042 146.483 41.108C147.001 41.1118 146.987 39.612 146.988 39.2733C146.989 38.9346 147.011 37.4341 146.492 37.4306C145.974 37.4273 145.988 38.9263 145.987 39.2652Z" fill="#C727CC"/>
<path d="M148.441 41.2939C148.573 41.2896 148.704 41.2853 148.836 41.2808C148.984 39.9407 148.976 38.6361 148.812 37.2978C148.68 37.2913 148.548 37.2842 148.416 37.2773C148.588 38.6278 148.596 39.9417 148.441 41.2939Z" fill="white"/>
<path d="M149.821 41.2487C149.953 41.2444 150.084 41.2399 150.216 41.2356C150.356 39.9355 150.348 38.6684 150.193 37.3704C150.061 37.3638 149.929 37.3564 149.797 37.3496C149.959 38.6598 149.967 39.9365 149.821 41.2487Z" fill="white"/>
<path d="M158.812 37.6797C158.657 38.7919 158.654 39.934 158.803 41.0483C161.926 40.9215 169.12 40.5992 171.282 40.5144C173.443 40.4296 171.47 40.5071 172.275 40.4757C173.08 40.4441 172.595 40.4633 173.226 40.4382C173.188 39.7571 173.19 39.0686 173.231 38.3879C172.6 38.3545 173.084 38.3798 172.28 38.3373C171.476 38.2948 173.447 38.3986 171.287 38.2849C169.127 38.171 161.933 37.8384 158.812 37.6797Z" fill="#FB78FF"/>
<path d="M173.096 39.7908C173.097 39.3207 173.098 38.8509 173.099 38.3809C173.135 38.3829 173.17 38.3844 173.206 38.3867C173.204 39.0711 173.203 39.7553 173.201 40.4398C168.37 40.6296 163.54 40.8595 158.709 41.0528C158.71 40.8362 158.71 40.6195 158.711 40.4028C163.506 40.2112 168.3 39.9788 173.096 39.7908Z" fill="#EC67F0"/>
<path d="M158.874 37.3399C159.039 37.3406 159.196 37.4221 159.196 37.6299C159.201 38.8037 159.197 40.0539 159.187 41.2273C159.185 41.4352 159.029 41.5146 158.863 41.5136C158.698 41.5126 158.541 41.4311 158.541 41.2236C158.537 40.0501 158.54 38.8001 158.55 37.6264C158.552 37.4186 158.708 37.3388 158.874 37.3399Z" fill="white"/>
<path d="M171.82 38.3125C171.818 39.0395 171.816 39.7662 171.814 40.4932C171.994 40.4863 172.174 40.479 172.354 40.4722C172.355 39.7616 172.357 39.0514 172.359 38.3411C172.179 38.3315 171.999 38.3219 171.82 38.3125Z" fill="white"/>
<path d="M203.969 211.019H215.138L216.114 205.705L216.223 205.114L217.241 199.56L217.35 198.969L218.369 193.414L218.478 192.823L219.498 187.267L219.607 186.676L220.627 181.122L220.734 180.531L221.689 175.328L221.798 174.737L222.882 168.829L222.991 168.238L224.183 161.741H230.306L231.499 168.238L231.608 168.829L232.692 174.737L232.801 175.328L233.756 180.531L233.863 181.122L234.883 186.676L234.992 187.267L236.011 192.823L236.12 193.414L237.14 198.969L237.249 199.56L238.267 205.114L238.376 205.705L239.352 211.019H250.521L249.531 205.705L249.42 205.114L248.386 199.56L248.276 198.969L247.24 193.414L247.129 192.823L246.095 187.267L245.985 186.676L244.949 181.122L244.84 180.531L243.87 175.328L243.76 174.737L242.658 168.829L242.549 168.238L241.338 161.741H241.689V160.818H212.868V161.741H213.152L211.941 168.238L211.832 168.829L210.73 174.737L210.62 175.328L209.65 180.531L209.541 181.122L208.505 186.676L208.395 187.267L207.361 192.823L207.25 193.414L206.214 198.969L206.104 199.56L205.07 205.114L204.959 205.705L203.969 211.019ZM238.975 205.705H248.934L249.814 210.428H239.842L238.975 205.705ZM237.847 199.56H247.788L248.823 205.114H238.866L237.847 199.56ZM236.718 193.414H246.643L247.679 198.97H237.738L236.718 193.414ZM235.59 187.267H245.497L246.532 192.823H236.611L235.59 187.267ZM234.462 181.122H244.352L245.386 186.677H235.482L234.462 181.122ZM233.399 175.329H243.272L244.241 180.531H234.353L233.399 175.329ZM232.205 168.829H242.061L243.161 174.738H233.29L232.205 168.829ZM230.905 161.742H240.74L241.951 168.238H232.097L230.905 161.742ZM222.394 168.238H212.54L213.751 161.742H223.586L222.394 168.238ZM221.201 174.738H211.329L212.43 168.829H222.285L221.201 174.738ZM220.137 180.531H210.249L211.218 175.329H221.092L220.137 180.531ZM219.008 186.677H209.104L210.139 181.122H220.028L219.008 186.677ZM217.88 192.823H207.958L208.994 187.267H218.9L217.88 192.823ZM216.752 198.97H206.812L207.847 193.414H217.772L216.752 198.97ZM215.624 205.114H205.667L206.703 199.56H216.644L215.624 205.114ZM214.648 210.428H204.677L205.557 205.705H215.515L214.648 210.428Z" fill="#1F1C80"/>
<path d="M222.196 130.684C222.196 130.684 219.151 128.61 218.516 127.761C217.75 126.737 217.24 123.721 217.24 123.721C216.496 123.346 216.076 122.571 216.305 121.772C216.458 121.239 217.047 122.62 217.488 122.714C217.488 122.714 217.646 121.531 217.899 121.908C218.188 122.339 218.053 123.401 218.053 123.401L219.911 126.537L223.578 128.954L222.196 130.684Z" fill="#F7C1CE"/>
<path d="M220.795 130.004L221.586 127.258L223.836 128.403C223.836 128.403 224.1 129.88 224.092 130.004C224.084 130.129 223.63 131.072 223.63 131.072L220.795 130.004Z" fill="#F0C171"/>
<path d="M222.955 123.293C222.544 123.71 221.471 124.951 221.681 125.941C221.891 126.931 223.16 127.161 223.16 127.161L224.573 124.662L222.955 123.293Z" fill="#F7C1CE"/>
<path d="M234.49 153.005C234.426 152.34 234.214 151.025 234.056 150.978C233.904 150.933 231.465 151.941 230.091 152.2C228.588 152.484 226.524 153.119 225.441 151.88C223.112 149.215 221.929 145.544 221.34 142.091C222.372 141.52 223.403 140.968 224.442 140.416C228.976 143.757 226.756 145.702 227.691 150.149C228.777 150.252 229.719 150.299 230.843 150.184C231.831 150.084 233.027 149.956 234.055 149.907C234.338 149.767 234.531 149.839 234.822 149.885C235.025 150.716 235.51 152.577 234.49 153.005Z" fill="#F7C1CE"/>
<path d="M234.168 149.832C234.579 149.738 234.995 149.795 235.393 149.877C235.463 149.891 235.457 149.914 235.454 149.973C235.443 150.173 235.412 150.407 235.39 150.613C235.386 150.655 235.387 150.657 235.341 150.682C235.214 150.752 235.21 150.876 235.247 151.058C235.357 151.587 235.213 152.725 235.07 153.124C234.575 154.506 234.361 152.659 234.349 152.103C235.112 151.234 234.788 150.641 234.168 149.832Z" fill="#1F1C80"/>
<path d="M224.664 159.208C224.804 159.979 224.667 159.974 224.332 160.382C223.171 160.499 221.821 160.509 221.937 159.897C222.735 159.649 223.546 159.373 223.625 159.112C223.809 158.51 223.213 155.748 222.662 154.072C222.366 153.166 222.02 152.26 221.651 151.347C221.456 150.867 221.329 150.36 221.284 149.843C220.936 145.926 221.091 141.937 221.698 138.213H225.044C226.867 142.225 223.561 145.163 223.859 150.74C224.233 151.859 224.511 152.97 224.68 154.072C224.931 155.722 224.936 157.594 224.664 159.208Z" fill="#F7C1CE"/>
<path d="M224.696 159.412C224.87 160.113 224.77 160.518 224.614 160.907L223.809 160.906C223.809 160.906 223.676 160.575 223.503 160.642C222.708 160.947 221.187 161.125 220.942 160.733C220.725 160.385 221.936 159.896 221.936 159.896C222.298 160.49 223.185 160.224 224.696 159.412Z" fill="#1F1C80"/>
<path d="M230.68 147.913C230.68 147.913 229.739 148.957 228.854 148.741C228.854 148.741 227.873 150.232 226.334 149.202C225.167 149.926 224.002 149.926 222.835 149.202C221.296 150.232 220.314 148.741 220.314 148.741C219.43 148.957 218.488 147.913 218.488 147.913C219.333 143.922 221.281 140.893 221.426 137.805L226.415 137.888C227.725 139.197 227.989 144.589 230.68 147.913Z" fill="#1F1C80"/>
<path d="M220.427 129.47L219.965 132.413C219.965 132.413 219.74 132.256 219.391 131.996L220.259 129.328C220.315 129.375 220.371 129.422 220.427 129.47Z" fill="#F7C1CE"/>
<path d="M226.65 138.212C225.403 133.868 226.11 131.787 223.81 129.424C223.31 130.008 222.546 130.047 220.428 129.469L219.965 132.412C220.953 133.932 222.199 134.775 221.697 138.212H226.65Z" fill="#3E3279"/>
<path d="M226.816 138.571C224.83 138.866 223.199 138.172 221.933 138.309C221.8 138.324 221.67 138.347 221.544 138.383C221.28 138.453 221.007 138.251 221.054 137.981C221.478 135.605 221.169 134.436 220.605 133.67L220.6 133.664C220.222 133.15 219.724 132.815 219.256 132.414L219.392 131.996L220.26 129.328L220.3 129.207C223.011 130.467 223.131 128.989 223.631 128.404C224.608 129.408 225.181 130.594 225.612 131.961C226.011 133.231 226.288 134.654 226.653 136.23C226.794 136.83 226.946 137.45 227.123 138.094C227.182 138.314 227.038 138.538 226.816 138.571Z" fill="#FFD182"/>
<path d="M222.146 136.407L221.932 138.31C221.798 138.324 221.669 138.347 221.542 138.383C221.278 138.454 221.006 138.251 221.053 137.982C221.476 135.605 221.168 134.437 220.604 133.67L221.306 134.271C221.923 134.798 222.237 135.599 222.146 136.407Z" fill="#F0C171"/>
<path d="M226.653 136.23C226.305 136.346 225.884 136.326 225.677 136.298C224.927 136.196 224.237 135.267 223.987 134.764C223.656 134.1 221.782 134.417 221.707 132.911L225.611 131.961C226.011 133.231 226.288 134.654 226.653 136.23Z" fill="#F0C171"/>
<path d="M228.461 130.329C228.342 129.907 228.145 129.508 228.042 129.081C227.872 128.374 227.968 127.627 227.827 126.914C227.686 126.201 226.951 125.666 226.405 125.189C225.994 124.829 226.412 124.055 225.808 123.083C225.582 122.721 224.758 122.413 224.213 122.48C223.668 122.546 223.169 122.914 222.944 123.417C222.727 123.898 222.878 124.983 222.696 125.478C222.45 126.146 221.716 126.124 221.57 126.82C221.359 127.822 222.18 128.765 222.211 129.789C222.231 130.475 221.896 131.114 221.727 131.779C221.559 132.444 221.626 133.279 222.21 133.635C222.679 133.921 223.309 133.786 223.791 134.048C224.356 134.355 224.542 135.098 225.055 135.485C225.705 135.975 226.798 135.618 227.035 134.837C227.231 134.191 226.908 133.439 227.216 132.839C227.478 132.331 228.112 132.108 228.394 131.611C228.61 131.229 228.579 130.752 228.461 130.329Z" fill="#1F1C80"/>
<path d="M202.263 104.279C202.333 100.675 205.3 97.8103 208.89 97.8802C212.481 97.95 215.335 100.928 215.266 104.532C215.196 108.136 212.229 111 208.638 110.931C205.048 110.861 202.193 107.883 202.263 104.279Z" fill="#58595B"/>
<path d="M205.702 97.6942C201.999 99.3795 200.346 103.761 202.018 107.461C203.689 111.162 208.062 112.801 211.765 111.116C215.468 109.43 217.121 105.049 215.449 101.349C213.778 97.6481 209.405 96.0089 205.702 97.6942ZM211.299 110.083C208.16 111.512 204.467 110.127 203.051 106.991C201.634 103.855 203.029 100.155 206.168 98.7267C209.306 97.2986 212.999 98.6829 214.416 101.819C215.833 104.955 214.437 108.655 211.299 110.083Z" fill="#5E4FB8"/>
<path d="M212.242 110.31L210.846 110.945L211.476 112.341L212.873 111.705L212.242 110.31Z" fill="#5E4FB8"/>
<path d="M219.269 124.042C219.637 124.793 219.298 125.708 218.519 126.062C217.74 126.417 216.83 126.07 216.511 125.297L212.183 114.818L211.942 114.235L211.761 113.797L211.52 113.213L211.219 112.484L213.153 111.604L213.502 112.312L213.78 112.879L213.989 113.303L214.268 113.87L219.269 124.042Z" fill="#5E4FB8"/>
<path d="M213.654 112.603L211.636 113.521L211.389 112.925L213.37 112.023L213.654 112.603Z" fill="white"/>
<path d="M214.152 113.616L212.067 114.565L211.82 113.969L213.868 113.037L214.152 113.616Z" fill="white"/>
<path d="M204.687 102.138C203.874 103.915 204.39 105.541 204.218 105.56C204.014 105.584 202.973 103.356 203.901 101.499C204.815 99.6714 207.167 99.1472 207.284 99.3375C207.391 99.5119 205.575 100.199 204.687 102.138Z" fill="#A7A9AC"/>
<path d="M204.761 106.256C205.032 106.357 205.168 106.659 205.066 106.93C204.964 107.201 204.661 107.339 204.391 107.237C204.121 107.136 203.985 106.834 204.087 106.563C204.189 106.292 204.491 106.155 204.761 106.256Z" fill="#A7A9AC"/>
<path d="M220.259 129.329L219.391 131.996C218.232 131.136 215.694 129.159 215.323 128.072C214.687 126.219 214.919 121.33 214.919 121.33C214.428 120.721 213.973 119.527 214.485 118.746C214.984 117.982 215.09 119.608 215.663 120.095C215.663 120.095 216.473 118.945 216.325 119.874C216.177 120.804 215.851 121.301 215.851 121.301C216.499 122.954 216.751 124.737 217.033 126.72C218.142 127.579 219.215 128.449 220.259 129.329Z" fill="#F7C1CE"/>
<path d="M52.2558 131.485C52.5188 131.252 52.8238 132.907 53.1193 133.353C53.4149 133.799 53.5077 132.56 53.7433 132.743C54.2449 133.133 53.7327 134.45 53.765 134.543C53.8467 134.778 54.3743 135.328 54.3743 135.328C54.3743 135.328 53.2858 136.127 53.2268 135.917C53.1675 135.707 52.7915 134.981 52.4346 134.469C51.6288 133.315 51.9925 131.719 52.2558 131.485Z" fill="#F7C1CE"/>
<path d="M61.936 136.575C61.3988 137.901 58.9792 141.276 57.2004 141.456C55.258 141.652 52.877 135.594 52.877 135.594L54.1717 134.798L56.9623 138.466C57.8395 138.097 58.3439 134.704 59.8477 133.757C60.6777 133.235 62.6938 134.704 61.936 136.575Z" fill="#F0C57A"/>
<path d="M53.6227 134.796L54.1543 134.514L52.283 130.96L51.7515 131.242L53.6227 134.796Z" fill="#414C96"/>
<path d="M52.3279 131.934C52.654 131.699 52.8118 133.616 53.0971 134.158C53.3823 134.7 53.6295 133.301 53.8764 133.536C54.4025 134.038 53.6693 135.477 53.6956 135.587C53.7616 135.863 54.2993 136.55 54.2993 136.55C54.2993 136.55 52.9695 137.334 52.9263 137.088C52.883 136.843 52.538 135.973 52.1902 135.35C51.4058 133.944 52.0018 132.169 52.3279 131.934Z" fill="#F7C1CE"/>
<path d="M66.6363 139.98C66.397 139.407 66.0126 138.862 66.0136 138.24C66.0146 137.574 66.4623 136.98 66.5145 136.316C66.5912 135.336 65.8104 134.512 65.0278 133.922C64.6333 133.625 64.1998 133.32 64.0303 132.854C63.821 132.279 64.0793 131.645 64.0619 131.033C64.0399 130.265 63.536 129.532 62.8286 129.239C62.4637 129.088 62.0473 129.042 61.7333 128.801C61.4569 128.589 61.302 128.257 61.0763 127.991C60.4357 127.237 59.1644 127.145 58.4219 127.798C57.6797 128.451 57.6053 129.729 58.2668 130.464C58.2746 132.953 58.8307 135.15 59.8199 137.116C60.3734 138.084 60.522 139.278 60.2226 140.353C60.1079 140.765 59.9288 141.172 59.9432 141.6C59.9651 142.249 60.4942 142.844 61.1341 142.938C62.3333 143.116 63.2823 141.754 64.4941 141.718C65.1463 141.699 65.8706 142.058 66.4076 141.686C66.918 141.333 66.8756 140.554 66.6363 139.98Z" fill="#1F1C80"/>
<path d="M62.3098 149.477C61.5918 148.921 58.0158 146.828 56.6953 145.828C57.0706 145.38 58.5906 142.167 57.8774 139.666C57.0774 136.861 59.3598 134.161 59.3598 134.161L61.1068 133.537C61.1068 133.537 63.8401 134.396 64.2217 137.437C64.6663 140.976 63.5193 145.768 62.3098 149.477Z" fill="#FFD182"/>
<path d="M61.1073 133.537C60.3325 134.166 59.5913 134.72 59.3603 134.161L59.3215 133.942L59.1467 132.92L59.1328 132.844L59.2816 132.714L60.6223 131.537L60.9852 133.031L61.1073 133.537Z" fill="#F7C1CE"/>
<path d="M60.9502 132.896C60.4534 133.389 59.7652 133.836 59.29 133.791L59.1152 132.769L59.2499 132.563L60.5906 131.387L60.9502 132.896Z" fill="#E8ACBA"/>
<path d="M60.613 130.873C59.6826 131.077 58.5742 128.586 58.4047 129.431C58.0118 131.394 58.3061 132.806 58.7997 133.04C59.5434 133.394 60.9267 132.706 61.0846 131.629C61.0846 131.629 61.8591 131.133 61.6092 130.737C61.2654 130.193 60.613 130.873 60.613 130.873Z" fill="#F7C1CE"/>
<path d="M62.7643 138.837C62.0016 140.284 58.863 143.846 56.8187 143.846C54.586 143.846 52.5684 136.679 52.5684 136.679L54.1322 135.923L56.8885 140.417C57.9289 140.098 58.8902 136.295 60.7094 135.391C61.7139 134.892 63.8402 136.796 62.7643 138.837Z" fill="#FFD996"/>
<path d="M43.0137 150.313C42.3305 150.633 41.722 150.862 41.0108 151.112C40.5566 150.685 40.0025 150.289 39.543 149.869C40.122 149.33 40.661 148.76 41.1866 148.17C41.8007 148.88 42.3984 149.604 43.0137 150.313Z" fill="#F7C1CE"/>
<path d="M62.4054 149.231C61.7222 152.723 58.3495 153.521 56.0416 153.222C54.0618 152.965 52.0526 150.806 48.3203 147.729C46.506 149.113 44.1958 150.212 42.0617 150.965C41.4151 150.289 40.803 149.449 40.4824 148.5C43.1772 146.533 47.2787 142.374 49.0529 142.588C53.0041 143.063 58.5311 147.231 62.4054 149.231Z" fill="#1F1C80"/>
<path d="M41.1095 151.101C40.9683 151.539 41.0853 151.637 40.8619 152.143C40.6387 152.649 40.3365 153.069 40.0712 153.651C39.9083 153.63 39.65 153.527 39.496 153.486C39.5862 152.801 39.6299 152.607 39.6962 151.926C39.3772 152.209 38.8339 152.642 38.5699 152.9C38.3058 153.159 38.2392 153.288 37.9358 153.22C37.1356 153.039 34.4038 152.175 34.5233 151.239C34.6429 150.303 36.7755 151.368 37.4135 150.99C38.0516 150.612 38.8102 150.184 39.4622 149.807C40.0609 150.182 40.5027 150.742 41.1095 151.101Z" fill="#1F1C80"/>
<path d="M118.118 198.318C117.925 199.42 117.814 200.402 117.764 201.31C117.634 203.629 117.679 205.462 118.045 207.667L119.157 207.599C119.157 207.599 120.124 202.981 120.642 199.826C120.776 199.025 120.877 198.311 120.926 197.776C121.213 194.719 119.695 186.305 119.598 185.76L119.593 185.74L119.592 185.732L116.021 185.441C114.27 191.638 116.546 192.912 118.118 198.318Z" fill="#F1CCCD"/>
<path d="M111.747 207.27C111.852 206.787 113.389 203.176 114.843 201.07C115.191 200.568 115.515 200.129 115.788 199.807C117.737 197.51 119.646 185.29 119.645 185.29C119.646 185.29 116.746 185.054 116.747 185.055C114.245 187.675 114.513 191.588 114.132 195.397C114 196.718 113.587 197.971 112.962 199.04C112.835 199.255 112.717 199.475 112.604 199.7C111.809 201.271 111.038 203.482 110.254 207.022C110.254 207.022 111.746 207.27 111.747 207.27Z" fill="#F1CCCD"/>
<path d="M122.406 196.339C122.409 196.544 122.231 196.705 122.029 196.678C118.564 196.234 116.348 197.396 113.596 196.952C113.438 196.927 113.278 196.896 113.115 196.859C112.825 196.794 112.613 196.541 112.594 196.243C112.295 191.758 112.528 187.714 113.76 185.123H120.205C120.205 185.123 122.335 192.387 122.406 196.339Z" fill="#1F1C80"/>
<path d="M113.58 192.642C113.582 194.858 113.591 196.212 113.596 196.952C113.438 196.927 113.278 196.896 113.115 196.859C112.825 196.794 112.613 196.541 112.594 196.243C112.295 191.758 112.528 187.714 113.76 185.123H114.063L114.41 185.467C114.41 185.467 113.575 188.881 113.58 192.642Z" fill="#110E6B"/>
<path d="M119.092 169.791C119.096 169.28 118.942 168.745 118.568 168.398C118.106 167.969 117.394 167.908 116.789 168.085C116.184 168.261 115.661 168.638 115.15 169.009C114.353 169.588 113.501 170.245 113.264 171.204C112.99 172.315 113.632 173.531 113.249 174.609C112.975 175.383 112.247 175.88 111.658 176.451C111.071 177.022 110.574 177.89 110.922 178.633C111.319 179.48 112.555 179.618 113.012 180.433C113.3 180.947 113.2 181.599 113.429 182.142C113.664 182.7 114.267 183.08 114.87 183.051C115.474 183.022 116.037 182.585 116.217 182.006C116.337 181.62 116.298 181.196 116.426 180.811C116.622 180.22 117.167 179.83 117.584 179.368C118.586 178.261 118.871 176.555 118.099 175.187C118.73 174.021 119.021 172.757 118.614 171.296C118.942 170.799 119.087 170.301 119.092 169.791Z" fill="#1F1C80"/>
<path d="M122.885 177.871L124.686 178.518L126.053 174.681L124.252 174.034L122.885 177.871Z" fill="#1F1C80"/>
<path d="M120.369 181.041C120.369 181.041 120.495 183.63 121.843 183.742C122.974 183.839 124.271 179.484 125.163 178.337C126.022 177.232 126.51 176.34 125.925 175.99C124.381 175.064 124.294 176.642 124.235 177.849L122.426 180.653L120.526 175.705L120.369 181.041Z" fill="#F1CCCD"/>
<path d="M118.195 172.823C116.561 174.219 115.641 171.685 115.641 171.685C115.641 171.685 114.915 171.349 115.202 170.684C115.456 170.094 116.089 170.822 116.089 170.822C116.95 170.822 117.636 170.071 117.994 169.574C118.12 169.399 118.389 169.438 118.456 169.642C118.619 170.137 118.82 170.923 118.75 171.636C118.705 172.094 118.547 172.521 118.195 172.823Z" fill="#F1CCCD"/>
<path d="M109.419 191.038C110.111 191.211 110.824 190.126 110.824 190.126C110.824 190.126 111.105 190.83 111.32 190.509C111.535 190.186 111.188 189.317 111.188 189.317L111.387 188.661L113.606 181.35L113.446 175.916C112.04 176.512 110.754 185.584 110.388 188.389C110.32 188.905 110.285 189.208 110.285 189.208C110.285 189.208 108.675 190.853 109.419 191.038Z" fill="#F1CCCD"/>
<path d="M125.209 178.414C124.713 179.819 122.954 183.802 121.828 183.802C121.763 183.802 121.697 183.787 121.631 183.76C121.164 183.566 120.716 182.724 120.38 181.914C120.051 181.12 119.831 180.358 119.803 180.261L119.8 180.251C119.674 181.496 120.155 185.293 120.303 185.24C118.701 185.795 116.73 185.909 114.81 185.562L114.797 185.559C114.387 185.485 113.981 185.39 113.58 185.273C114.63 183.745 114.948 181.053 114.411 180.147C114.406 180.185 114.398 180.233 114.388 180.288C114.093 181.786 111.438 189.286 111.413 189.28C111.125 189.212 110.147 189.005 110.15 188.982C110.532 186.128 112.061 176.493 113.462 175.904L116.325 174.265C116.332 174.259 116.341 174.257 116.35 174.258L117.908 174.296C117.916 174.296 117.921 174.297 117.928 174.3C118.059 174.367 119.608 175.166 120.283 175.515C120.482 175.618 120.636 175.792 120.714 176.004L122.392 180.575C122.406 180.612 122.457 180.618 122.478 180.583L124.179 177.643C124.194 177.619 125.215 178.394 125.209 178.414Z" fill="#FB78FF"/>
<path d="M117.898 174.294C117.287 175.119 116.759 175.007 116.287 174.261L116.454 172.748L117.648 172.837C117.688 172.98 117.848 174.05 117.898 174.294Z" fill="#F1CCCD"/>
<path d="M114.387 180.288L114.41 180.146C114.405 180.185 114.398 180.233 114.387 180.288Z" fill="#DB85B4"/>
<path d="M114.41 185.468L113.58 185.274C114.63 183.745 114.946 181.066 114.408 180.16L114.683 179.342C115.327 180.595 115.722 182.463 114.41 185.468Z" fill="#EC62F0"/>
<path d="M121.631 183.76C121.165 183.566 120.717 182.724 120.381 181.914L119.804 180.261L119.801 180.251C120.05 179.253 120 178.754 119.872 177.916C120.49 178.977 120.284 182.669 121.631 183.76Z" fill="#EC62F0"/>
<path d="M110.541 205.777L109.978 206.5L109.166 208.047L109.438 208.256L110.558 207.188L110.438 208.333C110.406 208.641 110.463 208.952 110.692 209.16C111.296 209.709 112.577 210.635 112.933 210.236C113.299 209.825 112.055 208.93 112.03 208.18C112.006 207.454 112.012 206.531 112.012 206.531L110.541 205.777Z" fill="#414C96"/>
<path d="M118.031 207.573L117.762 208.47L117.95 209.985L118.249 209.999L118.519 208.673L119.003 209.553C119.134 209.79 119.329 209.983 119.596 210.018C120.302 210.109 121.68 210.13 121.737 209.666C121.795 209.188 120.459 209.17 120.068 208.645C119.689 208.138 119.158 207.539 119.158 207.539L118.031 207.573Z" fill="#414C96"/>
<path d="M310.282 65.586C310.252 65.4374 310.22 65.2858 310.144 65.1549C309.966 64.8514 309.539 64.7266 309.227 64.8868C309.205 64.8982 309.182 64.9111 309.158 64.9117C309.082 64.9134 309.054 64.8162 309.035 64.7431C308.957 64.4429 308.648 64.2426 308.339 64.2211C308.031 64.1996 307.728 64.3267 307.471 64.4983C307.284 64.6226 307.098 64.8053 307.108 65.0299C307.11 65.0653 307.116 65.1033 307.098 65.1339C307.085 65.1572 307.06 65.1714 307.038 65.1853C306.747 65.3627 306.548 65.6844 306.521 66.0249C306.493 66.3651 306.659 67.0404 306.917 67.2632L309.496 67.736C309.923 67.6877 310.246 67.29 310.345 66.8698C310.445 66.4494 310.367 66.0095 310.282 65.586Z" fill="#1F1C80"/>
<path d="M311.72 74.61L311.879 79.0351H305L304.445 75.0218L303.979 70.7795C304.582 70.317 306.147 70.4408 307.567 70.4352L307.732 69.588L307.825 69.1172H309.176L309.298 69.6667L309.478 70.4747C310.467 70.4003 311.579 70.5463 312.119 70.7192L311.72 74.61Z" fill="#F7C1CE"/>
<path d="M307.566 70.4341C306.147 70.4407 304.582 70.3172 303.979 70.7789L304.444 75.0213L305 79.0351H311.878L311.719 74.6094L312.119 70.7181C311.577 70.546 310.465 70.3994 309.477 70.4736C309.186 71.7235 307.567 71.46 307.566 70.4341Z" fill="#FB78FF"/>
<path d="M315.534 91.8779C315.665 90.4571 315.426 88.6276 315.085 87.0255C314.699 85.2099 314.182 83.6838 313.923 83.3661C313.33 82.6381 312.208 83.9632 308.531 83.7526C304.853 83.9635 303.732 82.6384 303.138 83.3661C302.889 83.6711 302.4 85.0975 302.021 86.8218C301.657 88.4716 301.392 90.3966 301.53 91.8779L301.913 93.1327L296.877 94.4509L299.933 91.8863C299.725 90.9307 299.494 88.8678 299.487 86.6517C299.477 83.4856 299.926 80.0117 301.563 79.0336C303.033 78.1568 308.454 78.7372 308.454 78.7372C308.454 78.7372 314.028 78.1568 315.498 79.0336C317.191 80.0441 317.614 83.7202 317.573 86.9678C317.547 89.0617 317.327 90.9771 317.129 91.8863L319.563 94.2882L315.148 93.1327L315.534 91.8779Z" fill="#F7C1CE"/>
<path d="M317.915 87.3822L314.765 87.7161C314.378 85.9004 313.939 83.9759 313.68 83.6582C313.086 82.9302 312.207 83.9632 308.53 83.7524C304.852 83.9632 304.297 82.9302 303.704 83.6582C303.454 83.9632 302.832 86.2026 302.452 87.9267L299.092 87.5052C299.082 84.3391 299.925 80.0117 301.562 79.0336C303.032 78.1568 308.453 78.7372 308.453 78.7372C308.453 78.7372 314.027 78.1568 315.497 79.0336C317.19 80.0441 317.956 84.1346 317.915 87.3822Z" fill="#1F1C80"/>
<path d="M306.907 76.5782C306.911 76.5952 306.914 76.6134 306.916 76.6301C306.763 76.6289 306.61 76.6289 306.455 76.6274C306.669 76.4575 306.861 76.3757 306.907 76.5782Z" fill="#F7C1CE"/>
<path d="M308.012 76.6357C307.889 76.6341 307.765 76.6341 307.639 76.6329C307.714 76.5245 307.847 76.5483 308.012 76.6357Z" fill="#F7C1CE"/>
<path d="M308.472 76.6381C308.348 76.6365 308.221 76.6353 308.094 76.6353C308.262 76.5467 308.398 76.5241 308.472 76.6381Z" fill="#F7C1CE"/>
<path d="M309.671 76.6439C309.517 76.6439 309.356 76.6426 309.189 76.6411C309.191 76.6201 309.195 76.5988 309.199 76.5778C309.247 76.3697 309.45 76.4626 309.671 76.6439Z" fill="#F7C1CE"/>
<path d="M308.541 76.9781C308.538 77.349 308.388 77.8732 308.055 78.2767C307.641 78.7784 306.945 79.093 305.903 78.6941C305.662 78.6014 300.672 80.143 299.778 78.0266C299.615 77.6416 299.633 77.1538 299.775 76.6129C300.395 74.2436 303.508 70.8616 304.101 70.7125C304.832 70.5285 304.444 75.0207 304.444 75.0207C304.444 75.0207 303.344 75.9917 303.134 76.6144C303.094 76.7311 303.086 76.8351 303.121 76.9194C303.381 77.5378 305.763 77.3409 305.763 77.3409C305.763 77.3409 306.134 76.8842 306.455 76.6271C306.669 76.457 306.861 76.3755 306.907 76.578C306.911 76.5949 306.914 76.6131 306.915 76.6298C306.96 76.9855 306.631 77.3353 306.631 77.3353C306.901 77.4097 307.246 77.1989 307.568 76.9784C307.741 76.8589 307.908 76.7382 308.054 76.6564C308.068 76.6493 308.082 76.641 308.094 76.6354C308.262 76.5468 308.398 76.5243 308.472 76.6382C308.5 76.6789 308.52 76.7367 308.531 76.8139C308.538 76.8642 308.541 76.9192 308.541 76.9781Z" fill="#F7C1CE"/>
<path d="M316.33 78.0272C315.437 80.1436 310.446 78.6021 310.205 78.6947C309.163 79.0939 308.469 78.779 308.056 78.2773C307.721 77.8738 307.571 77.3499 307.568 76.9788C307.568 76.9198 307.571 76.8649 307.578 76.8143C307.59 76.7328 307.61 76.6738 307.64 76.633C307.715 76.5249 307.848 76.5487 308.013 76.6358C308.028 76.6414 308.04 76.6485 308.054 76.6568C308.2 76.7383 308.368 76.8606 308.541 76.9788C308.863 77.1993 309.206 77.4101 309.477 77.3357C309.477 77.3357 309.154 76.9927 309.191 76.6414C309.192 76.6204 309.197 76.5991 309.201 76.5781C309.249 76.37 309.452 76.4629 309.673 76.6442C309.989 76.9026 310.345 77.3413 310.345 77.3413C310.345 77.3413 312.726 77.5379 312.988 76.9198C313.019 76.8454 313.017 76.7583 312.992 76.6626C312.834 76.0683 311.739 75.1505 311.739 75.1505C311.739 75.1505 311.391 70.5342 312.12 70.7182C312.723 70.8686 315.802 74.3453 316.36 76.7173C316.476 77.2162 316.483 77.6673 316.33 78.0272Z" fill="#F7C1CE"/>
<path d="M304.842 74.8062C304.842 74.8062 303.49 76.0078 303.28 76.6302C302.066 76.6274 300.553 76.4566 299.572 76.4593C301.009 73.1548 303.552 70.8982 304.126 70.6866C305.104 70.3269 304.842 74.8062 304.842 74.8062Z" fill="#FB78FF"/>
<path d="M316.36 76.7176C315.369 76.6839 313.978 76.6685 312.993 76.6629C312.834 76.0686 311.484 74.9318 311.484 74.9318C311.484 74.9318 311.391 70.5345 312.12 70.7185C312.724 70.8689 315.803 74.3455 316.36 76.7176Z" fill="#FB78FF"/>
<path d="M309.298 69.6648C309.076 69.7478 308.82 69.804 308.54 69.7997C308.189 69.7941 307.924 69.7015 307.732 69.5861L307.825 69.1152H309.176L309.298 69.6648Z" fill="#E3BABB"/>
<path d="M307.175 66.5862L307.207 67.0666C307.207 67.0666 306.662 66.6424 306.662 67.1919C306.662 67.7414 307.194 67.9034 307.194 67.9034C307.194 67.9034 307.272 69.4412 308.511 69.4412C309.971 69.4412 309.813 67.9956 309.813 67.9956C309.813 67.9956 310.392 67.463 310.232 67.1198C310.073 66.7763 309.675 67.1527 309.675 67.1527C309.386 66.2832 308.43 66.7224 307.692 65.8615C307.506 65.6448 307.175 66.3007 307.175 66.5862Z" fill="#F7C1CE"/>
<path d="M301.912 93.1334C302.04 92.5963 301.885 92.0749 301.519 91.7676L299.932 91.887C298.873 92.7583 297.182 92.8593 297.02 94.414L301.912 93.1334Z" fill="#1F1C80"/>
<path d="M315.167 93.1725C315.05 92.6354 315.192 92.1139 315.528 91.8066L317.129 91.8866C318.101 92.7579 320.042 92.907 319.937 94.567L315.167 93.1725Z" fill="#1F1C80"/>
<path d="M311.769 73.4121H305.265C304.766 73.4121 304.361 73.7278 304.361 74.1168V78.2957C304.361 78.685 304.766 79.0004 305.265 79.0004H311.769C312.268 79.0004 312.672 78.6847 312.672 78.2957V74.1168C312.672 73.7278 312.268 73.4121 311.769 73.4121Z" fill="#B5BFFF"/>
<path d="M307.82 76.4598C307.82 76.0981 308.113 75.8047 308.473 75.8047C308.834 75.8047 309.126 76.0981 309.126 76.4598C309.126 76.8217 308.834 77.1149 308.473 77.1149C308.113 77.1149 307.82 76.8217 307.82 76.4598Z" fill="white"/>
<path d="M273.584 34.6932C272.993 34.6932 272.434 34.8147 271.939 35.0298C272.234 34.4502 272.397 33.8095 272.397 33.1362C272.397 30.5303 269.951 28.418 266.934 28.418C263.917 28.418 261.471 30.5306 261.471 33.1362C261.471 33.1967 261.473 33.257 261.475 33.317C261.151 33.2005 260.794 33.1362 260.421 33.1362C259.213 33.1362 258.186 33.8085 257.816 34.7433C257.604 34.7104 257.387 34.6932 257.164 34.6932C255.143 34.6932 253.504 36.1087 253.504 37.8545C253.504 39.6003 255.143 41.0157 257.164 41.0157C258.348 41.0157 259.4 40.5305 260.069 39.778C260.736 40.5485 261.801 41.0474 263.001 41.0474C263.975 41.0474 264.861 40.7186 265.516 40.1825C266.172 40.7186 267.057 41.0474 268.032 41.0474C269.151 41.0474 270.152 40.6135 270.823 39.9303C271.495 40.5956 272.482 41.016 273.584 41.016C275.605 41.016 277.244 39.6005 277.244 37.8547C277.244 36.1087 275.606 34.6932 273.584 34.6932Z" fill="#EAE8FF"/>
<path d="M39.3614 80.2147C38.7697 80.2147 38.2111 80.3362 37.7165 80.5513C38.0108 79.9717 38.1743 79.3313 38.1743 78.6577C38.1743 76.0518 35.7284 73.9395 32.7114 73.9395C29.6943 73.9395 27.2485 76.052 27.2485 78.6577C27.2485 78.7182 27.2497 78.7784 27.2525 78.8384C26.9277 78.722 26.5716 78.6577 26.1981 78.6577C24.99 78.6577 23.9638 79.33 23.5934 80.2648C23.3818 80.2319 23.1639 80.2147 22.9414 80.2147C20.92 80.2147 19.2812 81.6302 19.2812 83.376C19.2812 85.1218 20.92 86.5372 22.9414 86.5372C24.125 86.5372 25.1769 86.052 25.846 85.2992C26.5136 86.0697 27.5786 86.5686 28.7786 86.5686C29.7528 86.5686 30.638 86.2398 31.2938 85.7037C31.9497 86.2398 32.8347 86.5686 33.8089 86.5686C34.928 86.5686 35.9294 86.1348 36.6008 85.4516C37.2719 86.1168 38.2598 86.5372 39.3614 86.5372C41.3827 86.5372 43.0215 85.1218 43.0215 83.376C43.0215 81.6302 41.3827 80.2147 39.3614 80.2147Z" fill="#EAE8FF"/>
<path d="M334.522 61.8475C333.93 61.8475 333.371 61.969 332.877 62.1841C333.171 61.6045 333.335 60.9641 333.335 60.2905C333.335 57.6846 330.889 55.5723 327.872 55.5723C324.855 55.5723 322.409 57.6848 322.409 60.2905C322.409 60.351 322.41 60.4113 322.413 60.4715C322.088 60.3551 321.732 60.2905 321.358 60.2905C320.15 60.2905 319.124 60.9628 318.753 61.8976C318.542 61.8647 318.324 61.8475 318.102 61.8475C316.08 61.8475 314.441 63.263 314.441 65.0088C314.441 66.7546 316.08 68.17 318.102 68.17C319.285 68.17 320.337 67.6848 321.006 66.932C321.674 67.7025 322.739 68.2014 323.939 68.2014C324.913 68.2014 325.798 67.8726 326.454 67.3365C327.11 67.8726 327.995 68.2014 328.969 68.2014C330.088 68.2014 331.09 67.7676 331.761 67.0844C332.432 67.7496 333.42 68.17 334.522 68.17C336.543 68.17 338.182 66.7546 338.182 65.0088C338.182 63.2627 336.543 61.8475 334.522 61.8475Z" fill="#EAE8FF"/>
<path d="M216.168 55.0252C215.576 55.0252 215.018 55.1467 214.523 55.3619C214.817 54.7822 214.981 54.1418 214.981 53.4683C214.981 50.8623 212.535 48.75 209.518 48.75C206.501 48.75 204.055 50.8626 204.055 53.4683C204.055 53.5287 204.056 53.589 204.059 53.6492C203.734 53.5328 203.378 53.4683 203.005 53.4683C201.797 53.4683 200.77 54.1405 200.4 55.0753C200.188 55.0424 199.971 55.0252 199.748 55.0252C197.727 55.0252 196.088 56.4407 196.088 58.1865C196.088 59.9323 197.727 61.3478 199.748 61.3478C200.932 61.3478 201.984 60.8625 202.653 60.1097C203.32 60.8803 204.385 61.3792 205.585 61.3792C206.559 61.3792 207.445 61.0504 208.1 60.5142C208.756 61.0504 209.641 61.3792 210.616 61.3792C211.735 61.3792 212.736 60.9453 213.407 60.2621C214.079 60.9273 215.066 61.3478 216.168 61.3478C218.19 61.3478 219.828 59.9323 219.828 58.1865C219.828 56.4404 218.189 55.0252 216.168 55.0252Z" fill="#EAE8FF"/>
<path d="M102.783 33.6619C102.192 33.6619 101.633 33.7834 101.138 33.9986C101.433 33.4189 101.596 32.7783 101.596 32.105C101.596 29.499 99.1503 27.3867 96.1332 27.3867C93.1162 27.3867 90.6704 29.4993 90.6704 32.105C90.6704 32.1655 90.6716 32.2257 90.6744 32.2857C90.3496 32.1693 89.9935 32.105 89.6199 32.105C88.4119 32.105 87.3857 32.7773 87.0152 33.7121C86.8036 33.6792 86.5857 33.6619 86.3633 33.6619C84.3419 33.6619 82.7031 35.0774 82.7031 36.8232C82.7031 38.569 84.3419 39.9845 86.3633 39.9845C87.5469 39.9845 88.5988 39.4993 89.2679 38.7465C89.9354 39.517 91.0005 40.0159 92.2004 40.0159C93.1747 40.0159 94.0599 39.6871 94.7156 39.151C95.3713 39.6871 96.2566 40.0159 97.2308 40.0159C98.3498 40.0159 99.3513 39.582 100.023 38.8988C100.694 39.5641 101.682 39.9845 102.783 39.9845C104.805 39.9845 106.444 38.569 106.444 36.8232C106.443 35.0774 104.805 33.6619 102.783 33.6619Z" fill="#EAE8FF"/>
<path d="M22.9179 205.226H21.3613L25.6159 183.92H27.1725L22.9179 205.226Z" fill="#95A3CC"/>
<path d="M44.0261 205.226H45.5827L41.3281 183.92H39.7715L44.0261 205.226Z" fill="#95A3CC"/>
<path d="M45.392 185.9V188.073C45.392 188.311 45.1996 188.504 44.962 188.504H21.4515C21.3791 188.504 21.3105 188.486 21.2507 188.454C21.1143 188.382 21.0215 188.238 21.0215 188.073V185.9C21.0215 185.662 21.2139 185.469 21.4515 185.469H44.9623C45.1996 185.469 45.392 185.662 45.392 185.9Z" fill="#FF6EE0"/>
<path d="M23.2613 185.655L21.4384 188.275C21.3042 188.212 21.2129 188.085 21.2129 187.94V186.827L22.031 185.654H23.2613V185.655Z" fill="white"/>
<path d="M26.3667 185.654L24.5251 188.319H23.2734L25.1195 185.654H26.3667Z" fill="white"/>
<path d="M29.5138 185.654L27.6846 188.319H26.416L28.2505 185.654H29.5138Z" fill="white"/>
<path d="M32.7022 185.654L30.8848 188.319H29.5996L31.4212 185.654H32.7022Z" fill="white"/>
<path d="M35.934 185.654L34.129 188.319H32.8262L34.636 185.654H35.934Z" fill="white"/>
<path d="M39.2077 185.654L37.4145 188.319H36.0938L37.8917 185.654H39.2077Z" fill="white"/>
<path d="M42.5274 185.654L40.7466 188.319H39.4082L41.194 185.654H42.5274Z" fill="white"/>
<path d="M45.2 186.033V186.334L43.8193 188.319H42.584L44.4422 185.654H44.7766C45.0106 185.655 45.2 185.824 45.2 186.033Z" fill="white"/>
<path d="M45.392 190.492V192.664C45.392 192.903 45.1996 193.096 44.962 193.096H21.4515C21.3791 193.096 21.3105 193.078 21.2507 193.046C21.1143 192.974 21.0215 192.83 21.0215 192.664V190.492C21.0215 190.254 21.2139 190.061 21.4515 190.061H44.9623C45.1996 190.061 45.392 190.254 45.392 190.492Z" fill="#FF6EE0"/>
<path d="M23.2613 190.246L21.4384 192.867C21.3042 192.804 21.2129 192.677 21.2129 192.532V191.419L22.031 190.246H23.2613V190.246Z" fill="white"/>
<path d="M26.3667 190.246L24.5251 192.91H23.2734L25.1195 190.246H26.3667Z" fill="white"/>
<path d="M29.5138 190.246L27.6846 192.91H26.416L28.2505 190.246H29.5138Z" fill="white"/>
<path d="M32.7022 190.246L30.8848 192.91H29.5996L31.4212 190.246H32.7022Z" fill="white"/>
<path d="M35.934 190.246L34.129 192.91H32.8262L34.636 190.246H35.934Z" fill="white"/>
<path d="M39.2077 190.246L37.4145 192.91H36.0938L37.8917 190.246H39.2077Z" fill="white"/>
<path d="M42.5274 190.246L40.7466 192.91H39.4082L41.194 190.246H42.5274Z" fill="white"/>
<path d="M45.2 190.625V190.926L43.8193 192.91H42.584L44.4422 190.246H44.7766C45.0106 190.246 45.2 190.415 45.2 190.625Z" fill="white"/>
<path d="M45.392 195.086V197.258C45.392 197.497 45.1996 197.69 44.962 197.69H21.4515C21.3791 197.69 21.3105 197.672 21.2507 197.64C21.1143 197.568 21.0215 197.424 21.0215 197.258V195.086C21.0215 194.847 21.2139 194.654 21.4515 194.654H44.9623C45.1996 194.654 45.392 194.847 45.392 195.086Z" fill="#FF6EE0"/>
<path d="M23.2613 194.838L21.4384 197.459C21.3042 197.395 21.2129 197.269 21.2129 197.124V196.01L22.031 194.838H23.2613V194.838Z" fill="white"/>
<path d="M26.3667 194.838L24.5251 197.503H23.2734L25.1195 194.838H26.3667Z" fill="white"/>
<path d="M29.5138 194.838L27.6846 197.503H26.416L28.2505 194.838H29.5138Z" fill="white"/>
<path d="M32.7022 194.838L30.8848 197.503H29.5996L31.4212 194.838H32.7022Z" fill="white"/>
<path d="M35.934 194.838L34.129 197.503H32.8262L34.636 194.838H35.934Z" fill="white"/>
<path d="M39.2077 194.838L37.4145 197.503H36.0938L37.8917 194.838H39.2077Z" fill="white"/>
<path d="M42.5274 194.838L40.7466 197.503H39.4082L41.194 194.838H42.5274Z" fill="white"/>
<path d="M45.2 195.217V195.518L43.8193 197.502H42.584L44.4422 194.838H44.7766C45.0106 194.838 45.2 195.007 45.2 195.217Z" fill="white"/>
<path d="M24.6113 182.427C24.6113 181.387 25.4519 180.543 26.489 180.543C27.526 180.543 28.3666 181.387 28.3666 182.427C28.3666 183.468 27.526 184.312 26.489 184.312C25.4522 184.312 24.6113 183.468 24.6113 182.427Z" fill="#FF6EE0"/>
<path d="M25.2246 182.427C25.2246 181.725 25.7916 181.156 26.4907 181.156C27.19 181.156 27.7567 181.725 27.7567 182.427C27.7567 183.129 27.1897 183.698 26.4907 183.698C25.7916 183.698 25.2246 183.129 25.2246 182.427Z" fill="#FAE396"/>
<path d="M38.3008 182.427C38.3008 181.387 39.1416 180.543 40.1784 180.543C41.2154 180.543 42.056 181.387 42.056 182.427C42.056 183.468 41.2154 184.312 40.1784 184.312C39.1416 184.312 38.3008 183.468 38.3008 182.427Z" fill="#FF6EE0"/>
<path d="M38.9121 182.427C38.9121 181.725 39.4791 181.156 40.1782 181.156C40.8772 181.156 41.4442 181.725 41.4442 182.427C41.4442 183.129 40.8772 183.698 40.1782 183.698C39.4791 183.698 38.9121 183.129 38.9121 182.427Z" fill="#FAE396"/>
<path d="M43.5439 200.203H22.7109V200.977H43.5439V200.203Z" fill="#95A3CC"/>
<path d="M43.5439 202.059H22.7109V202.832H43.5439V202.059Z" fill="#95A3CC"/>
<path d="M23.9908 205.227H20.3984V205.863H23.9908V205.227Z" fill="#95A3CC"/>
<path d="M46.606 205.227H43.0137V205.863H46.606V205.227Z" fill="#95A3CC"/>
<path d="M262.683 205.437H261.127L265.381 184.131H266.938L262.683 205.437Z" fill="#95A3CC"/>
<path d="M283.792 205.437H285.348L281.094 184.131H279.537L283.792 205.437Z" fill="#95A3CC"/>
<path d="M285.158 186.109V188.282C285.158 188.52 284.965 188.713 284.728 188.713H261.217C261.145 188.713 261.076 188.695 261.016 188.663C260.88 188.591 260.787 188.447 260.787 188.282V186.109C260.787 185.871 260.98 185.678 261.217 185.678H284.728C284.965 185.678 285.158 185.871 285.158 186.109Z" fill="#FF6EE0"/>
<path d="M263.027 185.863L261.204 188.484C261.07 188.421 260.979 188.294 260.979 188.149V187.036L261.797 185.863H263.027Z" fill="white"/>
<path d="M266.132 185.863L264.291 188.528H263.039L264.885 185.863H266.132Z" fill="white"/>
<path d="M269.279 185.863L267.45 188.528H266.182L268.016 185.863H269.279Z" fill="white"/>
<path d="M272.468 185.863L270.65 188.528H269.365L271.187 185.863H272.468Z" fill="white"/>
<path d="M275.698 185.863L273.893 188.528H272.59L274.4 185.863H275.698Z" fill="white"/>
<path d="M278.973 185.863L277.18 188.528H275.859L277.657 185.863H278.973Z" fill="white"/>
<path d="M282.293 185.863L280.512 188.528H279.174L280.96 185.863H282.293Z" fill="white"/>
<path d="M284.964 186.242V186.543L283.583 188.528H282.348L284.206 185.863H284.541C284.774 185.863 284.964 186.033 284.964 186.242Z" fill="white"/>
<path d="M285.158 190.703V192.875C285.158 193.114 284.965 193.307 284.728 193.307H261.217C261.145 193.307 261.076 193.289 261.016 193.257C260.88 193.185 260.787 193.041 260.787 192.875V190.703C260.787 190.465 260.98 190.271 261.217 190.271H284.728C284.965 190.271 285.158 190.465 285.158 190.703Z" fill="#FF6EE0"/>
<path d="M263.027 190.457L261.204 193.077C261.07 193.014 260.979 192.888 260.979 192.743V191.63L261.797 190.457H263.027Z" fill="white"/>
<path d="M266.132 190.457L264.291 193.122H263.039L264.885 190.457H266.132Z" fill="white"/>
<path d="M269.279 190.457L267.45 193.122H266.182L268.016 190.457H269.279Z" fill="white"/>
<path d="M272.468 190.457L270.65 193.122H269.365L271.187 190.457H272.468Z" fill="white"/>
<path d="M275.698 190.457L273.893 193.122H272.59L274.4 190.457H275.698Z" fill="white"/>
<path d="M278.973 190.457L277.18 193.122H275.859L277.657 190.457H278.973Z" fill="white"/>
<path d="M282.293 190.457L280.512 193.122H279.174L280.96 190.457H282.293Z" fill="white"/>
<path d="M284.964 190.836V191.137L283.583 193.121H282.348L284.206 190.457H284.541C284.774 190.457 284.964 190.627 284.964 190.836Z" fill="white"/>
<path d="M285.158 195.295V197.467C285.158 197.706 284.965 197.899 284.728 197.899H261.217C261.145 197.899 261.076 197.881 261.016 197.849C260.88 197.777 260.787 197.633 260.787 197.467V195.295C260.787 195.056 260.98 194.863 261.217 194.863H284.728C284.965 194.863 285.158 195.056 285.158 195.295Z" fill="#FF6EE0"/>
<path d="M263.027 195.049L261.204 197.669C261.07 197.606 260.979 197.48 260.979 197.335V196.221L261.797 195.049H263.027V195.049Z" fill="white"/>
<path d="M266.132 195.049L264.291 197.713H263.039L264.885 195.049H266.132Z" fill="white"/>
<path d="M269.279 195.049L267.45 197.713H266.182L268.016 195.049H269.279Z" fill="white"/>
<path d="M272.468 195.049L270.65 197.713H269.365L271.187 195.049H272.468Z" fill="white"/>
<path d="M275.698 195.049L273.893 197.713H272.59L274.4 195.049H275.698Z" fill="white"/>
<path d="M278.973 195.049L277.18 197.713H275.859L277.657 195.049H278.973Z" fill="white"/>
<path d="M282.293 195.049L280.512 197.713H279.174L280.96 195.049H282.293Z" fill="white"/>
<path d="M284.964 195.428V195.729L283.583 197.713H282.348L284.206 195.049H284.541C284.774 195.049 284.964 195.218 284.964 195.428Z" fill="white"/>
<path d="M264.377 182.638C264.377 181.598 265.218 180.754 266.255 180.754C267.292 180.754 268.132 181.598 268.132 182.638C268.132 183.679 267.292 184.523 266.255 184.523C265.218 184.523 264.377 183.679 264.377 182.638Z" fill="#FF6EE0"/>
<path d="M266.254 183.909C266.954 183.909 267.52 183.34 267.52 182.638C267.52 181.936 266.954 181.367 266.254 181.367C265.555 181.367 264.988 181.936 264.988 182.638C264.988 183.34 265.555 183.909 266.254 183.909Z" fill="#FAE396"/>
<path d="M278.066 182.638C278.066 181.598 278.907 180.754 279.944 180.754C280.981 180.754 281.822 181.598 281.822 182.638C281.822 183.679 280.981 184.523 279.944 184.523C278.907 184.523 278.066 183.679 278.066 182.638Z" fill="#FF6EE0"/>
<path d="M278.678 182.638C278.678 181.936 279.245 181.367 279.944 181.367C280.643 181.367 281.21 181.936 281.21 182.638C281.21 183.34 280.643 183.909 279.944 183.909C279.244 183.909 278.678 183.34 278.678 182.638Z" fill="#FAE396"/>
<path d="M283.309 200.414H262.477V201.188H283.309V200.414Z" fill="#95A3CC"/>
<path d="M283.309 202.268H262.477V203.041H283.309V202.268Z" fill="#95A3CC"/>
<path d="M263.756 205.438H260.164V206.074H263.756V205.438Z" fill="#95A3CC"/>
<path d="M286.372 205.438H282.779V206.074H286.372V205.438Z" fill="#95A3CC"/>
<path d="M61.3445 205.139H53.0605L53.2585 204.569L53.3652 204.262L53.7251 203.228L53.9359 202.62L54.2958 201.586L54.6595 200.539L54.7826 200.185L55.7906 197.284L55.9878 196.717L56.2748 195.892C56.5815 195.01 57.8223 195.01 58.129 195.892L58.416 196.717L58.6132 197.284L59.6213 200.185L59.7443 200.539L60.108 201.586L60.4679 202.62L60.6792 203.228L61.0389 204.262L61.1458 204.569L61.3445 205.139Z" fill="#FF6EE0"/>
<path d="M60.1638 204.263H53.3652L53.7254 203.229H59.8044L60.1638 204.263Z" fill="white"/>
<path d="M59.5924 202.62H53.9355L54.2954 201.586H59.2322L59.5924 202.62Z" fill="white"/>
<path d="M58.7463 200.185H54.7832L55.7912 197.285H57.7382L58.7463 200.185Z" fill="white"/>
<path d="M60.4682 202.62H59.5926L59.2324 201.586H60.1083L60.4682 202.62Z" fill="#F0F0F0"/>
<path d="M59.622 200.185H58.7463L57.7383 197.285H58.6139L59.622 200.185Z" fill="#F0F0F0"/>
<path d="M58.4158 196.719L58.613 197.286H57.7372L57.5399 196.719L57.2529 195.893C57.1591 195.624 56.978 195.438 56.7637 195.333C57.2522 195.094 57.9155 195.281 58.1286 195.893L58.4158 196.719Z" fill="#EB57CB"/>
<path d="M60.1087 201.586H59.2328L58.8692 200.54L58.7461 200.186H59.6217L59.7451 200.54L60.1087 201.586Z" fill="#EB57CB"/>
<path d="M61.04 204.263H60.1641L59.8047 203.229H60.6803L61.04 204.263Z" fill="#F0F0F0"/>
<path d="M60.6788 203.229H59.8031L59.5918 202.621H60.4674L60.6788 203.229Z" fill="#EB57CB"/>
<path d="M61.3449 205.14H60.469L60.1641 204.264H61.04L61.3449 205.14Z" fill="#EB57CB"/>
<path d="M61.3445 205.14H53.0605L53.2585 204.57H61.1466L61.3445 205.14Z" fill="#EB57CB"/>
<path d="M61.7247 205.948H52.6795C52.273 205.948 51.9434 205.707 51.9434 205.41C51.9434 205.112 52.273 204.871 52.6795 204.871H61.7247C62.1312 204.871 62.4608 205.112 62.4608 205.41C62.4608 205.707 62.1312 205.948 61.7247 205.948Z" fill="#FF6EE0"/>
<path d="M62.2996 205.074C62.3006 205.086 62.3019 205.097 62.3019 205.109C62.3019 205.406 61.9723 205.648 61.5657 205.648H52.5206C52.2875 205.648 52.0802 205.568 51.9453 205.445C51.9698 205.726 52.2886 205.949 52.6792 205.949H61.7243C62.1309 205.949 62.4605 205.707 62.4605 205.41C62.4608 205.283 62.4002 205.166 62.2996 205.074Z" fill="#EB57CB"/>
<path d="M180.673 208.246H172.389L172.587 207.677L172.693 207.37L173.053 206.335L173.264 205.727L173.624 204.693L173.988 203.646L174.111 203.292L175.119 200.392L175.316 199.825L175.603 198.999C175.91 198.117 177.15 198.117 177.457 198.999L177.744 199.825L177.941 200.392L178.949 203.292L179.072 203.646L179.436 204.693L179.796 205.727L180.007 206.335L180.367 207.37L180.474 207.677L180.673 208.246Z" fill="#FF6EE0"/>
<path d="M179.492 207.368H172.693L173.053 206.334H179.132L179.492 207.368Z" fill="white"/>
<path d="M178.92 205.726H173.264L173.624 204.691H178.56L178.92 205.726Z" fill="white"/>
<path d="M178.074 203.291H174.111L175.119 200.391H177.066L178.074 203.291Z" fill="white"/>
<path d="M179.796 205.726H178.92L178.561 204.691H179.436L179.796 205.726Z" fill="#F0F0F0"/>
<path d="M178.95 203.291H178.074L177.066 200.391H177.942L178.95 203.291Z" fill="#F0F0F0"/>
<path d="M177.744 199.824L177.941 200.391H177.065L176.868 199.824L176.581 198.999C176.487 198.729 176.306 198.543 176.092 198.438C176.58 198.2 177.244 198.386 177.457 198.999L177.744 199.824Z" fill="#EB57CB"/>
<path d="M179.437 204.692H178.561L178.198 203.645L178.074 203.291H178.95L179.073 203.645L179.437 204.692Z" fill="#EB57CB"/>
<path d="M180.366 207.368H179.491L179.131 206.334H180.007L180.366 207.368Z" fill="#F0F0F0"/>
<path d="M180.007 206.335H179.131L178.92 205.727H179.796L180.007 206.335Z" fill="#EB57CB"/>
<path d="M180.673 208.246H179.797L179.492 207.369H180.368L180.673 208.246Z" fill="#EB57CB"/>
<path d="M180.673 208.246H172.389L172.587 207.676H180.475L180.673 208.246Z" fill="#EB57CB"/>
<path d="M181.053 209.054H172.008C171.601 209.054 171.271 208.813 171.271 208.515C171.271 208.218 171.601 207.977 172.008 207.977H181.053C181.459 207.977 181.789 208.218 181.789 208.515C181.789 208.813 181.459 209.054 181.053 209.054Z" fill="#FF6EE0"/>
<path d="M181.628 208.18C181.629 208.191 181.63 208.203 181.63 208.214C181.63 208.512 181.3 208.753 180.894 208.753H171.849C171.616 208.753 171.408 208.674 171.273 208.55C171.298 208.831 171.617 209.054 172.007 209.054H181.052C181.459 209.054 181.789 208.813 181.789 208.515C181.789 208.389 181.728 208.272 181.628 208.18Z" fill="#EB57CB"/>
<path d="M311.341 200.592H303.057L303.255 200.022L303.361 199.715L303.721 198.681L303.932 198.073L304.292 197.039L304.656 195.992L304.779 195.638L305.787 192.738L305.984 192.17L306.271 191.345C306.578 190.463 307.818 190.463 308.125 191.345L308.412 192.17L308.609 192.738L309.617 195.638L309.74 195.992L310.104 197.039L310.464 198.073L310.675 198.681L311.035 199.715L311.142 200.022L311.341 200.592Z" fill="#FF6EE0"/>
<path d="M310.16 199.716H303.361L303.721 198.682H309.8L310.16 199.716Z" fill="white"/>
<path d="M309.59 198.073H303.934L304.293 197.039H309.23L309.59 198.073Z" fill="white"/>
<path d="M308.742 195.638H304.779L305.787 192.738H307.734L308.742 195.638Z" fill="white"/>
<path d="M310.466 198.073H309.59L309.23 197.039H310.106L310.466 198.073Z" fill="#F0F0F0"/>
<path d="M309.618 195.638H308.742L307.734 192.738H308.61L309.618 195.638Z" fill="#F0F0F0"/>
<path d="M308.414 192.17L308.611 192.737H307.735L307.538 192.17L307.251 191.344C307.157 191.075 306.976 190.889 306.762 190.784C307.25 190.545 307.914 190.732 308.127 191.344L308.414 192.17Z" fill="#EB57CB"/>
<path d="M310.105 197.039H309.229L308.866 195.993L308.742 195.639H309.618L309.741 195.993L310.105 197.039Z" fill="#EB57CB"/>
<path d="M311.036 199.716H310.16L309.801 198.682H310.677L311.036 199.716Z" fill="#F0F0F0"/>
<path d="M310.677 198.681H309.801L309.59 198.072H310.466L310.677 198.681Z" fill="#EB57CB"/>
<path d="M311.341 200.591H310.465L310.16 199.715H311.036L311.341 200.591Z" fill="#EB57CB"/>
<path d="M311.341 200.591H303.057L303.255 200.021H311.143L311.341 200.591Z" fill="#EB57CB"/>
<path d="M311.723 201.402H302.678C302.271 201.402 301.941 201.16 301.941 200.863C301.941 200.565 302.271 200.324 302.678 200.324H311.723C312.129 200.324 312.459 200.565 312.459 200.863C312.459 201.16 312.129 201.402 311.723 201.402Z" fill="#FF6EE0"/>
<path d="M312.297 200.527C312.298 200.539 312.3 200.55 312.3 200.562C312.3 200.86 311.97 201.101 311.564 201.101H302.519C302.286 201.101 302.078 201.021 301.943 200.898C301.968 201.179 302.287 201.402 302.677 201.402H311.722C312.129 201.402 312.459 201.16 312.459 200.863C312.458 200.736 312.398 200.619 312.297 200.527Z" fill="#EB57CB"/>
<path d="M331.941 133.975C331.941 133.975 330.639 133.023 331.494 131.622C332.35 130.221 334.248 130.613 334.605 131.348C335.309 131.23 335.859 131.704 336.165 132.145C336.407 132.493 336.696 133.191 336.342 134.554C335.989 135.917 337.93 136.696 338.194 137.617C338.363 138.209 338.101 138.85 336.901 138.99C335.7 139.13 332.49 137.822 332.49 137.822C332.109 137.822 330.689 136.402 331.941 133.975Z" fill="#45359E"/>
<path d="M322.704 165.663C323.263 162.818 323.568 160.492 323.491 158.443C323.436 156.94 323.287 155.56 323.167 154.173L331.851 149.184L334.611 147.598H329.323C329.323 147.598 321.78 150.052 320.501 152.192C319.64 153.632 319.818 156.877 320.222 159.82C320.649 162.907 321.326 165.663 321.326 165.663H322.704V165.663Z" fill="#E3C0C1"/>
<path d="M322.727 165.6L323.172 167.062L322.893 169.333L322.445 169.355L322.036 167.366L321.313 168.686C321.118 169.042 320.825 169.333 320.425 169.385C319.367 169.522 317.301 169.558 317.216 168.862C317.128 168.146 319.13 168.115 319.715 167.329C320.282 166.567 320.963 165.57 320.963 165.57L322.727 165.6Z" fill="#3C2E8F"/>
<path d="M320.222 159.821L322.021 160.117L323.491 158.443L329.983 151.054L331.851 149.184L333.434 147.598H329.323C329.323 147.598 321.78 150.052 320.501 152.192C319.64 153.633 319.818 156.877 320.222 159.821Z" fill="#3C2E8F"/>
<path d="M321.145 165.749C322.725 164.39 323.775 162.666 324.595 160.705C325.127 159.434 325.541 158.069 325.887 156.652C325.887 156.652 333.934 155.97 336.052 152.878C337.494 150.771 336.337 147.599 336.337 147.599C334.963 147.642 333.159 147.34 332.02 147.71C327.728 149.102 323.12 150.937 322.049 153.918C321.417 155.678 320.981 157.624 320.544 159.782C320.183 161.564 319.858 163.635 319.381 165.72L321.145 165.749Z" fill="#F7C1CE"/>
<path d="M320.545 159.779L323.229 160.391L324.596 160.703C325.128 159.432 325.542 158.068 325.888 156.65C325.888 156.65 330.627 156.248 333.787 154.667C334.746 154.186 335.561 153.597 336.052 152.877C337.372 150.948 336.516 148.126 336.361 147.663C336.346 147.62 336.338 147.597 336.338 147.597H336.328C334.953 147.638 332.997 147.207 331.861 147.577C327.569 148.969 322.915 150.875 321.844 153.856C321.21 155.616 320.981 157.622 320.545 159.779Z" fill="#45359E"/>
<path d="M331.124 142.012C330.22 143.107 328.606 144.377 327.681 145.454C327.225 145.058 326.694 144.861 326.312 144.356C327.866 141.991 329.595 139.604 331.58 137.576C331.209 139.119 331.555 140.491 331.124 142.012Z" fill="#8778FF"/>
<path d="M328.943 147.727C331.071 147.442 332.816 148.328 334.984 148.16C335.245 148.139 335.513 148.104 335.787 148.052C336.291 147.951 336.642 147.488 336.589 146.974L335.875 139.975L335.245 137.823L335.099 137.329L333.972 136.723L332.732 136.766C330.883 137.571 329.608 139.752 330.73 142.161C331.818 144.502 328.943 147.727 328.943 147.727Z" fill="#5F4AFF"/>
<path d="M332.678 136.785C332.678 137.489 333.329 137.489 333.983 136.785L333.83 135.934L333.735 135.404L332.752 135.897L332.679 136.766L332.678 136.785Z" fill="#F7C1CE"/>
<path d="M328.379 145.328C328.943 146.19 329.288 146.035 330.045 146.081C331.03 146.024 332.087 146.176 333.083 146.098C334.285 146.004 336.052 146.393 337.03 145.592C338.008 144.791 336.769 140.837 336.48 139.947C336.096 138.766 335.667 138.251 335.101 137.316C335.355 138.222 335.608 139.086 335.862 139.976C335.703 141.353 335.569 142.738 335.427 144.115C334.456 144.246 333.726 144.333 332.7 144.508C331.795 144.662 330.559 144.874 329.616 145.133C328.785 144.679 327.815 144.467 328.379 145.328Z" fill="#F7C1CE"/>
<path d="M332.666 144.387C332.767 144.937 332.952 145.671 333.094 146.243C334.365 146.302 335.895 146.554 337.08 145.553C338.265 144.552 337.467 140.496 336.988 139.386C336.474 138.195 336.046 137.816 335.097 137.312C333.282 139.144 335.188 141.689 335.421 144.117C334.522 144.232 333.561 144.241 332.666 144.387Z" fill="#8778FF"/>
<path d="M331.92 132.199C331.92 132.199 332.418 133.259 334.091 133.652C334.091 133.652 334.613 133.08 334.838 133.437C335.064 133.795 334.518 134.426 334.518 134.426C334.455 135.464 333.711 136.287 332.94 136.093C331.186 135.65 331.92 132.199 331.92 132.199Z" fill="#F7C1CE"/>
<path d="M321.144 165.749L321.59 167.21L321.311 169.481L320.863 169.503L320.454 167.515L319.731 168.835C319.536 169.19 319.243 169.481 318.843 169.533C317.785 169.671 315.719 169.706 315.634 169.01C315.546 168.295 317.548 168.264 318.133 167.477C318.7 166.715 319.38 165.719 319.38 165.719L321.144 165.749Z" fill="#45359E"/>
<path d="M331.323 148.571L329.855 144.149C329.705 143.878 329.42 143.709 329.11 143.709H322.552C321.936 143.709 321.523 144.346 321.774 144.912L323.479 148.763C323.626 149.095 323.955 149.309 324.317 149.309H330.792C331.174 149.309 331.443 148.934 331.323 148.571Z" fill="#FC91FF"/>
<path d="M326.271 147.427C326.615 147.427 326.893 147.147 326.893 146.802C326.893 146.457 326.615 146.178 326.271 146.178C325.927 146.178 325.648 146.457 325.648 146.802C325.648 147.147 325.927 147.427 326.271 147.427Z" fill="white"/>
</svg>
